<svg xmlns="http://www.w3.org/2000/svg" xmlns:xlink="http://www.w3.org/1999/xlink" width="100" zoomAndPan="magnify" viewBox="0 0 75 74.999997" height="100" preserveAspectRatio="xMidYMid meet" version="1.0"><defs><clipPath id="db685ac42f"><path d="M 0 5.0625 L 75 5.0625 L 75 70 L 0 70 Z M 0 5.0625 " clip-rule="nonzero"/></clipPath></defs><path fill="#ff9f1c" d="M 26.78125 10.71875 L 26.78125 16.078125 L 21.425781 16.078125 L 21.425781 21.433594 L 5.355469 21.433594 L 5.355469 64.28125 L 69.628906 64.28125 L 69.628906 21.433594 L 53.558594 21.433594 L 53.558594 16.078125 L 48.203125 16.078125 L 48.203125 10.71875 Z M 26.78125 10.71875 " fill-opacity="1" fill-rule="nonzero"/><path fill="#f8fbfc" d="M 26.78125 32.144531 L 48.203125 32.144531 L 48.203125 53.570312 L 26.78125 53.570312 Z M 26.78125 32.144531 " fill-opacity="1" fill-rule="nonzero"/><g clip-path="url(#db685ac42f)"><path fill="#362f2c" d="M 26.78125 5.363281 L 26.78125 10.71875 L 48.203125 10.71875 L 48.203125 5.363281 Z M 48.203125 10.71875 L 48.203125 16.078125 L 53.558594 16.078125 L 53.558594 10.71875 Z M 53.558594 16.078125 L 53.558594 21.433594 L 69.628906 21.433594 L 69.628906 16.078125 Z M 69.628906 21.433594 L 69.628906 64.28125 L 74.984375 64.28125 L 74.984375 21.433594 Z M 69.628906 64.28125 L 5.355469 64.28125 L 5.355469 69.636719 L 69.628906 69.636719 Z M 5.355469 64.28125 L 5.355469 21.433594 L 0 21.433594 L 0 64.28125 Z M 5.355469 21.433594 L 21.425781 21.433594 L 21.425781 16.078125 L 5.355469 16.078125 Z M 21.425781 16.078125 L 26.78125 16.078125 L 26.78125 10.71875 L 21.425781 10.71875 Z M 32.136719 13.398438 L 32.136719 18.753906 L 42.847656 18.753906 L 42.847656 13.398438 Z M 8.035156 26.789062 L 8.035156 32.144531 L 18.746094 32.144531 L 18.746094 26.789062 Z M 26.78125 26.789062 L 26.78125 32.144531 L 48.203125 32.144531 L 48.203125 26.789062 Z M 48.203125 32.144531 L 48.203125 53.566406 L 53.558594 53.566406 L 53.558594 32.144531 Z M 48.203125 53.566406 L 26.78125 53.566406 L 26.78125 58.925781 L 48.203125 58.925781 Z M 26.78125 53.566406 L 26.78125 32.144531 L 21.425781 32.144531 L 21.425781 53.566406 Z M 32.136719 37.5 L 32.136719 48.210938 L 42.847656 48.210938 L 42.847656 37.5 Z M 32.136719 37.5 " fill-opacity="1" fill-rule="nonzero"/></g></svg>