<svg xmlns="http://www.w3.org/2000/svg" xmlns:xlink="http://www.w3.org/1999/xlink" width="100" zoomAndPan="magnify" viewBox="0 0 75 74.999997" height="100" preserveAspectRatio="xMidYMid meet" version="1.0"><defs><clipPath id="c636cf7bc5"><path d="M 0 5.0625 L 75 5.0625 L 75 70.3125 L 0 70.3125 Z M 0 5.0625 " clip-rule="nonzero"/></clipPath></defs><path fill="#dfaf50" d="M 26.78125 10.753906 L 26.78125 16.140625 L 21.425781 16.140625 L 21.425781 21.527344 L 5.355469 21.527344 L 5.355469 64.621094 L 69.628906 64.621094 L 69.628906 21.527344 L 53.558594 21.527344 L 53.558594 16.140625 L 48.203125 16.140625 L 48.203125 10.753906 Z M 26.78125 10.753906 " fill-opacity="1" fill-rule="nonzero"/><path fill="#f4f0e5" d="M 26.78125 32.300781 L 48.203125 32.300781 L 48.203125 53.847656 L 26.78125 53.847656 Z M 26.78125 32.300781 " fill-opacity="1" fill-rule="nonzero"/><g clip-path="url(#c636cf7bc5)"><path fill="#362f2c" d="M 26.78125 5.367188 L 26.78125 10.753906 L 48.203125 10.753906 L 48.203125 5.367188 Z M 48.203125 10.753906 L 48.203125 16.140625 L 53.558594 16.140625 L 53.558594 10.753906 Z M 53.558594 16.140625 L 53.558594 21.527344 L 69.628906 21.527344 L 69.628906 16.140625 Z M 69.628906 21.527344 L 69.628906 64.621094 L 74.984375 64.621094 L 74.984375 21.527344 Z M 69.628906 64.621094 L 5.355469 64.621094 L 5.355469 70.007812 L 69.628906 70.007812 Z M 5.355469 64.621094 L 5.355469 21.527344 L 0 21.527344 L 0 64.621094 Z M 5.355469 21.527344 L 21.425781 21.527344 L 21.425781 16.140625 L 5.355469 16.140625 Z M 21.425781 16.140625 L 26.78125 16.140625 L 26.78125 10.753906 L 21.425781 10.753906 Z M 32.136719 13.445312 L 32.136719 18.832031 L 42.847656 18.832031 L 42.847656 13.445312 Z M 8.035156 26.914062 L 8.035156 32.300781 L 18.746094 32.300781 L 18.746094 26.914062 Z M 26.78125 26.914062 L 26.78125 32.300781 L 48.203125 32.300781 L 48.203125 26.914062 Z M 48.203125 32.300781 L 48.203125 53.847656 L 53.558594 53.847656 L 53.558594 32.300781 Z M 48.203125 53.847656 L 26.78125 53.847656 L 26.78125 59.234375 L 48.203125 59.234375 Z M 26.78125 53.847656 L 26.78125 32.300781 L 21.425781 32.300781 L 21.425781 53.847656 Z M 32.136719 37.6875 L 32.136719 48.460938 L 42.847656 48.460938 L 42.847656 37.6875 Z M 32.136719 37.6875 " fill-opacity="1" fill-rule="nonzero"/></g></svg>