<svg xmlns="http://www.w3.org/2000/svg" xmlns:xlink="http://www.w3.org/1999/xlink" width="100" zoomAndPan="magnify" viewBox="0 0 75 74.999997" height="100" preserveAspectRatio="xMidYMid meet" version="1.0"><defs><clipPath id="53ba2333f4"><path d="M 5.398438 47.699219 L 69.75 47.699219 L 69.75 67.5 L 5.398438 67.5 Z M 5.398438 47.699219 " clip-rule="nonzero"/></clipPath><clipPath id="8d74e90833"><path d="M 5 5 L 70 5 L 70 59.25 L 5 59.25 Z M 5 5 " clip-rule="nonzero"/></clipPath><clipPath id="39b489a8ad"><path d="M 0 0 L 75 0 L 75 59.25 L 0 59.25 Z M 0 0 " clip-rule="nonzero"/></clipPath><clipPath id="7a0204c664"><path d="M 5 64.199219 L 70 64.199219 L 70 70 L 5 70 Z M 5 64.199219 " clip-rule="nonzero"/></clipPath><clipPath id="8426f18ab6"><path d="M 0 64.199219 L 75 64.199219 L 75 74.699219 L 0 74.699219 Z M 0 64.199219 " clip-rule="nonzero"/></clipPath><clipPath id="c2213513ec"><path d="M 5.324219 64.351562 L 69.675781 64.351562 L 69.675781 75 L 5.324219 75 Z M 5.324219 64.351562 " clip-rule="nonzero"/></clipPath><clipPath id="af57b93660"><path d="M 5 58.949219 L 70 58.949219 L 70 65 L 5 65 Z M 5 58.949219 " clip-rule="nonzero"/></clipPath><clipPath id="ead2e77825"><path d="M 0 58.949219 L 75 58.949219 L 75 69.449219 L 0 69.449219 Z M 0 58.949219 " clip-rule="nonzero"/></clipPath></defs><g clip-path="url(#53ba2333f4)"><path fill="#ff9f1c" d="M 5.398438 47.699219 L 69.75 47.699219 L 69.75 67.5 L 5.398438 67.5 Z M 5.398438 47.699219 " fill-opacity="1" fill-rule="nonzero"/></g><g clip-path="url(#8d74e90833)"><path fill="#ff9f1c" d="M 26.78125 5.65625 L 26.78125 11.015625 L 21.425781 11.015625 L 21.425781 16.371094 L 5.355469 16.371094 L 5.355469 59.21875 L 69.628906 59.21875 L 69.628906 16.371094 L 53.558594 16.371094 L 53.558594 11.015625 L 48.203125 11.015625 L 48.203125 5.65625 Z M 26.78125 5.65625 " fill-opacity="1" fill-rule="nonzero"/></g><path fill="#f8fbfc" d="M 26.78125 27.082031 L 48.203125 27.082031 L 48.203125 48.507812 L 26.78125 48.507812 Z M 26.78125 27.082031 " fill-opacity="1" fill-rule="nonzero"/><g clip-path="url(#39b489a8ad)"><path fill="#362f2c" d="M 26.78125 0.300781 L 26.78125 5.65625 L 48.203125 5.65625 L 48.203125 0.300781 Z M 48.203125 5.65625 L 48.203125 11.015625 L 53.558594 11.015625 L 53.558594 5.65625 Z M 53.558594 11.015625 L 53.558594 16.371094 L 69.628906 16.371094 L 69.628906 11.015625 Z M 69.628906 16.371094 L 69.628906 59.21875 L 74.984375 59.21875 L 74.984375 16.371094 Z M 69.628906 59.21875 L 5.355469 59.21875 L 5.355469 64.574219 L 69.628906 64.574219 Z M 5.355469 59.21875 L 5.355469 16.371094 L 0 16.371094 L 0 59.21875 Z M 5.355469 16.371094 L 21.425781 16.371094 L 21.425781 11.015625 L 5.355469 11.015625 Z M 21.425781 11.015625 L 26.78125 11.015625 L 26.78125 5.65625 L 21.425781 5.65625 Z M 32.136719 8.335938 L 32.136719 13.691406 L 42.847656 13.691406 L 42.847656 8.335938 Z M 8.035156 21.726562 L 8.035156 27.082031 L 18.746094 27.082031 L 18.746094 21.726562 Z M 26.78125 21.726562 L 26.78125 27.082031 L 48.203125 27.082031 L 48.203125 21.726562 Z M 48.203125 27.082031 L 48.203125 48.503906 L 53.558594 48.503906 L 53.558594 27.082031 Z M 48.203125 48.503906 L 26.78125 48.503906 L 26.78125 53.863281 L 48.203125 53.863281 Z M 26.78125 48.503906 L 26.78125 27.082031 L 21.425781 27.082031 L 21.425781 48.503906 Z M 32.136719 32.4375 L 32.136719 43.148438 L 42.847656 43.148438 L 42.847656 32.4375 Z M 32.136719 32.4375 " fill-opacity="1" fill-rule="nonzero"/></g><g clip-path="url(#7a0204c664)"><path fill="#ff9f1c" d="M 26.78125 15.78125 L 26.78125 21.140625 L 21.425781 21.140625 L 21.425781 26.496094 L 5.355469 26.496094 L 5.355469 69.34375 L 69.628906 69.34375 L 69.628906 26.496094 L 53.558594 26.496094 L 53.558594 21.140625 L 48.203125 21.140625 L 48.203125 15.78125 Z M 26.78125 15.78125 " fill-opacity="1" fill-rule="nonzero"/></g><g clip-path="url(#8426f18ab6)"><path fill="#362f2c" d="M 26.78125 10.425781 L 26.78125 15.78125 L 48.203125 15.78125 L 48.203125 10.425781 Z M 48.203125 15.78125 L 48.203125 21.140625 L 53.558594 21.140625 L 53.558594 15.78125 Z M 53.558594 21.140625 L 53.558594 26.496094 L 69.628906 26.496094 L 69.628906 21.140625 Z M 69.628906 26.496094 L 69.628906 69.34375 L 74.984375 69.34375 L 74.984375 26.496094 Z M 69.628906 69.34375 L 5.355469 69.34375 L 5.355469 74.699219 L 69.628906 74.699219 Z M 5.355469 69.34375 L 5.355469 26.496094 L 0 26.496094 L 0 69.34375 Z M 5.355469 26.496094 L 21.425781 26.496094 L 21.425781 21.140625 L 5.355469 21.140625 Z M 21.425781 21.140625 L 26.78125 21.140625 L 26.78125 15.78125 L 21.425781 15.78125 Z M 32.136719 18.460938 L 32.136719 23.816406 L 42.847656 23.816406 L 42.847656 18.460938 Z M 8.035156 31.851562 L 8.035156 37.207031 L 18.746094 37.207031 L 18.746094 31.851562 Z M 26.78125 31.851562 L 26.78125 37.207031 L 48.203125 37.207031 L 48.203125 31.851562 Z M 48.203125 37.207031 L 48.203125 58.628906 L 53.558594 58.628906 L 53.558594 37.207031 Z M 48.203125 58.628906 L 26.78125 58.628906 L 26.78125 63.988281 L 48.203125 63.988281 Z M 26.78125 58.628906 L 26.78125 37.207031 L 21.425781 37.207031 L 21.425781 58.628906 Z M 32.136719 42.5625 L 32.136719 53.273438 L 42.847656 53.273438 L 42.847656 42.5625 Z M 32.136719 42.5625 " fill-opacity="1" fill-rule="nonzero"/></g><g clip-path="url(#c2213513ec)"><path fill="#362f2c" d="M 5.324219 64.351562 L 69.691406 64.351562 L 69.691406 79.648438 L 5.324219 79.648438 Z M 5.324219 64.351562 " fill-opacity="1" fill-rule="nonzero"/></g><g clip-path="url(#af57b93660)"><path fill="#ff9f1c" d="M 26.78125 10.53125 L 26.78125 15.890625 L 21.425781 15.890625 L 21.425781 21.246094 L 5.355469 21.246094 L 5.355469 64.09375 L 69.628906 64.09375 L 69.628906 21.246094 L 53.558594 21.246094 L 53.558594 15.890625 L 48.203125 15.890625 L 48.203125 10.53125 Z M 26.78125 10.53125 " fill-opacity="1" fill-rule="nonzero"/></g><g clip-path="url(#ead2e77825)"><path fill="#362f2c" d="M 26.78125 5.175781 L 26.78125 10.53125 L 48.203125 10.53125 L 48.203125 5.175781 Z M 48.203125 10.53125 L 48.203125 15.890625 L 53.558594 15.890625 L 53.558594 10.53125 Z M 53.558594 15.890625 L 53.558594 21.246094 L 69.628906 21.246094 L 69.628906 15.890625 Z M 69.628906 21.246094 L 69.628906 64.09375 L 74.984375 64.09375 L 74.984375 21.246094 Z M 69.628906 64.09375 L 5.355469 64.09375 L 5.355469 69.449219 L 69.628906 69.449219 Z M 5.355469 64.09375 L 5.355469 21.246094 L 0 21.246094 L 0 64.09375 Z M 5.355469 21.246094 L 21.425781 21.246094 L 21.425781 15.890625 L 5.355469 15.890625 Z M 21.425781 15.890625 L 26.78125 15.890625 L 26.78125 10.53125 L 21.425781 10.53125 Z M 32.136719 13.210938 L 32.136719 18.566406 L 42.847656 18.566406 L 42.847656 13.210938 Z M 8.035156 26.601562 L 8.035156 31.957031 L 18.746094 31.957031 L 18.746094 26.601562 Z M 26.78125 26.601562 L 26.78125 31.957031 L 48.203125 31.957031 L 48.203125 26.601562 Z M 48.203125 31.957031 L 48.203125 53.378906 L 53.558594 53.378906 L 53.558594 31.957031 Z M 48.203125 53.378906 L 26.78125 53.378906 L 26.78125 58.738281 L 48.203125 58.738281 Z M 26.78125 53.378906 L 26.78125 31.957031 L 21.425781 31.957031 L 21.425781 53.378906 Z M 32.136719 37.3125 L 32.136719 48.023438 L 42.847656 48.023438 L 42.847656 37.3125 Z M 32.136719 37.3125 " fill-opacity="1" fill-rule="nonzero"/></g></svg>