<svg xmlns="http://www.w3.org/2000/svg" xmlns:xlink="http://www.w3.org/1999/xlink" width="100" zoomAndPan="magnify" viewBox="0 0 75 74.999997" height="100" preserveAspectRatio="xMidYMid meet" version="1.0"><defs><clipPath id="1d1cdc3e5b"><path d="M 8 17 L 36 17 L 36 44 L 8 44 Z M 8 17 " clip-rule="nonzero"/></clipPath><clipPath id="9ef416dda9"><path d="M 19.585938 43.777344 L 8.996094 27.613281 L 25.15625 17.023438 L 35.746094 33.183594 Z M 19.585938 43.777344 " clip-rule="nonzero"/></clipPath><clipPath id="e4af254884"><path d="M -2.226562 81.347656 L -23.40625 49.019531 L 25.082031 17.25 L 46.261719 49.578125 Z M -2.226562 81.347656 " clip-rule="nonzero"/></clipPath><clipPath id="7226e211ff"><path d="M 8 27 L 21 27 L 21 44 L 8 44 Z M 8 27 " clip-rule="nonzero"/></clipPath><clipPath id="a6dac24e10"><path d="M 19.585938 43.777344 L 8.996094 27.613281 L 25.15625 17.023438 L 35.746094 33.183594 Z M 19.585938 43.777344 " clip-rule="nonzero"/></clipPath><clipPath id="d99a80978c"><path d="M -2.226562 81.347656 L -23.40625 49.019531 L 25.082031 17.25 L 46.261719 49.578125 Z M -2.226562 81.347656 " clip-rule="nonzero"/></clipPath><clipPath id="9e60775c31"><path d="M 8 17 L 26 17 L 26 29 L 8 29 Z M 8 17 " clip-rule="nonzero"/></clipPath><clipPath id="c26453fbd6"><path d="M 19.585938 43.777344 L 8.996094 27.613281 L 25.15625 17.023438 L 35.746094 33.183594 Z M 19.585938 43.777344 " clip-rule="nonzero"/></clipPath><clipPath id="56454a2faf"><path d="M -2.226562 81.347656 L -23.40625 49.019531 L 25.082031 17.25 L 46.261719 49.578125 Z M -2.226562 81.347656 " clip-rule="nonzero"/></clipPath><clipPath id="e78d742484"><path d="M 23 17 L 36 17 L 36 34 L 23 34 Z M 23 17 " clip-rule="nonzero"/></clipPath><clipPath id="3c89619464"><path d="M 19.585938 43.777344 L 8.996094 27.613281 L 25.15625 17.023438 L 35.746094 33.183594 Z M 19.585938 43.777344 " clip-rule="nonzero"/></clipPath><clipPath id="66ccaf61a1"><path d="M -2.226562 81.347656 L -23.40625 49.019531 L 25.082031 17.25 L 46.261719 49.578125 Z M -2.226562 81.347656 " clip-rule="nonzero"/></clipPath><clipPath id="24d3e63465"><path d="M 19 32 L 36 32 L 36 44 L 19 44 Z M 19 32 " clip-rule="nonzero"/></clipPath><clipPath id="f21fbb3186"><path d="M 19.585938 43.777344 L 8.996094 27.613281 L 25.15625 17.023438 L 35.746094 33.183594 Z M 19.585938 43.777344 " clip-rule="nonzero"/></clipPath><clipPath id="81045a2358"><path d="M -2.226562 81.347656 L -23.40625 49.019531 L 25.082031 17.25 L 46.261719 49.578125 Z M -2.226562 81.347656 " clip-rule="nonzero"/></clipPath><clipPath id="3b11ed11e2"><path d="M 0 43 L 32 43 L 32 75 L 0 75 Z M 0 43 " clip-rule="nonzero"/></clipPath><clipPath id="742497cb7b"><path d="M 27.675781 74.773438 L 0.839844 70.6875 L 4.925781 43.851562 L 31.761719 47.9375 Z M 27.675781 74.773438 " clip-rule="nonzero"/></clipPath><clipPath id="45032cebbb"><path d="M 46.75 133.578125 L -7.375 125.335938 L 5.023438 43.917969 L 59.148438 52.160156 Z M 46.75 133.578125 " clip-rule="nonzero"/></clipPath><clipPath id="0407239451"><path d="M 0 66 L 28 66 L 28 75 L 0 75 Z M 0 66 " clip-rule="nonzero"/></clipPath><clipPath id="48db765e54"><path d="M 27.675781 74.773438 L 0.839844 70.6875 L 4.925781 43.851562 L 31.761719 47.9375 Z M 27.675781 74.773438 " clip-rule="nonzero"/></clipPath><clipPath id="4e5da0ad73"><path d="M 46.75 133.578125 L -7.375 125.335938 L 5.023438 43.917969 L 59.148438 52.160156 Z M 46.75 133.578125 " clip-rule="nonzero"/></clipPath><clipPath id="f280a4d121"><path d="M 0 43 L 10 43 L 10 71 L 0 71 Z M 0 43 " clip-rule="nonzero"/></clipPath><clipPath id="a0b7fd9bae"><path d="M 27.675781 74.773438 L 0.839844 70.6875 L 4.925781 43.851562 L 31.761719 47.9375 Z M 27.675781 74.773438 " clip-rule="nonzero"/></clipPath><clipPath id="f6459a859a"><path d="M 46.75 133.578125 L -7.375 125.335938 L 5.023438 43.917969 L 59.148438 52.160156 Z M 46.75 133.578125 " clip-rule="nonzero"/></clipPath><clipPath id="25d4079d61"><path d="M 4 43 L 32 43 L 32 53 L 4 53 Z M 4 43 " clip-rule="nonzero"/></clipPath><clipPath id="247a10e638"><path d="M 27.675781 74.773438 L 0.839844 70.6875 L 4.925781 43.851562 L 31.761719 47.9375 Z M 27.675781 74.773438 " clip-rule="nonzero"/></clipPath><clipPath id="e61798cc86"><path d="M 46.75 133.578125 L -7.375 125.335938 L 5.023438 43.917969 L 59.148438 52.160156 Z M 46.75 133.578125 " clip-rule="nonzero"/></clipPath><clipPath id="806b5f0d3a"><path d="M 23 47 L 32 47 L 32 75 L 23 75 Z M 23 47 " clip-rule="nonzero"/></clipPath><clipPath id="66fc6a18bf"><path d="M 27.675781 74.773438 L 0.839844 70.6875 L 4.925781 43.851562 L 31.761719 47.9375 Z M 27.675781 74.773438 " clip-rule="nonzero"/></clipPath><clipPath id="d72c20fe2a"><path d="M 46.75 133.578125 L -7.375 125.335938 L 5.023438 43.917969 L 59.148438 52.160156 Z M 46.75 133.578125 " clip-rule="nonzero"/></clipPath><clipPath id="40e9ddb71a"><path d="M 33 61 L 45 61 L 45 63 L 33 63 Z M 33 61 " clip-rule="nonzero"/></clipPath><clipPath id="75df1f7488"><path d="M 44.8125 62.46875 L 33.34375 61.621094 L 34.191406 50.152344 L 45.660156 51 Z M 44.8125 62.46875 " clip-rule="nonzero"/></clipPath><clipPath id="c0058bf5f5"><path d="M 54.929688 87.003906 L 31.527344 85.277344 L 34.136719 49.945312 L 57.539062 51.675781 Z M 54.929688 87.003906 " clip-rule="nonzero"/></clipPath><clipPath id="cba7664f92"><path d="M 33 61 L 36 61 L 36 63 L 33 63 Z M 33 61 " clip-rule="nonzero"/></clipPath><clipPath id="9570340a9f"><path d="M 44.8125 62.46875 L 33.34375 61.621094 L 34.191406 50.152344 L 45.660156 51 Z M 44.8125 62.46875 " clip-rule="nonzero"/></clipPath><clipPath id="2dfbd54a93"><path d="M 54.929688 87.003906 L 31.527344 85.277344 L 34.136719 49.945312 L 57.539062 51.675781 Z M 54.929688 87.003906 " clip-rule="nonzero"/></clipPath><clipPath id="99b2432f4f"><path d="M 33 61 L 45 61 L 45 63 L 33 63 Z M 33 61 " clip-rule="nonzero"/></clipPath><clipPath id="a128e92bf5"><path d="M 44.8125 62.46875 L 33.34375 61.621094 L 34.191406 50.152344 L 45.660156 51 Z M 44.8125 62.46875 " clip-rule="nonzero"/></clipPath><clipPath id="72ad641355"><path d="M 54.929688 87.003906 L 31.527344 85.277344 L 34.136719 49.945312 L 57.539062 51.675781 Z M 54.929688 87.003906 " clip-rule="nonzero"/></clipPath><clipPath id="78fd60124c"><path d="M 41 62 L 45 62 L 45 63 L 41 63 Z M 41 62 " clip-rule="nonzero"/></clipPath><clipPath id="bfdc5dc8f0"><path d="M 44.8125 62.46875 L 33.34375 61.621094 L 34.191406 50.152344 L 45.660156 51 Z M 44.8125 62.46875 " clip-rule="nonzero"/></clipPath><clipPath id="f5923f8e65"><path d="M 54.929688 87.003906 L 31.527344 85.277344 L 34.136719 49.945312 L 57.539062 51.675781 Z M 54.929688 87.003906 " clip-rule="nonzero"/></clipPath><clipPath id="919447d748"><path d="M 33 50 L 46 50 L 46 63 L 33 63 Z M 33 50 " clip-rule="nonzero"/></clipPath><clipPath id="d576b2a216"><path d="M 44.8125 62.46875 L 33.34375 61.621094 L 34.191406 50.152344 L 45.660156 51 Z M 44.8125 62.46875 " clip-rule="nonzero"/></clipPath><clipPath id="7a3d457bdb"><path d="M 54.929688 87.003906 L 31.527344 85.277344 L 34.136719 49.945312 L 57.539062 51.675781 Z M 54.929688 87.003906 " clip-rule="nonzero"/></clipPath><clipPath id="f2f1cb8e23"><path d="M 33 59 L 45 59 L 45 63 L 33 63 Z M 33 59 " clip-rule="nonzero"/></clipPath><clipPath id="8286262942"><path d="M 44.8125 62.46875 L 33.34375 61.621094 L 34.191406 50.152344 L 45.660156 51 Z M 44.8125 62.46875 " clip-rule="nonzero"/></clipPath><clipPath id="b3a44257b4"><path d="M 54.929688 87.003906 L 31.527344 85.277344 L 34.136719 49.945312 L 57.539062 51.675781 Z M 54.929688 87.003906 " clip-rule="nonzero"/></clipPath><clipPath id="2468561406"><path d="M 33 50 L 37 50 L 37 62 L 33 62 Z M 33 50 " clip-rule="nonzero"/></clipPath><clipPath id="37e6458a10"><path d="M 44.8125 62.46875 L 33.34375 61.621094 L 34.191406 50.152344 L 45.660156 51 Z M 44.8125 62.46875 " clip-rule="nonzero"/></clipPath><clipPath id="d4fb473ed6"><path d="M 54.929688 87.003906 L 31.527344 85.277344 L 34.136719 49.945312 L 57.539062 51.675781 Z M 54.929688 87.003906 " clip-rule="nonzero"/></clipPath><clipPath id="1ae6d9e8da"><path d="M 34 50 L 46 50 L 46 53 L 34 53 Z M 34 50 " clip-rule="nonzero"/></clipPath><clipPath id="a8ee0c1ce5"><path d="M 44.8125 62.46875 L 33.34375 61.621094 L 34.191406 50.152344 L 45.660156 51 Z M 44.8125 62.46875 " clip-rule="nonzero"/></clipPath><clipPath id="3155ae2f57"><path d="M 54.929688 87.003906 L 31.527344 85.277344 L 34.136719 49.945312 L 57.539062 51.675781 Z M 54.929688 87.003906 " clip-rule="nonzero"/></clipPath><clipPath id="e994caeb55"><path d="M 42 50 L 46 50 L 46 63 L 42 63 Z M 42 50 " clip-rule="nonzero"/></clipPath><clipPath id="1941b180d6"><path d="M 44.8125 62.46875 L 33.34375 61.621094 L 34.191406 50.152344 L 45.660156 51 Z M 44.8125 62.46875 " clip-rule="nonzero"/></clipPath><clipPath id="84a2a2e57d"><path d="M 54.929688 87.003906 L 31.527344 85.277344 L 34.136719 49.945312 L 57.539062 51.675781 Z M 54.929688 87.003906 " clip-rule="nonzero"/></clipPath><clipPath id="ed33240caa"><path d="M 34 50 L 46 50 L 46 52 L 34 52 Z M 34 50 " clip-rule="nonzero"/></clipPath><clipPath id="02c48ec08c"><path d="M 45.671875 51.253906 L 34.203125 50.40625 L 35.050781 38.933594 L 46.519531 39.78125 Z M 45.671875 51.253906 " clip-rule="nonzero"/></clipPath><clipPath id="47bbbc0945"><path d="M 55.789062 75.789062 L 32.386719 74.058594 L 34.996094 38.730469 L 58.398438 40.457031 Z M 55.789062 75.789062 " clip-rule="nonzero"/></clipPath><clipPath id="d8610a096d"><path d="M 34 50 L 37 50 L 37 52 L 34 52 Z M 34 50 " clip-rule="nonzero"/></clipPath><clipPath id="a003d7f044"><path d="M 45.671875 51.253906 L 34.203125 50.40625 L 35.050781 38.933594 L 46.519531 39.78125 Z M 45.671875 51.253906 " clip-rule="nonzero"/></clipPath><clipPath id="ea62fac19b"><path d="M 55.789062 75.789062 L 32.386719 74.058594 L 34.996094 38.730469 L 58.398438 40.457031 Z M 55.789062 75.789062 " clip-rule="nonzero"/></clipPath><clipPath id="4ae16873f1"><path d="M 34 50 L 46 50 L 46 52 L 34 52 Z M 34 50 " clip-rule="nonzero"/></clipPath><clipPath id="9e85707014"><path d="M 45.671875 51.253906 L 34.203125 50.40625 L 35.050781 38.933594 L 46.519531 39.78125 Z M 45.671875 51.253906 " clip-rule="nonzero"/></clipPath><clipPath id="fba4548947"><path d="M 55.789062 75.789062 L 32.386719 74.058594 L 34.996094 38.730469 L 58.398438 40.457031 Z M 55.789062 75.789062 " clip-rule="nonzero"/></clipPath><clipPath id="dc239573cf"><path d="M 42 51 L 46 51 L 46 52 L 42 52 Z M 42 51 " clip-rule="nonzero"/></clipPath><clipPath id="57b006d3c5"><path d="M 45.671875 51.253906 L 34.203125 50.40625 L 35.050781 38.933594 L 46.519531 39.78125 Z M 45.671875 51.253906 " clip-rule="nonzero"/></clipPath><clipPath id="325c27c9da"><path d="M 55.789062 75.789062 L 32.386719 74.058594 L 34.996094 38.730469 L 58.398438 40.457031 Z M 55.789062 75.789062 " clip-rule="nonzero"/></clipPath><clipPath id="c7770e59c5"><path d="M 34 38 L 47 38 L 47 52 L 34 52 Z M 34 38 " clip-rule="nonzero"/></clipPath><clipPath id="505d1dabce"><path d="M 45.671875 51.253906 L 34.203125 50.40625 L 35.050781 38.933594 L 46.519531 39.78125 Z M 45.671875 51.253906 " clip-rule="nonzero"/></clipPath><clipPath id="4e9ebb34f8"><path d="M 55.789062 75.789062 L 32.386719 74.058594 L 34.996094 38.730469 L 58.398438 40.457031 Z M 55.789062 75.789062 " clip-rule="nonzero"/></clipPath><clipPath id="75b0a896e9"><path d="M 34 48 L 46 48 L 46 52 L 34 52 Z M 34 48 " clip-rule="nonzero"/></clipPath><clipPath id="202c2d7b33"><path d="M 45.671875 51.253906 L 34.203125 50.40625 L 35.050781 38.933594 L 46.519531 39.78125 Z M 45.671875 51.253906 " clip-rule="nonzero"/></clipPath><clipPath id="566efaeff9"><path d="M 55.789062 75.789062 L 32.386719 74.058594 L 34.996094 38.730469 L 58.398438 40.457031 Z M 55.789062 75.789062 " clip-rule="nonzero"/></clipPath><clipPath id="41f6554a64"><path d="M 34 38 L 37 38 L 37 51 L 34 51 Z M 34 38 " clip-rule="nonzero"/></clipPath><clipPath id="b0377c8f1f"><path d="M 45.671875 51.253906 L 34.203125 50.40625 L 35.050781 38.933594 L 46.519531 39.78125 Z M 45.671875 51.253906 " clip-rule="nonzero"/></clipPath><clipPath id="65823f0c67"><path d="M 55.789062 75.789062 L 32.386719 74.058594 L 34.996094 38.730469 L 58.398438 40.457031 Z M 55.789062 75.789062 " clip-rule="nonzero"/></clipPath><clipPath id="b9190d7be3"><path d="M 34 38 L 47 38 L 47 42 L 34 42 Z M 34 38 " clip-rule="nonzero"/></clipPath><clipPath id="423d671b10"><path d="M 45.671875 51.253906 L 34.203125 50.40625 L 35.050781 38.933594 L 46.519531 39.78125 Z M 45.671875 51.253906 " clip-rule="nonzero"/></clipPath><clipPath id="689421ef74"><path d="M 55.789062 75.789062 L 32.386719 74.058594 L 34.996094 38.730469 L 58.398438 40.457031 Z M 55.789062 75.789062 " clip-rule="nonzero"/></clipPath><clipPath id="65042e6f76"><path d="M 43 39 L 47 39 L 47 52 L 43 52 Z M 43 39 " clip-rule="nonzero"/></clipPath><clipPath id="2a5b36efc8"><path d="M 45.671875 51.253906 L 34.203125 50.40625 L 35.050781 38.933594 L 46.519531 39.78125 Z M 45.671875 51.253906 " clip-rule="nonzero"/></clipPath><clipPath id="60b07a664b"><path d="M 55.789062 75.789062 L 32.386719 74.058594 L 34.996094 38.730469 L 58.398438 40.457031 Z M 55.789062 75.789062 " clip-rule="nonzero"/></clipPath><clipPath id="4c5dfbff84"><path d="M 45 51 L 57 51 L 57 53 L 45 53 Z M 45 51 " clip-rule="nonzero"/></clipPath><clipPath id="322224a6f2"><path d="M 56.90625 52.296875 L 45.433594 51.449219 L 46.28125 39.976562 L 57.753906 40.824219 Z M 56.90625 52.296875 " clip-rule="nonzero"/></clipPath><clipPath id="a05ce3988c"><path d="M 67.019531 76.832031 L 43.621094 75.105469 L 46.230469 39.773438 L 69.628906 41.503906 Z M 67.019531 76.832031 " clip-rule="nonzero"/></clipPath><clipPath id="d4c6f38646"><path d="M 45 51 L 48 51 L 48 53 L 45 53 Z M 45 51 " clip-rule="nonzero"/></clipPath><clipPath id="ceee9fb413"><path d="M 56.90625 52.296875 L 45.433594 51.449219 L 46.28125 39.976562 L 57.753906 40.824219 Z M 56.90625 52.296875 " clip-rule="nonzero"/></clipPath><clipPath id="13ea49ab5c"><path d="M 67.019531 76.832031 L 43.621094 75.105469 L 46.230469 39.773438 L 69.628906 41.503906 Z M 67.019531 76.832031 " clip-rule="nonzero"/></clipPath><clipPath id="c1ce0ffb17"><path d="M 45 51 L 57 51 L 57 53 L 45 53 Z M 45 51 " clip-rule="nonzero"/></clipPath><clipPath id="db2c2664a0"><path d="M 56.90625 52.296875 L 45.433594 51.449219 L 46.28125 39.976562 L 57.753906 40.824219 Z M 56.90625 52.296875 " clip-rule="nonzero"/></clipPath><clipPath id="a0f553d25b"><path d="M 67.019531 76.832031 L 43.621094 75.105469 L 46.230469 39.773438 L 69.628906 41.503906 Z M 67.019531 76.832031 " clip-rule="nonzero"/></clipPath><clipPath id="a3c86be6f7"><path d="M 54 52 L 57 52 L 57 53 L 54 53 Z M 54 52 " clip-rule="nonzero"/></clipPath><clipPath id="f75639072f"><path d="M 56.90625 52.296875 L 45.433594 51.449219 L 46.28125 39.976562 L 57.753906 40.824219 Z M 56.90625 52.296875 " clip-rule="nonzero"/></clipPath><clipPath id="d5cfbf82b3"><path d="M 67.019531 76.832031 L 43.621094 75.105469 L 46.230469 39.773438 L 69.628906 41.503906 Z M 67.019531 76.832031 " clip-rule="nonzero"/></clipPath><clipPath id="8aa8f3d84c"><path d="M 45 39 L 58 39 L 58 53 L 45 53 Z M 45 39 " clip-rule="nonzero"/></clipPath><clipPath id="226be0adb9"><path d="M 56.90625 52.296875 L 45.433594 51.449219 L 46.28125 39.976562 L 57.753906 40.824219 Z M 56.90625 52.296875 " clip-rule="nonzero"/></clipPath><clipPath id="596256459b"><path d="M 67.019531 76.832031 L 43.621094 75.105469 L 46.230469 39.773438 L 69.628906 41.503906 Z M 67.019531 76.832031 " clip-rule="nonzero"/></clipPath><clipPath id="80e3148b4e"><path d="M 45 49 L 57 49 L 57 53 L 45 53 Z M 45 49 " clip-rule="nonzero"/></clipPath><clipPath id="e315f057f2"><path d="M 56.90625 52.296875 L 45.433594 51.449219 L 46.28125 39.976562 L 57.753906 40.824219 Z M 56.90625 52.296875 " clip-rule="nonzero"/></clipPath><clipPath id="b8b4a24f38"><path d="M 67.019531 76.832031 L 43.621094 75.105469 L 46.230469 39.773438 L 69.628906 41.503906 Z M 67.019531 76.832031 " clip-rule="nonzero"/></clipPath><clipPath id="ae43ca80e6"><path d="M 45 39 L 49 39 L 49 52 L 45 52 Z M 45 39 " clip-rule="nonzero"/></clipPath><clipPath id="2e638a10fe"><path d="M 56.90625 52.296875 L 45.433594 51.449219 L 46.28125 39.976562 L 57.753906 40.824219 Z M 56.90625 52.296875 " clip-rule="nonzero"/></clipPath><clipPath id="e61201f703"><path d="M 67.019531 76.832031 L 43.621094 75.105469 L 46.230469 39.773438 L 69.628906 41.503906 Z M 67.019531 76.832031 " clip-rule="nonzero"/></clipPath><clipPath id="94ba100a84"><path d="M 46 39 L 58 39 L 58 43 L 46 43 Z M 46 39 " clip-rule="nonzero"/></clipPath><clipPath id="060567938c"><path d="M 56.90625 52.296875 L 45.433594 51.449219 L 46.28125 39.976562 L 57.753906 40.824219 Z M 56.90625 52.296875 " clip-rule="nonzero"/></clipPath><clipPath id="8f0bc3a2cc"><path d="M 67.019531 76.832031 L 43.621094 75.105469 L 46.230469 39.773438 L 69.628906 41.503906 Z M 67.019531 76.832031 " clip-rule="nonzero"/></clipPath><clipPath id="331dbcbce4"><path d="M 54 40 L 58 40 L 58 53 L 54 53 Z M 54 40 " clip-rule="nonzero"/></clipPath><clipPath id="b90d214a89"><path d="M 56.90625 52.296875 L 45.433594 51.449219 L 46.28125 39.976562 L 57.753906 40.824219 Z M 56.90625 52.296875 " clip-rule="nonzero"/></clipPath><clipPath id="c9137b3d76"><path d="M 67.019531 76.832031 L 43.621094 75.105469 L 46.230469 39.773438 L 69.628906 41.503906 Z M 67.019531 76.832031 " clip-rule="nonzero"/></clipPath><clipPath id="412247538c"><path d="M 56 52 L 69 52 L 69 54 L 56 54 Z M 56 52 " clip-rule="nonzero"/></clipPath><clipPath id="58475b7cf2"><path d="M 68.46875 53.265625 L 56.996094 52.417969 L 57.84375 40.945312 L 69.316406 41.792969 Z M 68.46875 53.265625 " clip-rule="nonzero"/></clipPath><clipPath id="bf4535005d"><path d="M 78.582031 77.800781 L 55.183594 76.070312 L 57.792969 40.742188 L 81.195312 42.46875 Z M 78.582031 77.800781 " clip-rule="nonzero"/></clipPath><clipPath id="34ed5d6cb5"><path d="M 56 52 L 59 52 L 59 54 L 56 54 Z M 56 52 " clip-rule="nonzero"/></clipPath><clipPath id="1a42f456e1"><path d="M 68.46875 53.265625 L 56.996094 52.417969 L 57.84375 40.945312 L 69.316406 41.792969 Z M 68.46875 53.265625 " clip-rule="nonzero"/></clipPath><clipPath id="0fd6d47002"><path d="M 78.582031 77.800781 L 55.183594 76.070312 L 57.792969 40.742188 L 81.195312 42.46875 Z M 78.582031 77.800781 " clip-rule="nonzero"/></clipPath><clipPath id="527d57584f"><path d="M 56 52 L 69 52 L 69 54 L 56 54 Z M 56 52 " clip-rule="nonzero"/></clipPath><clipPath id="45182b3167"><path d="M 68.46875 53.265625 L 56.996094 52.417969 L 57.84375 40.945312 L 69.316406 41.792969 Z M 68.46875 53.265625 " clip-rule="nonzero"/></clipPath><clipPath id="47dca22f12"><path d="M 78.582031 77.800781 L 55.183594 76.070312 L 57.792969 40.742188 L 81.195312 42.46875 Z M 78.582031 77.800781 " clip-rule="nonzero"/></clipPath><clipPath id="0c4d08dde0"><path d="M 65 53 L 69 53 L 69 54 L 65 54 Z M 65 53 " clip-rule="nonzero"/></clipPath><clipPath id="671fc3f281"><path d="M 68.46875 53.265625 L 56.996094 52.417969 L 57.84375 40.945312 L 69.316406 41.792969 Z M 68.46875 53.265625 " clip-rule="nonzero"/></clipPath><clipPath id="03170be56a"><path d="M 78.582031 77.800781 L 55.183594 76.070312 L 57.792969 40.742188 L 81.195312 42.46875 Z M 78.582031 77.800781 " clip-rule="nonzero"/></clipPath><clipPath id="ecb9196e2d"><path d="M 56 40 L 70 40 L 70 54 L 56 54 Z M 56 40 " clip-rule="nonzero"/></clipPath><clipPath id="9efaa483df"><path d="M 68.46875 53.265625 L 56.996094 52.417969 L 57.84375 40.945312 L 69.316406 41.792969 Z M 68.46875 53.265625 " clip-rule="nonzero"/></clipPath><clipPath id="ac9e5f5a69"><path d="M 78.582031 77.800781 L 55.183594 76.070312 L 57.792969 40.742188 L 81.195312 42.46875 Z M 78.582031 77.800781 " clip-rule="nonzero"/></clipPath><clipPath id="dff6633886"><path d="M 56 50 L 69 50 L 69 54 L 56 54 Z M 56 50 " clip-rule="nonzero"/></clipPath><clipPath id="4a63885055"><path d="M 68.46875 53.265625 L 56.996094 52.417969 L 57.84375 40.945312 L 69.316406 41.792969 Z M 68.46875 53.265625 " clip-rule="nonzero"/></clipPath><clipPath id="99ae6bbab9"><path d="M 78.582031 77.800781 L 55.183594 76.070312 L 57.792969 40.742188 L 81.195312 42.46875 Z M 78.582031 77.800781 " clip-rule="nonzero"/></clipPath><clipPath id="e758808d20"><path d="M 56 40 L 60 40 L 60 53 L 56 53 Z M 56 40 " clip-rule="nonzero"/></clipPath><clipPath id="246a1e7a5c"><path d="M 68.46875 53.265625 L 56.996094 52.417969 L 57.84375 40.945312 L 69.316406 41.792969 Z M 68.46875 53.265625 " clip-rule="nonzero"/></clipPath><clipPath id="e6526c1897"><path d="M 78.582031 77.800781 L 55.183594 76.070312 L 57.792969 40.742188 L 81.195312 42.46875 Z M 78.582031 77.800781 " clip-rule="nonzero"/></clipPath><clipPath id="b1af0df6da"><path d="M 57 40 L 70 40 L 70 44 L 57 44 Z M 57 40 " clip-rule="nonzero"/></clipPath><clipPath id="bfbfc73947"><path d="M 68.46875 53.265625 L 56.996094 52.417969 L 57.84375 40.945312 L 69.316406 41.792969 Z M 68.46875 53.265625 " clip-rule="nonzero"/></clipPath><clipPath id="bccafbaa4b"><path d="M 78.582031 77.800781 L 55.183594 76.070312 L 57.792969 40.742188 L 81.195312 42.46875 Z M 78.582031 77.800781 " clip-rule="nonzero"/></clipPath><clipPath id="ee15744001"><path d="M 66 41 L 70 41 L 70 54 L 66 54 Z M 66 41 " clip-rule="nonzero"/></clipPath><clipPath id="b0bb6b584c"><path d="M 68.46875 53.265625 L 56.996094 52.417969 L 57.84375 40.945312 L 69.316406 41.792969 Z M 68.46875 53.265625 " clip-rule="nonzero"/></clipPath><clipPath id="54073f6706"><path d="M 78.582031 77.800781 L 55.183594 76.070312 L 57.792969 40.742188 L 81.195312 42.46875 Z M 78.582031 77.800781 " clip-rule="nonzero"/></clipPath><clipPath id="efad59bde4"><path d="M 66 64 L 75 64 L 75 65 L 66 65 Z M 66 64 " clip-rule="nonzero"/></clipPath><clipPath id="0c0220ea27"><path d="M 74.226562 64.449219 L 66.417969 64.867188 L 65.996094 57.058594 L 73.808594 56.636719 Z M 74.226562 64.449219 " clip-rule="nonzero"/></clipPath><clipPath id="c8c8d0a0aa"><path d="M 83.050781 79.917969 L 67.429688 80.753906 L 66.148438 56.863281 L 81.769531 56.027344 Z M 83.050781 79.917969 " clip-rule="nonzero"/></clipPath><clipPath id="33dfaa5305"><path d="M 66 64 L 69 64 L 69 65 L 66 65 Z M 66 64 " clip-rule="nonzero"/></clipPath><clipPath id="38766a7312"><path d="M 74.226562 64.449219 L 66.417969 64.867188 L 65.996094 57.058594 L 73.808594 56.636719 Z M 74.226562 64.449219 " clip-rule="nonzero"/></clipPath><clipPath id="533e441efd"><path d="M 83.050781 79.917969 L 67.429688 80.753906 L 66.148438 56.863281 L 81.769531 56.027344 Z M 83.050781 79.917969 " clip-rule="nonzero"/></clipPath><clipPath id="9df2851dbf"><path d="M 66 64 L 75 64 L 75 65 L 66 65 Z M 66 64 " clip-rule="nonzero"/></clipPath><clipPath id="02e0a80a0c"><path d="M 74.226562 64.449219 L 66.417969 64.867188 L 65.996094 57.058594 L 73.808594 56.636719 Z M 74.226562 64.449219 " clip-rule="nonzero"/></clipPath><clipPath id="648e61dc40"><path d="M 83.050781 79.917969 L 67.429688 80.753906 L 66.148438 56.863281 L 81.769531 56.027344 Z M 83.050781 79.917969 " clip-rule="nonzero"/></clipPath><clipPath id="89bb2d0cc4"><path d="M 72 64 L 75 64 L 75 65 L 72 65 Z M 72 64 " clip-rule="nonzero"/></clipPath><clipPath id="3106214e1d"><path d="M 74.226562 64.449219 L 66.417969 64.867188 L 65.996094 57.058594 L 73.808594 56.636719 Z M 74.226562 64.449219 " clip-rule="nonzero"/></clipPath><clipPath id="f022e75c1a"><path d="M 83.050781 79.917969 L 67.429688 80.753906 L 66.148438 56.863281 L 81.769531 56.027344 Z M 83.050781 79.917969 " clip-rule="nonzero"/></clipPath><clipPath id="d46327cc38"><path d="M 66 56 L 75 56 L 75 65 L 66 65 Z M 66 56 " clip-rule="nonzero"/></clipPath><clipPath id="15bd23ee67"><path d="M 74.226562 64.449219 L 66.417969 64.867188 L 65.996094 57.058594 L 73.808594 56.636719 Z M 74.226562 64.449219 " clip-rule="nonzero"/></clipPath><clipPath id="8f5c9bda9c"><path d="M 83.050781 79.917969 L 67.429688 80.753906 L 66.148438 56.863281 L 81.769531 56.027344 Z M 83.050781 79.917969 " clip-rule="nonzero"/></clipPath><clipPath id="b6d988a55f"><path d="M 66 63 L 75 63 L 75 65 L 66 65 Z M 66 63 " clip-rule="nonzero"/></clipPath><clipPath id="a897e7fe35"><path d="M 74.226562 64.449219 L 66.417969 64.867188 L 65.996094 57.058594 L 73.808594 56.636719 Z M 74.226562 64.449219 " clip-rule="nonzero"/></clipPath><clipPath id="9518209722"><path d="M 83.050781 79.917969 L 67.429688 80.753906 L 66.148438 56.863281 L 81.769531 56.027344 Z M 83.050781 79.917969 " clip-rule="nonzero"/></clipPath><clipPath id="3119deeed7"><path d="M 66 57 L 68 57 L 68 65 L 66 65 Z M 66 57 " clip-rule="nonzero"/></clipPath><clipPath id="28c8321c9e"><path d="M 74.226562 64.449219 L 66.417969 64.867188 L 65.996094 57.058594 L 73.808594 56.636719 Z M 74.226562 64.449219 " clip-rule="nonzero"/></clipPath><clipPath id="d07725bb59"><path d="M 83.050781 79.917969 L 67.429688 80.753906 L 66.148438 56.863281 L 81.769531 56.027344 Z M 83.050781 79.917969 " clip-rule="nonzero"/></clipPath><clipPath id="971c3bf60e"><path d="M 66 56 L 74 56 L 74 59 L 66 59 Z M 66 56 " clip-rule="nonzero"/></clipPath><clipPath id="9e4e572ebb"><path d="M 74.226562 64.449219 L 66.417969 64.867188 L 65.996094 57.058594 L 73.808594 56.636719 Z M 74.226562 64.449219 " clip-rule="nonzero"/></clipPath><clipPath id="9e34a0dbfd"><path d="M 83.050781 79.917969 L 67.429688 80.753906 L 66.148438 56.863281 L 81.769531 56.027344 Z M 83.050781 79.917969 " clip-rule="nonzero"/></clipPath><clipPath id="bb093df67f"><path d="M 72 56 L 75 56 L 75 65 L 72 65 Z M 72 56 " clip-rule="nonzero"/></clipPath><clipPath id="585db110bd"><path d="M 74.226562 64.449219 L 66.417969 64.867188 L 65.996094 57.058594 L 73.808594 56.636719 Z M 74.226562 64.449219 " clip-rule="nonzero"/></clipPath><clipPath id="b28f9e5045"><path d="M 83.050781 79.917969 L 67.429688 80.753906 L 66.148438 56.863281 L 81.769531 56.027344 Z M 83.050781 79.917969 " clip-rule="nonzero"/></clipPath><clipPath id="c796417328"><path d="M 53 13 L 72 13 L 72 31 L 53 31 Z M 53 13 " clip-rule="nonzero"/></clipPath><clipPath id="5728c72c62"><path d="M 64.039062 13.109375 L 71.09375 23.335938 L 60.867188 30.390625 L 53.8125 20.164062 Z M 64.039062 13.109375 " clip-rule="nonzero"/></clipPath><clipPath id="3c4dfb34b8"><path d="M 77.703125 -11.78125 L 92.074219 9.046875 L 61.019531 30.472656 L 46.648438 9.644531 Z M 77.703125 -11.78125 " clip-rule="nonzero"/></clipPath><clipPath id="352ac5c595"><path d="M 63 13 L 72 13 L 72 24 L 63 24 Z M 63 13 " clip-rule="nonzero"/></clipPath><clipPath id="716be63a42"><path d="M 64.039062 13.109375 L 71.09375 23.335938 L 60.867188 30.390625 L 53.8125 20.164062 Z M 64.039062 13.109375 " clip-rule="nonzero"/></clipPath><clipPath id="2d8f3f7601"><path d="M 77.703125 -11.78125 L 92.074219 9.046875 L 61.019531 30.472656 L 46.648438 9.644531 Z M 77.703125 -11.78125 " clip-rule="nonzero"/></clipPath><clipPath id="697ee35f1b"><path d="M 60 22 L 72 22 L 72 31 L 60 31 Z M 60 22 " clip-rule="nonzero"/></clipPath><clipPath id="49c9179b61"><path d="M 64.039062 13.109375 L 71.09375 23.335938 L 60.867188 30.390625 L 53.8125 20.164062 Z M 64.039062 13.109375 " clip-rule="nonzero"/></clipPath><clipPath id="5fd541b4ef"><path d="M 77.703125 -11.78125 L 92.074219 9.046875 L 61.019531 30.472656 L 46.648438 9.644531 Z M 77.703125 -11.78125 " clip-rule="nonzero"/></clipPath><clipPath id="033abb5821"><path d="M 53 20 L 62 20 L 62 31 L 53 31 Z M 53 20 " clip-rule="nonzero"/></clipPath><clipPath id="9675276fc5"><path d="M 64.039062 13.109375 L 71.09375 23.335938 L 60.867188 30.390625 L 53.8125 20.164062 Z M 64.039062 13.109375 " clip-rule="nonzero"/></clipPath><clipPath id="c7902854e9"><path d="M 77.703125 -11.78125 L 92.074219 9.046875 L 61.019531 30.472656 L 46.648438 9.644531 Z M 77.703125 -11.78125 " clip-rule="nonzero"/></clipPath><clipPath id="c54b649710"><path d="M 53 13 L 65 13 L 65 21 L 53 21 Z M 53 13 " clip-rule="nonzero"/></clipPath><clipPath id="21247a35a8"><path d="M 64.039062 13.109375 L 71.09375 23.335938 L 60.867188 30.390625 L 53.8125 20.164062 Z M 64.039062 13.109375 " clip-rule="nonzero"/></clipPath><clipPath id="1d8f8a97d2"><path d="M 77.703125 -11.78125 L 92.074219 9.046875 L 61.019531 30.472656 L 46.648438 9.644531 Z M 77.703125 -11.78125 " clip-rule="nonzero"/></clipPath><clipPath id="3a4b5d1a4f"><path d="M 43 19 L 62 19 L 62 38 L 43 38 Z M 43 19 " clip-rule="nonzero"/></clipPath><clipPath id="5091703534"><path d="M 54.113281 19.917969 L 61.167969 30.140625 L 50.941406 37.195312 L 43.886719 26.972656 Z M 54.113281 19.917969 " clip-rule="nonzero"/></clipPath><clipPath id="d74629f9a5"><path d="M 67.777344 -4.976562 L 82.148438 15.851562 L 51.09375 37.277344 L 36.722656 16.449219 Z M 67.777344 -4.976562 " clip-rule="nonzero"/></clipPath><clipPath id="e3b1762de6"><path d="M 53 19 L 62 19 L 62 31 L 53 31 Z M 53 19 " clip-rule="nonzero"/></clipPath><clipPath id="79323d411d"><path d="M 54.113281 19.917969 L 61.167969 30.140625 L 50.941406 37.195312 L 43.886719 26.972656 Z M 54.113281 19.917969 " clip-rule="nonzero"/></clipPath><clipPath id="544f325265"><path d="M 67.777344 -4.976562 L 82.148438 15.851562 L 51.09375 37.277344 L 36.722656 16.449219 Z M 67.777344 -4.976562 " clip-rule="nonzero"/></clipPath><clipPath id="bf649fd683"><path d="M 50 29 L 62 29 L 62 38 L 50 38 Z M 50 29 " clip-rule="nonzero"/></clipPath><clipPath id="48590b7949"><path d="M 54.113281 19.917969 L 61.167969 30.140625 L 50.941406 37.195312 L 43.886719 26.972656 Z M 54.113281 19.917969 " clip-rule="nonzero"/></clipPath><clipPath id="bdbc6c7b91"><path d="M 67.777344 -4.976562 L 82.148438 15.851562 L 51.09375 37.277344 L 36.722656 16.449219 Z M 67.777344 -4.976562 " clip-rule="nonzero"/></clipPath><clipPath id="2341ab97e9"><path d="M 43 26 L 52 26 L 52 38 L 43 38 Z M 43 26 " clip-rule="nonzero"/></clipPath><clipPath id="56fa18f486"><path d="M 54.113281 19.917969 L 61.167969 30.140625 L 50.941406 37.195312 L 43.886719 26.972656 Z M 54.113281 19.917969 " clip-rule="nonzero"/></clipPath><clipPath id="505079bb03"><path d="M 67.777344 -4.976562 L 82.148438 15.851562 L 51.09375 37.277344 L 36.722656 16.449219 Z M 67.777344 -4.976562 " clip-rule="nonzero"/></clipPath><clipPath id="af86f20549"><path d="M 43 19 L 55 19 L 55 28 L 43 28 Z M 43 19 " clip-rule="nonzero"/></clipPath><clipPath id="bac03bc715"><path d="M 54.113281 19.917969 L 61.167969 30.140625 L 50.941406 37.195312 L 43.886719 26.972656 Z M 54.113281 19.917969 " clip-rule="nonzero"/></clipPath><clipPath id="82430c6210"><path d="M 67.777344 -4.976562 L 82.148438 15.851562 L 51.09375 37.277344 L 36.722656 16.449219 Z M 67.777344 -4.976562 " clip-rule="nonzero"/></clipPath><clipPath id="ed62a3801b"><path d="M 36 10 L 55 10 L 55 28 L 36 28 Z M 36 10 " clip-rule="nonzero"/></clipPath><clipPath id="3e012024ed"><path d="M 47.0625 10.164062 L 54.117188 20.390625 L 43.894531 27.445312 L 36.839844 17.21875 Z M 47.0625 10.164062 " clip-rule="nonzero"/></clipPath><clipPath id="5007b51c22"><path d="M 60.726562 -14.726562 L 75.097656 6.101562 L 44.046875 27.527344 L 29.675781 6.699219 Z M 60.726562 -14.726562 " clip-rule="nonzero"/></clipPath><clipPath id="591b1da9ed"><path d="M 46 10 L 55 10 L 55 21 L 46 21 Z M 46 10 " clip-rule="nonzero"/></clipPath><clipPath id="28b6e0c4b7"><path d="M 47.0625 10.164062 L 54.117188 20.390625 L 43.894531 27.445312 L 36.839844 17.21875 Z M 47.0625 10.164062 " clip-rule="nonzero"/></clipPath><clipPath id="358f58bbd4"><path d="M 60.726562 -14.726562 L 75.097656 6.101562 L 44.046875 27.527344 L 29.675781 6.699219 Z M 60.726562 -14.726562 " clip-rule="nonzero"/></clipPath><clipPath id="74d7097f55"><path d="M 43 19 L 55 19 L 55 28 L 43 28 Z M 43 19 " clip-rule="nonzero"/></clipPath><clipPath id="f5bb28c954"><path d="M 47.0625 10.164062 L 54.117188 20.390625 L 43.894531 27.445312 L 36.839844 17.21875 Z M 47.0625 10.164062 " clip-rule="nonzero"/></clipPath><clipPath id="f8d38483d6"><path d="M 60.726562 -14.726562 L 75.097656 6.101562 L 44.046875 27.527344 L 29.675781 6.699219 Z M 60.726562 -14.726562 " clip-rule="nonzero"/></clipPath><clipPath id="e04fe059da"><path d="M 36 17 L 45 17 L 45 28 L 36 28 Z M 36 17 " clip-rule="nonzero"/></clipPath><clipPath id="7fb955e07d"><path d="M 47.0625 10.164062 L 54.117188 20.390625 L 43.894531 27.445312 L 36.839844 17.21875 Z M 47.0625 10.164062 " clip-rule="nonzero"/></clipPath><clipPath id="7555c71cb5"><path d="M 60.726562 -14.726562 L 75.097656 6.101562 L 44.046875 27.527344 L 29.675781 6.699219 Z M 60.726562 -14.726562 " clip-rule="nonzero"/></clipPath><clipPath id="f1341df527"><path d="M 36 10 L 48 10 L 48 18 L 36 18 Z M 36 10 " clip-rule="nonzero"/></clipPath><clipPath id="3e90c4452a"><path d="M 47.0625 10.164062 L 54.117188 20.390625 L 43.894531 27.445312 L 36.839844 17.21875 Z M 47.0625 10.164062 " clip-rule="nonzero"/></clipPath><clipPath id="10ea7e896b"><path d="M 60.726562 -14.726562 L 75.097656 6.101562 L 44.046875 27.527344 L 29.675781 6.699219 Z M 60.726562 -14.726562 " clip-rule="nonzero"/></clipPath><clipPath id="70235f7f12"><path d="M 29 0 L 48 0 L 48 18 L 29 18 Z M 29 0 " clip-rule="nonzero"/></clipPath><clipPath id="5b8331184a"><path d="M 40.113281 -0.125 L 47.167969 10.101562 L 36.941406 17.15625 L 29.886719 6.929688 Z M 40.113281 -0.125 " clip-rule="nonzero"/></clipPath><clipPath id="23746a791b"><path d="M 53.777344 -25.015625 L 68.148438 -4.1875 L 37.09375 17.238281 L 22.722656 -3.589844 Z M 53.777344 -25.015625 " clip-rule="nonzero"/></clipPath><clipPath id="7b4f931bad"><path d="M 39 0 L 48 0 L 48 11 L 39 11 Z M 39 0 " clip-rule="nonzero"/></clipPath><clipPath id="40cad53943"><path d="M 40.113281 -0.125 L 47.167969 10.101562 L 36.941406 17.15625 L 29.886719 6.929688 Z M 40.113281 -0.125 " clip-rule="nonzero"/></clipPath><clipPath id="074f018766"><path d="M 53.777344 -25.015625 L 68.148438 -4.1875 L 37.09375 17.238281 L 22.722656 -3.589844 Z M 53.777344 -25.015625 " clip-rule="nonzero"/></clipPath><clipPath id="863a055193"><path d="M 36 9 L 48 9 L 48 18 L 36 18 Z M 36 9 " clip-rule="nonzero"/></clipPath><clipPath id="86e9dbc8c0"><path d="M 40.113281 -0.125 L 47.167969 10.101562 L 36.941406 17.15625 L 29.886719 6.929688 Z M 40.113281 -0.125 " clip-rule="nonzero"/></clipPath><clipPath id="1b7a91416e"><path d="M 53.777344 -25.015625 L 68.148438 -4.1875 L 37.09375 17.238281 L 22.722656 -3.589844 Z M 53.777344 -25.015625 " clip-rule="nonzero"/></clipPath><clipPath id="ef4adbeb3e"><path d="M 29 6 L 38 6 L 38 18 L 29 18 Z M 29 6 " clip-rule="nonzero"/></clipPath><clipPath id="07118f0499"><path d="M 40.113281 -0.125 L 47.167969 10.101562 L 36.941406 17.15625 L 29.886719 6.929688 Z M 40.113281 -0.125 " clip-rule="nonzero"/></clipPath><clipPath id="b4e1548dbf"><path d="M 53.777344 -25.015625 L 68.148438 -4.1875 L 37.09375 17.238281 L 22.722656 -3.589844 Z M 53.777344 -25.015625 " clip-rule="nonzero"/></clipPath><clipPath id="cccf7b3d6f"><path d="M 29 0 L 41 0 L 41 8 L 29 8 Z M 29 0 " clip-rule="nonzero"/></clipPath><clipPath id="001cd86bd0"><path d="M 40.113281 -0.125 L 47.167969 10.101562 L 36.941406 17.15625 L 29.886719 6.929688 Z M 40.113281 -0.125 " clip-rule="nonzero"/></clipPath><clipPath id="cbef33c8ce"><path d="M 53.777344 -25.015625 L 68.148438 -4.1875 L 37.09375 17.238281 L 22.722656 -3.589844 Z M 53.777344 -25.015625 " clip-rule="nonzero"/></clipPath></defs><g clip-path="url(#1d1cdc3e5b)"><g clip-path="url(#9ef416dda9)"><g clip-path="url(#e4af254884)"><path fill="#ff3131" d="M 19.503906 44.027344 L 8.925781 27.878906 L 25.074219 17.300781 L 35.652344 33.449219 Z M 19.503906 44.027344 " fill-opacity="1" fill-rule="nonzero"/></g></g></g><g clip-path="url(#7226e211ff)"><g clip-path="url(#a6dac24e10)"><g clip-path="url(#d99a80978c)"><path fill="#e37f6c" d="M 14.144531 28.96875 L 8.925781 27.878906 L 19.503906 44.027344 L 20.59375 38.808594 Z M 14.144531 28.96875 " fill-opacity="1" fill-rule="nonzero"/></g></g></g><g clip-path="url(#9e60775c31)"><g clip-path="url(#c26453fbd6)"><g clip-path="url(#56454a2faf)"><path fill="#841b17" d="M 14.144531 28.96875 L 23.984375 22.519531 L 25.074219 17.300781 L 8.925781 27.878906 Z M 14.144531 28.96875 " fill-opacity="1" fill-rule="nonzero"/></g></g></g><g clip-path="url(#e78d742484)"><g clip-path="url(#3c89619464)"><g clip-path="url(#66ccaf61a1)"><path fill="#c5130d" d="M 30.433594 32.359375 L 35.652344 33.449219 L 25.074219 17.300781 L 23.984375 22.519531 Z M 30.433594 32.359375 " fill-opacity="1" fill-rule="nonzero"/></g></g></g><g clip-path="url(#24d3e63465)"><g clip-path="url(#f21fbb3186)"><g clip-path="url(#81045a2358)"><path fill="#d2453b" d="M 20.59375 38.808594 L 19.503906 44.027344 L 35.652344 33.449219 L 30.433594 32.359375 Z M 20.59375 38.808594 " fill-opacity="1" fill-rule="nonzero"/></g></g></g><g clip-path="url(#3b11ed11e2)"><g clip-path="url(#742497cb7b)"><g clip-path="url(#45032cebbb)"><path fill="#ff3131" d="M 27.867188 75.101562 L 0.707031 70.964844 L 4.84375 43.804688 L 32.003906 47.941406 Z M 27.867188 75.101562 " fill-opacity="1" fill-rule="nonzero"/></g></g></g><g clip-path="url(#0407239451)"><g clip-path="url(#48db765e54)"><g clip-path="url(#4e5da0ad73)"><path fill="#e37f6c" d="M 6.820312 66.46875 L 0.707031 70.964844 L 27.867188 75.101562 L 23.371094 68.988281 Z M 6.820312 66.46875 " fill-opacity="1" fill-rule="nonzero"/></g></g></g><g clip-path="url(#f280a4d121)"><g clip-path="url(#a0b7fd9bae)"><g clip-path="url(#f6459a859a)"><path fill="#841b17" d="M 6.820312 66.46875 L 9.339844 49.917969 L 4.84375 43.804688 L 0.707031 70.964844 Z M 6.820312 66.46875 " fill-opacity="1" fill-rule="nonzero"/></g></g></g><g clip-path="url(#25d4079d61)"><g clip-path="url(#247a10e638)"><g clip-path="url(#e61798cc86)"><path fill="#c5130d" d="M 25.890625 52.4375 L 32.003906 47.941406 L 4.84375 43.804688 L 9.339844 49.917969 Z M 25.890625 52.4375 " fill-opacity="1" fill-rule="nonzero"/></g></g></g><g clip-path="url(#806b5f0d3a)"><g clip-path="url(#66fc6a18bf)"><g clip-path="url(#d72c20fe2a)"><path fill="#d2453b" d="M 23.371094 68.988281 L 27.867188 75.101562 L 32.003906 47.941406 L 25.890625 52.4375 Z M 23.371094 68.988281 " fill-opacity="1" fill-rule="nonzero"/></g></g></g><g clip-path="url(#40e9ddb71a)"><g clip-path="url(#75df1f7488)"><g clip-path="url(#c0058bf5f5)"><path fill="#ff3131" d="M 44.035156 74.367188 L 32.277344 73.496094 L 33.144531 61.734375 L 44.90625 62.605469 Z M 44.035156 74.367188 " fill-opacity="1" fill-rule="nonzero"/></g></g></g><g clip-path="url(#cba7664f92)"><g clip-path="url(#9570340a9f)"><g clip-path="url(#2dfbd54a93)"><path fill="#841b17" d="M 34.742188 71.371094 L 35.273438 64.203125 L 33.144531 61.734375 L 32.277344 73.496094 Z M 34.742188 71.371094 " fill-opacity="1" fill-rule="nonzero"/></g></g></g><g clip-path="url(#99b2432f4f)"><g clip-path="url(#a128e92bf5)"><g clip-path="url(#72ad641355)"><path fill="#c5130d" d="M 42.4375 64.730469 L 44.90625 62.605469 L 33.144531 61.734375 L 35.273438 64.203125 Z M 42.4375 64.730469 " fill-opacity="1" fill-rule="nonzero"/></g></g></g><g clip-path="url(#78fd60124c)"><g clip-path="url(#bfdc5dc8f0)"><g clip-path="url(#f5923f8e65)"><path fill="#d2453b" d="M 41.910156 71.898438 L 44.035156 74.367188 L 44.90625 62.605469 L 42.4375 64.730469 Z M 41.910156 71.898438 " fill-opacity="1" fill-rule="nonzero"/></g></g></g><g clip-path="url(#919447d748)"><g clip-path="url(#d576b2a216)"><g clip-path="url(#7a3d457bdb)"><path fill="#ff3131" d="M 44.90625 62.605469 L 33.144531 61.734375 L 34.011719 49.972656 L 45.773438 50.84375 Z M 44.90625 62.605469 " fill-opacity="1" fill-rule="nonzero"/></g></g></g><g clip-path="url(#f2f1cb8e23)"><g clip-path="url(#8286262942)"><g clip-path="url(#b3a44257b4)"><path fill="#e37f6c" d="M 35.609375 59.609375 L 33.144531 61.734375 L 44.90625 62.605469 L 42.777344 60.136719 Z M 35.609375 59.609375 " fill-opacity="1" fill-rule="nonzero"/></g></g></g><g clip-path="url(#2468561406)"><g clip-path="url(#37e6458a10)"><g clip-path="url(#d4fb473ed6)"><path fill="#841b17" d="M 35.609375 59.609375 L 36.140625 52.441406 L 34.011719 49.972656 L 33.144531 61.734375 Z M 35.609375 59.609375 " fill-opacity="1" fill-rule="nonzero"/></g></g></g><g clip-path="url(#1ae6d9e8da)"><g clip-path="url(#a8ee0c1ce5)"><g clip-path="url(#3155ae2f57)"><path fill="#c5130d" d="M 43.308594 52.972656 L 45.773438 50.84375 L 34.011719 49.972656 L 36.140625 52.441406 Z M 43.308594 52.972656 " fill-opacity="1" fill-rule="nonzero"/></g></g></g><g clip-path="url(#e994caeb55)"><g clip-path="url(#1941b180d6)"><g clip-path="url(#84a2a2e57d)"><path fill="#d2453b" d="M 42.777344 60.136719 L 44.90625 62.605469 L 45.773438 50.84375 L 43.308594 52.972656 Z M 42.777344 60.136719 " fill-opacity="1" fill-rule="nonzero"/></g></g></g><g clip-path="url(#ed33240caa)"><g clip-path="url(#02c48ec08c)"><g clip-path="url(#47bbbc0945)"><path fill="#ff3131" d="M 44.898438 63.148438 L 33.136719 62.28125 L 34.003906 50.519531 L 45.765625 51.386719 Z M 44.898438 63.148438 " fill-opacity="1" fill-rule="nonzero"/></g></g></g><g clip-path="url(#d8610a096d)"><g clip-path="url(#a003d7f044)"><g clip-path="url(#ea62fac19b)"><path fill="#841b17" d="M 35.601562 60.152344 L 36.132812 52.988281 L 34.003906 50.519531 L 33.136719 62.28125 Z M 35.601562 60.152344 " fill-opacity="1" fill-rule="nonzero"/></g></g></g><g clip-path="url(#4ae16873f1)"><g clip-path="url(#9e85707014)"><g clip-path="url(#fba4548947)"><path fill="#c5130d" d="M 43.300781 53.515625 L 45.765625 51.386719 L 34.003906 50.519531 L 36.132812 52.988281 Z M 43.300781 53.515625 " fill-opacity="1" fill-rule="nonzero"/></g></g></g><g clip-path="url(#dc239573cf)"><g clip-path="url(#57b006d3c5)"><g clip-path="url(#325c27c9da)"><path fill="#d2453b" d="M 42.769531 60.683594 L 44.898438 63.148438 L 45.765625 51.386719 L 43.300781 53.515625 Z M 42.769531 60.683594 " fill-opacity="1" fill-rule="nonzero"/></g></g></g><g clip-path="url(#c7770e59c5)"><g clip-path="url(#505d1dabce)"><g clip-path="url(#4e9ebb34f8)"><path fill="#ff3131" d="M 45.765625 51.386719 L 34.003906 50.519531 L 34.875 38.757812 L 46.632812 39.628906 Z M 45.765625 51.386719 " fill-opacity="1" fill-rule="nonzero"/></g></g></g><g clip-path="url(#75b0a896e9)"><g clip-path="url(#202c2d7b33)"><g clip-path="url(#566efaeff9)"><path fill="#e37f6c" d="M 36.472656 48.390625 L 34.003906 50.519531 L 45.765625 51.386719 L 43.636719 48.921875 Z M 36.472656 48.390625 " fill-opacity="1" fill-rule="nonzero"/></g></g></g><g clip-path="url(#41f6554a64)"><g clip-path="url(#b0377c8f1f)"><g clip-path="url(#65823f0c67)"><path fill="#841b17" d="M 36.472656 48.390625 L 37 41.226562 L 34.875 38.757812 L 34.003906 50.519531 Z M 36.472656 48.390625 " fill-opacity="1" fill-rule="nonzero"/></g></g></g><g clip-path="url(#b9190d7be3)"><g clip-path="url(#423d671b10)"><g clip-path="url(#689421ef74)"><path fill="#c5130d" d="M 44.167969 41.753906 L 46.632812 39.628906 L 34.875 38.757812 L 37 41.226562 Z M 44.167969 41.753906 " fill-opacity="1" fill-rule="nonzero"/></g></g></g><g clip-path="url(#65042e6f76)"><g clip-path="url(#2a5b36efc8)"><g clip-path="url(#60b07a664b)"><path fill="#d2453b" d="M 43.636719 48.921875 L 45.765625 51.386719 L 46.632812 39.628906 L 44.167969 41.753906 Z M 43.636719 48.921875 " fill-opacity="1" fill-rule="nonzero"/></g></g></g><g clip-path="url(#4c5dfbff84)"><g clip-path="url(#322224a6f2)"><g clip-path="url(#a05ce3988c)"><path fill="#ff3131" d="M 56.128906 64.195312 L 44.367188 63.324219 L 45.234375 51.5625 L 56.996094 52.433594 Z M 56.128906 64.195312 " fill-opacity="1" fill-rule="nonzero"/></g></g></g><g clip-path="url(#d4c6f38646)"><g clip-path="url(#ceee9fb413)"><g clip-path="url(#13ea49ab5c)"><path fill="#841b17" d="M 46.832031 61.195312 L 47.363281 54.03125 L 45.234375 51.5625 L 44.367188 63.324219 Z M 46.832031 61.195312 " fill-opacity="1" fill-rule="nonzero"/></g></g></g><g clip-path="url(#c1ce0ffb17)"><g clip-path="url(#db2c2664a0)"><g clip-path="url(#a0f553d25b)"><path fill="#c5130d" d="M 54.53125 54.558594 L 56.996094 52.433594 L 45.234375 51.5625 L 47.363281 54.03125 Z M 54.53125 54.558594 " fill-opacity="1" fill-rule="nonzero"/></g></g></g><g clip-path="url(#a3c86be6f7)"><g clip-path="url(#f75639072f)"><g clip-path="url(#d5cfbf82b3)"><path fill="#d2453b" d="M 54 61.726562 L 56.128906 64.195312 L 56.996094 52.433594 L 54.53125 54.558594 Z M 54 61.726562 " fill-opacity="1" fill-rule="nonzero"/></g></g></g><g clip-path="url(#8aa8f3d84c)"><g clip-path="url(#226be0adb9)"><g clip-path="url(#596256459b)"><path fill="#ff3131" d="M 56.996094 52.433594 L 45.234375 51.5625 L 46.105469 39.800781 L 57.867188 40.671875 Z M 56.996094 52.433594 " fill-opacity="1" fill-rule="nonzero"/></g></g></g><g clip-path="url(#80e3148b4e)"><g clip-path="url(#e315f057f2)"><g clip-path="url(#b8b4a24f38)"><path fill="#e37f6c" d="M 47.703125 49.4375 L 45.234375 51.5625 L 56.996094 52.433594 L 54.871094 49.964844 Z M 47.703125 49.4375 " fill-opacity="1" fill-rule="nonzero"/></g></g></g><g clip-path="url(#ae43ca80e6)"><g clip-path="url(#2e638a10fe)"><g clip-path="url(#e61201f703)"><path fill="#841b17" d="M 47.703125 49.4375 L 48.230469 42.269531 L 46.105469 39.800781 L 45.234375 51.5625 Z M 47.703125 49.4375 " fill-opacity="1" fill-rule="nonzero"/></g></g></g><g clip-path="url(#94ba100a84)"><g clip-path="url(#060567938c)"><g clip-path="url(#8f0bc3a2cc)"><path fill="#c5130d" d="M 55.398438 42.796875 L 57.867188 40.671875 L 46.105469 39.800781 L 48.230469 42.269531 Z M 55.398438 42.796875 " fill-opacity="1" fill-rule="nonzero"/></g></g></g><g clip-path="url(#331dbcbce4)"><g clip-path="url(#b90d214a89)"><g clip-path="url(#c9137b3d76)"><path fill="#d2453b" d="M 54.871094 49.964844 L 56.996094 52.433594 L 57.867188 40.671875 L 55.398438 42.796875 Z M 54.871094 49.964844 " fill-opacity="1" fill-rule="nonzero"/></g></g></g><g clip-path="url(#412247538c)"><g clip-path="url(#58475b7cf2)"><g clip-path="url(#bf4535005d)"><path fill="#ff3131" d="M 67.691406 65.160156 L 55.929688 64.292969 L 56.800781 52.53125 L 68.5625 53.398438 Z M 67.691406 65.160156 " fill-opacity="1" fill-rule="nonzero"/></g></g></g><g clip-path="url(#34ed5d6cb5)"><g clip-path="url(#1a42f456e1)"><g clip-path="url(#0fd6d47002)"><path fill="#841b17" d="M 58.398438 62.164062 L 58.925781 54.996094 L 56.800781 52.53125 L 55.929688 64.292969 Z M 58.398438 62.164062 " fill-opacity="1" fill-rule="nonzero"/></g></g></g><g clip-path="url(#527d57584f)"><g clip-path="url(#45182b3167)"><g clip-path="url(#47dca22f12)"><path fill="#c5130d" d="M 66.09375 55.527344 L 68.5625 53.398438 L 56.800781 52.53125 L 58.925781 54.996094 Z M 66.09375 55.527344 " fill-opacity="1" fill-rule="nonzero"/></g></g></g><g clip-path="url(#0c4d08dde0)"><g clip-path="url(#671fc3f281)"><g clip-path="url(#03170be56a)"><path fill="#d2453b" d="M 65.5625 62.695312 L 67.691406 65.160156 L 68.5625 53.398438 L 66.09375 55.527344 Z M 65.5625 62.695312 " fill-opacity="1" fill-rule="nonzero"/></g></g></g><g clip-path="url(#ecb9196e2d)"><g clip-path="url(#9efaa483df)"><g clip-path="url(#ac9e5f5a69)"><path fill="#ff3131" d="M 68.5625 53.398438 L 56.800781 52.53125 L 57.667969 40.769531 L 69.429688 41.636719 Z M 68.5625 53.398438 " fill-opacity="1" fill-rule="nonzero"/></g></g></g><g clip-path="url(#dff6633886)"><g clip-path="url(#4a63885055)"><g clip-path="url(#99ae6bbab9)"><path fill="#e37f6c" d="M 59.265625 50.402344 L 56.800781 52.53125 L 68.5625 53.398438 L 66.433594 50.933594 Z M 59.265625 50.402344 " fill-opacity="1" fill-rule="nonzero"/></g></g></g><g clip-path="url(#e758808d20)"><g clip-path="url(#246a1e7a5c)"><g clip-path="url(#e6526c1897)"><path fill="#841b17" d="M 59.265625 50.402344 L 59.796875 43.238281 L 57.667969 40.769531 L 56.800781 52.53125 Z M 59.265625 50.402344 " fill-opacity="1" fill-rule="nonzero"/></g></g></g><g clip-path="url(#b1af0df6da)"><g clip-path="url(#bfbfc73947)"><g clip-path="url(#bccafbaa4b)"><path fill="#c5130d" d="M 66.960938 43.765625 L 69.429688 41.636719 L 57.667969 40.769531 L 59.796875 43.238281 Z M 66.960938 43.765625 " fill-opacity="1" fill-rule="nonzero"/></g></g></g><g clip-path="url(#ee15744001)"><g clip-path="url(#b0bb6b584c)"><g clip-path="url(#54073f6706)"><path fill="#d2453b" d="M 66.433594 50.933594 L 68.5625 53.398438 L 69.429688 41.636719 L 66.960938 43.765625 Z M 66.433594 50.933594 " fill-opacity="1" fill-rule="nonzero"/></g></g></g><g clip-path="url(#efad59bde4)"><g clip-path="url(#0c0220ea27)"><g clip-path="url(#c8c8d0a0aa)"><path fill="#ff3131" d="M 74.726562 72.429688 L 66.828125 72.855469 L 66.402344 64.957031 L 74.304688 64.53125 Z M 74.726562 72.429688 " fill-opacity="1" fill-rule="nonzero"/></g></g></g><g clip-path="url(#33dfaa5305)"><g clip-path="url(#38766a7312)"><g clip-path="url(#533e441efd)"><path fill="#841b17" d="M 68.289062 71.230469 L 68.027344 66.414062 L 66.402344 64.957031 L 66.828125 72.855469 Z M 68.289062 71.230469 " fill-opacity="1" fill-rule="nonzero"/></g></g></g><g clip-path="url(#9df2851dbf)"><g clip-path="url(#02e0a80a0c)"><g clip-path="url(#648e61dc40)"><path fill="#c5130d" d="M 72.84375 66.15625 L 74.304688 64.53125 L 66.402344 64.957031 L 68.027344 66.414062 Z M 72.84375 66.15625 " fill-opacity="1" fill-rule="nonzero"/></g></g></g><g clip-path="url(#89bb2d0cc4)"><g clip-path="url(#3106214e1d)"><g clip-path="url(#f022e75c1a)"><path fill="#d2453b" d="M 73.101562 70.972656 L 74.726562 72.429688 L 74.304688 64.53125 L 72.84375 66.15625 Z M 73.101562 70.972656 " fill-opacity="1" fill-rule="nonzero"/></g></g></g><g clip-path="url(#d46327cc38)"><g clip-path="url(#15bd23ee67)"><g clip-path="url(#8f5c9bda9c)"><path fill="#ff3131" d="M 74.304688 64.53125 L 66.402344 64.957031 L 65.976562 57.054688 L 73.878906 56.632812 Z M 74.304688 64.53125 " fill-opacity="1" fill-rule="nonzero"/></g></g></g><g clip-path="url(#b6d988a55f)"><g clip-path="url(#a897e7fe35)"><g clip-path="url(#9518209722)"><path fill="#e37f6c" d="M 67.863281 63.328125 L 66.402344 64.957031 L 74.304688 64.53125 L 72.675781 63.070312 Z M 67.863281 63.328125 " fill-opacity="1" fill-rule="nonzero"/></g></g></g><g clip-path="url(#3119deeed7)"><g clip-path="url(#28c8321c9e)"><g clip-path="url(#d07725bb59)"><path fill="#841b17" d="M 67.863281 63.328125 L 67.605469 58.515625 L 65.976562 57.054688 L 66.402344 64.957031 Z M 67.863281 63.328125 " fill-opacity="1" fill-rule="nonzero"/></g></g></g><g clip-path="url(#971c3bf60e)"><g clip-path="url(#9e4e572ebb)"><g clip-path="url(#9e34a0dbfd)"><path fill="#c5130d" d="M 72.417969 58.257812 L 73.878906 56.632812 L 65.976562 57.054688 L 67.605469 58.515625 Z M 72.417969 58.257812 " fill-opacity="1" fill-rule="nonzero"/></g></g></g><g clip-path="url(#bb093df67f)"><g clip-path="url(#585db110bd)"><g clip-path="url(#b28f9e5045)"><path fill="#d2453b" d="M 72.675781 63.070312 L 74.304688 64.53125 L 73.878906 56.632812 L 72.417969 58.257812 Z M 72.675781 63.070312 " fill-opacity="1" fill-rule="nonzero"/></g></g></g><g clip-path="url(#c796417328)"><g clip-path="url(#5728c72c62)"><g clip-path="url(#3c4dfb34b8)"><path fill="#ff3131" d="M 64.085938 12.941406 L 71.25 23.324219 L 60.867188 30.488281 L 53.703125 20.105469 Z M 64.085938 12.941406 " fill-opacity="1" fill-rule="nonzero"/></g></g></g><g clip-path="url(#352ac5c595)"><g clip-path="url(#716be63a42)"><g clip-path="url(#2d8f3f7601)"><path fill="#e37f6c" d="M 67.824219 22.695312 L 71.25 23.324219 L 64.085938 12.941406 L 63.457031 16.367188 Z M 67.824219 22.695312 " fill-opacity="1" fill-rule="nonzero"/></g></g></g><g clip-path="url(#697ee35f1b)"><g clip-path="url(#49c9179b61)"><g clip-path="url(#5fd541b4ef)"><path fill="#841b17" d="M 67.824219 22.695312 L 61.496094 27.0625 L 60.867188 30.488281 L 71.25 23.324219 Z M 67.824219 22.695312 " fill-opacity="1" fill-rule="nonzero"/></g></g></g><g clip-path="url(#033abb5821)"><g clip-path="url(#9675276fc5)"><g clip-path="url(#c7902854e9)"><path fill="#c5130d" d="M 57.128906 20.734375 L 53.703125 20.105469 L 60.867188 30.488281 L 61.496094 27.0625 Z M 57.128906 20.734375 " fill-opacity="1" fill-rule="nonzero"/></g></g></g><g clip-path="url(#c54b649710)"><g clip-path="url(#21247a35a8)"><g clip-path="url(#1d8f8a97d2)"><path fill="#d2453b" d="M 63.457031 16.367188 L 64.085938 12.941406 L 53.703125 20.105469 L 57.128906 20.734375 Z M 63.457031 16.367188 " fill-opacity="1" fill-rule="nonzero"/></g></g></g><g clip-path="url(#3a4b5d1a4f)"><g clip-path="url(#5091703534)"><g clip-path="url(#d74629f9a5)"><path fill="#ff3131" d="M 54.160156 19.746094 L 61.324219 30.132812 L 50.941406 37.296875 L 43.777344 26.914062 Z M 54.160156 19.746094 " fill-opacity="1" fill-rule="nonzero"/></g></g></g><g clip-path="url(#e3b1762de6)"><g clip-path="url(#79323d411d)"><g clip-path="url(#544f325265)"><path fill="#e37f6c" d="M 57.898438 29.503906 L 61.324219 30.132812 L 54.160156 19.746094 L 53.53125 23.175781 Z M 57.898438 29.503906 " fill-opacity="1" fill-rule="nonzero"/></g></g></g><g clip-path="url(#bf649fd683)"><g clip-path="url(#48590b7949)"><g clip-path="url(#bdbc6c7b91)"><path fill="#841b17" d="M 57.898438 29.503906 L 51.570312 33.871094 L 50.941406 37.296875 L 61.324219 30.132812 Z M 57.898438 29.503906 " fill-opacity="1" fill-rule="nonzero"/></g></g></g><g clip-path="url(#2341ab97e9)"><g clip-path="url(#56fa18f486)"><g clip-path="url(#505079bb03)"><path fill="#c5130d" d="M 47.203125 27.542969 L 43.777344 26.914062 L 50.941406 37.296875 L 51.570312 33.871094 Z M 47.203125 27.542969 " fill-opacity="1" fill-rule="nonzero"/></g></g></g><g clip-path="url(#af86f20549)"><g clip-path="url(#bac03bc715)"><g clip-path="url(#82430c6210)"><path fill="#d2453b" d="M 53.53125 23.175781 L 54.160156 19.746094 L 43.777344 26.914062 L 47.203125 27.542969 Z M 53.53125 23.175781 " fill-opacity="1" fill-rule="nonzero"/></g></g></g><g clip-path="url(#ed62a3801b)"><g clip-path="url(#3e012024ed)"><g clip-path="url(#5007b51c22)"><path fill="#ff3131" d="M 47.113281 9.996094 L 54.277344 20.378906 L 43.894531 27.542969 L 36.726562 17.160156 Z M 47.113281 9.996094 " fill-opacity="1" fill-rule="nonzero"/></g></g></g><g clip-path="url(#591b1da9ed)"><g clip-path="url(#28b6e0c4b7)"><g clip-path="url(#358f58bbd4)"><path fill="#e37f6c" d="M 50.851562 19.75 L 54.277344 20.378906 L 47.113281 9.996094 L 46.484375 13.421875 Z M 50.851562 19.75 " fill-opacity="1" fill-rule="nonzero"/></g></g></g><g clip-path="url(#74d7097f55)"><g clip-path="url(#f5bb28c954)"><g clip-path="url(#f8d38483d6)"><path fill="#841b17" d="M 50.851562 19.75 L 44.523438 24.117188 L 43.894531 27.542969 L 54.277344 20.378906 Z M 50.851562 19.75 " fill-opacity="1" fill-rule="nonzero"/></g></g></g><g clip-path="url(#e04fe059da)"><g clip-path="url(#7fb955e07d)"><g clip-path="url(#7555c71cb5)"><path fill="#c5130d" d="M 40.15625 17.789062 L 36.726562 17.160156 L 43.894531 27.542969 L 44.523438 24.117188 Z M 40.15625 17.789062 " fill-opacity="1" fill-rule="nonzero"/></g></g></g><g clip-path="url(#f1341df527)"><g clip-path="url(#3e90c4452a)"><g clip-path="url(#10ea7e896b)"><path fill="#d2453b" d="M 46.484375 13.421875 L 47.113281 9.996094 L 36.726562 17.160156 L 40.15625 17.789062 Z M 46.484375 13.421875 " fill-opacity="1" fill-rule="nonzero"/></g></g></g><g clip-path="url(#70235f7f12)"><g clip-path="url(#5b8331184a)"><g clip-path="url(#23746a791b)"><path fill="#ff3131" d="M 40.160156 -0.292969 L 47.328125 10.09375 L 36.941406 17.257812 L 29.777344 6.871094 Z M 40.160156 -0.292969 " fill-opacity="1" fill-rule="nonzero"/></g></g></g><g clip-path="url(#7b4f931bad)"><g clip-path="url(#40cad53943)"><g clip-path="url(#074f018766)"><path fill="#e37f6c" d="M 43.898438 9.464844 L 47.328125 10.09375 L 40.160156 -0.292969 L 39.53125 3.136719 Z M 43.898438 9.464844 " fill-opacity="1" fill-rule="nonzero"/></g></g></g><g clip-path="url(#863a055193)"><g clip-path="url(#86e9dbc8c0)"><g clip-path="url(#1b7a91416e)"><path fill="#841b17" d="M 43.898438 9.464844 L 37.570312 13.828125 L 36.941406 17.257812 L 47.328125 10.09375 Z M 43.898438 9.464844 " fill-opacity="1" fill-rule="nonzero"/></g></g></g><g clip-path="url(#ef4adbeb3e)"><g clip-path="url(#07118f0499)"><g clip-path="url(#b4e1548dbf)"><path fill="#c5130d" d="M 33.203125 7.5 L 29.777344 6.871094 L 36.941406 17.257812 L 37.570312 13.828125 Z M 33.203125 7.5 " fill-opacity="1" fill-rule="nonzero"/></g></g></g><g clip-path="url(#cccf7b3d6f)"><g clip-path="url(#001cd86bd0)"><g clip-path="url(#cbef33c8ce)"><path fill="#d2453b" d="M 39.53125 3.136719 L 40.160156 -0.292969 L 29.777344 6.871094 L 33.203125 7.5 Z M 39.53125 3.136719 " fill-opacity="1" fill-rule="nonzero"/></g></g></g></svg>