<svg xmlns="http://www.w3.org/2000/svg" xmlns:xlink="http://www.w3.org/1999/xlink" width="100" zoomAndPan="magnify" viewBox="0 0 75 74.999997" height="100" preserveAspectRatio="xMidYMid meet" version="1.0"><defs><clipPath id="47cbffceb0"><path d="M 0 1.488281 L 55.183594 1.488281 L 55.183594 74.824219 L 0 74.824219 Z M 0 1.488281 " clip-rule="nonzero"/></clipPath><clipPath id="119d5d48ee"><path d="M 3.710938 0.164062 L 58.894531 0.164062 L 58.894531 73.5 L 3.710938 73.5 Z M 3.710938 0.164062 " clip-rule="nonzero"/></clipPath></defs><g clip-path="url(#47cbffceb0)"><path fill="#2c1e1f" d="M 3.066406 41.222656 L 3.066406 44.289062 L 9.195312 44.289062 L 9.195312 47.355469 L 12.261719 47.355469 L 12.261719 50.421875 L 18.394531 50.421875 L 18.394531 53.488281 L 21.460938 53.488281 L 21.460938 56.550781 L 27.589844 56.550781 L 27.589844 59.617188 L 30.65625 59.617188 L 30.65625 62.683594 L 36.789062 62.683594 L 36.789062 65.75 L 39.855469 65.75 L 39.855469 68.816406 L 45.984375 68.816406 L 45.984375 71.882812 L 49.050781 71.882812 L 49.050781 74.945312 L 55.183594 74.945312 L 55.183594 1.367188 L 49.050781 1.367188 L 49.050781 4.433594 L 45.984375 4.433594 L 45.984375 7.5 L 39.855469 7.5 L 39.855469 10.566406 L 36.789062 10.566406 L 36.789062 13.632812 L 30.65625 13.632812 L 30.65625 16.699219 L 27.589844 16.699219 L 27.589844 19.761719 L 21.460938 19.761719 L 21.460938 22.828125 L 18.394531 22.828125 L 18.394531 25.894531 L 12.261719 25.894531 L 12.261719 28.960938 L 9.195312 28.960938 L 9.195312 32.027344 L 3.066406 32.027344 L 3.066406 35.09375 L 0 35.09375 L 0 41.222656 Z M 3.066406 41.222656 " fill-opacity="1" fill-rule="nonzero"/></g><g clip-path="url(#119d5d48ee)"><path fill="#dddddd" d="M 6.777344 39.898438 L 6.777344 42.964844 L 12.90625 42.964844 L 12.90625 46.027344 L 15.972656 46.027344 L 15.972656 49.09375 L 22.105469 49.09375 L 22.105469 52.160156 L 25.171875 52.160156 L 25.171875 55.226562 L 31.300781 55.226562 L 31.300781 58.292969 L 34.367188 58.292969 L 34.367188 61.359375 L 40.5 61.359375 L 40.5 64.421875 L 43.566406 64.421875 L 43.566406 67.488281 L 49.695312 67.488281 L 49.695312 70.554688 L 52.761719 70.554688 L 52.761719 73.621094 L 58.894531 73.621094 L 58.894531 0.0429688 L 52.761719 0.0429688 L 52.761719 3.109375 L 49.695312 3.109375 L 49.695312 6.175781 L 43.566406 6.175781 L 43.566406 9.238281 L 40.5 9.238281 L 40.5 12.304688 L 34.367188 12.304688 L 34.367188 15.371094 L 31.300781 15.371094 L 31.300781 18.4375 L 25.171875 18.4375 L 25.171875 21.503906 L 22.105469 21.503906 L 22.105469 24.570312 L 15.972656 24.570312 L 15.972656 27.632812 L 12.90625 27.632812 L 12.90625 30.699219 L 6.777344 30.699219 L 6.777344 33.765625 L 3.710938 33.765625 L 3.710938 39.898438 Z M 6.777344 39.898438 " fill-opacity="1" fill-rule="nonzero"/></g></svg>