<svg xmlns="http://www.w3.org/2000/svg" xmlns:xlink="http://www.w3.org/1999/xlink" width="100" zoomAndPan="magnify" viewBox="0 0 75 74.999997" height="100" preserveAspectRatio="xMidYMid meet" version="1.0"><defs><clipPath id="8cfbca1229"><path d="M 19.917969 1.46875 L 74.667969 1.46875 L 74.667969 74.96875 L 19.917969 74.96875 Z M 19.917969 1.46875 " clip-rule="nonzero"/></clipPath><clipPath id="4360837458"><path d="M 15.800781 0 L 70.550781 0 L 70.550781 73.5 L 15.800781 73.5 Z M 15.800781 0 " clip-rule="nonzero"/></clipPath></defs><g clip-path="url(#8cfbca1229)"><path fill="#2c1e1f" d="M 71.9375 35.171875 L 71.9375 32.113281 L 65.816406 32.113281 L 65.816406 29.050781 L 62.757812 29.050781 L 62.757812 25.992188 L 56.636719 25.992188 L 56.636719 22.933594 L 53.578125 22.933594 L 53.578125 19.871094 L 47.457031 19.871094 L 47.457031 16.8125 L 44.398438 16.8125 L 44.398438 13.753906 L 38.277344 13.753906 L 38.277344 10.691406 L 35.21875 10.691406 L 35.21875 7.632812 L 29.097656 7.632812 L 29.097656 4.574219 L 26.039062 4.574219 L 26.039062 1.511719 L 19.917969 1.511719 L 19.917969 74.949219 L 26.039062 74.949219 L 26.039062 71.890625 L 29.097656 71.890625 L 29.097656 68.832031 L 35.21875 68.832031 L 35.21875 65.769531 L 38.277344 65.769531 L 38.277344 62.710938 L 44.398438 62.710938 L 44.398438 59.652344 L 47.457031 59.652344 L 47.457031 56.589844 L 53.578125 56.589844 L 53.578125 53.53125 L 56.636719 53.53125 L 56.636719 50.472656 L 62.757812 50.472656 L 62.757812 47.410156 L 65.816406 47.410156 L 65.816406 44.351562 L 71.9375 44.351562 L 71.9375 41.292969 L 74.996094 41.292969 L 74.996094 35.171875 Z M 71.9375 35.171875 " fill-opacity="1" fill-rule="nonzero"/></g><g clip-path="url(#4360837458)"><path fill="#dddddd" d="M 67.820312 33.703125 L 67.820312 30.640625 L 61.699219 30.640625 L 61.699219 27.582031 L 58.640625 27.582031 L 58.640625 24.523438 L 52.519531 24.523438 L 52.519531 21.460938 L 49.460938 21.460938 L 49.460938 18.402344 L 43.339844 18.402344 L 43.339844 15.34375 L 40.28125 15.34375 L 40.28125 12.28125 L 34.160156 12.28125 L 34.160156 9.222656 L 31.101562 9.222656 L 31.101562 6.164062 L 24.980469 6.164062 L 24.980469 3.101562 L 21.921875 3.101562 L 21.921875 0.0429688 L 15.800781 0.0429688 L 15.800781 73.480469 L 21.921875 73.480469 L 21.921875 70.421875 L 24.980469 70.421875 L 24.980469 67.359375 L 31.101562 67.359375 L 31.101562 64.300781 L 34.160156 64.300781 L 34.160156 61.242188 L 40.28125 61.242188 L 40.28125 58.179688 L 43.339844 58.179688 L 43.339844 55.121094 L 49.460938 55.121094 L 49.460938 52.0625 L 52.519531 52.0625 L 52.519531 49 L 58.640625 49 L 58.640625 45.941406 L 61.699219 45.941406 L 61.699219 42.882812 L 67.820312 42.882812 L 67.820312 39.820312 L 70.878906 39.820312 L 70.878906 33.703125 Z M 67.820312 33.703125 " fill-opacity="1" fill-rule="nonzero"/></g></svg>