<svg xmlns="http://www.w3.org/2000/svg" xmlns:xlink="http://www.w3.org/1999/xlink" width="100" zoomAndPan="magnify" viewBox="0 0 75 74.999997" height="100" preserveAspectRatio="xMidYMid meet" version="1.0"><defs><clipPath id="3ab41e7d5e"><path d="M 0 0 L 56.179688 0 L 56.179688 75 L 0 75 Z M 0 0 " clip-rule="nonzero"/></clipPath></defs><g clip-path="url(#3ab41e7d5e)"><path fill="#ff3643" d="M 3.121094 40.621094 L 3.121094 43.742188 L 9.363281 43.742188 L 9.363281 46.863281 L 12.484375 46.863281 L 12.484375 49.984375 L 18.726562 49.984375 L 18.726562 53.105469 L 21.847656 53.105469 L 21.847656 56.226562 L 28.089844 56.226562 L 28.089844 59.347656 L 31.210938 59.347656 L 31.210938 62.46875 L 37.453125 62.46875 L 37.453125 65.589844 L 40.574219 65.589844 L 40.574219 68.710938 L 46.816406 68.710938 L 46.816406 71.832031 L 49.9375 71.832031 L 49.9375 74.953125 L 56.179688 74.953125 L 56.179688 0.046875 L 49.9375 0.046875 L 49.9375 3.167969 L 46.816406 3.167969 L 46.816406 6.289062 L 40.574219 6.289062 L 40.574219 9.410156 L 37.453125 9.410156 L 37.453125 12.53125 L 31.210938 12.53125 L 31.210938 15.652344 L 28.089844 15.652344 L 28.089844 18.773438 L 21.847656 18.773438 L 21.847656 21.894531 L 18.726562 21.894531 L 18.726562 25.015625 L 12.484375 25.015625 L 12.484375 28.136719 L 9.363281 28.136719 L 9.363281 31.257812 L 3.121094 31.257812 L 3.121094 34.378906 L 0 34.378906 L 0 40.621094 Z M 3.121094 40.621094 " fill-opacity="1" fill-rule="nonzero"/></g></svg>