<svg xmlns="http://www.w3.org/2000/svg" xmlns:xlink="http://www.w3.org/1999/xlink" width="100" zoomAndPan="magnify" viewBox="0 0 75 74.999997" height="100" preserveAspectRatio="xMidYMid meet" version="1.0"><defs><clipPath id="b8cafb91bb"><path d="M 18.816406 0 L 75 0 L 75 75 L 18.816406 75 Z M 18.816406 0 " clip-rule="nonzero"/></clipPath></defs><g clip-path="url(#b8cafb91bb)"><path fill="#ff3643" d="M 71.875 34.378906 L 71.875 31.257812 L 65.632812 31.257812 L 65.632812 28.136719 L 62.511719 28.136719 L 62.511719 25.015625 L 56.269531 25.015625 L 56.269531 21.894531 L 53.148438 21.894531 L 53.148438 18.773438 L 46.90625 18.773438 L 46.90625 15.652344 L 43.785156 15.652344 L 43.785156 12.53125 L 37.542969 12.53125 L 37.542969 9.410156 L 34.421875 9.410156 L 34.421875 6.289062 L 28.179688 6.289062 L 28.179688 3.167969 L 25.058594 3.167969 L 25.058594 0.046875 L 18.816406 0.046875 L 18.816406 74.953125 L 25.058594 74.953125 L 25.058594 71.832031 L 28.179688 71.832031 L 28.179688 68.710938 L 34.421875 68.710938 L 34.421875 65.589844 L 37.542969 65.589844 L 37.542969 62.46875 L 43.785156 62.46875 L 43.785156 59.347656 L 46.90625 59.347656 L 46.90625 56.226562 L 53.148438 56.226562 L 53.148438 53.105469 L 56.269531 53.105469 L 56.269531 49.984375 L 62.511719 49.984375 L 62.511719 46.863281 L 65.632812 46.863281 L 65.632812 43.742188 L 71.875 43.742188 L 71.875 40.621094 L 74.996094 40.621094 L 74.996094 34.378906 Z M 71.875 34.378906 " fill-opacity="1" fill-rule="nonzero"/></g></svg>