<svg xmlns="http://www.w3.org/2000/svg" xmlns:xlink="http://www.w3.org/1999/xlink" width="100" zoomAndPan="magnify" viewBox="0 0 75 74.999997" height="100" preserveAspectRatio="xMidYMid meet" version="1.0"><defs><clipPath id="e0f3e6ce2a"><path d="M 14.257812 14.054688 L 19.109375 14.054688 L 19.109375 18.90625 L 14.257812 18.90625 Z M 14.257812 14.054688 " clip-rule="nonzero"/></clipPath><clipPath id="4b1756e653"><path d="M 9.554688 18.695312 L 14.40625 18.695312 L 14.40625 23.546875 L 9.554688 23.546875 Z M 9.554688 18.695312 " clip-rule="nonzero"/></clipPath><clipPath id="5195592735"><path d="M 8.042969 25.820312 L 18.445312 25.820312 L 18.445312 70.128906 L 8.042969 70.128906 Z M 8.042969 25.820312 " clip-rule="nonzero"/></clipPath><clipPath id="6d33f1df20"><path d="M 9.554688 23.335938 L 14.40625 23.335938 L 14.40625 28.1875 L 9.554688 28.1875 Z M 9.554688 23.335938 " clip-rule="nonzero"/></clipPath><clipPath id="1b7ee72881"><path d="M 4.777344 23.335938 L 9.628906 23.335938 L 9.628906 28.1875 L 4.777344 28.1875 Z M 4.777344 23.335938 " clip-rule="nonzero"/></clipPath><clipPath id="5f9db44db5"><path d="M 23.539062 9.265625 L 28.390625 9.265625 L 28.390625 14.117188 L 23.539062 14.117188 Z M 23.539062 9.265625 " clip-rule="nonzero"/></clipPath><clipPath id="3f008e0112"><path d="M 19 9.265625 L 23.851562 9.265625 L 23.851562 14.117188 L 19 14.117188 Z M 19 9.265625 " clip-rule="nonzero"/></clipPath><clipPath id="f1e65afaa4"><path d="M 32.910156 9.265625 L 37.761719 9.265625 L 37.761719 14.117188 L 32.910156 14.117188 Z M 32.910156 9.265625 " clip-rule="nonzero"/></clipPath><clipPath id="50f169554b"><path d="M 28.234375 9.265625 L 33.082031 9.265625 L 33.082031 14.117188 L 28.234375 14.117188 Z M 28.234375 9.265625 " clip-rule="nonzero"/></clipPath><clipPath id="7dcfc042a6"><path d="M 4.777344 27.972656 L 9.628906 27.972656 L 9.628906 32.824219 L 4.777344 32.824219 Z M 4.777344 27.972656 " clip-rule="nonzero"/></clipPath><clipPath id="38c50fa0eb"><path d="M 4.777344 32.554688 L 9.628906 32.554688 L 9.628906 37.40625 L 4.777344 37.40625 Z M 4.777344 32.554688 " clip-rule="nonzero"/></clipPath><clipPath id="33cb498d04"><path d="M 4.777344 37.339844 L 9.628906 37.339844 L 9.628906 42.191406 L 4.777344 42.191406 Z M 4.777344 37.339844 " clip-rule="nonzero"/></clipPath><clipPath id="9d9b007b6a"><path d="M 0 41.945312 L 4.851562 41.945312 L 4.851562 46.796875 L 0 46.796875 Z M 0 41.945312 " clip-rule="nonzero"/></clipPath><clipPath id="0185cb7d1f"><path d="M 4.777344 46.648438 L 9.628906 46.648438 L 9.628906 51.5 L 4.777344 51.5 Z M 4.777344 46.648438 " clip-rule="nonzero"/></clipPath><clipPath id="07c47c508e"><path d="M 4.777344 51.339844 L 9.628906 51.339844 L 9.628906 56.191406 L 4.777344 56.191406 Z M 4.777344 51.339844 " clip-rule="nonzero"/></clipPath><clipPath id="d72edd7f16"><path d="M 4.777344 56.042969 L 9.628906 56.042969 L 9.628906 60.894531 L 4.777344 60.894531 Z M 4.777344 56.042969 " clip-rule="nonzero"/></clipPath><clipPath id="419fddf5ad"><path d="M 0 60.84375 L 4.851562 60.84375 L 4.851562 65.695312 L 0 65.695312 Z M 0 60.84375 " clip-rule="nonzero"/></clipPath><clipPath id="5c80d9dd11"><path d="M 4.777344 65.535156 L 9.628906 65.535156 L 9.628906 70.386719 L 4.777344 70.386719 Z M 4.777344 65.535156 " clip-rule="nonzero"/></clipPath><clipPath id="46325452c1"><path d="M 19.109375 14.117188 L 56.621094 14.117188 L 56.621094 70.128906 L 19.109375 70.128906 Z M 19.109375 14.117188 " clip-rule="nonzero"/></clipPath><clipPath id="967e67314d"><path d="M 19.109375 70.515625 L 54.597656 70.515625 L 54.597656 75 L 19.109375 75 Z M 19.109375 70.515625 " clip-rule="nonzero"/></clipPath><clipPath id="df8c5e0b3f"><path d="M 18 27 L 56 27 L 56 71 L 18 71 Z M 18 27 " clip-rule="nonzero"/></clipPath><clipPath id="1420b98cb8"><path d="M 18.449219 70.476562 L 18.90625 27.824219 L 55.535156 28.21875 L 55.074219 70.871094 Z M 18.449219 70.476562 " clip-rule="nonzero"/></clipPath><clipPath id="164a071d79"><path d="M 14.257812 70.128906 L 19.109375 70.128906 L 19.109375 74.980469 L 14.257812 74.980469 Z M 14.257812 70.128906 " clip-rule="nonzero"/></clipPath><clipPath id="30e2c356e8"><path d="M 9.554688 70.128906 L 14.40625 70.128906 L 14.40625 74.980469 L 9.554688 74.980469 Z M 9.554688 70.128906 " clip-rule="nonzero"/></clipPath><clipPath id="69f8cdab72"><path d="M 14.257812 18.695312 L 19.109375 18.695312 L 19.109375 23.546875 L 14.257812 23.546875 Z M 14.257812 18.695312 " clip-rule="nonzero"/></clipPath><clipPath id="4606a2332c"><path d="M 23.539062 14.054688 L 28.390625 14.054688 L 28.390625 18.90625 L 23.539062 18.90625 Z M 23.539062 14.054688 " clip-rule="nonzero"/></clipPath><clipPath id="e604bb2c5b"><path d="M 19 14.054688 L 23.851562 14.054688 L 23.851562 18.90625 L 19 18.90625 Z M 19 14.054688 " clip-rule="nonzero"/></clipPath><clipPath id="6eec3920be"><path d="M 32.910156 14.054688 L 37.761719 14.054688 L 37.761719 18.90625 L 32.910156 18.90625 Z M 32.910156 14.054688 " clip-rule="nonzero"/></clipPath><clipPath id="34d7ee138f"><path d="M 28.234375 14.054688 L 33.082031 14.054688 L 33.082031 18.90625 L 28.234375 18.90625 Z M 28.234375 14.054688 " clip-rule="nonzero"/></clipPath><clipPath id="17d5825597"><path d="M 23.539062 18.695312 L 28.390625 18.695312 L 28.390625 23.546875 L 23.539062 23.546875 Z M 23.539062 18.695312 " clip-rule="nonzero"/></clipPath><clipPath id="5d94f3ddfc"><path d="M 19 18.695312 L 23.851562 18.695312 L 23.851562 23.546875 L 19 23.546875 Z M 19 18.695312 " clip-rule="nonzero"/></clipPath><clipPath id="638acf8e4b"><path d="M 32.910156 18.695312 L 37.761719 18.695312 L 37.761719 23.546875 L 32.910156 23.546875 Z M 32.910156 18.695312 " clip-rule="nonzero"/></clipPath><clipPath id="7a497c8b1c"><path d="M 28.234375 18.695312 L 33.082031 18.695312 L 33.082031 23.546875 L 28.234375 23.546875 Z M 28.234375 18.695312 " clip-rule="nonzero"/></clipPath><clipPath id="31813a10b6"><path d="M 9.554688 27.972656 L 14.40625 27.972656 L 14.40625 32.824219 L 9.554688 32.824219 Z M 9.554688 27.972656 " clip-rule="nonzero"/></clipPath><clipPath id="98ccdc592a"><path d="M 14.257812 23.335938 L 19.109375 23.335938 L 19.109375 28.1875 L 14.257812 28.1875 Z M 14.257812 23.335938 " clip-rule="nonzero"/></clipPath><clipPath id="5160c94818"><path d="M 14.257812 27.972656 L 19.109375 27.972656 L 19.109375 32.824219 L 14.257812 32.824219 Z M 14.257812 27.972656 " clip-rule="nonzero"/></clipPath><clipPath id="482baed2e0"><path d="M 9.554688 32.554688 L 14.40625 32.554688 L 14.40625 37.40625 L 9.554688 37.40625 Z M 9.554688 32.554688 " clip-rule="nonzero"/></clipPath><clipPath id="aac3017446"><path d="M 14.257812 32.554688 L 19.109375 32.554688 L 19.109375 37.40625 L 14.257812 37.40625 Z M 14.257812 32.554688 " clip-rule="nonzero"/></clipPath><clipPath id="a63463273a"><path d="M 9.554688 37.339844 L 14.40625 37.339844 L 14.40625 42.191406 L 9.554688 42.191406 Z M 9.554688 37.339844 " clip-rule="nonzero"/></clipPath><clipPath id="9f06451e14"><path d="M 14.257812 37.339844 L 19.109375 37.339844 L 19.109375 42.191406 L 14.257812 42.191406 Z M 14.257812 37.339844 " clip-rule="nonzero"/></clipPath><clipPath id="edc06fa9d7"><path d="M 9.554688 41.945312 L 14.40625 41.945312 L 14.40625 46.796875 L 9.554688 46.796875 Z M 9.554688 41.945312 " clip-rule="nonzero"/></clipPath><clipPath id="de106b3004"><path d="M 14.257812 41.945312 L 19.109375 41.945312 L 19.109375 46.796875 L 14.257812 46.796875 Z M 14.257812 41.945312 " clip-rule="nonzero"/></clipPath><clipPath id="97a9d9fd0f"><path d="M 4.777344 41.945312 L 9.628906 41.945312 L 9.628906 46.796875 L 4.777344 46.796875 Z M 4.777344 41.945312 " clip-rule="nonzero"/></clipPath><clipPath id="e25c87ea1d"><path d="M 9.554688 46.648438 L 14.40625 46.648438 L 14.40625 51.5 L 9.554688 51.5 Z M 9.554688 46.648438 " clip-rule="nonzero"/></clipPath><clipPath id="1d1bf4a0f2"><path d="M 14.257812 46.648438 L 19.109375 46.648438 L 19.109375 51.5 L 14.257812 51.5 Z M 14.257812 46.648438 " clip-rule="nonzero"/></clipPath><clipPath id="3745ebdd1c"><path d="M 9.554688 51.339844 L 14.40625 51.339844 L 14.40625 56.191406 L 9.554688 56.191406 Z M 9.554688 51.339844 " clip-rule="nonzero"/></clipPath><clipPath id="7019df6e0a"><path d="M 14.257812 51.339844 L 19.109375 51.339844 L 19.109375 56.191406 L 14.257812 56.191406 Z M 14.257812 51.339844 " clip-rule="nonzero"/></clipPath><clipPath id="1fc7226c61"><path d="M 9.554688 56.042969 L 14.40625 56.042969 L 14.40625 60.894531 L 9.554688 60.894531 Z M 9.554688 56.042969 " clip-rule="nonzero"/></clipPath><clipPath id="55be650b28"><path d="M 14.257812 56.042969 L 19.109375 56.042969 L 19.109375 60.894531 L 14.257812 60.894531 Z M 14.257812 56.042969 " clip-rule="nonzero"/></clipPath><clipPath id="ba63b7f713"><path d="M 9.554688 60.84375 L 14.40625 60.84375 L 14.40625 65.695312 L 9.554688 65.695312 Z M 9.554688 60.84375 " clip-rule="nonzero"/></clipPath><clipPath id="15e78266d0"><path d="M 14.257812 60.84375 L 19.109375 60.84375 L 19.109375 65.695312 L 14.257812 65.695312 Z M 14.257812 60.84375 " clip-rule="nonzero"/></clipPath><clipPath id="1215ef5308"><path d="M 4.777344 60.84375 L 9.628906 60.84375 L 9.628906 65.695312 L 4.777344 65.695312 Z M 4.777344 60.84375 " clip-rule="nonzero"/></clipPath><clipPath id="cb3b28fc68"><path d="M 23.539062 23.335938 L 28.390625 23.335938 L 28.390625 28.1875 L 23.539062 28.1875 Z M 23.539062 23.335938 " clip-rule="nonzero"/></clipPath><clipPath id="aafd746a63"><path d="M 19 23.335938 L 23.851562 23.335938 L 23.851562 28.1875 L 19 28.1875 Z M 19 23.335938 " clip-rule="nonzero"/></clipPath><clipPath id="9d878c3c06"><path d="M 32.910156 23.335938 L 37.761719 23.335938 L 37.761719 28.1875 L 32.910156 28.1875 Z M 32.910156 23.335938 " clip-rule="nonzero"/></clipPath><clipPath id="237646cab1"><path d="M 28.234375 23.335938 L 33.082031 23.335938 L 33.082031 28.1875 L 28.234375 28.1875 Z M 28.234375 23.335938 " clip-rule="nonzero"/></clipPath><clipPath id="a7a3e186dd"><path d="M 9.554688 65.535156 L 14.40625 65.535156 L 14.40625 70.386719 L 9.554688 70.386719 Z M 9.554688 65.535156 " clip-rule="nonzero"/></clipPath><clipPath id="04c0736dff"><path d="M 14.257812 65.535156 L 19.109375 65.535156 L 19.109375 70.386719 L 14.257812 70.386719 Z M 14.257812 65.535156 " clip-rule="nonzero"/></clipPath><clipPath id="4260dde86c"><path d="M 23 32 L 54 32 L 54 66 L 23 66 Z M 23 32 " clip-rule="nonzero"/></clipPath><clipPath id="421726762d"><path d="M 23.417969 65.621094 L 23.773438 32.519531 L 53.179688 32.835938 L 52.820312 65.9375 Z M 23.417969 65.621094 " clip-rule="nonzero"/></clipPath><clipPath id="c46223fd64"><path d="M 23.539062 65.535156 L 28.390625 65.535156 L 28.390625 70.386719 L 23.539062 70.386719 Z M 23.539062 65.535156 " clip-rule="nonzero"/></clipPath><clipPath id="a373592b0b"><path d="M 19 65.535156 L 23.851562 65.535156 L 23.851562 70.386719 L 19 70.386719 Z M 19 65.535156 " clip-rule="nonzero"/></clipPath><clipPath id="f4317a6b9b"><path d="M 23.539062 27.972656 L 28.390625 27.972656 L 28.390625 32.824219 L 23.539062 32.824219 Z M 23.539062 27.972656 " clip-rule="nonzero"/></clipPath><clipPath id="024113652a"><path d="M 19 27.972656 L 23.851562 27.972656 L 23.851562 32.824219 L 19 32.824219 Z M 19 27.972656 " clip-rule="nonzero"/></clipPath><clipPath id="cf25928a0c"><path d="M 19 37.339844 L 23.851562 37.339844 L 23.851562 42.191406 L 19 42.191406 Z M 19 37.339844 " clip-rule="nonzero"/></clipPath><clipPath id="a054d443d1"><path d="M 19 41.945312 L 23.851562 41.945312 L 23.851562 46.796875 L 19 46.796875 Z M 19 41.945312 " clip-rule="nonzero"/></clipPath><clipPath id="7c8755a039"><path d="M 19.042969 32.554688 L 23.890625 32.554688 L 23.890625 37.40625 L 19.042969 37.40625 Z M 19.042969 32.554688 " clip-rule="nonzero"/></clipPath><clipPath id="b985f00cce"><path d="M 23.539062 37.339844 L 28.390625 37.339844 L 28.390625 42.191406 L 23.539062 42.191406 Z M 23.539062 37.339844 " clip-rule="nonzero"/></clipPath><clipPath id="02a8224352"><path d="M 23.539062 32.554688 L 28.390625 32.554688 L 28.390625 37.40625 L 23.539062 37.40625 Z M 23.539062 32.554688 " clip-rule="nonzero"/></clipPath><clipPath id="4d7a15f142"><path d="M 32 27 L 38 27 L 38 33 L 32 33 Z M 32 27 " clip-rule="nonzero"/></clipPath><clipPath id="d6115134e9"><path d="M 32.882812 32.789062 L 32.9375 27.9375 L 37.789062 27.988281 L 37.734375 32.839844 Z M 32.882812 32.789062 " clip-rule="nonzero"/></clipPath><clipPath id="55c66f0f91"><path d="M 28 27 L 34 27 L 34 33 L 28 33 Z M 28 27 " clip-rule="nonzero"/></clipPath><clipPath id="05b357f0f6"><path d="M 28.207031 32.789062 L 28.257812 27.9375 L 33.109375 27.988281 L 33.058594 32.839844 Z M 28.207031 32.789062 " clip-rule="nonzero"/></clipPath><clipPath id="d3b882e116"><path d="M 32 32 L 38 32 L 38 38 L 32 38 Z M 32 32 " clip-rule="nonzero"/></clipPath><clipPath id="3f02b7863c"><path d="M 32.882812 37.367188 L 32.9375 32.515625 L 37.789062 32.566406 L 37.734375 37.417969 Z M 32.882812 37.367188 " clip-rule="nonzero"/></clipPath><clipPath id="c47c2e4e41"><path d="M 28 32 L 34 32 L 34 38 L 28 38 Z M 28 32 " clip-rule="nonzero"/></clipPath><clipPath id="844eed517c"><path d="M 28.207031 37.367188 L 28.257812 32.515625 L 33.109375 32.566406 L 33.058594 37.417969 Z M 28.207031 37.367188 " clip-rule="nonzero"/></clipPath><clipPath id="296fadaeb3"><path d="M 32 37 L 38 37 L 38 43 L 32 43 Z M 32 37 " clip-rule="nonzero"/></clipPath><clipPath id="aae7b2a22e"><path d="M 32.882812 42.15625 L 32.9375 37.304688 L 37.789062 37.355469 L 37.734375 42.207031 Z M 32.882812 42.15625 " clip-rule="nonzero"/></clipPath><clipPath id="5ff9ea1824"><path d="M 28 37 L 34 37 L 34 43 L 28 43 Z M 28 37 " clip-rule="nonzero"/></clipPath><clipPath id="8f8cd7def6"><path d="M 28.207031 42.15625 L 28.257812 37.304688 L 33.109375 37.355469 L 33.058594 42.207031 Z M 28.207031 42.15625 " clip-rule="nonzero"/></clipPath><clipPath id="4afa27ab4f"><path d="M 32 41 L 38 41 L 38 47 L 32 47 Z M 32 41 " clip-rule="nonzero"/></clipPath><clipPath id="b7e00a18dd"><path d="M 32.882812 46.757812 L 32.9375 41.90625 L 37.789062 41.960938 L 37.734375 46.808594 Z M 32.882812 46.757812 " clip-rule="nonzero"/></clipPath><clipPath id="e0c70dccbd"><path d="M 28 41 L 34 41 L 34 47 L 28 47 Z M 28 41 " clip-rule="nonzero"/></clipPath><clipPath id="b1eb7e1118"><path d="M 28.207031 46.757812 L 28.257812 41.90625 L 33.109375 41.960938 L 33.058594 46.808594 Z M 28.207031 46.757812 " clip-rule="nonzero"/></clipPath><clipPath id="357ae6ed5c"><path d="M 32 46 L 38 46 L 38 52 L 32 52 Z M 32 46 " clip-rule="nonzero"/></clipPath><clipPath id="72091e0cb8"><path d="M 32.882812 51.460938 L 32.9375 46.609375 L 37.789062 46.664062 L 37.734375 51.515625 Z M 32.882812 51.460938 " clip-rule="nonzero"/></clipPath><clipPath id="988027b2bc"><path d="M 28 46 L 34 46 L 34 52 L 28 52 Z M 28 46 " clip-rule="nonzero"/></clipPath><clipPath id="b6696826ae"><path d="M 28.207031 51.460938 L 28.257812 46.609375 L 33.109375 46.664062 L 33.058594 51.515625 Z M 28.207031 51.460938 " clip-rule="nonzero"/></clipPath><clipPath id="86e25d1939"><path d="M 23 51 L 29 51 L 29 57 L 23 57 Z M 23 51 " clip-rule="nonzero"/></clipPath><clipPath id="639e0db765"><path d="M 23.511719 56.15625 L 23.566406 51.304688 L 28.417969 51.355469 L 28.363281 56.207031 Z M 23.511719 56.15625 " clip-rule="nonzero"/></clipPath><clipPath id="dff0a444dc"><path d="M 23 56 L 29 56 L 29 61 L 23 61 Z M 23 56 " clip-rule="nonzero"/></clipPath><clipPath id="c335ef6797"><path d="M 23.511719 60.859375 L 23.566406 56.007812 L 28.417969 56.058594 L 28.363281 60.910156 Z M 23.511719 60.859375 " clip-rule="nonzero"/></clipPath><clipPath id="9d756b00ce"><path d="M 28 60 L 34 60 L 34 66 L 28 66 Z M 28 60 " clip-rule="nonzero"/></clipPath><clipPath id="1c546d5e1a"><path d="M 28.207031 65.65625 L 28.257812 60.804688 L 33.109375 60.855469 L 33.058594 65.707031 Z M 28.207031 65.65625 " clip-rule="nonzero"/></clipPath><clipPath id="28b2e492eb"><path d="M 23 60 L 29 60 L 29 66 L 23 66 Z M 23 60 " clip-rule="nonzero"/></clipPath><clipPath id="6796fceed1"><path d="M 23.511719 65.488281 L 23.566406 60.636719 L 28.417969 60.6875 L 28.363281 65.539062 Z M 23.511719 65.488281 " clip-rule="nonzero"/></clipPath><clipPath id="a86d529974"><path d="M 28.234375 51.339844 L 33.082031 51.339844 L 33.082031 56.191406 L 28.234375 56.191406 Z M 28.234375 51.339844 " clip-rule="nonzero"/></clipPath><clipPath id="a142481b4c"><path d="M 28.234375 56.042969 L 33.082031 56.042969 L 33.082031 60.894531 L 28.234375 60.894531 Z M 28.234375 56.042969 " clip-rule="nonzero"/></clipPath><clipPath id="70b60e68d5"><path d="M 37 32 L 43 32 L 43 38 L 37 38 Z M 37 32 " clip-rule="nonzero"/></clipPath><clipPath id="308ca1e97c"><path d="M 37.660156 37.367188 L 37.714844 32.515625 L 42.566406 32.566406 L 42.511719 37.417969 Z M 37.660156 37.367188 " clip-rule="nonzero"/></clipPath><clipPath id="c3c3cb998c"><path d="M 37 37 L 43 37 L 43 43 L 37 43 Z M 37 37 " clip-rule="nonzero"/></clipPath><clipPath id="e4e2b11c29"><path d="M 37.660156 42.15625 L 37.714844 37.304688 L 42.566406 37.355469 L 42.511719 42.207031 Z M 37.660156 42.15625 " clip-rule="nonzero"/></clipPath><clipPath id="0aa8b6b07c"><path d="M 37 41 L 43 41 L 43 47 L 37 47 Z M 37 41 " clip-rule="nonzero"/></clipPath><clipPath id="3150507009"><path d="M 37.660156 46.757812 L 37.714844 41.90625 L 42.566406 41.960938 L 42.511719 46.808594 Z M 37.660156 46.757812 " clip-rule="nonzero"/></clipPath><clipPath id="9064197a43"><path d="M 37 46 L 43 46 L 43 52 L 37 52 Z M 37 46 " clip-rule="nonzero"/></clipPath><clipPath id="5f1ee20f80"><path d="M 37.660156 51.460938 L 37.714844 46.609375 L 42.566406 46.664062 L 42.511719 51.515625 Z M 37.660156 51.460938 " clip-rule="nonzero"/></clipPath><clipPath id="feafa42322"><path d="M 42 32 L 48 32 L 48 38 L 42 38 Z M 42 32 " clip-rule="nonzero"/></clipPath><clipPath id="9b4abd9df3"><path d="M 42.464844 37.367188 L 42.515625 32.515625 L 47.367188 32.566406 L 47.316406 37.417969 Z M 42.464844 37.367188 " clip-rule="nonzero"/></clipPath><clipPath id="c1740bd278"><path d="M 42 37 L 48 37 L 48 43 L 42 43 Z M 42 37 " clip-rule="nonzero"/></clipPath><clipPath id="9fc40a0fce"><path d="M 42.464844 42.15625 L 42.515625 37.304688 L 47.367188 37.355469 L 47.316406 42.207031 Z M 42.464844 42.15625 " clip-rule="nonzero"/></clipPath><clipPath id="0cf8b79d23"><path d="M 42.488281 41.945312 L 47.339844 41.945312 L 47.339844 46.796875 L 42.488281 46.796875 Z M 42.488281 41.945312 " clip-rule="nonzero"/></clipPath><clipPath id="420db1c2ba"><path d="M 42.492188 46.648438 L 47.34375 46.648438 L 47.34375 51.5 L 42.492188 51.5 Z M 42.492188 46.648438 " clip-rule="nonzero"/></clipPath><clipPath id="03f35308c5"><path d="M 32.910156 51.339844 L 37.761719 51.339844 L 37.761719 56.191406 L 32.910156 56.191406 Z M 32.910156 51.339844 " clip-rule="nonzero"/></clipPath><clipPath id="bade422b26"><path d="M 37.6875 51.339844 L 42.539062 51.339844 L 42.539062 56.191406 L 37.6875 56.191406 Z M 37.6875 51.339844 " clip-rule="nonzero"/></clipPath><clipPath id="81bc10c6f0"><path d="M 32.910156 56.042969 L 37.761719 56.042969 L 37.761719 60.894531 L 32.910156 60.894531 Z M 32.910156 56.042969 " clip-rule="nonzero"/></clipPath><clipPath id="e8ccb07aa3"><path d="M 37.6875 56.042969 L 42.539062 56.042969 L 42.539062 60.894531 L 37.6875 60.894531 Z M 37.6875 56.042969 " clip-rule="nonzero"/></clipPath><clipPath id="960db42821"><path d="M 42 51 L 48 51 L 48 57 L 42 57 Z M 42 51 " clip-rule="nonzero"/></clipPath><clipPath id="7552a15265"><path d="M 42.464844 56.15625 L 42.515625 51.304688 L 47.367188 51.355469 L 47.316406 56.207031 Z M 42.464844 56.15625 " clip-rule="nonzero"/></clipPath><clipPath id="547f2b8cd2"><path d="M 42 56 L 48 56 L 48 61 L 42 61 Z M 42 56 " clip-rule="nonzero"/></clipPath><clipPath id="4923a26458"><path d="M 42.464844 60.859375 L 42.515625 56.007812 L 47.367188 56.058594 L 47.316406 60.910156 Z M 42.464844 60.859375 " clip-rule="nonzero"/></clipPath><clipPath id="04f94eb56b"><path d="M 42 27 L 48 27 L 48 33 L 42 33 Z M 42 27 " clip-rule="nonzero"/></clipPath><clipPath id="dffb8a3486"><path d="M 42.464844 32.789062 L 42.515625 27.9375 L 47.367188 27.988281 L 47.316406 32.839844 Z M 42.464844 32.789062 " clip-rule="nonzero"/></clipPath><clipPath id="bc938742dd"><path d="M 37 27 L 43 27 L 43 33 L 37 33 Z M 37 27 " clip-rule="nonzero"/></clipPath><clipPath id="4da103f555"><path d="M 37.660156 32.675781 L 37.714844 27.824219 L 42.566406 27.875 L 42.511719 32.726562 Z M 37.660156 32.675781 " clip-rule="nonzero"/></clipPath><clipPath id="c28d2240fa"><path d="M 37.6875 14.054688 L 42.539062 14.054688 L 42.539062 18.90625 L 37.6875 18.90625 Z M 37.6875 14.054688 " clip-rule="nonzero"/></clipPath><clipPath id="33aefab3db"><path d="M 47.292969 14.054688 L 52.144531 14.054688 L 52.144531 18.90625 L 47.292969 18.90625 Z M 47.292969 14.054688 " clip-rule="nonzero"/></clipPath><clipPath id="08890cc3ca"><path d="M 42.492188 14.054688 L 47.34375 14.054688 L 47.34375 18.90625 L 42.492188 18.90625 Z M 42.492188 14.054688 " clip-rule="nonzero"/></clipPath><clipPath id="0a65b4fe7e"><path d="M 37.6875 18.695312 L 42.539062 18.695312 L 42.539062 23.546875 L 37.6875 23.546875 Z M 37.6875 18.695312 " clip-rule="nonzero"/></clipPath><clipPath id="7be6068fb3"><path d="M 47.292969 18.695312 L 52.144531 18.695312 L 52.144531 23.546875 L 47.292969 23.546875 Z M 47.292969 18.695312 " clip-rule="nonzero"/></clipPath><clipPath id="2eff324c52"><path d="M 42.492188 18.695312 L 47.34375 18.695312 L 47.34375 23.546875 L 42.492188 23.546875 Z M 42.492188 18.695312 " clip-rule="nonzero"/></clipPath><clipPath id="043ae4c0a7"><path d="M 37.6875 23.246094 L 42.539062 23.246094 L 42.539062 28.097656 L 37.6875 28.097656 Z M 37.6875 23.246094 " clip-rule="nonzero"/></clipPath><clipPath id="cb9ece59c6"><path d="M 47.292969 23.335938 L 52.144531 23.335938 L 52.144531 28.1875 L 47.292969 28.1875 Z M 47.292969 23.335938 " clip-rule="nonzero"/></clipPath><clipPath id="28f253dfc3"><path d="M 42.492188 23.335938 L 47.34375 23.335938 L 47.34375 28.1875 L 42.492188 28.1875 Z M 42.492188 23.335938 " clip-rule="nonzero"/></clipPath><clipPath id="e06689cd8a"><path d="M 42.492188 9.265625 L 47.34375 9.265625 L 47.34375 14.117188 L 42.492188 14.117188 Z M 42.492188 9.265625 " clip-rule="nonzero"/></clipPath><clipPath id="2efb798f89"><path d="M 37.6875 9.265625 L 42.539062 9.265625 L 42.539062 14.117188 L 37.6875 14.117188 Z M 37.6875 9.265625 " clip-rule="nonzero"/></clipPath><clipPath id="f1c582bf88"><path d="M 51.960938 9.265625 L 56.8125 9.265625 L 56.8125 14.117188 L 51.960938 14.117188 Z M 51.960938 9.265625 " clip-rule="nonzero"/></clipPath><clipPath id="7cab34285b"><path d="M 47.292969 9.265625 L 52.144531 9.265625 L 52.144531 14.117188 L 47.292969 14.117188 Z M 47.292969 9.265625 " clip-rule="nonzero"/></clipPath><clipPath id="b092e565cd"><path d="M 47.285156 60.832031 L 52.132812 60.832031 L 52.132812 65.683594 L 47.285156 65.683594 Z M 47.285156 60.832031 " clip-rule="nonzero"/></clipPath><clipPath id="e030bac7e6"><path d="M 37 60 L 43 60 L 43 66 L 37 66 Z M 37 60 " clip-rule="nonzero"/></clipPath><clipPath id="fdffe893b0"><path d="M 42.554688 60.867188 L 42.5 65.71875 L 37.648438 65.667969 L 37.703125 60.816406 Z M 42.554688 60.867188 " clip-rule="nonzero"/></clipPath><clipPath id="ec661e1488"><path d="M 42 60 L 48 60 L 48 66 L 42 66 Z M 42 60 " clip-rule="nonzero"/></clipPath><clipPath id="6ec5ee491c"><path d="M 47.355469 60.867188 L 47.304688 65.71875 L 42.453125 65.667969 L 42.507812 60.816406 Z M 47.355469 60.867188 " clip-rule="nonzero"/></clipPath><clipPath id="6a68ccb39c"><path d="M 32 60 L 38 60 L 38 66 L 32 66 Z M 32 60 " clip-rule="nonzero"/></clipPath><clipPath id="d45cfe137e"><path d="M 37.777344 60.867188 L 37.722656 65.71875 L 32.871094 65.667969 L 32.925781 60.816406 Z M 37.777344 60.867188 " clip-rule="nonzero"/></clipPath><clipPath id="8fc3eb482b"><path d="M 47 51 L 53 51 L 53 57 L 47 57 Z M 47 51 " clip-rule="nonzero"/></clipPath><clipPath id="7ecc39d7e4"><path d="M 52.109375 56.207031 L 47.257812 56.152344 L 47.308594 51.304688 L 52.160156 51.355469 Z M 52.109375 56.207031 " clip-rule="nonzero"/></clipPath><clipPath id="1888404a06"><path d="M 47 56 L 53 56 L 53 61 L 47 61 Z M 47 56 " clip-rule="nonzero"/></clipPath><clipPath id="a47ddf54b3"><path d="M 52.109375 60.910156 L 47.257812 60.859375 L 47.308594 56.007812 L 52.160156 56.058594 Z M 52.109375 60.910156 " clip-rule="nonzero"/></clipPath><clipPath id="38624928db"><path d="M 47 46 L 53 46 L 53 52 L 47 52 Z M 47 46 " clip-rule="nonzero"/></clipPath><clipPath id="d6c6e7cf74"><path d="M 52.109375 51.515625 L 47.257812 51.460938 L 47.308594 46.609375 L 52.160156 46.664062 Z M 52.109375 51.515625 " clip-rule="nonzero"/></clipPath><clipPath id="af3dad11ec"><path d="M 47 32 L 53 32 L 53 38 L 47 38 Z M 47 32 " clip-rule="nonzero"/></clipPath><clipPath id="86d39ec99d"><path d="M 47.269531 37.367188 L 47.320312 32.515625 L 52.171875 32.566406 L 52.121094 37.417969 Z M 47.269531 37.367188 " clip-rule="nonzero"/></clipPath><clipPath id="3c6e215970"><path d="M 47 37 L 53 37 L 53 43 L 47 43 Z M 47 37 " clip-rule="nonzero"/></clipPath><clipPath id="cabe0067ff"><path d="M 47.269531 42.15625 L 47.320312 37.304688 L 52.171875 37.355469 L 52.121094 42.207031 Z M 47.269531 42.15625 " clip-rule="nonzero"/></clipPath><clipPath id="d65c504da8"><path d="M 47 41 L 53 41 L 53 47 L 47 47 Z M 47 41 " clip-rule="nonzero"/></clipPath><clipPath id="b96947e0c8"><path d="M 47.269531 46.757812 L 47.320312 41.90625 L 52.171875 41.960938 L 52.121094 46.808594 Z M 47.269531 46.757812 " clip-rule="nonzero"/></clipPath><clipPath id="57d707379d"><path d="M 19 56.042969 L 23.851562 56.042969 L 23.851562 60.894531 L 19 60.894531 Z M 19 56.042969 " clip-rule="nonzero"/></clipPath><clipPath id="98352fc4fc"><path d="M 18.925781 60.699219 L 23.777344 60.699219 L 23.777344 65.550781 L 18.925781 65.550781 Z M 18.925781 60.699219 " clip-rule="nonzero"/></clipPath><clipPath id="d707e155e6"><path d="M 19 51.339844 L 23.851562 51.339844 L 23.851562 56.191406 L 19 56.191406 Z M 19 51.339844 " clip-rule="nonzero"/></clipPath><clipPath id="ae931ac5d0"><path d="M 19 46.648438 L 23.851562 46.648438 L 23.851562 51.5 L 19 51.5 Z M 19 46.648438 " clip-rule="nonzero"/></clipPath><clipPath id="1febba21ed"><path d="M 23.511719 41.945312 L 28.363281 41.945312 L 28.363281 46.796875 L 23.511719 46.796875 Z M 23.511719 41.945312 " clip-rule="nonzero"/></clipPath><clipPath id="21213ab2eb"><path d="M 23.539062 46.648438 L 28.390625 46.648438 L 28.390625 51.5 L 23.539062 51.5 Z M 23.539062 46.648438 " clip-rule="nonzero"/></clipPath><clipPath id="053f6d9f63"><path d="M 52.171875 56.042969 L 57.023438 56.042969 L 57.023438 60.894531 L 52.171875 60.894531 Z M 52.171875 56.042969 " clip-rule="nonzero"/></clipPath><clipPath id="51662d2e22"><path d="M 52.171875 51.339844 L 57.023438 51.339844 L 57.023438 56.191406 L 52.171875 56.191406 Z M 52.171875 51.339844 " clip-rule="nonzero"/></clipPath><clipPath id="68fe7c326c"><path d="M 52.171875 46.648438 L 57.023438 46.648438 L 57.023438 51.5 L 52.171875 51.5 Z M 52.171875 46.648438 " clip-rule="nonzero"/></clipPath><clipPath id="4fb5106c11"><path d="M 37 65 L 43 65 L 43 71 L 37 71 Z M 37 65 " clip-rule="nonzero"/></clipPath><clipPath id="c84201d216"><path d="M 37.660156 70.347656 L 37.714844 65.496094 L 42.566406 65.550781 L 42.511719 70.402344 Z M 37.660156 70.347656 " clip-rule="nonzero"/></clipPath><clipPath id="db1b641f6e"><path d="M 32 65 L 38 65 L 38 71 L 32 71 Z M 32 65 " clip-rule="nonzero"/></clipPath><clipPath id="b06685cc4c"><path d="M 32.882812 70.347656 L 32.9375 65.496094 L 37.789062 65.550781 L 37.734375 70.402344 Z M 32.882812 70.347656 " clip-rule="nonzero"/></clipPath><clipPath id="ddae88f68e"><path d="M 28.234375 65.535156 L 33.082031 65.535156 L 33.082031 70.386719 L 28.234375 70.386719 Z M 28.234375 65.535156 " clip-rule="nonzero"/></clipPath><clipPath id="9d5b1714ed"><path d="M 42.492188 65.535156 L 47.34375 65.535156 L 47.34375 70.386719 L 42.492188 70.386719 Z M 42.492188 65.535156 " clip-rule="nonzero"/></clipPath><clipPath id="694227000c"><path d="M 52.042969 32.554688 L 56.890625 32.554688 L 56.890625 37.40625 L 52.042969 37.40625 Z M 52.042969 32.554688 " clip-rule="nonzero"/></clipPath><clipPath id="1ee9f1ac0f"><path d="M 52.042969 37.339844 L 56.890625 37.339844 L 56.890625 42.191406 L 52.042969 42.191406 Z M 52.042969 37.339844 " clip-rule="nonzero"/></clipPath><clipPath id="5382f0207a"><path d="M 52.042969 41.945312 L 56.890625 41.945312 L 56.890625 46.796875 L 52.042969 46.796875 Z M 52.042969 41.945312 " clip-rule="nonzero"/></clipPath><clipPath id="5773ad0ab5"><path d="M 47.292969 27.972656 L 52.144531 27.972656 L 52.144531 32.824219 L 47.292969 32.824219 Z M 47.292969 27.972656 " clip-rule="nonzero"/></clipPath><clipPath id="967e59a1bc"><path d="M 51.960938 27.972656 L 56.8125 27.972656 L 56.8125 32.824219 L 51.960938 32.824219 Z M 51.960938 27.972656 " clip-rule="nonzero"/></clipPath><clipPath id="19313c02f4"><path d="M 51.960938 14.054688 L 56.8125 14.054688 L 56.8125 18.90625 L 51.960938 18.90625 Z M 51.960938 14.054688 " clip-rule="nonzero"/></clipPath><clipPath id="2aa5b53341"><path d="M 51.960938 18.695312 L 56.8125 18.695312 L 56.8125 23.546875 L 51.960938 23.546875 Z M 51.960938 18.695312 " clip-rule="nonzero"/></clipPath><clipPath id="7438442734"><path d="M 51.960938 23.335938 L 56.8125 23.335938 L 56.8125 28.1875 L 51.960938 28.1875 Z M 51.960938 23.335938 " clip-rule="nonzero"/></clipPath><clipPath id="c82feb5670"><path d="M 56.699219 14.054688 L 61.550781 14.054688 L 61.550781 18.90625 L 56.699219 18.90625 Z M 56.699219 14.054688 " clip-rule="nonzero"/></clipPath><clipPath id="304ad19fa2"><path d="M 56.839844 32.554688 L 61.691406 32.554688 L 61.691406 37.40625 L 56.839844 37.40625 Z M 56.839844 32.554688 " clip-rule="nonzero"/></clipPath><clipPath id="bd4f92c69c"><path d="M 56.839844 37.339844 L 61.691406 37.339844 L 61.691406 42.191406 L 56.839844 42.191406 Z M 56.839844 37.339844 " clip-rule="nonzero"/></clipPath><clipPath id="532c7df64a"><path d="M 56.839844 41.945312 L 61.691406 41.945312 L 61.691406 46.796875 L 56.839844 46.796875 Z M 56.839844 41.945312 " clip-rule="nonzero"/></clipPath><clipPath id="2c1dadef3d"><path d="M 56.699219 27.972656 L 61.550781 27.972656 L 61.550781 32.824219 L 56.699219 32.824219 Z M 56.699219 27.972656 " clip-rule="nonzero"/></clipPath><clipPath id="b30578d528"><path d="M 56.699219 18.695312 L 61.550781 18.695312 L 61.550781 23.546875 L 56.699219 23.546875 Z M 56.699219 18.695312 " clip-rule="nonzero"/></clipPath><clipPath id="e4c661195d"><path d="M 56.699219 23.335938 L 61.550781 23.335938 L 61.550781 28.1875 L 56.699219 28.1875 Z M 56.699219 23.335938 " clip-rule="nonzero"/></clipPath><clipPath id="cb981dc8c9"><path d="M 61.117188 32.554688 L 65.96875 32.554688 L 65.96875 37.40625 L 61.117188 37.40625 Z M 61.117188 32.554688 " clip-rule="nonzero"/></clipPath><clipPath id="9db110feb4"><path d="M 61.117188 37.339844 L 65.96875 37.339844 L 65.96875 42.191406 L 61.117188 42.191406 Z M 61.117188 37.339844 " clip-rule="nonzero"/></clipPath><clipPath id="f97e2f997f"><path d="M 61.117188 41.945312 L 65.96875 41.945312 L 65.96875 46.796875 L 61.117188 46.796875 Z M 61.117188 41.945312 " clip-rule="nonzero"/></clipPath><clipPath id="c3cf5f597e"><path d="M 61.117188 27.972656 L 65.96875 27.972656 L 65.96875 32.824219 L 61.117188 32.824219 Z M 61.117188 27.972656 " clip-rule="nonzero"/></clipPath><clipPath id="dda5c987d0"><path d="M 61.117188 23.335938 L 65.96875 23.335938 L 65.96875 28.1875 L 61.117188 28.1875 Z M 61.117188 23.335938 " clip-rule="nonzero"/></clipPath><clipPath id="ba507c4dce"><path d="M 56.972656 51.339844 L 61.539062 51.339844 L 61.539062 56.191406 L 56.972656 56.191406 Z M 56.972656 51.339844 " clip-rule="nonzero"/></clipPath><clipPath id="498e53fada"><path d="M 56.972656 56.042969 L 61.539062 56.042969 L 61.539062 60.894531 L 56.972656 60.894531 Z M 56.972656 56.042969 " clip-rule="nonzero"/></clipPath><clipPath id="e4a9d9642a"><path d="M 56.972656 60.84375 L 61.539062 60.84375 L 61.539062 65.695312 L 56.972656 65.695312 Z M 56.972656 60.84375 " clip-rule="nonzero"/></clipPath><clipPath id="71837ca0be"><path d="M 56.972656 46.648438 L 61.824219 46.648438 L 61.824219 51.5 L 56.972656 51.5 Z M 56.972656 46.648438 " clip-rule="nonzero"/></clipPath><clipPath id="15d029e2a1"><path d="M 61.40625 51.339844 L 65.972656 51.339844 L 65.972656 56.191406 L 61.40625 56.191406 Z M 61.40625 51.339844 " clip-rule="nonzero"/></clipPath><clipPath id="3c6908790d"><path d="M 61.40625 56.042969 L 65.972656 56.042969 L 65.972656 60.894531 L 61.40625 60.894531 Z M 61.40625 56.042969 " clip-rule="nonzero"/></clipPath><clipPath id="e39ded8683"><path d="M 61.40625 60.84375 L 65.972656 60.84375 L 65.972656 65.695312 L 61.40625 65.695312 Z M 61.40625 60.84375 " clip-rule="nonzero"/></clipPath><clipPath id="5c5807a5b0"><path d="M 61.25 46.648438 L 66.101562 46.648438 L 66.101562 51.5 L 61.25 51.5 Z M 61.25 46.648438 " clip-rule="nonzero"/></clipPath><clipPath id="9bedd786cf"><path d="M 65.582031 60.84375 L 70.148438 60.84375 L 70.148438 65.695312 L 65.582031 65.695312 Z M 65.582031 60.84375 " clip-rule="nonzero"/></clipPath><clipPath id="8bf0fee807"><path d="M 52.171875 60.84375 L 57.023438 60.84375 L 57.023438 65.695312 L 52.171875 65.695312 Z M 52.171875 60.84375 " clip-rule="nonzero"/></clipPath><clipPath id="4ac0b8b1cc"><path d="M 61.550781 18.90625 L 66.402344 18.90625 L 66.402344 23.757812 L 61.550781 23.757812 Z M 61.550781 18.90625 " clip-rule="nonzero"/></clipPath><clipPath id="03dd82b88f"><path d="M 61.617188 23.394531 L 66.46875 23.394531 L 66.46875 28.246094 L 61.617188 28.246094 Z M 61.617188 23.394531 " clip-rule="nonzero"/></clipPath><clipPath id="8a1c73c112"><path d="M 61.617188 27.976562 L 66.46875 27.976562 L 66.46875 32.828125 L 61.617188 32.828125 Z M 61.617188 27.976562 " clip-rule="nonzero"/></clipPath><clipPath id="76f02df208"><path d="M 61.617188 32.761719 L 66.46875 32.761719 L 66.46875 37.613281 L 61.617188 37.613281 Z M 61.617188 32.761719 " clip-rule="nonzero"/></clipPath><clipPath id="2345cac748"><path d="M 65.917969 37.613281 L 70.769531 37.613281 L 70.769531 47.316406 L 65.917969 47.316406 Z M 65.917969 37.613281 " clip-rule="nonzero"/></clipPath><clipPath id="7a0d787f19"><path d="M 65.917969 56.03125 L 70.769531 56.03125 L 70.769531 60.882812 L 65.917969 60.882812 Z M 65.917969 56.03125 " clip-rule="nonzero"/></clipPath><clipPath id="24f4e24f15"><path d="M 65.917969 51.601562 L 70.769531 51.601562 L 70.769531 56.453125 L 65.917969 56.453125 Z M 65.917969 51.601562 " clip-rule="nonzero"/></clipPath><clipPath id="f220a49621"><path d="M 65.917969 46.894531 L 70.769531 46.894531 L 70.769531 51.746094 L 65.917969 51.746094 Z M 65.917969 46.894531 " clip-rule="nonzero"/></clipPath><clipPath id="5dbf04864d"><path d="M 65.917969 42.464844 L 70.769531 42.464844 L 70.769531 47.316406 L 65.917969 47.316406 Z M 65.917969 42.464844 " clip-rule="nonzero"/></clipPath><clipPath id="579bfd11e5"><path d="M 65.917969 46.957031 L 70.769531 46.957031 L 70.769531 51.808594 L 65.917969 51.808594 Z M 65.917969 46.957031 " clip-rule="nonzero"/></clipPath><clipPath id="5a8dc03e0d"><path d="M 65.917969 51.601562 L 70.769531 51.601562 L 70.769531 56.453125 L 65.917969 56.453125 Z M 65.917969 51.601562 " clip-rule="nonzero"/></clipPath><clipPath id="28e415bdbb"><path d="M 65.917969 56.242188 L 70.769531 56.242188 L 70.769531 61.09375 L 65.917969 61.09375 Z M 65.917969 56.242188 " clip-rule="nonzero"/></clipPath><clipPath id="cef2b050e6"><path d="M 70.148438 61.09375 L 75 61.09375 L 75 65.945312 L 70.148438 65.945312 Z M 70.148438 61.09375 " clip-rule="nonzero"/></clipPath><clipPath id="616e5a024d"><path d="M 46.992188 65.535156 L 51.84375 65.535156 L 51.84375 70.386719 L 46.992188 70.386719 Z M 46.992188 65.535156 " clip-rule="nonzero"/></clipPath><clipPath id="75be530be2"><path d="M 56.574219 65.535156 L 61.425781 65.535156 L 61.425781 70.386719 L 56.574219 70.386719 Z M 56.574219 65.535156 " clip-rule="nonzero"/></clipPath><clipPath id="8b19d415a1"><path d="M 51.769531 65.535156 L 56.621094 65.535156 L 56.621094 70.386719 L 51.769531 70.386719 Z M 51.769531 65.535156 " clip-rule="nonzero"/></clipPath><clipPath id="78694163ee"><path d="M 65.582031 65.535156 L 70.433594 65.535156 L 70.433594 70.386719 L 65.582031 70.386719 Z M 65.582031 65.535156 " clip-rule="nonzero"/></clipPath><clipPath id="76c7056a68"><path d="M 61.25 65.535156 L 66.101562 65.535156 L 66.101562 70.386719 L 61.25 70.386719 Z M 61.25 65.535156 " clip-rule="nonzero"/></clipPath><clipPath id="658f9a4f0e"><path d="M 23.539062 70.128906 L 28.390625 70.128906 L 28.390625 74.980469 L 23.539062 74.980469 Z M 23.539062 70.128906 " clip-rule="nonzero"/></clipPath><clipPath id="307a11e0b4"><path d="M 19 70.128906 L 23.851562 70.128906 L 23.851562 74.980469 L 19 74.980469 Z M 19 70.128906 " clip-rule="nonzero"/></clipPath><clipPath id="341553a51a"><path d="M 28.234375 70.128906 L 33.082031 70.128906 L 33.082031 74.980469 L 28.234375 74.980469 Z M 28.234375 70.128906 " clip-rule="nonzero"/></clipPath><clipPath id="34d31c2cab"><path d="M 37.359375 70.148438 L 42.210938 70.148438 L 42.210938 75 L 37.359375 75 Z M 37.359375 70.148438 " clip-rule="nonzero"/></clipPath><clipPath id="cad420f49d"><path d="M 32.820312 70.148438 L 37.671875 70.148438 L 37.671875 75 L 32.820312 75 Z M 32.820312 70.148438 " clip-rule="nonzero"/></clipPath><clipPath id="41154db383"><path d="M 42.050781 70.148438 L 46.902344 70.148438 L 46.902344 75 L 42.050781 75 Z M 42.050781 70.148438 " clip-rule="nonzero"/></clipPath><clipPath id="d8fe6a7bbe"><path d="M 46.847656 70.148438 L 51.699219 70.148438 L 51.699219 75 L 46.847656 75 Z M 46.847656 70.148438 " clip-rule="nonzero"/></clipPath><clipPath id="0893ec4f83"><path d="M 51.539062 70.148438 L 56.390625 70.148438 L 56.390625 75 L 51.539062 75 Z M 51.539062 70.148438 " clip-rule="nonzero"/></clipPath></defs><g clip-path="url(#e0f3e6ce2a)"><path fill="#000000" d="M 14.257812 14.054688 L 19.109375 14.054688 L 19.109375 18.90625 L 14.257812 18.90625 Z M 14.257812 14.054688 " fill-opacity="1" fill-rule="nonzero"/></g><g clip-path="url(#4b1756e653)"><path fill="#000000" d="M 9.554688 18.695312 L 14.40625 18.695312 L 14.40625 23.546875 L 9.554688 23.546875 Z M 9.554688 18.695312 " fill-opacity="1" fill-rule="nonzero"/></g><g clip-path="url(#5195592735)"><path fill="#004aad" d="M 8.042969 25.820312 L 18.445312 25.820312 L 18.445312 70.125 L 8.042969 70.125 Z M 8.042969 25.820312 " fill-opacity="1" fill-rule="nonzero"/></g><g clip-path="url(#6d33f1df20)"><path fill="#000000" d="M 9.554688 23.335938 L 14.40625 23.335938 L 14.40625 28.1875 L 9.554688 28.1875 Z M 9.554688 23.335938 " fill-opacity="1" fill-rule="nonzero"/></g><g clip-path="url(#1b7ee72881)"><path fill="#000000" d="M 4.777344 23.335938 L 9.628906 23.335938 L 9.628906 28.1875 L 4.777344 28.1875 Z M 4.777344 23.335938 " fill-opacity="1" fill-rule="nonzero"/></g><g clip-path="url(#5f9db44db5)"><path fill="#000000" d="M 23.539062 9.265625 L 28.390625 9.265625 L 28.390625 14.117188 L 23.539062 14.117188 Z M 23.539062 9.265625 " fill-opacity="1" fill-rule="nonzero"/></g><g clip-path="url(#3f008e0112)"><path fill="#000000" d="M 19 9.265625 L 23.851562 9.265625 L 23.851562 14.117188 L 19 14.117188 Z M 19 9.265625 " fill-opacity="1" fill-rule="nonzero"/></g><g clip-path="url(#f1e65afaa4)"><path fill="#000000" d="M 32.910156 9.265625 L 37.761719 9.265625 L 37.761719 14.117188 L 32.910156 14.117188 Z M 32.910156 9.265625 " fill-opacity="1" fill-rule="nonzero"/></g><g clip-path="url(#50f169554b)"><path fill="#000000" d="M 28.234375 9.265625 L 33.082031 9.265625 L 33.082031 14.117188 L 28.234375 14.117188 Z M 28.234375 9.265625 " fill-opacity="1" fill-rule="nonzero"/></g><g clip-path="url(#7dcfc042a6)"><path fill="#000000" d="M 4.777344 27.972656 L 9.628906 27.972656 L 9.628906 32.824219 L 4.777344 32.824219 Z M 4.777344 27.972656 " fill-opacity="1" fill-rule="nonzero"/></g><g clip-path="url(#38c50fa0eb)"><path fill="#000000" d="M 4.777344 32.554688 L 9.628906 32.554688 L 9.628906 37.40625 L 4.777344 37.40625 Z M 4.777344 32.554688 " fill-opacity="1" fill-rule="nonzero"/></g><g clip-path="url(#33cb498d04)"><path fill="#000000" d="M 4.777344 37.339844 L 9.628906 37.339844 L 9.628906 42.191406 L 4.777344 42.191406 Z M 4.777344 37.339844 " fill-opacity="1" fill-rule="nonzero"/></g><g clip-path="url(#9d9b007b6a)"><path fill="#000000" d="M 0 41.945312 L 4.851562 41.945312 L 4.851562 46.796875 L 0 46.796875 Z M 0 41.945312 " fill-opacity="1" fill-rule="nonzero"/></g><g clip-path="url(#0185cb7d1f)"><path fill="#000000" d="M 4.777344 46.648438 L 9.628906 46.648438 L 9.628906 51.5 L 4.777344 51.5 Z M 4.777344 46.648438 " fill-opacity="1" fill-rule="nonzero"/></g><g clip-path="url(#07c47c508e)"><path fill="#000000" d="M 4.777344 51.339844 L 9.628906 51.339844 L 9.628906 56.191406 L 4.777344 56.191406 Z M 4.777344 51.339844 " fill-opacity="1" fill-rule="nonzero"/></g><g clip-path="url(#d72edd7f16)"><path fill="#000000" d="M 4.777344 56.042969 L 9.628906 56.042969 L 9.628906 60.894531 L 4.777344 60.894531 Z M 4.777344 56.042969 " fill-opacity="1" fill-rule="nonzero"/></g><g clip-path="url(#419fddf5ad)"><path fill="#000000" d="M 0 60.84375 L 4.851562 60.84375 L 4.851562 65.695312 L 0 65.695312 Z M 0 60.84375 " fill-opacity="1" fill-rule="nonzero"/></g><g clip-path="url(#5c80d9dd11)"><path fill="#000000" d="M 4.777344 65.535156 L 9.628906 65.535156 L 9.628906 70.386719 L 4.777344 70.386719 Z M 4.777344 65.535156 " fill-opacity="1" fill-rule="nonzero"/></g><g clip-path="url(#46325452c1)"><path fill="#004aad" d="M 19.109375 14.117188 L 56.621094 14.117188 L 56.621094 70.09375 L 19.109375 70.09375 Z M 19.109375 14.117188 " fill-opacity="1" fill-rule="nonzero"/></g><g clip-path="url(#967e67314d)"><path fill="#7d3203" d="M 19.109375 70.515625 L 54.605469 70.515625 L 54.605469 75.367188 L 19.109375 75.367188 Z M 19.109375 70.515625 " fill-opacity="1" fill-rule="nonzero"/></g><g clip-path="url(#df8c5e0b3f)"><g clip-path="url(#1420b98cb8)"><path fill="#dbb588" d="M 18.449219 70.476562 L 18.90625 27.839844 L 55.535156 28.234375 L 55.074219 70.871094 Z M 18.449219 70.476562 " fill-opacity="1" fill-rule="nonzero"/></g></g><g clip-path="url(#164a071d79)"><path fill="#000000" d="M 14.257812 70.128906 L 19.109375 70.128906 L 19.109375 74.980469 L 14.257812 74.980469 Z M 14.257812 70.128906 " fill-opacity="1" fill-rule="nonzero"/></g><g clip-path="url(#30e2c356e8)"><path fill="#000000" d="M 9.554688 70.128906 L 14.40625 70.128906 L 14.40625 74.980469 L 9.554688 74.980469 Z M 9.554688 70.128906 " fill-opacity="1" fill-rule="nonzero"/></g><g clip-path="url(#69f8cdab72)"><path fill="#004aad" d="M 14.257812 18.695312 L 19.109375 18.695312 L 19.109375 23.546875 L 14.257812 23.546875 Z M 14.257812 18.695312 " fill-opacity="1" fill-rule="nonzero"/></g><g clip-path="url(#4606a2332c)"><path fill="#004aad" d="M 23.539062 14.054688 L 28.390625 14.054688 L 28.390625 18.90625 L 23.539062 18.90625 Z M 23.539062 14.054688 " fill-opacity="1" fill-rule="nonzero"/></g><g clip-path="url(#e604bb2c5b)"><path fill="#004aad" d="M 19 14.054688 L 23.851562 14.054688 L 23.851562 18.90625 L 19 18.90625 Z M 19 14.054688 " fill-opacity="1" fill-rule="nonzero"/></g><g clip-path="url(#6eec3920be)"><path fill="#004aad" d="M 32.910156 14.054688 L 37.761719 14.054688 L 37.761719 18.90625 L 32.910156 18.90625 Z M 32.910156 14.054688 " fill-opacity="1" fill-rule="nonzero"/></g><g clip-path="url(#34d7ee138f)"><path fill="#004aad" d="M 28.234375 14.054688 L 33.082031 14.054688 L 33.082031 18.90625 L 28.234375 18.90625 Z M 28.234375 14.054688 " fill-opacity="1" fill-rule="nonzero"/></g><g clip-path="url(#17d5825597)"><path fill="#004aad" d="M 23.539062 18.695312 L 28.390625 18.695312 L 28.390625 23.546875 L 23.539062 23.546875 Z M 23.539062 18.695312 " fill-opacity="1" fill-rule="nonzero"/></g><g clip-path="url(#5d94f3ddfc)"><path fill="#004aad" d="M 19 18.695312 L 23.851562 18.695312 L 23.851562 23.546875 L 19 23.546875 Z M 19 18.695312 " fill-opacity="1" fill-rule="nonzero"/></g><g clip-path="url(#638acf8e4b)"><path fill="#004aad" d="M 32.910156 18.695312 L 37.761719 18.695312 L 37.761719 23.546875 L 32.910156 23.546875 Z M 32.910156 18.695312 " fill-opacity="1" fill-rule="nonzero"/></g><g clip-path="url(#7a497c8b1c)"><path fill="#004aad" d="M 28.234375 18.695312 L 33.082031 18.695312 L 33.082031 23.546875 L 28.234375 23.546875 Z M 28.234375 18.695312 " fill-opacity="1" fill-rule="nonzero"/></g><g clip-path="url(#31813a10b6)"><path fill="#004aad" d="M 9.554688 27.972656 L 14.40625 27.972656 L 14.40625 32.824219 L 9.554688 32.824219 Z M 9.554688 27.972656 " fill-opacity="1" fill-rule="nonzero"/></g><g clip-path="url(#98ccdc592a)"><path fill="#004aad" d="M 14.257812 23.335938 L 19.109375 23.335938 L 19.109375 28.1875 L 14.257812 28.1875 Z M 14.257812 23.335938 " fill-opacity="1" fill-rule="nonzero"/></g><g clip-path="url(#5160c94818)"><path fill="#004aad" d="M 14.257812 27.972656 L 19.109375 27.972656 L 19.109375 32.824219 L 14.257812 32.824219 Z M 14.257812 27.972656 " fill-opacity="1" fill-rule="nonzero"/></g><g clip-path="url(#482baed2e0)"><path fill="#004aad" d="M 9.554688 32.554688 L 14.40625 32.554688 L 14.40625 37.40625 L 9.554688 37.40625 Z M 9.554688 32.554688 " fill-opacity="1" fill-rule="nonzero"/></g><g clip-path="url(#aac3017446)"><path fill="#004aad" d="M 14.257812 32.554688 L 19.109375 32.554688 L 19.109375 37.40625 L 14.257812 37.40625 Z M 14.257812 32.554688 " fill-opacity="1" fill-rule="nonzero"/></g><g clip-path="url(#a63463273a)"><path fill="#004aad" d="M 9.554688 37.339844 L 14.40625 37.339844 L 14.40625 42.191406 L 9.554688 42.191406 Z M 9.554688 37.339844 " fill-opacity="1" fill-rule="nonzero"/></g><g clip-path="url(#9f06451e14)"><path fill="#004aad" d="M 14.257812 37.339844 L 19.109375 37.339844 L 19.109375 42.191406 L 14.257812 42.191406 Z M 14.257812 37.339844 " fill-opacity="1" fill-rule="nonzero"/></g><g clip-path="url(#edc06fa9d7)"><path fill="#004aad" d="M 9.554688 41.945312 L 14.40625 41.945312 L 14.40625 46.796875 L 9.554688 46.796875 Z M 9.554688 41.945312 " fill-opacity="1" fill-rule="nonzero"/></g><g clip-path="url(#de106b3004)"><path fill="#004aad" d="M 14.257812 41.945312 L 19.109375 41.945312 L 19.109375 46.796875 L 14.257812 46.796875 Z M 14.257812 41.945312 " fill-opacity="1" fill-rule="nonzero"/></g><g clip-path="url(#97a9d9fd0f)"><path fill="#004aad" d="M 4.777344 41.945312 L 9.628906 41.945312 L 9.628906 46.796875 L 4.777344 46.796875 Z M 4.777344 41.945312 " fill-opacity="1" fill-rule="nonzero"/></g><g clip-path="url(#e25c87ea1d)"><path fill="#004aad" d="M 9.554688 46.648438 L 14.40625 46.648438 L 14.40625 51.5 L 9.554688 51.5 Z M 9.554688 46.648438 " fill-opacity="1" fill-rule="nonzero"/></g><g clip-path="url(#1d1bf4a0f2)"><path fill="#004aad" d="M 14.257812 46.648438 L 19.109375 46.648438 L 19.109375 51.5 L 14.257812 51.5 Z M 14.257812 46.648438 " fill-opacity="1" fill-rule="nonzero"/></g><g clip-path="url(#3745ebdd1c)"><path fill="#004aad" d="M 9.554688 51.339844 L 14.40625 51.339844 L 14.40625 56.191406 L 9.554688 56.191406 Z M 9.554688 51.339844 " fill-opacity="1" fill-rule="nonzero"/></g><g clip-path="url(#7019df6e0a)"><path fill="#004aad" d="M 14.257812 51.339844 L 19.109375 51.339844 L 19.109375 56.191406 L 14.257812 56.191406 Z M 14.257812 51.339844 " fill-opacity="1" fill-rule="nonzero"/></g><g clip-path="url(#1fc7226c61)"><path fill="#004aad" d="M 9.554688 56.042969 L 14.40625 56.042969 L 14.40625 60.894531 L 9.554688 60.894531 Z M 9.554688 56.042969 " fill-opacity="1" fill-rule="nonzero"/></g><g clip-path="url(#55be650b28)"><path fill="#004aad" d="M 14.257812 56.042969 L 19.109375 56.042969 L 19.109375 60.894531 L 14.257812 60.894531 Z M 14.257812 56.042969 " fill-opacity="1" fill-rule="nonzero"/></g><g clip-path="url(#ba63b7f713)"><path fill="#004aad" d="M 9.554688 60.84375 L 14.40625 60.84375 L 14.40625 65.695312 L 9.554688 65.695312 Z M 9.554688 60.84375 " fill-opacity="1" fill-rule="nonzero"/></g><g clip-path="url(#15e78266d0)"><path fill="#004aad" d="M 14.257812 60.84375 L 19.109375 60.84375 L 19.109375 65.695312 L 14.257812 65.695312 Z M 14.257812 60.84375 " fill-opacity="1" fill-rule="nonzero"/></g><g clip-path="url(#1215ef5308)"><path fill="#004aad" d="M 4.777344 60.84375 L 9.628906 60.84375 L 9.628906 65.695312 L 4.777344 65.695312 Z M 4.777344 60.84375 " fill-opacity="1" fill-rule="nonzero"/></g><g clip-path="url(#cb3b28fc68)"><path fill="#004aad" d="M 23.539062 23.335938 L 28.390625 23.335938 L 28.390625 28.1875 L 23.539062 28.1875 Z M 23.539062 23.335938 " fill-opacity="1" fill-rule="nonzero"/></g><g clip-path="url(#aafd746a63)"><path fill="#004aad" d="M 19 23.335938 L 23.851562 23.335938 L 23.851562 28.1875 L 19 28.1875 Z M 19 23.335938 " fill-opacity="1" fill-rule="nonzero"/></g><g clip-path="url(#9d878c3c06)"><path fill="#004aad" d="M 32.910156 23.335938 L 37.761719 23.335938 L 37.761719 28.1875 L 32.910156 28.1875 Z M 32.910156 23.335938 " fill-opacity="1" fill-rule="nonzero"/></g><g clip-path="url(#237646cab1)"><path fill="#004aad" d="M 28.234375 23.335938 L 33.082031 23.335938 L 33.082031 28.1875 L 28.234375 28.1875 Z M 28.234375 23.335938 " fill-opacity="1" fill-rule="nonzero"/></g><g clip-path="url(#a7a3e186dd)"><path fill="#004aad" d="M 9.554688 65.535156 L 14.40625 65.535156 L 14.40625 70.386719 L 9.554688 70.386719 Z M 9.554688 65.535156 " fill-opacity="1" fill-rule="nonzero"/></g><g clip-path="url(#04c0736dff)"><path fill="#004aad" d="M 14.257812 65.535156 L 19.109375 65.535156 L 19.109375 70.386719 L 14.257812 70.386719 Z M 14.257812 65.535156 " fill-opacity="1" fill-rule="nonzero"/></g><g clip-path="url(#4260dde86c)"><g clip-path="url(#421726762d)"><path fill="#f9d7a9" d="M 23.417969 65.621094 L 23.773438 32.542969 L 53.179688 32.859375 L 52.820312 65.9375 Z M 23.417969 65.621094 " fill-opacity="1" fill-rule="nonzero"/></g></g><g clip-path="url(#c46223fd64)"><path fill="#000000" d="M 23.539062 65.535156 L 28.390625 65.535156 L 28.390625 70.386719 L 23.539062 70.386719 Z M 23.539062 65.535156 " fill-opacity="1" fill-rule="nonzero"/></g><g clip-path="url(#a373592b0b)"><path fill="#000000" d="M 19 65.535156 L 23.851562 65.535156 L 23.851562 70.386719 L 19 70.386719 Z M 19 65.535156 " fill-opacity="1" fill-rule="nonzero"/></g><g clip-path="url(#f4317a6b9b)"><path fill="#5271ff" d="M 23.539062 27.972656 L 28.390625 27.972656 L 28.390625 32.824219 L 23.539062 32.824219 Z M 23.539062 27.972656 " fill-opacity="1" fill-rule="nonzero"/></g><g clip-path="url(#024113652a)"><path fill="#004aad" d="M 19 27.972656 L 23.851562 27.972656 L 23.851562 32.824219 L 19 32.824219 Z M 19 27.972656 " fill-opacity="1" fill-rule="nonzero"/></g><g clip-path="url(#cf25928a0c)"><path fill="#5271ff" d="M 19 37.339844 L 23.851562 37.339844 L 23.851562 42.191406 L 19 42.191406 Z M 19 37.339844 " fill-opacity="1" fill-rule="nonzero"/></g><g clip-path="url(#a054d443d1)"><path fill="#5271ff" d="M 19 41.945312 L 23.851562 41.945312 L 23.851562 46.796875 L 19 46.796875 Z M 19 41.945312 " fill-opacity="1" fill-rule="nonzero"/></g><g clip-path="url(#7c8755a039)"><path fill="#5271ff" d="M 19.042969 32.554688 L 23.890625 32.554688 L 23.890625 37.40625 L 19.042969 37.40625 Z M 19.042969 32.554688 " fill-opacity="1" fill-rule="nonzero"/></g><g clip-path="url(#b985f00cce)"><path fill="#dbb588" d="M 23.539062 37.339844 L 28.390625 37.339844 L 28.390625 42.191406 L 23.539062 42.191406 Z M 23.539062 37.339844 " fill-opacity="1" fill-rule="nonzero"/></g><g clip-path="url(#02a8224352)"><path fill="#dbb588" d="M 23.539062 32.554688 L 28.390625 32.554688 L 28.390625 37.40625 L 23.539062 37.40625 Z M 23.539062 32.554688 " fill-opacity="1" fill-rule="nonzero"/></g><g clip-path="url(#4d7a15f142)"><g clip-path="url(#d6115134e9)"><path fill="#dbb588" d="M 32.882812 32.789062 L 32.9375 27.9375 L 37.789062 27.988281 L 37.734375 32.839844 Z M 32.882812 32.789062 " fill-opacity="1" fill-rule="nonzero"/></g></g><g clip-path="url(#55c66f0f91)"><g clip-path="url(#05b357f0f6)"><path fill="#dbb588" d="M 28.207031 32.789062 L 28.257812 27.9375 L 33.109375 27.988281 L 33.058594 32.839844 Z M 28.207031 32.789062 " fill-opacity="1" fill-rule="nonzero"/></g></g><g clip-path="url(#d3b882e116)"><g clip-path="url(#3f02b7863c)"><path fill="#f9d7a9" d="M 32.882812 37.367188 L 32.9375 32.515625 L 37.789062 32.566406 L 37.734375 37.417969 Z M 32.882812 37.367188 " fill-opacity="1" fill-rule="nonzero"/></g></g><g clip-path="url(#c47c2e4e41)"><g clip-path="url(#844eed517c)"><path fill="#f9d7a9" d="M 28.207031 37.367188 L 28.257812 32.515625 L 33.109375 32.566406 L 33.058594 37.417969 Z M 28.207031 37.367188 " fill-opacity="1" fill-rule="nonzero"/></g></g><g clip-path="url(#296fadaeb3)"><g clip-path="url(#aae7b2a22e)"><path fill="#f9d7a9" d="M 32.882812 42.15625 L 32.9375 37.304688 L 37.789062 37.355469 L 37.734375 42.207031 Z M 32.882812 42.15625 " fill-opacity="1" fill-rule="nonzero"/></g></g><g clip-path="url(#5ff9ea1824)"><g clip-path="url(#8f8cd7def6)"><path fill="#f9d7a9" d="M 28.207031 42.15625 L 28.257812 37.304688 L 33.109375 37.355469 L 33.058594 42.207031 Z M 28.207031 42.15625 " fill-opacity="1" fill-rule="nonzero"/></g></g><g clip-path="url(#4afa27ab4f)"><g clip-path="url(#b7e00a18dd)"><path fill="#f9d7a9" d="M 32.882812 46.757812 L 32.9375 41.90625 L 37.789062 41.960938 L 37.734375 46.808594 Z M 32.882812 46.757812 " fill-opacity="1" fill-rule="nonzero"/></g></g><g clip-path="url(#e0c70dccbd)"><g clip-path="url(#b1eb7e1118)"><path fill="#f9d7a9" d="M 28.207031 46.757812 L 28.257812 41.90625 L 33.109375 41.960938 L 33.058594 46.808594 Z M 28.207031 46.757812 " fill-opacity="1" fill-rule="nonzero"/></g></g><g clip-path="url(#357ae6ed5c)"><g clip-path="url(#72091e0cb8)"><path fill="#f9d7a9" d="M 32.882812 51.460938 L 32.9375 46.609375 L 37.789062 46.664062 L 37.734375 51.515625 Z M 32.882812 51.460938 " fill-opacity="1" fill-rule="nonzero"/></g></g><g clip-path="url(#988027b2bc)"><g clip-path="url(#b6696826ae)"><path fill="#f9d7a9" d="M 28.207031 51.460938 L 28.257812 46.609375 L 33.109375 46.664062 L 33.058594 51.515625 Z M 28.207031 51.460938 " fill-opacity="1" fill-rule="nonzero"/></g></g><g clip-path="url(#86e25d1939)"><g clip-path="url(#639e0db765)"><path fill="#f9d7a9" d="M 23.511719 56.15625 L 23.566406 51.304688 L 28.417969 51.355469 L 28.363281 56.207031 Z M 23.511719 56.15625 " fill-opacity="1" fill-rule="nonzero"/></g></g><g clip-path="url(#dff0a444dc)"><g clip-path="url(#c335ef6797)"><path fill="#f9d7a9" d="M 23.511719 60.859375 L 23.566406 56.007812 L 28.417969 56.058594 L 28.363281 60.910156 Z M 23.511719 60.859375 " fill-opacity="1" fill-rule="nonzero"/></g></g><g clip-path="url(#9d756b00ce)"><g clip-path="url(#1c546d5e1a)"><path fill="#f9d7a9" d="M 28.207031 65.65625 L 28.257812 60.804688 L 33.109375 60.855469 L 33.058594 65.707031 Z M 28.207031 65.65625 " fill-opacity="1" fill-rule="nonzero"/></g></g><g clip-path="url(#28b2e492eb)"><g clip-path="url(#6796fceed1)"><path fill="#f9d7a9" d="M 23.511719 65.488281 L 23.566406 60.636719 L 28.417969 60.6875 L 28.363281 65.539062 Z M 23.511719 65.488281 " fill-opacity="1" fill-rule="nonzero"/></g></g><g clip-path="url(#a86d529974)"><path fill="#000000" d="M 28.234375 51.339844 L 33.082031 51.339844 L 33.082031 56.191406 L 28.234375 56.191406 Z M 28.234375 51.339844 " fill-opacity="1" fill-rule="nonzero"/></g><g clip-path="url(#a142481b4c)"><path fill="#000000" d="M 28.234375 56.042969 L 33.082031 56.042969 L 33.082031 60.894531 L 28.234375 60.894531 Z M 28.234375 56.042969 " fill-opacity="1" fill-rule="nonzero"/></g><g clip-path="url(#70b60e68d5)"><g clip-path="url(#308ca1e97c)"><path fill="#f9d7a9" d="M 37.660156 37.367188 L 37.714844 32.515625 L 42.566406 32.566406 L 42.511719 37.417969 Z M 37.660156 37.367188 " fill-opacity="1" fill-rule="nonzero"/></g></g><g clip-path="url(#c3c3cb998c)"><g clip-path="url(#e4e2b11c29)"><path fill="#f9d7a9" d="M 37.660156 42.15625 L 37.714844 37.304688 L 42.566406 37.355469 L 42.511719 42.207031 Z M 37.660156 42.15625 " fill-opacity="1" fill-rule="nonzero"/></g></g><g clip-path="url(#0aa8b6b07c)"><g clip-path="url(#3150507009)"><path fill="#f9d7a9" d="M 37.660156 46.757812 L 37.714844 41.90625 L 42.566406 41.960938 L 42.511719 46.808594 Z M 37.660156 46.757812 " fill-opacity="1" fill-rule="nonzero"/></g></g><g clip-path="url(#9064197a43)"><g clip-path="url(#5f1ee20f80)"><path fill="#f9d7a9" d="M 37.660156 51.460938 L 37.714844 46.609375 L 42.566406 46.664062 L 42.511719 51.515625 Z M 37.660156 51.460938 " fill-opacity="1" fill-rule="nonzero"/></g></g><g clip-path="url(#feafa42322)"><g clip-path="url(#9b4abd9df3)"><path fill="#f9d7a9" d="M 42.464844 37.367188 L 42.515625 32.515625 L 47.367188 32.566406 L 47.316406 37.417969 Z M 42.464844 37.367188 " fill-opacity="1" fill-rule="nonzero"/></g></g><g clip-path="url(#c1740bd278)"><g clip-path="url(#9fc40a0fce)"><path fill="#f9d7a9" d="M 42.464844 42.15625 L 42.515625 37.304688 L 47.367188 37.355469 L 47.316406 42.207031 Z M 42.464844 42.15625 " fill-opacity="1" fill-rule="nonzero"/></g></g><g clip-path="url(#0cf8b79d23)"><path fill="#000000" d="M 42.488281 41.945312 L 47.339844 41.945312 L 47.339844 46.796875 L 42.488281 46.796875 Z M 42.488281 41.945312 " fill-opacity="1" fill-rule="nonzero"/></g><g clip-path="url(#420db1c2ba)"><path fill="#000000" d="M 42.492188 46.648438 L 47.34375 46.648438 L 47.34375 51.5 L 42.492188 51.5 Z M 42.492188 46.648438 " fill-opacity="1" fill-rule="nonzero"/></g><g clip-path="url(#03f35308c5)"><path fill="#000000" d="M 32.910156 51.339844 L 37.761719 51.339844 L 37.761719 56.191406 L 32.910156 56.191406 Z M 32.910156 51.339844 " fill-opacity="1" fill-rule="nonzero"/></g><g clip-path="url(#bade422b26)"><path fill="#000000" d="M 37.6875 51.339844 L 42.539062 51.339844 L 42.539062 56.191406 L 37.6875 56.191406 Z M 37.6875 51.339844 " fill-opacity="1" fill-rule="nonzero"/></g><g clip-path="url(#81bc10c6f0)"><path fill="#ff5757" d="M 32.910156 56.042969 L 37.761719 56.042969 L 37.761719 60.894531 L 32.910156 60.894531 Z M 32.910156 56.042969 " fill-opacity="1" fill-rule="nonzero"/></g><g clip-path="url(#e8ccb07aa3)"><path fill="#ff5757" d="M 37.6875 56.042969 L 42.539062 56.042969 L 42.539062 60.894531 L 37.6875 60.894531 Z M 37.6875 56.042969 " fill-opacity="1" fill-rule="nonzero"/></g><g clip-path="url(#960db42821)"><g clip-path="url(#7552a15265)"><path fill="#f9d7a9" d="M 42.464844 56.15625 L 42.515625 51.304688 L 47.367188 51.355469 L 47.316406 56.207031 Z M 42.464844 56.15625 " fill-opacity="1" fill-rule="nonzero"/></g></g><g clip-path="url(#547f2b8cd2)"><g clip-path="url(#4923a26458)"><path fill="#f9d7a9" d="M 42.464844 60.859375 L 42.515625 56.007812 L 47.367188 56.058594 L 47.316406 60.910156 Z M 42.464844 60.859375 " fill-opacity="1" fill-rule="nonzero"/></g></g><g clip-path="url(#04f94eb56b)"><g clip-path="url(#dffb8a3486)"><path fill="#dbb588" d="M 42.464844 32.789062 L 42.515625 27.9375 L 47.367188 27.988281 L 47.316406 32.839844 Z M 42.464844 32.789062 " fill-opacity="1" fill-rule="nonzero"/></g></g><g clip-path="url(#bc938742dd)"><g clip-path="url(#4da103f555)"><path fill="#dbb588" d="M 37.660156 32.675781 L 37.714844 27.824219 L 42.566406 27.875 L 42.511719 32.726562 Z M 37.660156 32.675781 " fill-opacity="1" fill-rule="nonzero"/></g></g><g clip-path="url(#c28d2240fa)"><path fill="#004aad" d="M 37.6875 14.054688 L 42.539062 14.054688 L 42.539062 18.90625 L 37.6875 18.90625 Z M 37.6875 14.054688 " fill-opacity="1" fill-rule="nonzero"/></g><g clip-path="url(#33aefab3db)"><path fill="#004aad" d="M 47.292969 14.054688 L 52.144531 14.054688 L 52.144531 18.90625 L 47.292969 18.90625 Z M 47.292969 14.054688 " fill-opacity="1" fill-rule="nonzero"/></g><g clip-path="url(#08890cc3ca)"><path fill="#004aad" d="M 42.492188 14.054688 L 47.34375 14.054688 L 47.34375 18.90625 L 42.492188 18.90625 Z M 42.492188 14.054688 " fill-opacity="1" fill-rule="nonzero"/></g><g clip-path="url(#0a65b4fe7e)"><path fill="#004aad" d="M 37.6875 18.695312 L 42.539062 18.695312 L 42.539062 23.546875 L 37.6875 23.546875 Z M 37.6875 18.695312 " fill-opacity="1" fill-rule="nonzero"/></g><g clip-path="url(#7be6068fb3)"><path fill="#004aad" d="M 47.292969 18.695312 L 52.144531 18.695312 L 52.144531 23.546875 L 47.292969 23.546875 Z M 47.292969 18.695312 " fill-opacity="1" fill-rule="nonzero"/></g><g clip-path="url(#2eff324c52)"><path fill="#004aad" d="M 42.492188 18.695312 L 47.34375 18.695312 L 47.34375 23.546875 L 42.492188 23.546875 Z M 42.492188 18.695312 " fill-opacity="1" fill-rule="nonzero"/></g><g clip-path="url(#043ae4c0a7)"><path fill="#004aad" d="M 37.6875 23.246094 L 42.539062 23.246094 L 42.539062 28.097656 L 37.6875 28.097656 Z M 37.6875 23.246094 " fill-opacity="1" fill-rule="nonzero"/></g><g clip-path="url(#cb9ece59c6)"><path fill="#004aad" d="M 47.292969 23.335938 L 52.144531 23.335938 L 52.144531 28.1875 L 47.292969 28.1875 Z M 47.292969 23.335938 " fill-opacity="1" fill-rule="nonzero"/></g><g clip-path="url(#28f253dfc3)"><path fill="#004aad" d="M 42.492188 23.335938 L 47.34375 23.335938 L 47.34375 28.1875 L 42.492188 28.1875 Z M 42.492188 23.335938 " fill-opacity="1" fill-rule="nonzero"/></g><g clip-path="url(#e06689cd8a)"><path fill="#000000" d="M 42.492188 9.265625 L 47.34375 9.265625 L 47.34375 14.117188 L 42.492188 14.117188 Z M 42.492188 9.265625 " fill-opacity="1" fill-rule="nonzero"/></g><g clip-path="url(#2efb798f89)"><path fill="#000000" d="M 37.6875 9.265625 L 42.539062 9.265625 L 42.539062 14.117188 L 37.6875 14.117188 Z M 37.6875 9.265625 " fill-opacity="1" fill-rule="nonzero"/></g><g clip-path="url(#f1c582bf88)"><path fill="#000000" d="M 51.960938 9.265625 L 56.8125 9.265625 L 56.8125 14.117188 L 51.960938 14.117188 Z M 51.960938 9.265625 " fill-opacity="1" fill-rule="nonzero"/></g><g clip-path="url(#7cab34285b)"><path fill="#000000" d="M 47.292969 9.265625 L 52.144531 9.265625 L 52.144531 14.117188 L 47.292969 14.117188 Z M 47.292969 9.265625 " fill-opacity="1" fill-rule="nonzero"/></g><g clip-path="url(#b092e565cd)"><path fill="#dbb588" d="M 52.132812 65.683594 L 47.285156 65.683594 L 47.285156 60.832031 L 52.132812 60.832031 Z M 52.132812 65.683594 " fill-opacity="1" fill-rule="nonzero"/></g><g clip-path="url(#e030bac7e6)"><g clip-path="url(#fdffe893b0)"><path fill="#f9d7a9" d="M 42.554688 60.867188 L 42.5 65.71875 L 37.648438 65.667969 L 37.703125 60.816406 Z M 42.554688 60.867188 " fill-opacity="1" fill-rule="nonzero"/></g></g><g clip-path="url(#ec661e1488)"><g clip-path="url(#6ec5ee491c)"><path fill="#f9d7a9" d="M 47.355469 60.867188 L 47.304688 65.71875 L 42.453125 65.667969 L 42.507812 60.816406 Z M 47.355469 60.867188 " fill-opacity="1" fill-rule="nonzero"/></g></g><g clip-path="url(#6a68ccb39c)"><g clip-path="url(#d45cfe137e)"><path fill="#f9d7a9" d="M 37.777344 60.867188 L 37.722656 65.71875 L 32.871094 65.667969 L 32.925781 60.816406 Z M 37.777344 60.867188 " fill-opacity="1" fill-rule="nonzero"/></g></g><g clip-path="url(#8fc3eb482b)"><g clip-path="url(#7ecc39d7e4)"><path fill="#f9d7a9" d="M 52.109375 56.207031 L 47.257812 56.152344 L 47.308594 51.304688 L 52.160156 51.355469 Z M 52.109375 56.207031 " fill-opacity="1" fill-rule="nonzero"/></g></g><g clip-path="url(#1888404a06)"><g clip-path="url(#a47ddf54b3)"><path fill="#f9d7a9" d="M 52.109375 60.910156 L 47.257812 60.859375 L 47.308594 56.007812 L 52.160156 56.058594 Z M 52.109375 60.910156 " fill-opacity="1" fill-rule="nonzero"/></g></g><g clip-path="url(#38624928db)"><g clip-path="url(#d6c6e7cf74)"><path fill="#f9d7a9" d="M 52.109375 51.515625 L 47.257812 51.460938 L 47.308594 46.609375 L 52.160156 46.664062 Z M 52.109375 51.515625 " fill-opacity="1" fill-rule="nonzero"/></g></g><g clip-path="url(#af3dad11ec)"><g clip-path="url(#86d39ec99d)"><path fill="#f9d7a9" d="M 47.269531 37.367188 L 47.320312 32.515625 L 52.171875 32.566406 L 52.121094 37.417969 Z M 47.269531 37.367188 " fill-opacity="1" fill-rule="nonzero"/></g></g><g clip-path="url(#3c6e215970)"><g clip-path="url(#cabe0067ff)"><path fill="#f9d7a9" d="M 47.269531 42.15625 L 47.320312 37.304688 L 52.171875 37.355469 L 52.121094 42.207031 Z M 47.269531 42.15625 " fill-opacity="1" fill-rule="nonzero"/></g></g><g clip-path="url(#d65c504da8)"><g clip-path="url(#b96947e0c8)"><path fill="#f9d7a9" d="M 47.269531 46.757812 L 47.320312 41.90625 L 52.171875 41.960938 L 52.121094 46.808594 Z M 47.269531 46.757812 " fill-opacity="1" fill-rule="nonzero"/></g></g><g clip-path="url(#57d707379d)"><path fill="#dbb588" d="M 19 56.042969 L 23.851562 56.042969 L 23.851562 60.894531 L 19 60.894531 Z M 19 56.042969 " fill-opacity="1" fill-rule="nonzero"/></g><g clip-path="url(#98352fc4fc)"><path fill="#ab8a64" d="M 18.925781 60.699219 L 23.777344 60.699219 L 23.777344 65.550781 L 18.925781 65.550781 Z M 18.925781 60.699219 " fill-opacity="1" fill-rule="nonzero"/></g><g clip-path="url(#d707e155e6)"><path fill="#dbb588" d="M 19 51.339844 L 23.851562 51.339844 L 23.851562 56.191406 L 19 56.191406 Z M 19 51.339844 " fill-opacity="1" fill-rule="nonzero"/></g><g clip-path="url(#ae931ac5d0)"><path fill="#dbb588" d="M 19 46.648438 L 23.851562 46.648438 L 23.851562 51.5 L 19 51.5 Z M 19 46.648438 " fill-opacity="1" fill-rule="nonzero"/></g><g clip-path="url(#1febba21ed)"><path fill="#000000" d="M 23.511719 41.945312 L 28.363281 41.945312 L 28.363281 46.796875 L 23.511719 46.796875 Z M 23.511719 41.945312 " fill-opacity="1" fill-rule="nonzero"/></g><g clip-path="url(#21213ab2eb)"><path fill="#000000" d="M 23.539062 46.648438 L 28.390625 46.648438 L 28.390625 51.5 L 23.539062 51.5 Z M 23.539062 46.648438 " fill-opacity="1" fill-rule="nonzero"/></g><g clip-path="url(#053f6d9f63)"><path fill="#dbb588" d="M 52.171875 56.042969 L 57.023438 56.042969 L 57.023438 60.894531 L 52.171875 60.894531 Z M 52.171875 56.042969 " fill-opacity="1" fill-rule="nonzero"/></g><g clip-path="url(#51662d2e22)"><path fill="#dbb588" d="M 52.171875 51.339844 L 57.023438 51.339844 L 57.023438 56.191406 L 52.171875 56.191406 Z M 52.171875 51.339844 " fill-opacity="1" fill-rule="nonzero"/></g><g clip-path="url(#68fe7c326c)"><path fill="#dbb588" d="M 52.171875 46.648438 L 57.023438 46.648438 L 57.023438 51.5 L 52.171875 51.5 Z M 52.171875 46.648438 " fill-opacity="1" fill-rule="nonzero"/></g><g clip-path="url(#4fb5106c11)"><g clip-path="url(#c84201d216)"><path fill="#dbb588" d="M 37.660156 70.347656 L 37.714844 65.496094 L 42.566406 65.550781 L 42.511719 70.402344 Z M 37.660156 70.347656 " fill-opacity="1" fill-rule="nonzero"/></g></g><g clip-path="url(#db1b641f6e)"><g clip-path="url(#b06685cc4c)"><path fill="#dbb588" d="M 32.882812 70.347656 L 32.9375 65.496094 L 37.789062 65.550781 L 37.734375 70.402344 Z M 32.882812 70.347656 " fill-opacity="1" fill-rule="nonzero"/></g></g><g clip-path="url(#ddae88f68e)"><path fill="#7d3203" d="M 28.234375 65.535156 L 33.082031 65.535156 L 33.082031 70.386719 L 28.234375 70.386719 Z M 28.234375 65.535156 " fill-opacity="1" fill-rule="nonzero"/></g><g clip-path="url(#9d5b1714ed)"><path fill="#7d3203" d="M 42.492188 65.535156 L 47.34375 65.535156 L 47.34375 70.386719 L 42.492188 70.386719 Z M 42.492188 65.535156 " fill-opacity="1" fill-rule="nonzero"/></g><g clip-path="url(#694227000c)"><path fill="#004aad" d="M 52.042969 32.554688 L 56.890625 32.554688 L 56.890625 37.40625 L 52.042969 37.40625 Z M 52.042969 32.554688 " fill-opacity="1" fill-rule="nonzero"/></g><g clip-path="url(#1ee9f1ac0f)"><path fill="#004aad" d="M 52.042969 37.339844 L 56.890625 37.339844 L 56.890625 42.191406 L 52.042969 42.191406 Z M 52.042969 37.339844 " fill-opacity="1" fill-rule="nonzero"/></g><g clip-path="url(#5382f0207a)"><path fill="#004aad" d="M 52.042969 41.945312 L 56.890625 41.945312 L 56.890625 46.796875 L 52.042969 46.796875 Z M 52.042969 41.945312 " fill-opacity="1" fill-rule="nonzero"/></g><g clip-path="url(#5773ad0ab5)"><path fill="#004aad" d="M 47.292969 27.972656 L 52.144531 27.972656 L 52.144531 32.824219 L 47.292969 32.824219 Z M 47.292969 27.972656 " fill-opacity="1" fill-rule="nonzero"/></g><g clip-path="url(#967e59a1bc)"><path fill="#004aad" d="M 51.960938 27.972656 L 56.8125 27.972656 L 56.8125 32.824219 L 51.960938 32.824219 Z M 51.960938 27.972656 " fill-opacity="1" fill-rule="nonzero"/></g><g clip-path="url(#19313c02f4)"><path fill="#004aad" d="M 51.960938 14.054688 L 56.8125 14.054688 L 56.8125 18.90625 L 51.960938 18.90625 Z M 51.960938 14.054688 " fill-opacity="1" fill-rule="nonzero"/></g><g clip-path="url(#2aa5b53341)"><path fill="#004aad" d="M 51.960938 18.695312 L 56.8125 18.695312 L 56.8125 23.546875 L 51.960938 23.546875 Z M 51.960938 18.695312 " fill-opacity="1" fill-rule="nonzero"/></g><g clip-path="url(#7438442734)"><path fill="#004aad" d="M 51.960938 23.335938 L 56.8125 23.335938 L 56.8125 28.1875 L 51.960938 28.1875 Z M 51.960938 23.335938 " fill-opacity="1" fill-rule="nonzero"/></g><g clip-path="url(#c82feb5670)"><path fill="#000000" d="M 56.699219 14.054688 L 61.550781 14.054688 L 61.550781 18.90625 L 56.699219 18.90625 Z M 56.699219 14.054688 " fill-opacity="1" fill-rule="nonzero"/></g><g clip-path="url(#304ad19fa2)"><path fill="#004aad" d="M 56.839844 32.554688 L 61.691406 32.554688 L 61.691406 37.40625 L 56.839844 37.40625 Z M 56.839844 32.554688 " fill-opacity="1" fill-rule="nonzero"/></g><g clip-path="url(#bd4f92c69c)"><path fill="#004aad" d="M 56.839844 37.339844 L 61.691406 37.339844 L 61.691406 42.191406 L 56.839844 42.191406 Z M 56.839844 37.339844 " fill-opacity="1" fill-rule="nonzero"/></g><g clip-path="url(#532c7df64a)"><path fill="#004aad" d="M 56.839844 41.945312 L 61.691406 41.945312 L 61.691406 46.796875 L 56.839844 46.796875 Z M 56.839844 41.945312 " fill-opacity="1" fill-rule="nonzero"/></g><g clip-path="url(#2c1dadef3d)"><path fill="#004aad" d="M 56.699219 27.972656 L 61.550781 27.972656 L 61.550781 32.824219 L 56.699219 32.824219 Z M 56.699219 27.972656 " fill-opacity="1" fill-rule="nonzero"/></g><g clip-path="url(#b30578d528)"><path fill="#004aad" d="M 56.699219 18.695312 L 61.550781 18.695312 L 61.550781 23.546875 L 56.699219 23.546875 Z M 56.699219 18.695312 " fill-opacity="1" fill-rule="nonzero"/></g><g clip-path="url(#e4c661195d)"><path fill="#004aad" d="M 56.699219 23.335938 L 61.550781 23.335938 L 61.550781 28.1875 L 56.699219 28.1875 Z M 56.699219 23.335938 " fill-opacity="1" fill-rule="nonzero"/></g><g clip-path="url(#cb981dc8c9)"><path fill="#004aad" d="M 61.117188 32.554688 L 65.96875 32.554688 L 65.96875 37.40625 L 61.117188 37.40625 Z M 61.117188 32.554688 " fill-opacity="1" fill-rule="nonzero"/></g><g clip-path="url(#9db110feb4)"><path fill="#004aad" d="M 61.117188 37.339844 L 65.96875 37.339844 L 65.96875 42.191406 L 61.117188 42.191406 Z M 61.117188 37.339844 " fill-opacity="1" fill-rule="nonzero"/></g><g clip-path="url(#f97e2f997f)"><path fill="#004aad" d="M 61.117188 41.945312 L 65.96875 41.945312 L 65.96875 46.796875 L 61.117188 46.796875 Z M 61.117188 41.945312 " fill-opacity="1" fill-rule="nonzero"/></g><g clip-path="url(#c3cf5f597e)"><path fill="#004aad" d="M 61.117188 27.972656 L 65.96875 27.972656 L 65.96875 32.824219 L 61.117188 32.824219 Z M 61.117188 27.972656 " fill-opacity="1" fill-rule="nonzero"/></g><g clip-path="url(#dda5c987d0)"><path fill="#004aad" d="M 61.117188 23.335938 L 65.96875 23.335938 L 65.96875 28.1875 L 61.117188 28.1875 Z M 61.117188 23.335938 " fill-opacity="1" fill-rule="nonzero"/></g><g clip-path="url(#ba507c4dce)"><path fill="#004aad" d="M 56.972656 51.339844 L 61.539062 51.339844 L 61.539062 56.195312 L 56.972656 56.195312 Z M 56.972656 51.339844 " fill-opacity="1" fill-rule="nonzero"/></g><g clip-path="url(#498e53fada)"><path fill="#004aad" d="M 56.972656 56.042969 L 61.539062 56.042969 L 61.539062 60.898438 L 56.972656 60.898438 Z M 56.972656 56.042969 " fill-opacity="1" fill-rule="nonzero"/></g><g clip-path="url(#e4a9d9642a)"><path fill="#004aad" d="M 56.972656 60.84375 L 61.539062 60.84375 L 61.539062 65.695312 L 56.972656 65.695312 Z M 56.972656 60.84375 " fill-opacity="1" fill-rule="nonzero"/></g><g clip-path="url(#71837ca0be)"><path fill="#004aad" d="M 56.972656 46.648438 L 61.824219 46.648438 L 61.824219 51.5 L 56.972656 51.5 Z M 56.972656 46.648438 " fill-opacity="1" fill-rule="nonzero"/></g><g clip-path="url(#15d029e2a1)"><path fill="#004aad" d="M 61.40625 51.339844 L 65.972656 51.339844 L 65.972656 56.195312 L 61.40625 56.195312 Z M 61.40625 51.339844 " fill-opacity="1" fill-rule="nonzero"/></g><g clip-path="url(#3c6908790d)"><path fill="#004aad" d="M 61.40625 56.042969 L 65.972656 56.042969 L 65.972656 60.898438 L 61.40625 60.898438 Z M 61.40625 56.042969 " fill-opacity="1" fill-rule="nonzero"/></g><g clip-path="url(#e39ded8683)"><path fill="#004aad" d="M 61.40625 60.84375 L 65.972656 60.84375 L 65.972656 65.695312 L 61.40625 65.695312 Z M 61.40625 60.84375 " fill-opacity="1" fill-rule="nonzero"/></g><g clip-path="url(#5c5807a5b0)"><path fill="#004aad" d="M 61.25 46.648438 L 66.101562 46.648438 L 66.101562 51.5 L 61.25 51.5 Z M 61.25 46.648438 " fill-opacity="1" fill-rule="nonzero"/></g><g clip-path="url(#9bedd786cf)"><path fill="#004aad" d="M 65.582031 60.84375 L 70.148438 60.84375 L 70.148438 65.695312 L 65.582031 65.695312 Z M 65.582031 60.84375 " fill-opacity="1" fill-rule="nonzero"/></g><g clip-path="url(#8bf0fee807)"><path fill="#004aad" d="M 52.171875 60.84375 L 57.023438 60.84375 L 57.023438 65.695312 L 52.171875 65.695312 Z M 52.171875 60.84375 " fill-opacity="1" fill-rule="nonzero"/></g><g clip-path="url(#4ac0b8b1cc)"><path fill="#000000" d="M 61.550781 18.90625 L 66.402344 18.90625 L 66.402344 23.757812 L 61.550781 23.757812 Z M 61.550781 18.90625 " fill-opacity="1" fill-rule="nonzero"/></g><g clip-path="url(#03dd82b88f)"><path fill="#000000" d="M 61.617188 23.394531 L 66.46875 23.394531 L 66.46875 28.246094 L 61.617188 28.246094 Z M 61.617188 23.394531 " fill-opacity="1" fill-rule="nonzero"/></g><g clip-path="url(#8a1c73c112)"><path fill="#000000" d="M 61.617188 27.976562 L 66.46875 27.976562 L 66.46875 32.828125 L 61.617188 32.828125 Z M 61.617188 27.976562 " fill-opacity="1" fill-rule="nonzero"/></g><g clip-path="url(#76f02df208)"><path fill="#000000" d="M 61.617188 32.761719 L 66.46875 32.761719 L 66.46875 37.613281 L 61.617188 37.613281 Z M 61.617188 32.761719 " fill-opacity="1" fill-rule="nonzero"/></g><g clip-path="url(#2345cac748)"><path fill="#000000" d="M 65.917969 37.613281 L 70.769531 37.613281 L 70.769531 47.316406 L 65.917969 47.316406 Z M 65.917969 37.613281 " fill-opacity="1" fill-rule="nonzero"/></g><g clip-path="url(#7a0d787f19)"><path fill="#004aad" d="M 65.917969 56.03125 L 70.769531 56.03125 L 70.769531 60.882812 L 65.917969 60.882812 Z M 65.917969 56.03125 " fill-opacity="1" fill-rule="nonzero"/></g><g clip-path="url(#24f4e24f15)"><path fill="#004aad" d="M 65.917969 51.601562 L 70.769531 51.601562 L 70.769531 56.453125 L 65.917969 56.453125 Z M 65.917969 51.601562 " fill-opacity="1" fill-rule="nonzero"/></g><g clip-path="url(#f220a49621)"><path fill="#004aad" d="M 65.917969 46.894531 L 70.769531 46.894531 L 70.769531 51.746094 L 65.917969 51.746094 Z M 65.917969 46.894531 " fill-opacity="1" fill-rule="nonzero"/></g><g clip-path="url(#5dbf04864d)"><path fill="#000000" d="M 65.917969 42.464844 L 70.769531 42.464844 L 70.769531 47.316406 L 65.917969 47.316406 Z M 65.917969 42.464844 " fill-opacity="1" fill-rule="nonzero"/></g><g clip-path="url(#579bfd11e5)"><path fill="#000000" d="M 65.917969 46.957031 L 70.769531 46.957031 L 70.769531 51.808594 L 65.917969 51.808594 Z M 65.917969 46.957031 " fill-opacity="1" fill-rule="nonzero"/></g><g clip-path="url(#5a8dc03e0d)"><path fill="#000000" d="M 65.917969 51.601562 L 70.769531 51.601562 L 70.769531 56.453125 L 65.917969 56.453125 Z M 65.917969 51.601562 " fill-opacity="1" fill-rule="nonzero"/></g><g clip-path="url(#28e415bdbb)"><path fill="#000000" d="M 65.917969 56.242188 L 70.769531 56.242188 L 70.769531 61.09375 L 65.917969 61.09375 Z M 65.917969 56.242188 " fill-opacity="1" fill-rule="nonzero"/></g><g clip-path="url(#cef2b050e6)"><path fill="#000000" d="M 70.148438 61.09375 L 75 61.09375 L 75 65.945312 L 70.148438 65.945312 Z M 70.148438 61.09375 " fill-opacity="1" fill-rule="nonzero"/></g><g clip-path="url(#616e5a024d)"><path fill="#000000" d="M 46.992188 65.535156 L 51.84375 65.535156 L 51.84375 70.386719 L 46.992188 70.386719 Z M 46.992188 65.535156 " fill-opacity="1" fill-rule="nonzero"/></g><g clip-path="url(#75be530be2)"><path fill="#000000" d="M 56.574219 65.535156 L 61.425781 65.535156 L 61.425781 70.386719 L 56.574219 70.386719 Z M 56.574219 65.535156 " fill-opacity="1" fill-rule="nonzero"/></g><g clip-path="url(#8b19d415a1)"><path fill="#000000" d="M 51.769531 65.535156 L 56.621094 65.535156 L 56.621094 70.386719 L 51.769531 70.386719 Z M 51.769531 65.535156 " fill-opacity="1" fill-rule="nonzero"/></g><g clip-path="url(#78694163ee)"><path fill="#000000" d="M 65.582031 65.535156 L 70.433594 65.535156 L 70.433594 70.386719 L 65.582031 70.386719 Z M 65.582031 65.535156 " fill-opacity="1" fill-rule="nonzero"/></g><g clip-path="url(#76c7056a68)"><path fill="#000000" d="M 61.25 65.535156 L 66.101562 65.535156 L 66.101562 70.386719 L 61.25 70.386719 Z M 61.25 65.535156 " fill-opacity="1" fill-rule="nonzero"/></g><g clip-path="url(#658f9a4f0e)"><path fill="#7d3203" d="M 23.539062 70.128906 L 28.390625 70.128906 L 28.390625 74.980469 L 23.539062 74.980469 Z M 23.539062 70.128906 " fill-opacity="1" fill-rule="nonzero"/></g><g clip-path="url(#307a11e0b4)"><path fill="#7d3203" d="M 19 70.128906 L 23.851562 70.128906 L 23.851562 74.980469 L 19 74.980469 Z M 19 70.128906 " fill-opacity="1" fill-rule="nonzero"/></g><g clip-path="url(#341553a51a)"><path fill="#7d3203" d="M 28.234375 70.128906 L 33.082031 70.128906 L 33.082031 74.980469 L 28.234375 74.980469 Z M 28.234375 70.128906 " fill-opacity="1" fill-rule="nonzero"/></g><g clip-path="url(#34d31c2cab)"><path fill="#7d3203" d="M 37.359375 70.148438 L 42.210938 70.148438 L 42.210938 75 L 37.359375 75 Z M 37.359375 70.148438 " fill-opacity="1" fill-rule="nonzero"/></g><g clip-path="url(#cad420f49d)"><path fill="#7d3203" d="M 32.820312 70.148438 L 37.671875 70.148438 L 37.671875 75 L 32.820312 75 Z M 32.820312 70.148438 " fill-opacity="1" fill-rule="nonzero"/></g><g clip-path="url(#41154db383)"><path fill="#7d3203" d="M 42.050781 70.148438 L 46.902344 70.148438 L 46.902344 75 L 42.050781 75 Z M 42.050781 70.148438 " fill-opacity="1" fill-rule="nonzero"/></g><g clip-path="url(#d8fe6a7bbe)"><path fill="#7d3203" d="M 46.847656 70.148438 L 51.699219 70.148438 L 51.699219 75 L 46.847656 75 Z M 46.847656 70.148438 " fill-opacity="1" fill-rule="nonzero"/></g><g clip-path="url(#0893ec4f83)"><path fill="#7d3203" d="M 51.539062 70.148438 L 56.390625 70.148438 L 56.390625 75 L 51.539062 75 Z M 51.539062 70.148438 " fill-opacity="1" fill-rule="nonzero"/></g></svg>