<svg xmlns="http://www.w3.org/2000/svg" xmlns:xlink="http://www.w3.org/1999/xlink" width="100" zoomAndPan="magnify" viewBox="0 0 75 74.999997" height="100" preserveAspectRatio="xMidYMid meet" version="1.0"><defs><clipPath id="55678e4661"><path d="M 22.203125 22.839844 L 26.421875 22.839844 L 26.421875 27.054688 L 22.203125 27.054688 Z M 22.203125 22.839844 " clip-rule="nonzero"/></clipPath><clipPath id="574cab3ab6"><path d="M 18.117188 26.875 L 22.332031 26.875 L 22.332031 31.089844 L 18.117188 31.089844 Z M 18.117188 26.875 " clip-rule="nonzero"/></clipPath><clipPath id="4a8517ec3b"><path d="M 18.117188 30.90625 L 22.332031 30.90625 L 22.332031 35.125 L 18.117188 35.125 Z M 18.117188 30.90625 " clip-rule="nonzero"/></clipPath><clipPath id="cd4b392617"><path d="M 13.964844 30.90625 L 18.179688 30.90625 L 18.179688 35.125 L 13.964844 35.125 Z M 13.964844 30.90625 " clip-rule="nonzero"/></clipPath><clipPath id="588ac0f601"><path d="M 30.269531 18.679688 L 34.488281 18.679688 L 34.488281 22.894531 L 30.269531 22.894531 Z M 30.269531 18.679688 " clip-rule="nonzero"/></clipPath><clipPath id="de623cec93"><path d="M 26.324219 18.679688 L 30.542969 18.679688 L 30.542969 22.894531 L 26.324219 22.894531 Z M 26.324219 18.679688 " clip-rule="nonzero"/></clipPath><clipPath id="a6fb9ea7a6"><path d="M 38.417969 18.679688 L 42.632812 18.679688 L 42.632812 22.894531 L 38.417969 22.894531 Z M 38.417969 18.679688 " clip-rule="nonzero"/></clipPath><clipPath id="fb34f04501"><path d="M 34.351562 18.679688 L 38.566406 18.679688 L 38.566406 22.894531 L 34.351562 22.894531 Z M 34.351562 18.679688 " clip-rule="nonzero"/></clipPath><clipPath id="0f9a0bdcfe"><path d="M 13.964844 34.9375 L 18.179688 34.9375 L 18.179688 39.152344 L 13.964844 39.152344 Z M 13.964844 34.9375 " clip-rule="nonzero"/></clipPath><clipPath id="e1a13391cb"><path d="M 13.964844 38.917969 L 18.179688 38.917969 L 18.179688 43.132812 L 13.964844 43.132812 Z M 13.964844 38.917969 " clip-rule="nonzero"/></clipPath><clipPath id="6f0de8a3d1"><path d="M 13.964844 43.078125 L 18.179688 43.078125 L 18.179688 47.296875 L 13.964844 47.296875 Z M 13.964844 43.078125 " clip-rule="nonzero"/></clipPath><clipPath id="1926ea8dd2"><path d="M 9.8125 47.082031 L 14.027344 47.082031 L 14.027344 51.296875 L 9.8125 51.296875 Z M 9.8125 47.082031 " clip-rule="nonzero"/></clipPath><clipPath id="b83543bf2d"><path d="M 13.964844 51.167969 L 18.179688 51.167969 L 18.179688 55.386719 L 13.964844 55.386719 Z M 13.964844 51.167969 " clip-rule="nonzero"/></clipPath><clipPath id="224ae66703"><path d="M 13.964844 55.246094 L 18.179688 55.246094 L 18.179688 59.464844 L 13.964844 59.464844 Z M 13.964844 55.246094 " clip-rule="nonzero"/></clipPath><clipPath id="b569820c8f"><path d="M 13.964844 59.335938 L 18.179688 59.335938 L 18.179688 63.554688 L 13.964844 63.554688 Z M 13.964844 59.335938 " clip-rule="nonzero"/></clipPath><clipPath id="765416faa2"><path d="M 9.8125 63.507812 L 14.027344 63.507812 L 14.027344 67.722656 L 9.8125 67.722656 Z M 9.8125 63.507812 " clip-rule="nonzero"/></clipPath><clipPath id="abdaf09037"><path d="M 13.964844 67.585938 L 18.179688 67.585938 L 18.179688 71.800781 L 13.964844 71.800781 Z M 13.964844 67.585938 " clip-rule="nonzero"/></clipPath><clipPath id="8a6ebe1df6"><path d="M 22.203125 71.578125 L 26.421875 71.578125 L 26.421875 75 L 22.203125 75 Z M 22.203125 71.578125 " clip-rule="nonzero"/></clipPath><clipPath id="36c27dda9f"><path d="M 18.117188 71.578125 L 22.332031 71.578125 L 22.332031 75 L 18.117188 75 Z M 18.117188 71.578125 " clip-rule="nonzero"/></clipPath><clipPath id="67f9514d7f"><path d="M 22.203125 26.875 L 26.421875 26.875 L 26.421875 31.089844 L 22.203125 31.089844 Z M 22.203125 26.875 " clip-rule="nonzero"/></clipPath><clipPath id="74d2619bea"><path d="M 30.269531 22.839844 L 34.488281 22.839844 L 34.488281 27.054688 L 30.269531 27.054688 Z M 30.269531 22.839844 " clip-rule="nonzero"/></clipPath><clipPath id="85772bbbd5"><path d="M 26.324219 22.839844 L 30.542969 22.839844 L 30.542969 27.054688 L 26.324219 27.054688 Z M 26.324219 22.839844 " clip-rule="nonzero"/></clipPath><clipPath id="c17cdc4efb"><path d="M 38.417969 22.839844 L 42.632812 22.839844 L 42.632812 27.054688 L 38.417969 27.054688 Z M 38.417969 22.839844 " clip-rule="nonzero"/></clipPath><clipPath id="1d0b479a4b"><path d="M 34.351562 22.839844 L 38.566406 22.839844 L 38.566406 27.054688 L 34.351562 27.054688 Z M 34.351562 22.839844 " clip-rule="nonzero"/></clipPath><clipPath id="cb18d3d61c"><path d="M 30.269531 26.875 L 34.488281 26.875 L 34.488281 31.089844 L 30.269531 31.089844 Z M 30.269531 26.875 " clip-rule="nonzero"/></clipPath><clipPath id="65a4b235cf"><path d="M 26.324219 26.875 L 30.542969 26.875 L 30.542969 31.089844 L 26.324219 31.089844 Z M 26.324219 26.875 " clip-rule="nonzero"/></clipPath><clipPath id="0d8cd93bd6"><path d="M 38.417969 26.875 L 42.632812 26.875 L 42.632812 31.089844 L 38.417969 31.089844 Z M 38.417969 26.875 " clip-rule="nonzero"/></clipPath><clipPath id="67e4b04f1c"><path d="M 34.351562 26.875 L 38.566406 26.875 L 38.566406 31.089844 L 34.351562 31.089844 Z M 34.351562 26.875 " clip-rule="nonzero"/></clipPath><clipPath id="63218ca8f2"><path d="M 18.117188 34.9375 L 22.332031 34.9375 L 22.332031 39.152344 L 18.117188 39.152344 Z M 18.117188 34.9375 " clip-rule="nonzero"/></clipPath><clipPath id="5c039df2c3"><path d="M 22.203125 30.90625 L 26.421875 30.90625 L 26.421875 35.125 L 22.203125 35.125 Z M 22.203125 30.90625 " clip-rule="nonzero"/></clipPath><clipPath id="93cb7cc011"><path d="M 22.203125 34.9375 L 26.421875 34.9375 L 26.421875 39.152344 L 22.203125 39.152344 Z M 22.203125 34.9375 " clip-rule="nonzero"/></clipPath><clipPath id="0d5c281282"><path d="M 18.117188 38.917969 L 22.332031 38.917969 L 22.332031 43.132812 L 18.117188 43.132812 Z M 18.117188 38.917969 " clip-rule="nonzero"/></clipPath><clipPath id="d2089c38b2"><path d="M 22.203125 38.917969 L 26.421875 38.917969 L 26.421875 43.132812 L 22.203125 43.132812 Z M 22.203125 38.917969 " clip-rule="nonzero"/></clipPath><clipPath id="7d460e3989"><path d="M 18.117188 43.078125 L 22.332031 43.078125 L 22.332031 47.296875 L 18.117188 47.296875 Z M 18.117188 43.078125 " clip-rule="nonzero"/></clipPath><clipPath id="f6e6ec1a9b"><path d="M 22.203125 43.078125 L 26.421875 43.078125 L 26.421875 47.296875 L 22.203125 47.296875 Z M 22.203125 43.078125 " clip-rule="nonzero"/></clipPath><clipPath id="a64aebd8ff"><path d="M 18.117188 47.082031 L 22.332031 47.082031 L 22.332031 51.296875 L 18.117188 51.296875 Z M 18.117188 47.082031 " clip-rule="nonzero"/></clipPath><clipPath id="e179c903e1"><path d="M 22.203125 47.082031 L 26.421875 47.082031 L 26.421875 51.296875 L 22.203125 51.296875 Z M 22.203125 47.082031 " clip-rule="nonzero"/></clipPath><clipPath id="cb9e861f01"><path d="M 13.964844 47.082031 L 18.179688 47.082031 L 18.179688 51.296875 L 13.964844 51.296875 Z M 13.964844 47.082031 " clip-rule="nonzero"/></clipPath><clipPath id="2746890439"><path d="M 18.117188 51.167969 L 22.332031 51.167969 L 22.332031 55.386719 L 18.117188 55.386719 Z M 18.117188 51.167969 " clip-rule="nonzero"/></clipPath><clipPath id="48e801a21e"><path d="M 22.203125 51.167969 L 26.421875 51.167969 L 26.421875 55.386719 L 22.203125 55.386719 Z M 22.203125 51.167969 " clip-rule="nonzero"/></clipPath><clipPath id="ab44300f01"><path d="M 18.117188 55.246094 L 22.332031 55.246094 L 22.332031 59.464844 L 18.117188 59.464844 Z M 18.117188 55.246094 " clip-rule="nonzero"/></clipPath><clipPath id="1a72a43661"><path d="M 22.203125 55.246094 L 26.421875 55.246094 L 26.421875 59.464844 L 22.203125 59.464844 Z M 22.203125 55.246094 " clip-rule="nonzero"/></clipPath><clipPath id="47d3a2f34b"><path d="M 18.117188 59.335938 L 22.332031 59.335938 L 22.332031 63.554688 L 18.117188 63.554688 Z M 18.117188 59.335938 " clip-rule="nonzero"/></clipPath><clipPath id="7583afcf4c"><path d="M 22.203125 59.335938 L 26.421875 59.335938 L 26.421875 63.554688 L 22.203125 63.554688 Z M 22.203125 59.335938 " clip-rule="nonzero"/></clipPath><clipPath id="0427422811"><path d="M 18.117188 63.507812 L 22.332031 63.507812 L 22.332031 67.722656 L 18.117188 67.722656 Z M 18.117188 63.507812 " clip-rule="nonzero"/></clipPath><clipPath id="817a96d901"><path d="M 22.203125 63.507812 L 26.421875 63.507812 L 26.421875 67.722656 L 22.203125 67.722656 Z M 22.203125 63.507812 " clip-rule="nonzero"/></clipPath><clipPath id="67b1435498"><path d="M 13.964844 63.507812 L 18.179688 63.507812 L 18.179688 67.722656 L 13.964844 67.722656 Z M 13.964844 63.507812 " clip-rule="nonzero"/></clipPath><clipPath id="5bb745fcc2"><path d="M 30.269531 30.90625 L 34.488281 30.90625 L 34.488281 35.125 L 30.269531 35.125 Z M 30.269531 30.90625 " clip-rule="nonzero"/></clipPath><clipPath id="31788d9f5d"><path d="M 26.324219 30.90625 L 30.542969 30.90625 L 30.542969 35.125 L 26.324219 35.125 Z M 26.324219 30.90625 " clip-rule="nonzero"/></clipPath><clipPath id="4a9f186597"><path d="M 38.417969 30.90625 L 42.632812 30.90625 L 42.632812 35.125 L 38.417969 35.125 Z M 38.417969 30.90625 " clip-rule="nonzero"/></clipPath><clipPath id="0d9b9570bd"><path d="M 34.351562 30.90625 L 38.566406 30.90625 L 38.566406 35.125 L 34.351562 35.125 Z M 34.351562 30.90625 " clip-rule="nonzero"/></clipPath><clipPath id="1039af2d13"><path d="M 18.117188 67.585938 L 22.332031 67.585938 L 22.332031 71.800781 L 18.117188 71.800781 Z M 18.117188 67.585938 " clip-rule="nonzero"/></clipPath><clipPath id="a252515776"><path d="M 22.203125 67.585938 L 26.421875 67.585938 L 26.421875 71.800781 L 22.203125 71.800781 Z M 22.203125 67.585938 " clip-rule="nonzero"/></clipPath><clipPath id="d182499fcb"><path d="M 30.269531 67.585938 L 34.488281 67.585938 L 34.488281 71.800781 L 30.269531 71.800781 Z M 30.269531 67.585938 " clip-rule="nonzero"/></clipPath><clipPath id="9926e552de"><path d="M 26.324219 67.585938 L 30.542969 67.585938 L 30.542969 71.800781 L 26.324219 71.800781 Z M 26.324219 67.585938 " clip-rule="nonzero"/></clipPath><clipPath id="2ca3a3ccce"><path d="M 30.269531 34.9375 L 34.488281 34.9375 L 34.488281 39.152344 L 30.269531 39.152344 Z M 30.269531 34.9375 " clip-rule="nonzero"/></clipPath><clipPath id="7ff3a10ddb"><path d="M 26.324219 34.9375 L 30.542969 34.9375 L 30.542969 39.152344 L 26.324219 39.152344 Z M 26.324219 34.9375 " clip-rule="nonzero"/></clipPath><clipPath id="dff53e7f11"><path d="M 26.324219 43.078125 L 30.542969 43.078125 L 30.542969 47.296875 L 26.324219 47.296875 Z M 26.324219 43.078125 " clip-rule="nonzero"/></clipPath><clipPath id="08cfb79f07"><path d="M 26.324219 47.082031 L 30.542969 47.082031 L 30.542969 51.296875 L 26.324219 51.296875 Z M 26.324219 47.082031 " clip-rule="nonzero"/></clipPath><clipPath id="5349765709"><path d="M 26.363281 38.917969 L 30.578125 38.917969 L 30.578125 43.132812 L 26.363281 43.132812 Z M 26.363281 38.917969 " clip-rule="nonzero"/></clipPath><clipPath id="dc29609e7d"><path d="M 30.269531 43.078125 L 34.488281 43.078125 L 34.488281 47.296875 L 30.269531 47.296875 Z M 30.269531 43.078125 " clip-rule="nonzero"/></clipPath><clipPath id="9f6d7d5b9e"><path d="M 30.269531 38.917969 L 34.488281 38.917969 L 34.488281 43.132812 L 30.269531 43.132812 Z M 30.269531 38.917969 " clip-rule="nonzero"/></clipPath><clipPath id="7ba232b6aa"><path d="M 38 34 L 43 34 L 43 40 L 38 40 Z M 38 34 " clip-rule="nonzero"/></clipPath><clipPath id="10f72d6e4e"><path d="M 38.394531 39.121094 L 38.4375 34.90625 L 42.65625 34.949219 L 42.609375 39.167969 Z M 38.394531 39.121094 " clip-rule="nonzero"/></clipPath><clipPath id="18cd229934"><path d="M 34 34 L 39 34 L 39 40 L 34 40 Z M 34 34 " clip-rule="nonzero"/></clipPath><clipPath id="e4e4577091"><path d="M 34.328125 39.121094 L 34.375 34.90625 L 38.589844 34.949219 L 38.542969 39.167969 Z M 34.328125 39.121094 " clip-rule="nonzero"/></clipPath><clipPath id="5c2b1a1097"><path d="M 38 38 L 43 38 L 43 44 L 38 44 Z M 38 38 " clip-rule="nonzero"/></clipPath><clipPath id="dcdf2a99e7"><path d="M 38.394531 43.101562 L 38.4375 38.886719 L 42.65625 38.929688 L 42.609375 43.148438 Z M 38.394531 43.101562 " clip-rule="nonzero"/></clipPath><clipPath id="c1332eeef4"><path d="M 34 38 L 39 38 L 39 44 L 34 44 Z M 34 38 " clip-rule="nonzero"/></clipPath><clipPath id="50b4262b98"><path d="M 34.328125 43.101562 L 34.375 38.886719 L 38.589844 38.929688 L 38.542969 43.148438 Z M 34.328125 43.101562 " clip-rule="nonzero"/></clipPath><clipPath id="7ac1641746"><path d="M 38 43 L 43 43 L 43 48 L 38 48 Z M 38 43 " clip-rule="nonzero"/></clipPath><clipPath id="e4499beee7"><path d="M 38.394531 47.261719 L 38.4375 43.046875 L 42.65625 43.09375 L 42.609375 47.308594 Z M 38.394531 47.261719 " clip-rule="nonzero"/></clipPath><clipPath id="d3050d2d5b"><path d="M 34 43 L 39 43 L 39 48 L 34 48 Z M 34 43 " clip-rule="nonzero"/></clipPath><clipPath id="0d1343293f"><path d="M 34.328125 47.261719 L 34.375 43.046875 L 38.589844 43.09375 L 38.542969 47.308594 Z M 34.328125 47.261719 " clip-rule="nonzero"/></clipPath><clipPath id="e4ab330743"><path d="M 38 47 L 43 47 L 43 52 L 38 52 Z M 38 47 " clip-rule="nonzero"/></clipPath><clipPath id="c7376e3b1b"><path d="M 38.394531 51.265625 L 38.4375 47.046875 L 42.65625 47.09375 L 42.609375 51.308594 Z M 38.394531 51.265625 " clip-rule="nonzero"/></clipPath><clipPath id="ad2eb65912"><path d="M 34 47 L 39 47 L 39 52 L 34 52 Z M 34 47 " clip-rule="nonzero"/></clipPath><clipPath id="435c90fbf7"><path d="M 34.328125 51.265625 L 34.375 47.046875 L 38.589844 47.09375 L 38.542969 51.308594 Z M 34.328125 51.265625 " clip-rule="nonzero"/></clipPath><clipPath id="920aebddfe"><path d="M 38 51 L 43 51 L 43 56 L 38 56 Z M 38 51 " clip-rule="nonzero"/></clipPath><clipPath id="65ff5d6ab7"><path d="M 38.394531 55.351562 L 38.4375 51.136719 L 42.65625 51.183594 L 42.609375 55.398438 Z M 38.394531 55.351562 " clip-rule="nonzero"/></clipPath><clipPath id="61e6567808"><path d="M 34 51 L 39 51 L 39 56 L 34 56 Z M 34 51 " clip-rule="nonzero"/></clipPath><clipPath id="66071da365"><path d="M 34.328125 55.351562 L 34.375 51.136719 L 38.589844 51.183594 L 38.542969 55.398438 Z M 34.328125 55.351562 " clip-rule="nonzero"/></clipPath><clipPath id="60aa592f48"><path d="M 30 55 L 35 55 L 35 60 L 30 60 Z M 30 55 " clip-rule="nonzero"/></clipPath><clipPath id="6287ff4d99"><path d="M 30.25 59.433594 L 30.292969 55.214844 L 34.511719 55.261719 L 34.464844 59.476562 Z M 30.25 59.433594 " clip-rule="nonzero"/></clipPath><clipPath id="823955dd24"><path d="M 30 59 L 35 59 L 35 64 L 30 64 Z M 30 59 " clip-rule="nonzero"/></clipPath><clipPath id="bc1c192361"><path d="M 30.25 63.519531 L 30.292969 59.304688 L 34.511719 59.347656 L 34.464844 63.566406 Z M 30.25 63.519531 " clip-rule="nonzero"/></clipPath><clipPath id="2b35bc36e2"><path d="M 34 63 L 39 63 L 39 68 L 34 68 Z M 34 63 " clip-rule="nonzero"/></clipPath><clipPath id="487bde175d"><path d="M 34.328125 67.691406 L 34.375 63.472656 L 38.589844 63.519531 L 38.542969 67.734375 Z M 34.328125 67.691406 " clip-rule="nonzero"/></clipPath><clipPath id="be5f060591"><path d="M 30 63 L 35 63 L 35 68 L 30 68 Z M 30 63 " clip-rule="nonzero"/></clipPath><clipPath id="fcbf9569ff"><path d="M 30.25 67.542969 L 30.292969 63.328125 L 34.511719 63.371094 L 34.464844 67.589844 Z M 30.25 67.542969 " clip-rule="nonzero"/></clipPath><clipPath id="0cb0cc39ef"><path d="M 34.351562 55.246094 L 38.566406 55.246094 L 38.566406 59.464844 L 34.351562 59.464844 Z M 34.351562 55.246094 " clip-rule="nonzero"/></clipPath><clipPath id="16710bc649"><path d="M 34.351562 59.335938 L 38.566406 59.335938 L 38.566406 63.554688 L 34.351562 63.554688 Z M 34.351562 59.335938 " clip-rule="nonzero"/></clipPath><clipPath id="f912ab33be"><path d="M 42 38 L 47 38 L 47 44 L 42 44 Z M 42 38 " clip-rule="nonzero"/></clipPath><clipPath id="9dade1d01e"><path d="M 42.546875 43.101562 L 42.589844 38.886719 L 46.808594 38.929688 L 46.761719 43.148438 Z M 42.546875 43.101562 " clip-rule="nonzero"/></clipPath><clipPath id="5b6c6d1bc3"><path d="M 42 43 L 47 43 L 47 48 L 42 48 Z M 42 43 " clip-rule="nonzero"/></clipPath><clipPath id="9fb2b9d408"><path d="M 42.546875 47.261719 L 42.589844 43.046875 L 46.808594 43.09375 L 46.761719 47.308594 Z M 42.546875 47.261719 " clip-rule="nonzero"/></clipPath><clipPath id="f63ce05f03"><path d="M 42 47 L 47 47 L 47 52 L 42 52 Z M 42 47 " clip-rule="nonzero"/></clipPath><clipPath id="49212a71c8"><path d="M 42.546875 51.265625 L 42.589844 47.046875 L 46.808594 47.09375 L 46.761719 51.308594 Z M 42.546875 51.265625 " clip-rule="nonzero"/></clipPath><clipPath id="67ac74844d"><path d="M 42 51 L 47 51 L 47 56 L 42 56 Z M 42 51 " clip-rule="nonzero"/></clipPath><clipPath id="c3594f6157"><path d="M 42.546875 55.351562 L 42.589844 51.136719 L 46.808594 51.183594 L 46.761719 55.398438 Z M 42.546875 55.351562 " clip-rule="nonzero"/></clipPath><clipPath id="e326e046c9"><path d="M 46 38 L 51 38 L 51 44 L 46 44 Z M 46 38 " clip-rule="nonzero"/></clipPath><clipPath id="bb10a69ec9"><path d="M 46.722656 43.101562 L 46.765625 38.886719 L 50.984375 38.929688 L 50.9375 43.148438 Z M 46.722656 43.101562 " clip-rule="nonzero"/></clipPath><clipPath id="251698491f"><path d="M 46 43 L 51 43 L 51 48 L 46 48 Z M 46 43 " clip-rule="nonzero"/></clipPath><clipPath id="ef382698a3"><path d="M 46.722656 47.261719 L 46.765625 43.046875 L 50.984375 43.09375 L 50.9375 47.308594 Z M 46.722656 47.261719 " clip-rule="nonzero"/></clipPath><clipPath id="bbb2c2b69f"><path d="M 46.742188 47.082031 L 50.957031 47.082031 L 50.957031 51.296875 L 46.742188 51.296875 Z M 46.742188 47.082031 " clip-rule="nonzero"/></clipPath><clipPath id="4db0c0a819"><path d="M 46.742188 51.167969 L 50.960938 51.167969 L 50.960938 55.386719 L 46.742188 55.386719 Z M 46.742188 51.167969 " clip-rule="nonzero"/></clipPath><clipPath id="3fded3534a"><path d="M 38.417969 55.246094 L 42.632812 55.246094 L 42.632812 59.464844 L 38.417969 59.464844 Z M 38.417969 55.246094 " clip-rule="nonzero"/></clipPath><clipPath id="8db76c0eaf"><path d="M 42.570312 55.246094 L 46.785156 55.246094 L 46.785156 59.464844 L 42.570312 59.464844 Z M 42.570312 55.246094 " clip-rule="nonzero"/></clipPath><clipPath id="9ab015af0d"><path d="M 38.417969 59.335938 L 42.632812 59.335938 L 42.632812 63.554688 L 38.417969 63.554688 Z M 38.417969 59.335938 " clip-rule="nonzero"/></clipPath><clipPath id="ac1e6f052a"><path d="M 42.570312 59.335938 L 46.785156 59.335938 L 46.785156 63.554688 L 42.570312 63.554688 Z M 42.570312 59.335938 " clip-rule="nonzero"/></clipPath><clipPath id="5b8ccdfc82"><path d="M 46 55 L 51 55 L 51 60 L 46 60 Z M 46 55 " clip-rule="nonzero"/></clipPath><clipPath id="9c9ac0fcf4"><path d="M 46.722656 59.433594 L 46.765625 55.214844 L 50.984375 55.261719 L 50.9375 59.476562 Z M 46.722656 59.433594 " clip-rule="nonzero"/></clipPath><clipPath id="1567ff40f5"><path d="M 46 59 L 51 59 L 51 64 L 46 64 Z M 46 59 " clip-rule="nonzero"/></clipPath><clipPath id="03e462dca4"><path d="M 46.722656 63.519531 L 46.765625 59.304688 L 50.984375 59.347656 L 50.9375 63.566406 Z M 46.722656 63.519531 " clip-rule="nonzero"/></clipPath><clipPath id="5a07ed4a8c"><path d="M 46 34 L 51 34 L 51 40 L 46 40 Z M 46 34 " clip-rule="nonzero"/></clipPath><clipPath id="dcfd42a9c8"><path d="M 46.722656 39.121094 L 46.765625 34.90625 L 50.984375 34.949219 L 50.9375 39.167969 Z M 46.722656 39.121094 " clip-rule="nonzero"/></clipPath><clipPath id="ce35e9428e"><path d="M 42 34 L 47 34 L 47 40 L 42 40 Z M 42 34 " clip-rule="nonzero"/></clipPath><clipPath id="154d3bea6a"><path d="M 42.546875 39.023438 L 42.589844 34.808594 L 46.808594 34.851562 L 46.761719 39.070312 Z M 42.546875 39.023438 " clip-rule="nonzero"/></clipPath><clipPath id="c52cf71970"><path d="M 42.570312 22.839844 L 46.785156 22.839844 L 46.785156 27.054688 L 42.570312 27.054688 Z M 42.570312 22.839844 " clip-rule="nonzero"/></clipPath><clipPath id="8dcf205525"><path d="M 50.917969 22.839844 L 55.136719 22.839844 L 55.136719 27.054688 L 50.917969 27.054688 Z M 50.917969 22.839844 " clip-rule="nonzero"/></clipPath><clipPath id="4a1c3d737f"><path d="M 46.742188 22.839844 L 50.960938 22.839844 L 50.960938 27.054688 L 46.742188 27.054688 Z M 46.742188 22.839844 " clip-rule="nonzero"/></clipPath><clipPath id="cebad6b9af"><path d="M 42.570312 26.875 L 46.785156 26.875 L 46.785156 31.089844 L 42.570312 31.089844 Z M 42.570312 26.875 " clip-rule="nonzero"/></clipPath><clipPath id="9caccb2287"><path d="M 50.917969 26.875 L 55.136719 26.875 L 55.136719 31.089844 L 50.917969 31.089844 Z M 50.917969 26.875 " clip-rule="nonzero"/></clipPath><clipPath id="9fbc71fa7b"><path d="M 46.742188 26.875 L 50.960938 26.875 L 50.960938 31.089844 L 46.742188 31.089844 Z M 46.742188 26.875 " clip-rule="nonzero"/></clipPath><clipPath id="c1fccf8715"><path d="M 42.570312 30.828125 L 46.785156 30.828125 L 46.785156 35.046875 L 42.570312 35.046875 Z M 42.570312 30.828125 " clip-rule="nonzero"/></clipPath><clipPath id="e3fdde2a37"><path d="M 50.917969 30.90625 L 55.136719 30.90625 L 55.136719 35.125 L 50.917969 35.125 Z M 50.917969 30.90625 " clip-rule="nonzero"/></clipPath><clipPath id="eb12013139"><path d="M 46.742188 30.90625 L 50.960938 30.90625 L 50.960938 35.125 L 46.742188 35.125 Z M 46.742188 30.90625 " clip-rule="nonzero"/></clipPath><clipPath id="5d518dfc16"><path d="M 46.742188 18.679688 L 50.960938 18.679688 L 50.960938 22.894531 L 46.742188 22.894531 Z M 46.742188 18.679688 " clip-rule="nonzero"/></clipPath><clipPath id="7a9cb193d0"><path d="M 42.570312 18.679688 L 46.785156 18.679688 L 46.785156 22.894531 L 42.570312 22.894531 Z M 42.570312 18.679688 " clip-rule="nonzero"/></clipPath><clipPath id="88bed37ffc"><path d="M 54.976562 18.679688 L 59.191406 18.679688 L 59.191406 22.894531 L 54.976562 22.894531 Z M 54.976562 18.679688 " clip-rule="nonzero"/></clipPath><clipPath id="4fcea2a1cd"><path d="M 50.917969 18.679688 L 55.136719 18.679688 L 55.136719 22.894531 L 50.917969 22.894531 Z M 50.917969 18.679688 " clip-rule="nonzero"/></clipPath><clipPath id="8e9a78e2fd"><path d="M 50.910156 63.496094 L 55.125 63.496094 L 55.125 67.714844 L 50.910156 67.714844 Z M 50.910156 63.496094 " clip-rule="nonzero"/></clipPath><clipPath id="a438ff30de"><path d="M 42 63 L 47 63 L 47 68 L 42 68 Z M 42 63 " clip-rule="nonzero"/></clipPath><clipPath id="3766dd5617"><path d="M 46.796875 63.527344 L 46.753906 67.746094 L 42.535156 67.699219 L 42.582031 63.484375 Z M 46.796875 63.527344 " clip-rule="nonzero"/></clipPath><clipPath id="70facbe14c"><path d="M 46 63 L 51 63 L 51 68 L 46 68 Z M 46 63 " clip-rule="nonzero"/></clipPath><clipPath id="17ee0636f2"><path d="M 50.972656 63.527344 L 50.929688 67.746094 L 46.710938 67.699219 L 46.757812 63.484375 Z M 50.972656 63.527344 " clip-rule="nonzero"/></clipPath><clipPath id="518c4b7c03"><path d="M 38 63 L 43 63 L 43 68 L 38 68 Z M 38 63 " clip-rule="nonzero"/></clipPath><clipPath id="2a53329378"><path d="M 42.644531 63.527344 L 42.601562 67.746094 L 38.382812 67.699219 L 38.429688 63.484375 Z M 42.644531 63.527344 " clip-rule="nonzero"/></clipPath><clipPath id="1271f0ac5f"><path d="M 50 55 L 56 55 L 56 60 L 50 60 Z M 50 55 " clip-rule="nonzero"/></clipPath><clipPath id="c66d49bfa2"><path d="M 55.101562 59.476562 L 50.886719 59.433594 L 50.933594 55.214844 L 55.148438 55.261719 Z M 55.101562 59.476562 " clip-rule="nonzero"/></clipPath><clipPath id="4fa41e7de7"><path d="M 50 59 L 56 59 L 56 64 L 50 64 Z M 50 59 " clip-rule="nonzero"/></clipPath><clipPath id="80366a699e"><path d="M 55.101562 63.566406 L 50.886719 63.519531 L 50.933594 59.304688 L 55.148438 59.347656 Z M 55.101562 63.566406 " clip-rule="nonzero"/></clipPath><clipPath id="2a24f302fc"><path d="M 50 51 L 56 51 L 56 56 L 50 56 Z M 50 51 " clip-rule="nonzero"/></clipPath><clipPath id="dee74a36a8"><path d="M 55.101562 55.398438 L 50.886719 55.351562 L 50.933594 51.136719 L 55.148438 51.183594 Z M 55.101562 55.398438 " clip-rule="nonzero"/></clipPath><clipPath id="9853976b4c"><path d="M 50 38 L 56 38 L 56 44 L 50 44 Z M 50 38 " clip-rule="nonzero"/></clipPath><clipPath id="efbb268aaf"><path d="M 50.894531 43.101562 L 50.941406 38.886719 L 55.160156 38.929688 L 55.113281 43.148438 Z M 50.894531 43.101562 " clip-rule="nonzero"/></clipPath><clipPath id="170cd03226"><path d="M 50 43 L 56 43 L 56 48 L 50 48 Z M 50 43 " clip-rule="nonzero"/></clipPath><clipPath id="ff4d7d6c12"><path d="M 50.894531 47.261719 L 50.941406 43.046875 L 55.160156 43.09375 L 55.113281 47.308594 Z M 50.894531 47.261719 " clip-rule="nonzero"/></clipPath><clipPath id="9146143134"><path d="M 50 47 L 56 47 L 56 52 L 50 52 Z M 50 47 " clip-rule="nonzero"/></clipPath><clipPath id="7c0a8ce6f3"><path d="M 50.894531 51.265625 L 50.941406 47.046875 L 55.160156 47.09375 L 55.113281 51.308594 Z M 50.894531 51.265625 " clip-rule="nonzero"/></clipPath><clipPath id="6cd9be6e81"><path d="M 26.324219 59.335938 L 30.542969 59.335938 L 30.542969 63.554688 L 26.324219 63.554688 Z M 26.324219 59.335938 " clip-rule="nonzero"/></clipPath><clipPath id="a5ae7a7560"><path d="M 26.261719 63.382812 L 30.476562 63.382812 L 30.476562 67.597656 L 26.261719 67.597656 Z M 26.261719 63.382812 " clip-rule="nonzero"/></clipPath><clipPath id="2d0efb72be"><path d="M 26.324219 55.246094 L 30.542969 55.246094 L 30.542969 59.464844 L 26.324219 59.464844 Z M 26.324219 55.246094 " clip-rule="nonzero"/></clipPath><clipPath id="a0af4e16f6"><path d="M 26.324219 51.167969 L 30.542969 51.167969 L 30.542969 55.386719 L 26.324219 55.386719 Z M 26.324219 51.167969 " clip-rule="nonzero"/></clipPath><clipPath id="da4707b6a0"><path d="M 30.25 47.082031 L 34.464844 47.082031 L 34.464844 51.296875 L 30.25 51.296875 Z M 30.25 47.082031 " clip-rule="nonzero"/></clipPath><clipPath id="3a95e65dac"><path d="M 30.269531 51.167969 L 34.488281 51.167969 L 34.488281 55.386719 L 30.269531 55.386719 Z M 30.269531 51.167969 " clip-rule="nonzero"/></clipPath><clipPath id="0b14894c34"><path d="M 55.160156 59.335938 L 59.375 59.335938 L 59.375 63.554688 L 55.160156 63.554688 Z M 55.160156 59.335938 " clip-rule="nonzero"/></clipPath><clipPath id="09159d399e"><path d="M 55.160156 55.246094 L 59.375 55.246094 L 59.375 59.464844 L 55.160156 59.464844 Z M 55.160156 55.246094 " clip-rule="nonzero"/></clipPath><clipPath id="3e889df27c"><path d="M 55.160156 51.167969 L 59.375 51.167969 L 59.375 55.386719 L 55.160156 55.386719 Z M 55.160156 51.167969 " clip-rule="nonzero"/></clipPath><clipPath id="553b946fa7"><path d="M 42 67 L 47 67 L 47 72 L 42 72 Z M 42 67 " clip-rule="nonzero"/></clipPath><clipPath id="1aa9b02ff6"><path d="M 42.546875 71.769531 L 42.589844 67.550781 L 46.808594 67.597656 L 46.761719 71.816406 Z M 42.546875 71.769531 " clip-rule="nonzero"/></clipPath><clipPath id="c8eb22fe69"><path d="M 38 67 L 43 67 L 43 72 L 38 72 Z M 38 67 " clip-rule="nonzero"/></clipPath><clipPath id="1f358e2699"><path d="M 38.394531 71.769531 L 38.4375 67.550781 L 42.65625 67.597656 L 42.609375 71.816406 Z M 38.394531 71.769531 " clip-rule="nonzero"/></clipPath><clipPath id="04673f807c"><path d="M 34.351562 67.585938 L 38.566406 67.585938 L 38.566406 71.800781 L 34.351562 71.800781 Z M 34.351562 67.585938 " clip-rule="nonzero"/></clipPath><clipPath id="c95e6d2351"><path d="M 46.742188 67.585938 L 50.960938 67.585938 L 50.960938 71.800781 L 46.742188 71.800781 Z M 46.742188 67.585938 " clip-rule="nonzero"/></clipPath><clipPath id="86fb07676f"><path d="M 55.042969 38.917969 L 59.261719 38.917969 L 59.261719 43.132812 L 55.042969 43.132812 Z M 55.042969 38.917969 " clip-rule="nonzero"/></clipPath><clipPath id="2d04e44109"><path d="M 55.042969 43.078125 L 59.261719 43.078125 L 59.261719 47.296875 L 55.042969 47.296875 Z M 55.042969 43.078125 " clip-rule="nonzero"/></clipPath><clipPath id="003ebf743b"><path d="M 55.042969 47.082031 L 59.261719 47.082031 L 59.261719 51.296875 L 55.042969 51.296875 Z M 55.042969 47.082031 " clip-rule="nonzero"/></clipPath><clipPath id="2da6b3a60d"><path d="M 50.917969 34.9375 L 55.136719 34.9375 L 55.136719 39.152344 L 50.917969 39.152344 Z M 50.917969 34.9375 " clip-rule="nonzero"/></clipPath><clipPath id="1a5b1a3004"><path d="M 54.976562 34.9375 L 59.191406 34.9375 L 59.191406 39.152344 L 54.976562 39.152344 Z M 54.976562 34.9375 " clip-rule="nonzero"/></clipPath><clipPath id="2ae9036667"><path d="M 54.976562 22.839844 L 59.191406 22.839844 L 59.191406 27.054688 L 54.976562 27.054688 Z M 54.976562 22.839844 " clip-rule="nonzero"/></clipPath><clipPath id="b9f00a3565"><path d="M 54.976562 26.875 L 59.191406 26.875 L 59.191406 31.089844 L 54.976562 31.089844 Z M 54.976562 26.875 " clip-rule="nonzero"/></clipPath><clipPath id="43a7cf0c40"><path d="M 54.976562 30.90625 L 59.191406 30.90625 L 59.191406 35.125 L 54.976562 35.125 Z M 54.976562 30.90625 " clip-rule="nonzero"/></clipPath><clipPath id="47948d37c8"><path d="M 59.09375 22.839844 L 63.308594 22.839844 L 63.308594 27.054688 L 59.09375 27.054688 Z M 59.09375 22.839844 " clip-rule="nonzero"/></clipPath><clipPath id="17ace10134"><path d="M 59.214844 38.917969 L 63.433594 38.917969 L 63.433594 43.132812 L 59.214844 43.132812 Z M 59.214844 38.917969 " clip-rule="nonzero"/></clipPath><clipPath id="3c31550faf"><path d="M 59.214844 43.078125 L 63.433594 43.078125 L 63.433594 47.296875 L 59.214844 47.296875 Z M 59.214844 43.078125 " clip-rule="nonzero"/></clipPath><clipPath id="19dbc56e4a"><path d="M 59.214844 47.082031 L 63.433594 47.082031 L 63.433594 51.296875 L 59.214844 51.296875 Z M 59.214844 47.082031 " clip-rule="nonzero"/></clipPath><clipPath id="5cdcab7757"><path d="M 59.09375 34.9375 L 63.308594 34.9375 L 63.308594 39.152344 L 59.09375 39.152344 Z M 59.09375 34.9375 " clip-rule="nonzero"/></clipPath><clipPath id="3fdaebff77"><path d="M 59.09375 26.875 L 63.308594 26.875 L 63.308594 31.089844 L 59.09375 31.089844 Z M 59.09375 26.875 " clip-rule="nonzero"/></clipPath><clipPath id="32de6f6719"><path d="M 59.09375 30.90625 L 63.308594 30.90625 L 63.308594 35.125 L 59.09375 35.125 Z M 59.09375 30.90625 " clip-rule="nonzero"/></clipPath><clipPath id="7c02354856"><path d="M 62.933594 38.917969 L 67.152344 38.917969 L 67.152344 43.132812 L 62.933594 43.132812 Z M 62.933594 38.917969 " clip-rule="nonzero"/></clipPath><clipPath id="254103b800"><path d="M 62.933594 43.078125 L 67.152344 43.078125 L 67.152344 47.296875 L 62.933594 47.296875 Z M 62.933594 43.078125 " clip-rule="nonzero"/></clipPath><clipPath id="4a56164a57"><path d="M 62.933594 47.082031 L 67.152344 47.082031 L 67.152344 51.296875 L 62.933594 51.296875 Z M 62.933594 47.082031 " clip-rule="nonzero"/></clipPath><clipPath id="7180b0ae35"><path d="M 62.933594 34.9375 L 67.152344 34.9375 L 67.152344 39.152344 L 62.933594 39.152344 Z M 62.933594 34.9375 " clip-rule="nonzero"/></clipPath><clipPath id="0327b1e6aa"><path d="M 62.933594 30.90625 L 67.152344 30.90625 L 67.152344 35.125 L 62.933594 35.125 Z M 62.933594 30.90625 " clip-rule="nonzero"/></clipPath><clipPath id="ca2f9f613d"><path d="M 59.328125 55.246094 L 63.300781 55.246094 L 63.300781 59.464844 L 59.328125 59.464844 Z M 59.328125 55.246094 " clip-rule="nonzero"/></clipPath><clipPath id="e91846af0e"><path d="M 59.328125 59.335938 L 63.300781 59.335938 L 63.300781 63.554688 L 59.328125 63.554688 Z M 59.328125 59.335938 " clip-rule="nonzero"/></clipPath><clipPath id="21b5c22151"><path d="M 59.328125 63.507812 L 63.300781 63.507812 L 63.300781 67.722656 L 59.328125 67.722656 Z M 59.328125 63.507812 " clip-rule="nonzero"/></clipPath><clipPath id="d09e089f47"><path d="M 59.328125 51.167969 L 63.546875 51.167969 L 63.546875 55.386719 L 59.328125 55.386719 Z M 59.328125 51.167969 " clip-rule="nonzero"/></clipPath><clipPath id="a77c18920f"><path d="M 63.183594 55.246094 L 67.152344 55.246094 L 67.152344 59.464844 L 63.183594 59.464844 Z M 63.183594 55.246094 " clip-rule="nonzero"/></clipPath><clipPath id="5fbe36207e"><path d="M 63.183594 59.335938 L 67.152344 59.335938 L 67.152344 63.554688 L 63.183594 63.554688 Z M 63.183594 59.335938 " clip-rule="nonzero"/></clipPath><clipPath id="aee3901c84"><path d="M 63.183594 63.507812 L 67.152344 63.507812 L 67.152344 67.722656 L 63.183594 67.722656 Z M 63.183594 63.507812 " clip-rule="nonzero"/></clipPath><clipPath id="4cb7a03c7b"><path d="M 63.046875 51.167969 L 67.265625 51.167969 L 67.265625 55.386719 L 63.046875 55.386719 Z M 63.046875 51.167969 " clip-rule="nonzero"/></clipPath><clipPath id="6dbc91641f"><path d="M 66.8125 63.507812 L 70.785156 63.507812 L 70.785156 67.722656 L 66.8125 67.722656 Z M 66.8125 63.507812 " clip-rule="nonzero"/></clipPath><clipPath id="1347313606"><path d="M 55.160156 63.507812 L 59.375 63.507812 L 59.375 67.722656 L 55.160156 67.722656 Z M 55.160156 63.507812 " clip-rule="nonzero"/></clipPath><clipPath id="7247426059"><path d="M 63.308594 27.054688 L 67.527344 27.054688 L 67.527344 31.273438 L 63.308594 31.273438 Z M 63.308594 27.054688 " clip-rule="nonzero"/></clipPath><clipPath id="225faba80c"><path d="M 63.367188 30.957031 L 67.585938 30.957031 L 67.585938 35.175781 L 63.367188 35.175781 Z M 63.367188 30.957031 " clip-rule="nonzero"/></clipPath><clipPath id="b72771973d"><path d="M 63.367188 34.9375 L 67.585938 34.9375 L 67.585938 39.15625 L 63.367188 39.15625 Z M 63.367188 34.9375 " clip-rule="nonzero"/></clipPath><clipPath id="596d2040b0"><path d="M 63.367188 39.101562 L 67.585938 39.101562 L 67.585938 43.316406 L 63.367188 43.316406 Z M 63.367188 39.101562 " clip-rule="nonzero"/></clipPath><clipPath id="550461b5f6"><path d="M 67.105469 43.316406 L 71.320312 43.316406 L 71.320312 47.535156 L 67.105469 47.535156 Z M 67.105469 43.316406 " clip-rule="nonzero"/></clipPath><clipPath id="6942f6626a"><path d="M 67.105469 59.328125 L 71.320312 59.328125 L 71.320312 63.542969 L 67.105469 63.542969 Z M 67.105469 59.328125 " clip-rule="nonzero"/></clipPath><clipPath id="fc137d9265"><path d="M 67.105469 55.472656 L 71.320312 55.472656 L 71.320312 59.691406 L 67.105469 59.691406 Z M 67.105469 55.472656 " clip-rule="nonzero"/></clipPath><clipPath id="d8818b0869"><path d="M 67.105469 51.382812 L 71.320312 51.382812 L 71.320312 55.601562 L 67.105469 55.601562 Z M 67.105469 51.382812 " clip-rule="nonzero"/></clipPath><clipPath id="8cf672eb96"><path d="M 67.105469 47.535156 L 71.320312 47.535156 L 71.320312 51.75 L 67.105469 51.75 Z M 67.105469 47.535156 " clip-rule="nonzero"/></clipPath><clipPath id="90c8690c41"><path d="M 67.105469 51.4375 L 71.320312 51.4375 L 71.320312 55.652344 L 67.105469 55.652344 Z M 67.105469 51.4375 " clip-rule="nonzero"/></clipPath><clipPath id="edb5de8556"><path d="M 67.105469 55.476562 L 71.320312 55.476562 L 71.320312 59.691406 L 67.105469 59.691406 Z M 67.105469 55.476562 " clip-rule="nonzero"/></clipPath><clipPath id="11d84c9989"><path d="M 67.105469 59.507812 L 71.320312 59.507812 L 71.320312 63.726562 L 67.105469 63.726562 Z M 67.105469 59.507812 " clip-rule="nonzero"/></clipPath><clipPath id="a1f8d872f3"><path d="M 70.785156 63.726562 L 75 63.726562 L 75 67.941406 L 70.785156 67.941406 Z M 70.785156 63.726562 " clip-rule="nonzero"/></clipPath><clipPath id="334ddf4c5d"><path d="M 50.65625 67.585938 L 54.875 67.585938 L 54.875 71.800781 L 50.65625 71.800781 Z M 50.65625 67.585938 " clip-rule="nonzero"/></clipPath><clipPath id="06b0948735"><path d="M 58.984375 67.585938 L 63.203125 67.585938 L 63.203125 71.800781 L 58.984375 71.800781 Z M 58.984375 67.585938 " clip-rule="nonzero"/></clipPath><clipPath id="8d1a7a4f0a"><path d="M 54.808594 67.585938 L 59.027344 67.585938 L 59.027344 71.800781 L 54.808594 71.800781 Z M 54.808594 67.585938 " clip-rule="nonzero"/></clipPath><clipPath id="54c39816a0"><path d="M 66.8125 67.585938 L 71.03125 67.585938 L 71.03125 71.800781 L 66.8125 71.800781 Z M 66.8125 67.585938 " clip-rule="nonzero"/></clipPath><clipPath id="b4d24b8fc3"><path d="M 63.046875 67.585938 L 67.265625 67.585938 L 67.265625 71.800781 L 63.046875 71.800781 Z M 63.046875 67.585938 " clip-rule="nonzero"/></clipPath><clipPath id="75d9600529"><path d="M 30.269531 71.578125 L 34.488281 71.578125 L 34.488281 75 L 30.269531 75 Z M 30.269531 71.578125 " clip-rule="nonzero"/></clipPath><clipPath id="c3203f4eb8"><path d="M 26.324219 71.578125 L 30.542969 71.578125 L 30.542969 75 L 26.324219 75 Z M 26.324219 71.578125 " clip-rule="nonzero"/></clipPath><clipPath id="b80e14bd4b"><path d="M 34.351562 71.578125 L 38.566406 71.578125 L 38.566406 75 L 34.351562 75 Z M 34.351562 71.578125 " clip-rule="nonzero"/></clipPath><clipPath id="7f915e04b2"><path d="M 42.28125 71.59375 L 46.5 71.59375 L 46.5 75 L 42.28125 75 Z M 42.28125 71.59375 " clip-rule="nonzero"/></clipPath><clipPath id="d5e5d8fc2b"><path d="M 38.335938 71.59375 L 42.554688 71.59375 L 42.554688 75 L 38.335938 75 Z M 38.335938 71.59375 " clip-rule="nonzero"/></clipPath><clipPath id="1aa4ebba6b"><path d="M 46.363281 71.59375 L 50.578125 71.59375 L 50.578125 75 L 46.363281 75 Z M 46.363281 71.59375 " clip-rule="nonzero"/></clipPath><clipPath id="dd088a8e53"><path d="M 50.527344 71.59375 L 54.746094 71.59375 L 54.746094 75 L 50.527344 75 Z M 50.527344 71.59375 " clip-rule="nonzero"/></clipPath><clipPath id="0fe44bfb02"><path d="M 54.609375 71.59375 L 58.824219 71.59375 L 58.824219 75 L 54.609375 75 Z M 54.609375 71.59375 " clip-rule="nonzero"/></clipPath><clipPath id="021812204a"><path d="M 3 3 L 42 3 L 42 36 L 3 36 Z M 3 3 " clip-rule="nonzero"/></clipPath><clipPath id="b266aff0aa"><path d="M 0 2.785156 L 41.074219 -1.003906 L 44.382812 34.84375 L 3.304688 38.632812 Z M 0 2.785156 " clip-rule="nonzero"/></clipPath><clipPath id="ff978680b9"><path d="M 0 2.785156 L 41.074219 -1.003906 L 44.382812 34.84375 L 3.304688 38.632812 Z M 0 2.785156 " clip-rule="nonzero"/></clipPath><clipPath id="2b4f0dd22b"><path d="M 0 2.785156 L 41.074219 -1.003906 L 44.382812 34.84375 L 3.304688 38.632812 Z M 0 2.785156 " clip-rule="nonzero"/></clipPath><clipPath id="aca8d72806"><path d="M 16 15 L 29 15 L 29 29 L 16 29 Z M 16 15 " clip-rule="nonzero"/></clipPath><clipPath id="e8d8127a27"><path d="M 0 2.785156 L 41.074219 -1.003906 L 44.382812 34.84375 L 3.304688 38.632812 Z M 0 2.785156 " clip-rule="nonzero"/></clipPath><clipPath id="384070d486"><path d="M 0 2.785156 L 41.074219 -1.003906 L 44.382812 34.84375 L 3.304688 38.632812 Z M 0 2.785156 " clip-rule="nonzero"/></clipPath><clipPath id="91bb754e82"><path d="M 0 2.785156 L 41.074219 -1.003906 L 44.382812 34.84375 L 3.304688 38.632812 Z M 0 2.785156 " clip-rule="nonzero"/></clipPath><clipPath id="f91703a91a"><path d="M 0 0 L 45 0 L 45 39 L 0 39 Z M 0 0 " clip-rule="nonzero"/></clipPath><clipPath id="85b057cda5"><path d="M 0 2.785156 L 41.074219 -1.003906 L 44.382812 34.84375 L 3.304688 38.632812 Z M 0 2.785156 " clip-rule="nonzero"/></clipPath><clipPath id="ba5c742239"><path d="M 0 2.785156 L 41.074219 -1.003906 L 44.382812 34.84375 L 3.304688 38.632812 Z M 0 2.785156 " clip-rule="nonzero"/></clipPath><clipPath id="88d141f8bb"><path d="M 0 2.785156 L 41.074219 -1.003906 L 44.382812 34.84375 L 3.304688 38.632812 Z M 0 2.785156 " clip-rule="nonzero"/></clipPath></defs><g clip-path="url(#55678e4661)"><path fill="#000000" d="M 22.203125 22.839844 L 26.421875 22.839844 L 26.421875 27.054688 L 22.203125 27.054688 Z M 22.203125 22.839844 " fill-opacity="1" fill-rule="nonzero"/></g><g clip-path="url(#574cab3ab6)"><path fill="#000000" d="M 18.117188 26.875 L 22.332031 26.875 L 22.332031 31.089844 L 18.117188 31.089844 Z M 18.117188 26.875 " fill-opacity="1" fill-rule="nonzero"/></g><g clip-path="url(#4a8517ec3b)"><path fill="#000000" d="M 18.117188 30.90625 L 22.332031 30.90625 L 22.332031 35.125 L 18.117188 35.125 Z M 18.117188 30.90625 " fill-opacity="1" fill-rule="nonzero"/></g><g clip-path="url(#cd4b392617)"><path fill="#000000" d="M 13.964844 30.90625 L 18.179688 30.90625 L 18.179688 35.125 L 13.964844 35.125 Z M 13.964844 30.90625 " fill-opacity="1" fill-rule="nonzero"/></g><g clip-path="url(#588ac0f601)"><path fill="#000000" d="M 30.269531 18.679688 L 34.488281 18.679688 L 34.488281 22.894531 L 30.269531 22.894531 Z M 30.269531 18.679688 " fill-opacity="1" fill-rule="nonzero"/></g><g clip-path="url(#de623cec93)"><path fill="#000000" d="M 26.324219 18.679688 L 30.542969 18.679688 L 30.542969 22.894531 L 26.324219 22.894531 Z M 26.324219 18.679688 " fill-opacity="1" fill-rule="nonzero"/></g><g clip-path="url(#a6fb9ea7a6)"><path fill="#000000" d="M 38.417969 18.679688 L 42.632812 18.679688 L 42.632812 22.894531 L 38.417969 22.894531 Z M 38.417969 18.679688 " fill-opacity="1" fill-rule="nonzero"/></g><g clip-path="url(#fb34f04501)"><path fill="#000000" d="M 34.351562 18.679688 L 38.566406 18.679688 L 38.566406 22.894531 L 34.351562 22.894531 Z M 34.351562 18.679688 " fill-opacity="1" fill-rule="nonzero"/></g><g clip-path="url(#0f9a0bdcfe)"><path fill="#000000" d="M 13.964844 34.9375 L 18.179688 34.9375 L 18.179688 39.152344 L 13.964844 39.152344 Z M 13.964844 34.9375 " fill-opacity="1" fill-rule="nonzero"/></g><g clip-path="url(#e1a13391cb)"><path fill="#000000" d="M 13.964844 38.917969 L 18.179688 38.917969 L 18.179688 43.132812 L 13.964844 43.132812 Z M 13.964844 38.917969 " fill-opacity="1" fill-rule="nonzero"/></g><g clip-path="url(#6f0de8a3d1)"><path fill="#000000" d="M 13.964844 43.078125 L 18.179688 43.078125 L 18.179688 47.296875 L 13.964844 47.296875 Z M 13.964844 43.078125 " fill-opacity="1" fill-rule="nonzero"/></g><g clip-path="url(#1926ea8dd2)"><path fill="#000000" d="M 9.8125 47.082031 L 14.027344 47.082031 L 14.027344 51.296875 L 9.8125 51.296875 Z M 9.8125 47.082031 " fill-opacity="1" fill-rule="nonzero"/></g><g clip-path="url(#b83543bf2d)"><path fill="#000000" d="M 13.964844 51.167969 L 18.179688 51.167969 L 18.179688 55.386719 L 13.964844 55.386719 Z M 13.964844 51.167969 " fill-opacity="1" fill-rule="nonzero"/></g><g clip-path="url(#224ae66703)"><path fill="#000000" d="M 13.964844 55.246094 L 18.179688 55.246094 L 18.179688 59.464844 L 13.964844 59.464844 Z M 13.964844 55.246094 " fill-opacity="1" fill-rule="nonzero"/></g><g clip-path="url(#b569820c8f)"><path fill="#000000" d="M 13.964844 59.335938 L 18.179688 59.335938 L 18.179688 63.554688 L 13.964844 63.554688 Z M 13.964844 59.335938 " fill-opacity="1" fill-rule="nonzero"/></g><g clip-path="url(#765416faa2)"><path fill="#000000" d="M 9.8125 63.507812 L 14.027344 63.507812 L 14.027344 67.722656 L 9.8125 67.722656 Z M 9.8125 63.507812 " fill-opacity="1" fill-rule="nonzero"/></g><g clip-path="url(#abdaf09037)"><path fill="#000000" d="M 13.964844 67.585938 L 18.179688 67.585938 L 18.179688 71.800781 L 13.964844 71.800781 Z M 13.964844 67.585938 " fill-opacity="1" fill-rule="nonzero"/></g><g clip-path="url(#8a6ebe1df6)"><path fill="#000000" d="M 22.203125 71.578125 L 26.421875 71.578125 L 26.421875 75.792969 L 22.203125 75.792969 Z M 22.203125 71.578125 " fill-opacity="1" fill-rule="nonzero"/></g><g clip-path="url(#36c27dda9f)"><path fill="#000000" d="M 18.117188 71.578125 L 22.332031 71.578125 L 22.332031 75.792969 L 18.117188 75.792969 Z M 18.117188 71.578125 " fill-opacity="1" fill-rule="nonzero"/></g><g clip-path="url(#67f9514d7f)"><path fill="#004aad" d="M 22.203125 26.875 L 26.421875 26.875 L 26.421875 31.089844 L 22.203125 31.089844 Z M 22.203125 26.875 " fill-opacity="1" fill-rule="nonzero"/></g><g clip-path="url(#74d2619bea)"><path fill="#004aad" d="M 30.269531 22.839844 L 34.488281 22.839844 L 34.488281 27.054688 L 30.269531 27.054688 Z M 30.269531 22.839844 " fill-opacity="1" fill-rule="nonzero"/></g><g clip-path="url(#85772bbbd5)"><path fill="#004aad" d="M 26.324219 22.839844 L 30.542969 22.839844 L 30.542969 27.054688 L 26.324219 27.054688 Z M 26.324219 22.839844 " fill-opacity="1" fill-rule="nonzero"/></g><g clip-path="url(#c17cdc4efb)"><path fill="#004aad" d="M 38.417969 22.839844 L 42.632812 22.839844 L 42.632812 27.054688 L 38.417969 27.054688 Z M 38.417969 22.839844 " fill-opacity="1" fill-rule="nonzero"/></g><g clip-path="url(#1d0b479a4b)"><path fill="#004aad" d="M 34.351562 22.839844 L 38.566406 22.839844 L 38.566406 27.054688 L 34.351562 27.054688 Z M 34.351562 22.839844 " fill-opacity="1" fill-rule="nonzero"/></g><g clip-path="url(#cb18d3d61c)"><path fill="#004aad" d="M 30.269531 26.875 L 34.488281 26.875 L 34.488281 31.089844 L 30.269531 31.089844 Z M 30.269531 26.875 " fill-opacity="1" fill-rule="nonzero"/></g><g clip-path="url(#65a4b235cf)"><path fill="#004aad" d="M 26.324219 26.875 L 30.542969 26.875 L 30.542969 31.089844 L 26.324219 31.089844 Z M 26.324219 26.875 " fill-opacity="1" fill-rule="nonzero"/></g><g clip-path="url(#0d8cd93bd6)"><path fill="#004aad" d="M 38.417969 26.875 L 42.632812 26.875 L 42.632812 31.089844 L 38.417969 31.089844 Z M 38.417969 26.875 " fill-opacity="1" fill-rule="nonzero"/></g><g clip-path="url(#67e4b04f1c)"><path fill="#004aad" d="M 34.351562 26.875 L 38.566406 26.875 L 38.566406 31.089844 L 34.351562 31.089844 Z M 34.351562 26.875 " fill-opacity="1" fill-rule="nonzero"/></g><g clip-path="url(#63218ca8f2)"><path fill="#004aad" d="M 18.117188 34.9375 L 22.332031 34.9375 L 22.332031 39.152344 L 18.117188 39.152344 Z M 18.117188 34.9375 " fill-opacity="1" fill-rule="nonzero"/></g><g clip-path="url(#5c039df2c3)"><path fill="#004aad" d="M 22.203125 30.90625 L 26.421875 30.90625 L 26.421875 35.125 L 22.203125 35.125 Z M 22.203125 30.90625 " fill-opacity="1" fill-rule="nonzero"/></g><g clip-path="url(#93cb7cc011)"><path fill="#004aad" d="M 22.203125 34.9375 L 26.421875 34.9375 L 26.421875 39.152344 L 22.203125 39.152344 Z M 22.203125 34.9375 " fill-opacity="1" fill-rule="nonzero"/></g><g clip-path="url(#0d5c281282)"><path fill="#004aad" d="M 18.117188 38.917969 L 22.332031 38.917969 L 22.332031 43.132812 L 18.117188 43.132812 Z M 18.117188 38.917969 " fill-opacity="1" fill-rule="nonzero"/></g><g clip-path="url(#d2089c38b2)"><path fill="#004aad" d="M 22.203125 38.917969 L 26.421875 38.917969 L 26.421875 43.132812 L 22.203125 43.132812 Z M 22.203125 38.917969 " fill-opacity="1" fill-rule="nonzero"/></g><g clip-path="url(#7d460e3989)"><path fill="#004aad" d="M 18.117188 43.078125 L 22.332031 43.078125 L 22.332031 47.296875 L 18.117188 47.296875 Z M 18.117188 43.078125 " fill-opacity="1" fill-rule="nonzero"/></g><g clip-path="url(#f6e6ec1a9b)"><path fill="#004aad" d="M 22.203125 43.078125 L 26.421875 43.078125 L 26.421875 47.296875 L 22.203125 47.296875 Z M 22.203125 43.078125 " fill-opacity="1" fill-rule="nonzero"/></g><g clip-path="url(#a64aebd8ff)"><path fill="#004aad" d="M 18.117188 47.082031 L 22.332031 47.082031 L 22.332031 51.296875 L 18.117188 51.296875 Z M 18.117188 47.082031 " fill-opacity="1" fill-rule="nonzero"/></g><g clip-path="url(#e179c903e1)"><path fill="#004aad" d="M 22.203125 47.082031 L 26.421875 47.082031 L 26.421875 51.296875 L 22.203125 51.296875 Z M 22.203125 47.082031 " fill-opacity="1" fill-rule="nonzero"/></g><g clip-path="url(#cb9e861f01)"><path fill="#004aad" d="M 13.964844 47.082031 L 18.179688 47.082031 L 18.179688 51.296875 L 13.964844 51.296875 Z M 13.964844 47.082031 " fill-opacity="1" fill-rule="nonzero"/></g><g clip-path="url(#2746890439)"><path fill="#004aad" d="M 18.117188 51.167969 L 22.332031 51.167969 L 22.332031 55.386719 L 18.117188 55.386719 Z M 18.117188 51.167969 " fill-opacity="1" fill-rule="nonzero"/></g><g clip-path="url(#48e801a21e)"><path fill="#004aad" d="M 22.203125 51.167969 L 26.421875 51.167969 L 26.421875 55.386719 L 22.203125 55.386719 Z M 22.203125 51.167969 " fill-opacity="1" fill-rule="nonzero"/></g><g clip-path="url(#ab44300f01)"><path fill="#004aad" d="M 18.117188 55.246094 L 22.332031 55.246094 L 22.332031 59.464844 L 18.117188 59.464844 Z M 18.117188 55.246094 " fill-opacity="1" fill-rule="nonzero"/></g><g clip-path="url(#1a72a43661)"><path fill="#004aad" d="M 22.203125 55.246094 L 26.421875 55.246094 L 26.421875 59.464844 L 22.203125 59.464844 Z M 22.203125 55.246094 " fill-opacity="1" fill-rule="nonzero"/></g><g clip-path="url(#47d3a2f34b)"><path fill="#004aad" d="M 18.117188 59.335938 L 22.332031 59.335938 L 22.332031 63.554688 L 18.117188 63.554688 Z M 18.117188 59.335938 " fill-opacity="1" fill-rule="nonzero"/></g><g clip-path="url(#7583afcf4c)"><path fill="#004aad" d="M 22.203125 59.335938 L 26.421875 59.335938 L 26.421875 63.554688 L 22.203125 63.554688 Z M 22.203125 59.335938 " fill-opacity="1" fill-rule="nonzero"/></g><g clip-path="url(#0427422811)"><path fill="#004aad" d="M 18.117188 63.507812 L 22.332031 63.507812 L 22.332031 67.722656 L 18.117188 67.722656 Z M 18.117188 63.507812 " fill-opacity="1" fill-rule="nonzero"/></g><g clip-path="url(#817a96d901)"><path fill="#004aad" d="M 22.203125 63.507812 L 26.421875 63.507812 L 26.421875 67.722656 L 22.203125 67.722656 Z M 22.203125 63.507812 " fill-opacity="1" fill-rule="nonzero"/></g><g clip-path="url(#67b1435498)"><path fill="#004aad" d="M 13.964844 63.507812 L 18.179688 63.507812 L 18.179688 67.722656 L 13.964844 67.722656 Z M 13.964844 63.507812 " fill-opacity="1" fill-rule="nonzero"/></g><g clip-path="url(#5bb745fcc2)"><path fill="#004aad" d="M 30.269531 30.90625 L 34.488281 30.90625 L 34.488281 35.125 L 30.269531 35.125 Z M 30.269531 30.90625 " fill-opacity="1" fill-rule="nonzero"/></g><g clip-path="url(#31788d9f5d)"><path fill="#004aad" d="M 26.324219 30.90625 L 30.542969 30.90625 L 30.542969 35.125 L 26.324219 35.125 Z M 26.324219 30.90625 " fill-opacity="1" fill-rule="nonzero"/></g><g clip-path="url(#4a9f186597)"><path fill="#004aad" d="M 38.417969 30.90625 L 42.632812 30.90625 L 42.632812 35.125 L 38.417969 35.125 Z M 38.417969 30.90625 " fill-opacity="1" fill-rule="nonzero"/></g><g clip-path="url(#0d9b9570bd)"><path fill="#004aad" d="M 34.351562 30.90625 L 38.566406 30.90625 L 38.566406 35.125 L 34.351562 35.125 Z M 34.351562 30.90625 " fill-opacity="1" fill-rule="nonzero"/></g><g clip-path="url(#1039af2d13)"><path fill="#004aad" d="M 18.117188 67.585938 L 22.332031 67.585938 L 22.332031 71.800781 L 18.117188 71.800781 Z M 18.117188 67.585938 " fill-opacity="1" fill-rule="nonzero"/></g><g clip-path="url(#a252515776)"><path fill="#004aad" d="M 22.203125 67.585938 L 26.421875 67.585938 L 26.421875 71.800781 L 22.203125 71.800781 Z M 22.203125 67.585938 " fill-opacity="1" fill-rule="nonzero"/></g><g clip-path="url(#d182499fcb)"><path fill="#000000" d="M 30.269531 67.585938 L 34.488281 67.585938 L 34.488281 71.800781 L 30.269531 71.800781 Z M 30.269531 67.585938 " fill-opacity="1" fill-rule="nonzero"/></g><g clip-path="url(#9926e552de)"><path fill="#000000" d="M 26.324219 67.585938 L 30.542969 67.585938 L 30.542969 71.800781 L 26.324219 71.800781 Z M 26.324219 67.585938 " fill-opacity="1" fill-rule="nonzero"/></g><g clip-path="url(#2ca3a3ccce)"><path fill="#5271ff" d="M 30.269531 34.9375 L 34.488281 34.9375 L 34.488281 39.152344 L 30.269531 39.152344 Z M 30.269531 34.9375 " fill-opacity="1" fill-rule="nonzero"/></g><g clip-path="url(#7ff3a10ddb)"><path fill="#004aad" d="M 26.324219 34.9375 L 30.542969 34.9375 L 30.542969 39.152344 L 26.324219 39.152344 Z M 26.324219 34.9375 " fill-opacity="1" fill-rule="nonzero"/></g><g clip-path="url(#dff53e7f11)"><path fill="#5271ff" d="M 26.324219 43.078125 L 30.542969 43.078125 L 30.542969 47.296875 L 26.324219 47.296875 Z M 26.324219 43.078125 " fill-opacity="1" fill-rule="nonzero"/></g><g clip-path="url(#08cfb79f07)"><path fill="#5271ff" d="M 26.324219 47.082031 L 30.542969 47.082031 L 30.542969 51.296875 L 26.324219 51.296875 Z M 26.324219 47.082031 " fill-opacity="1" fill-rule="nonzero"/></g><g clip-path="url(#5349765709)"><path fill="#5271ff" d="M 26.363281 38.917969 L 30.578125 38.917969 L 30.578125 43.132812 L 26.363281 43.132812 Z M 26.363281 38.917969 " fill-opacity="1" fill-rule="nonzero"/></g><g clip-path="url(#dc29609e7d)"><path fill="#dbb588" d="M 30.269531 43.078125 L 34.488281 43.078125 L 34.488281 47.296875 L 30.269531 47.296875 Z M 30.269531 43.078125 " fill-opacity="1" fill-rule="nonzero"/></g><g clip-path="url(#9f6d7d5b9e)"><path fill="#dbb588" d="M 30.269531 38.917969 L 34.488281 38.917969 L 34.488281 43.132812 L 30.269531 43.132812 Z M 30.269531 38.917969 " fill-opacity="1" fill-rule="nonzero"/></g><g clip-path="url(#7ba232b6aa)"><g clip-path="url(#10f72d6e4e)"><path fill="#dbb588" d="M 38.394531 39.121094 L 38.4375 34.90625 L 42.65625 34.949219 L 42.609375 39.167969 Z M 38.394531 39.121094 " fill-opacity="1" fill-rule="nonzero"/></g></g><g clip-path="url(#18cd229934)"><g clip-path="url(#e4e4577091)"><path fill="#dbb588" d="M 34.328125 39.121094 L 34.375 34.90625 L 38.589844 34.949219 L 38.542969 39.167969 Z M 34.328125 39.121094 " fill-opacity="1" fill-rule="nonzero"/></g></g><g clip-path="url(#5c2b1a1097)"><g clip-path="url(#dcdf2a99e7)"><path fill="#f9d7a9" d="M 38.394531 43.101562 L 38.4375 38.886719 L 42.65625 38.929688 L 42.609375 43.148438 Z M 38.394531 43.101562 " fill-opacity="1" fill-rule="nonzero"/></g></g><g clip-path="url(#c1332eeef4)"><g clip-path="url(#50b4262b98)"><path fill="#f9d7a9" d="M 34.328125 43.101562 L 34.375 38.886719 L 38.589844 38.929688 L 38.542969 43.148438 Z M 34.328125 43.101562 " fill-opacity="1" fill-rule="nonzero"/></g></g><g clip-path="url(#7ac1641746)"><g clip-path="url(#e4499beee7)"><path fill="#f9d7a9" d="M 38.394531 47.261719 L 38.4375 43.046875 L 42.65625 43.09375 L 42.609375 47.308594 Z M 38.394531 47.261719 " fill-opacity="1" fill-rule="nonzero"/></g></g><g clip-path="url(#d3050d2d5b)"><g clip-path="url(#0d1343293f)"><path fill="#f9d7a9" d="M 34.328125 47.261719 L 34.375 43.046875 L 38.589844 43.09375 L 38.542969 47.308594 Z M 34.328125 47.261719 " fill-opacity="1" fill-rule="nonzero"/></g></g><g clip-path="url(#e4ab330743)"><g clip-path="url(#c7376e3b1b)"><path fill="#f9d7a9" d="M 38.394531 51.265625 L 38.4375 47.046875 L 42.65625 47.09375 L 42.609375 51.308594 Z M 38.394531 51.265625 " fill-opacity="1" fill-rule="nonzero"/></g></g><g clip-path="url(#ad2eb65912)"><g clip-path="url(#435c90fbf7)"><path fill="#f9d7a9" d="M 34.328125 51.265625 L 34.375 47.046875 L 38.589844 47.09375 L 38.542969 51.308594 Z M 34.328125 51.265625 " fill-opacity="1" fill-rule="nonzero"/></g></g><g clip-path="url(#920aebddfe)"><g clip-path="url(#65ff5d6ab7)"><path fill="#f9d7a9" d="M 38.394531 55.351562 L 38.4375 51.136719 L 42.65625 51.183594 L 42.609375 55.398438 Z M 38.394531 55.351562 " fill-opacity="1" fill-rule="nonzero"/></g></g><g clip-path="url(#61e6567808)"><g clip-path="url(#66071da365)"><path fill="#f9d7a9" d="M 34.328125 55.351562 L 34.375 51.136719 L 38.589844 51.183594 L 38.542969 55.398438 Z M 34.328125 55.351562 " fill-opacity="1" fill-rule="nonzero"/></g></g><g clip-path="url(#60aa592f48)"><g clip-path="url(#6287ff4d99)"><path fill="#f9d7a9" d="M 30.25 59.433594 L 30.292969 55.214844 L 34.511719 55.261719 L 34.464844 59.476562 Z M 30.25 59.433594 " fill-opacity="1" fill-rule="nonzero"/></g></g><g clip-path="url(#823955dd24)"><g clip-path="url(#bc1c192361)"><path fill="#f9d7a9" d="M 30.25 63.519531 L 30.292969 59.304688 L 34.511719 59.347656 L 34.464844 63.566406 Z M 30.25 63.519531 " fill-opacity="1" fill-rule="nonzero"/></g></g><g clip-path="url(#2b35bc36e2)"><g clip-path="url(#487bde175d)"><path fill="#f9d7a9" d="M 34.328125 67.691406 L 34.375 63.472656 L 38.589844 63.519531 L 38.542969 67.734375 Z M 34.328125 67.691406 " fill-opacity="1" fill-rule="nonzero"/></g></g><g clip-path="url(#be5f060591)"><g clip-path="url(#fcbf9569ff)"><path fill="#f9d7a9" d="M 30.25 67.542969 L 30.292969 63.328125 L 34.511719 63.371094 L 34.464844 67.589844 Z M 30.25 67.542969 " fill-opacity="1" fill-rule="nonzero"/></g></g><g clip-path="url(#0cb0cc39ef)"><path fill="#000000" d="M 34.351562 55.246094 L 38.566406 55.246094 L 38.566406 59.464844 L 34.351562 59.464844 Z M 34.351562 55.246094 " fill-opacity="1" fill-rule="nonzero"/></g><g clip-path="url(#16710bc649)"><path fill="#000000" d="M 34.351562 59.335938 L 38.566406 59.335938 L 38.566406 63.554688 L 34.351562 63.554688 Z M 34.351562 59.335938 " fill-opacity="1" fill-rule="nonzero"/></g><g clip-path="url(#f912ab33be)"><g clip-path="url(#9dade1d01e)"><path fill="#f9d7a9" d="M 42.546875 43.101562 L 42.589844 38.886719 L 46.808594 38.929688 L 46.761719 43.148438 Z M 42.546875 43.101562 " fill-opacity="1" fill-rule="nonzero"/></g></g><g clip-path="url(#5b6c6d1bc3)"><g clip-path="url(#9fb2b9d408)"><path fill="#f9d7a9" d="M 42.546875 47.261719 L 42.589844 43.046875 L 46.808594 43.09375 L 46.761719 47.308594 Z M 42.546875 47.261719 " fill-opacity="1" fill-rule="nonzero"/></g></g><g clip-path="url(#f63ce05f03)"><g clip-path="url(#49212a71c8)"><path fill="#f9d7a9" d="M 42.546875 51.265625 L 42.589844 47.046875 L 46.808594 47.09375 L 46.761719 51.308594 Z M 42.546875 51.265625 " fill-opacity="1" fill-rule="nonzero"/></g></g><g clip-path="url(#67ac74844d)"><g clip-path="url(#c3594f6157)"><path fill="#f9d7a9" d="M 42.546875 55.351562 L 42.589844 51.136719 L 46.808594 51.183594 L 46.761719 55.398438 Z M 42.546875 55.351562 " fill-opacity="1" fill-rule="nonzero"/></g></g><g clip-path="url(#e326e046c9)"><g clip-path="url(#bb10a69ec9)"><path fill="#f9d7a9" d="M 46.722656 43.101562 L 46.765625 38.886719 L 50.984375 38.929688 L 50.9375 43.148438 Z M 46.722656 43.101562 " fill-opacity="1" fill-rule="nonzero"/></g></g><g clip-path="url(#251698491f)"><g clip-path="url(#ef382698a3)"><path fill="#f9d7a9" d="M 46.722656 47.261719 L 46.765625 43.046875 L 50.984375 43.09375 L 50.9375 47.308594 Z M 46.722656 47.261719 " fill-opacity="1" fill-rule="nonzero"/></g></g><g clip-path="url(#bbb2c2b69f)"><path fill="#000000" d="M 46.742188 47.082031 L 50.957031 47.082031 L 50.957031 51.296875 L 46.742188 51.296875 Z M 46.742188 47.082031 " fill-opacity="1" fill-rule="nonzero"/></g><g clip-path="url(#4db0c0a819)"><path fill="#000000" d="M 46.742188 51.167969 L 50.960938 51.167969 L 50.960938 55.386719 L 46.742188 55.386719 Z M 46.742188 51.167969 " fill-opacity="1" fill-rule="nonzero"/></g><g clip-path="url(#3fded3534a)"><path fill="#000000" d="M 38.417969 55.246094 L 42.632812 55.246094 L 42.632812 59.464844 L 38.417969 59.464844 Z M 38.417969 55.246094 " fill-opacity="1" fill-rule="nonzero"/></g><g clip-path="url(#8db76c0eaf)"><path fill="#000000" d="M 42.570312 55.246094 L 46.785156 55.246094 L 46.785156 59.464844 L 42.570312 59.464844 Z M 42.570312 55.246094 " fill-opacity="1" fill-rule="nonzero"/></g><g clip-path="url(#9ab015af0d)"><path fill="#ff5757" d="M 38.417969 59.335938 L 42.632812 59.335938 L 42.632812 63.554688 L 38.417969 63.554688 Z M 38.417969 59.335938 " fill-opacity="1" fill-rule="nonzero"/></g><g clip-path="url(#ac1e6f052a)"><path fill="#ff5757" d="M 42.570312 59.335938 L 46.785156 59.335938 L 46.785156 63.554688 L 42.570312 63.554688 Z M 42.570312 59.335938 " fill-opacity="1" fill-rule="nonzero"/></g><g clip-path="url(#5b8ccdfc82)"><g clip-path="url(#9c9ac0fcf4)"><path fill="#f9d7a9" d="M 46.722656 59.433594 L 46.765625 55.214844 L 50.984375 55.261719 L 50.9375 59.476562 Z M 46.722656 59.433594 " fill-opacity="1" fill-rule="nonzero"/></g></g><g clip-path="url(#1567ff40f5)"><g clip-path="url(#03e462dca4)"><path fill="#f9d7a9" d="M 46.722656 63.519531 L 46.765625 59.304688 L 50.984375 59.347656 L 50.9375 63.566406 Z M 46.722656 63.519531 " fill-opacity="1" fill-rule="nonzero"/></g></g><g clip-path="url(#5a07ed4a8c)"><g clip-path="url(#dcfd42a9c8)"><path fill="#dbb588" d="M 46.722656 39.121094 L 46.765625 34.90625 L 50.984375 34.949219 L 50.9375 39.167969 Z M 46.722656 39.121094 " fill-opacity="1" fill-rule="nonzero"/></g></g><g clip-path="url(#ce35e9428e)"><g clip-path="url(#154d3bea6a)"><path fill="#dbb588" d="M 42.546875 39.023438 L 42.589844 34.808594 L 46.808594 34.851562 L 46.761719 39.070312 Z M 42.546875 39.023438 " fill-opacity="1" fill-rule="nonzero"/></g></g><g clip-path="url(#c52cf71970)"><path fill="#004aad" d="M 42.570312 22.839844 L 46.785156 22.839844 L 46.785156 27.054688 L 42.570312 27.054688 Z M 42.570312 22.839844 " fill-opacity="1" fill-rule="nonzero"/></g><g clip-path="url(#8dcf205525)"><path fill="#004aad" d="M 50.917969 22.839844 L 55.136719 22.839844 L 55.136719 27.054688 L 50.917969 27.054688 Z M 50.917969 22.839844 " fill-opacity="1" fill-rule="nonzero"/></g><g clip-path="url(#4a1c3d737f)"><path fill="#004aad" d="M 46.742188 22.839844 L 50.960938 22.839844 L 50.960938 27.054688 L 46.742188 27.054688 Z M 46.742188 22.839844 " fill-opacity="1" fill-rule="nonzero"/></g><g clip-path="url(#cebad6b9af)"><path fill="#004aad" d="M 42.570312 26.875 L 46.785156 26.875 L 46.785156 31.089844 L 42.570312 31.089844 Z M 42.570312 26.875 " fill-opacity="1" fill-rule="nonzero"/></g><g clip-path="url(#9caccb2287)"><path fill="#004aad" d="M 50.917969 26.875 L 55.136719 26.875 L 55.136719 31.089844 L 50.917969 31.089844 Z M 50.917969 26.875 " fill-opacity="1" fill-rule="nonzero"/></g><g clip-path="url(#9fbc71fa7b)"><path fill="#004aad" d="M 46.742188 26.875 L 50.960938 26.875 L 50.960938 31.089844 L 46.742188 31.089844 Z M 46.742188 26.875 " fill-opacity="1" fill-rule="nonzero"/></g><g clip-path="url(#c1fccf8715)"><path fill="#004aad" d="M 42.570312 30.828125 L 46.785156 30.828125 L 46.785156 35.046875 L 42.570312 35.046875 Z M 42.570312 30.828125 " fill-opacity="1" fill-rule="nonzero"/></g><g clip-path="url(#e3fdde2a37)"><path fill="#004aad" d="M 50.917969 30.90625 L 55.136719 30.90625 L 55.136719 35.125 L 50.917969 35.125 Z M 50.917969 30.90625 " fill-opacity="1" fill-rule="nonzero"/></g><g clip-path="url(#eb12013139)"><path fill="#004aad" d="M 46.742188 30.90625 L 50.960938 30.90625 L 50.960938 35.125 L 46.742188 35.125 Z M 46.742188 30.90625 " fill-opacity="1" fill-rule="nonzero"/></g><g clip-path="url(#5d518dfc16)"><path fill="#000000" d="M 46.742188 18.679688 L 50.960938 18.679688 L 50.960938 22.894531 L 46.742188 22.894531 Z M 46.742188 18.679688 " fill-opacity="1" fill-rule="nonzero"/></g><g clip-path="url(#7a9cb193d0)"><path fill="#000000" d="M 42.570312 18.679688 L 46.785156 18.679688 L 46.785156 22.894531 L 42.570312 22.894531 Z M 42.570312 18.679688 " fill-opacity="1" fill-rule="nonzero"/></g><g clip-path="url(#88bed37ffc)"><path fill="#000000" d="M 54.976562 18.679688 L 59.191406 18.679688 L 59.191406 22.894531 L 54.976562 22.894531 Z M 54.976562 18.679688 " fill-opacity="1" fill-rule="nonzero"/></g><g clip-path="url(#4fcea2a1cd)"><path fill="#000000" d="M 50.917969 18.679688 L 55.136719 18.679688 L 55.136719 22.894531 L 50.917969 22.894531 Z M 50.917969 18.679688 " fill-opacity="1" fill-rule="nonzero"/></g><g clip-path="url(#8e9a78e2fd)"><path fill="#dbb588" d="M 55.125 67.714844 L 50.910156 67.714844 L 50.910156 63.496094 L 55.125 63.496094 Z M 55.125 67.714844 " fill-opacity="1" fill-rule="nonzero"/></g><g clip-path="url(#a438ff30de)"><g clip-path="url(#3766dd5617)"><path fill="#f9d7a9" d="M 46.796875 63.527344 L 46.753906 67.746094 L 42.535156 67.699219 L 42.582031 63.484375 Z M 46.796875 63.527344 " fill-opacity="1" fill-rule="nonzero"/></g></g><g clip-path="url(#70facbe14c)"><g clip-path="url(#17ee0636f2)"><path fill="#f9d7a9" d="M 50.972656 63.527344 L 50.929688 67.746094 L 46.710938 67.699219 L 46.757812 63.484375 Z M 50.972656 63.527344 " fill-opacity="1" fill-rule="nonzero"/></g></g><g clip-path="url(#518c4b7c03)"><g clip-path="url(#2a53329378)"><path fill="#f9d7a9" d="M 42.644531 63.527344 L 42.601562 67.746094 L 38.382812 67.699219 L 38.429688 63.484375 Z M 42.644531 63.527344 " fill-opacity="1" fill-rule="nonzero"/></g></g><g clip-path="url(#1271f0ac5f)"><g clip-path="url(#c66d49bfa2)"><path fill="#f9d7a9" d="M 55.101562 59.476562 L 50.886719 59.433594 L 50.933594 55.214844 L 55.148438 55.261719 Z M 55.101562 59.476562 " fill-opacity="1" fill-rule="nonzero"/></g></g><g clip-path="url(#4fa41e7de7)"><g clip-path="url(#80366a699e)"><path fill="#f9d7a9" d="M 55.101562 63.566406 L 50.886719 63.519531 L 50.933594 59.304688 L 55.148438 59.347656 Z M 55.101562 63.566406 " fill-opacity="1" fill-rule="nonzero"/></g></g><g clip-path="url(#2a24f302fc)"><g clip-path="url(#dee74a36a8)"><path fill="#f9d7a9" d="M 55.101562 55.398438 L 50.886719 55.351562 L 50.933594 51.136719 L 55.148438 51.183594 Z M 55.101562 55.398438 " fill-opacity="1" fill-rule="nonzero"/></g></g><g clip-path="url(#9853976b4c)"><g clip-path="url(#efbb268aaf)"><path fill="#f9d7a9" d="M 50.894531 43.101562 L 50.941406 38.886719 L 55.160156 38.929688 L 55.113281 43.148438 Z M 50.894531 43.101562 " fill-opacity="1" fill-rule="nonzero"/></g></g><g clip-path="url(#170cd03226)"><g clip-path="url(#ff4d7d6c12)"><path fill="#f9d7a9" d="M 50.894531 47.261719 L 50.941406 43.046875 L 55.160156 43.09375 L 55.113281 47.308594 Z M 50.894531 47.261719 " fill-opacity="1" fill-rule="nonzero"/></g></g><g clip-path="url(#9146143134)"><g clip-path="url(#7c0a8ce6f3)"><path fill="#f9d7a9" d="M 50.894531 51.265625 L 50.941406 47.046875 L 55.160156 47.09375 L 55.113281 51.308594 Z M 50.894531 51.265625 " fill-opacity="1" fill-rule="nonzero"/></g></g><g clip-path="url(#6cd9be6e81)"><path fill="#dbb588" d="M 26.324219 59.335938 L 30.542969 59.335938 L 30.542969 63.554688 L 26.324219 63.554688 Z M 26.324219 59.335938 " fill-opacity="1" fill-rule="nonzero"/></g><g clip-path="url(#a5ae7a7560)"><path fill="#ab8a64" d="M 26.261719 63.382812 L 30.476562 63.382812 L 30.476562 67.597656 L 26.261719 67.597656 Z M 26.261719 63.382812 " fill-opacity="1" fill-rule="nonzero"/></g><g clip-path="url(#2d0efb72be)"><path fill="#dbb588" d="M 26.324219 55.246094 L 30.542969 55.246094 L 30.542969 59.464844 L 26.324219 59.464844 Z M 26.324219 55.246094 " fill-opacity="1" fill-rule="nonzero"/></g><g clip-path="url(#a0af4e16f6)"><path fill="#dbb588" d="M 26.324219 51.167969 L 30.542969 51.167969 L 30.542969 55.386719 L 26.324219 55.386719 Z M 26.324219 51.167969 " fill-opacity="1" fill-rule="nonzero"/></g><g clip-path="url(#da4707b6a0)"><path fill="#000000" d="M 30.25 47.082031 L 34.464844 47.082031 L 34.464844 51.296875 L 30.25 51.296875 Z M 30.25 47.082031 " fill-opacity="1" fill-rule="nonzero"/></g><g clip-path="url(#3a95e65dac)"><path fill="#000000" d="M 30.269531 51.167969 L 34.488281 51.167969 L 34.488281 55.386719 L 30.269531 55.386719 Z M 30.269531 51.167969 " fill-opacity="1" fill-rule="nonzero"/></g><g clip-path="url(#0b14894c34)"><path fill="#dbb588" d="M 55.160156 59.335938 L 59.375 59.335938 L 59.375 63.554688 L 55.160156 63.554688 Z M 55.160156 59.335938 " fill-opacity="1" fill-rule="nonzero"/></g><g clip-path="url(#09159d399e)"><path fill="#dbb588" d="M 55.160156 55.246094 L 59.375 55.246094 L 59.375 59.464844 L 55.160156 59.464844 Z M 55.160156 55.246094 " fill-opacity="1" fill-rule="nonzero"/></g><g clip-path="url(#3e889df27c)"><path fill="#dbb588" d="M 55.160156 51.167969 L 59.375 51.167969 L 59.375 55.386719 L 55.160156 55.386719 Z M 55.160156 51.167969 " fill-opacity="1" fill-rule="nonzero"/></g><g clip-path="url(#553b946fa7)"><g clip-path="url(#1aa9b02ff6)"><path fill="#dbb588" d="M 42.546875 71.769531 L 42.589844 67.550781 L 46.808594 67.597656 L 46.761719 71.816406 Z M 42.546875 71.769531 " fill-opacity="1" fill-rule="nonzero"/></g></g><g clip-path="url(#c8eb22fe69)"><g clip-path="url(#1f358e2699)"><path fill="#dbb588" d="M 38.394531 71.769531 L 38.4375 67.550781 L 42.65625 67.597656 L 42.609375 71.816406 Z M 38.394531 71.769531 " fill-opacity="1" fill-rule="nonzero"/></g></g><g clip-path="url(#04673f807c)"><path fill="#7d3203" d="M 34.351562 67.585938 L 38.566406 67.585938 L 38.566406 71.800781 L 34.351562 71.800781 Z M 34.351562 67.585938 " fill-opacity="1" fill-rule="nonzero"/></g><g clip-path="url(#c95e6d2351)"><path fill="#7d3203" d="M 46.742188 67.585938 L 50.960938 67.585938 L 50.960938 71.800781 L 46.742188 71.800781 Z M 46.742188 67.585938 " fill-opacity="1" fill-rule="nonzero"/></g><g clip-path="url(#86fb07676f)"><path fill="#004aad" d="M 55.042969 38.917969 L 59.261719 38.917969 L 59.261719 43.132812 L 55.042969 43.132812 Z M 55.042969 38.917969 " fill-opacity="1" fill-rule="nonzero"/></g><g clip-path="url(#2d04e44109)"><path fill="#004aad" d="M 55.042969 43.078125 L 59.261719 43.078125 L 59.261719 47.296875 L 55.042969 47.296875 Z M 55.042969 43.078125 " fill-opacity="1" fill-rule="nonzero"/></g><g clip-path="url(#003ebf743b)"><path fill="#004aad" d="M 55.042969 47.082031 L 59.261719 47.082031 L 59.261719 51.296875 L 55.042969 51.296875 Z M 55.042969 47.082031 " fill-opacity="1" fill-rule="nonzero"/></g><g clip-path="url(#2da6b3a60d)"><path fill="#004aad" d="M 50.917969 34.9375 L 55.136719 34.9375 L 55.136719 39.152344 L 50.917969 39.152344 Z M 50.917969 34.9375 " fill-opacity="1" fill-rule="nonzero"/></g><g clip-path="url(#1a5b1a3004)"><path fill="#004aad" d="M 54.976562 34.9375 L 59.191406 34.9375 L 59.191406 39.152344 L 54.976562 39.152344 Z M 54.976562 34.9375 " fill-opacity="1" fill-rule="nonzero"/></g><g clip-path="url(#2ae9036667)"><path fill="#004aad" d="M 54.976562 22.839844 L 59.191406 22.839844 L 59.191406 27.054688 L 54.976562 27.054688 Z M 54.976562 22.839844 " fill-opacity="1" fill-rule="nonzero"/></g><g clip-path="url(#b9f00a3565)"><path fill="#004aad" d="M 54.976562 26.875 L 59.191406 26.875 L 59.191406 31.089844 L 54.976562 31.089844 Z M 54.976562 26.875 " fill-opacity="1" fill-rule="nonzero"/></g><g clip-path="url(#43a7cf0c40)"><path fill="#004aad" d="M 54.976562 30.90625 L 59.191406 30.90625 L 59.191406 35.125 L 54.976562 35.125 Z M 54.976562 30.90625 " fill-opacity="1" fill-rule="nonzero"/></g><g clip-path="url(#47948d37c8)"><path fill="#000000" d="M 59.09375 22.839844 L 63.308594 22.839844 L 63.308594 27.054688 L 59.09375 27.054688 Z M 59.09375 22.839844 " fill-opacity="1" fill-rule="nonzero"/></g><g clip-path="url(#17ace10134)"><path fill="#004aad" d="M 59.214844 38.917969 L 63.433594 38.917969 L 63.433594 43.132812 L 59.214844 43.132812 Z M 59.214844 38.917969 " fill-opacity="1" fill-rule="nonzero"/></g><g clip-path="url(#3c31550faf)"><path fill="#004aad" d="M 59.214844 43.078125 L 63.433594 43.078125 L 63.433594 47.296875 L 59.214844 47.296875 Z M 59.214844 43.078125 " fill-opacity="1" fill-rule="nonzero"/></g><g clip-path="url(#19dbc56e4a)"><path fill="#004aad" d="M 59.214844 47.082031 L 63.433594 47.082031 L 63.433594 51.296875 L 59.214844 51.296875 Z M 59.214844 47.082031 " fill-opacity="1" fill-rule="nonzero"/></g><g clip-path="url(#5cdcab7757)"><path fill="#004aad" d="M 59.09375 34.9375 L 63.308594 34.9375 L 63.308594 39.152344 L 59.09375 39.152344 Z M 59.09375 34.9375 " fill-opacity="1" fill-rule="nonzero"/></g><g clip-path="url(#3fdaebff77)"><path fill="#004aad" d="M 59.09375 26.875 L 63.308594 26.875 L 63.308594 31.089844 L 59.09375 31.089844 Z M 59.09375 26.875 " fill-opacity="1" fill-rule="nonzero"/></g><g clip-path="url(#32de6f6719)"><path fill="#004aad" d="M 59.09375 30.90625 L 63.308594 30.90625 L 63.308594 35.125 L 59.09375 35.125 Z M 59.09375 30.90625 " fill-opacity="1" fill-rule="nonzero"/></g><g clip-path="url(#7c02354856)"><path fill="#004aad" d="M 62.933594 38.917969 L 67.152344 38.917969 L 67.152344 43.132812 L 62.933594 43.132812 Z M 62.933594 38.917969 " fill-opacity="1" fill-rule="nonzero"/></g><g clip-path="url(#254103b800)"><path fill="#004aad" d="M 62.933594 43.078125 L 67.152344 43.078125 L 67.152344 47.296875 L 62.933594 47.296875 Z M 62.933594 43.078125 " fill-opacity="1" fill-rule="nonzero"/></g><g clip-path="url(#4a56164a57)"><path fill="#004aad" d="M 62.933594 47.082031 L 67.152344 47.082031 L 67.152344 51.296875 L 62.933594 51.296875 Z M 62.933594 47.082031 " fill-opacity="1" fill-rule="nonzero"/></g><g clip-path="url(#7180b0ae35)"><path fill="#004aad" d="M 62.933594 34.9375 L 67.152344 34.9375 L 67.152344 39.152344 L 62.933594 39.152344 Z M 62.933594 34.9375 " fill-opacity="1" fill-rule="nonzero"/></g><g clip-path="url(#0327b1e6aa)"><path fill="#004aad" d="M 62.933594 30.90625 L 67.152344 30.90625 L 67.152344 35.125 L 62.933594 35.125 Z M 62.933594 30.90625 " fill-opacity="1" fill-rule="nonzero"/></g><g clip-path="url(#ca2f9f613d)"><path fill="#004aad" d="M 59.328125 55.246094 L 63.300781 55.246094 L 63.300781 59.464844 L 59.328125 59.464844 Z M 59.328125 55.246094 " fill-opacity="1" fill-rule="nonzero"/></g><g clip-path="url(#e91846af0e)"><path fill="#004aad" d="M 59.328125 59.335938 L 63.300781 59.335938 L 63.300781 63.554688 L 59.328125 63.554688 Z M 59.328125 59.335938 " fill-opacity="1" fill-rule="nonzero"/></g><g clip-path="url(#21b5c22151)"><path fill="#004aad" d="M 59.328125 63.507812 L 63.300781 63.507812 L 63.300781 67.726562 L 59.328125 67.726562 Z M 59.328125 63.507812 " fill-opacity="1" fill-rule="nonzero"/></g><g clip-path="url(#d09e089f47)"><path fill="#004aad" d="M 59.328125 51.167969 L 63.546875 51.167969 L 63.546875 55.386719 L 59.328125 55.386719 Z M 59.328125 51.167969 " fill-opacity="1" fill-rule="nonzero"/></g><g clip-path="url(#a77c18920f)"><path fill="#004aad" d="M 63.183594 55.246094 L 67.152344 55.246094 L 67.152344 59.464844 L 63.183594 59.464844 Z M 63.183594 55.246094 " fill-opacity="1" fill-rule="nonzero"/></g><g clip-path="url(#5fbe36207e)"><path fill="#004aad" d="M 63.183594 59.335938 L 67.152344 59.335938 L 67.152344 63.554688 L 63.183594 63.554688 Z M 63.183594 59.335938 " fill-opacity="1" fill-rule="nonzero"/></g><g clip-path="url(#aee3901c84)"><path fill="#004aad" d="M 63.183594 63.507812 L 67.152344 63.507812 L 67.152344 67.726562 L 63.183594 67.726562 Z M 63.183594 63.507812 " fill-opacity="1" fill-rule="nonzero"/></g><g clip-path="url(#4cb7a03c7b)"><path fill="#004aad" d="M 63.046875 51.167969 L 67.265625 51.167969 L 67.265625 55.386719 L 63.046875 55.386719 Z M 63.046875 51.167969 " fill-opacity="1" fill-rule="nonzero"/></g><g clip-path="url(#6dbc91641f)"><path fill="#004aad" d="M 66.8125 63.507812 L 70.785156 63.507812 L 70.785156 67.726562 L 66.8125 67.726562 Z M 66.8125 63.507812 " fill-opacity="1" fill-rule="nonzero"/></g><g clip-path="url(#1347313606)"><path fill="#004aad" d="M 55.160156 63.507812 L 59.375 63.507812 L 59.375 67.722656 L 55.160156 67.722656 Z M 55.160156 63.507812 " fill-opacity="1" fill-rule="nonzero"/></g><g clip-path="url(#7247426059)"><path fill="#000000" d="M 63.308594 27.054688 L 67.527344 27.054688 L 67.527344 31.273438 L 63.308594 31.273438 Z M 63.308594 27.054688 " fill-opacity="1" fill-rule="nonzero"/></g><g clip-path="url(#225faba80c)"><path fill="#000000" d="M 63.367188 30.957031 L 67.585938 30.957031 L 67.585938 35.175781 L 63.367188 35.175781 Z M 63.367188 30.957031 " fill-opacity="1" fill-rule="nonzero"/></g><g clip-path="url(#b72771973d)"><path fill="#000000" d="M 63.367188 34.9375 L 67.585938 34.9375 L 67.585938 39.15625 L 63.367188 39.15625 Z M 63.367188 34.9375 " fill-opacity="1" fill-rule="nonzero"/></g><g clip-path="url(#596d2040b0)"><path fill="#000000" d="M 63.367188 39.101562 L 67.585938 39.101562 L 67.585938 43.316406 L 63.367188 43.316406 Z M 63.367188 39.101562 " fill-opacity="1" fill-rule="nonzero"/></g><g clip-path="url(#550461b5f6)"><path fill="#000000" d="M 67.105469 43.316406 L 71.320312 43.316406 L 71.320312 47.535156 L 67.105469 47.535156 Z M 67.105469 43.316406 " fill-opacity="1" fill-rule="nonzero"/></g><g clip-path="url(#6942f6626a)"><path fill="#004aad" d="M 67.105469 59.328125 L 71.320312 59.328125 L 71.320312 63.542969 L 67.105469 63.542969 Z M 67.105469 59.328125 " fill-opacity="1" fill-rule="nonzero"/></g><g clip-path="url(#fc137d9265)"><path fill="#004aad" d="M 67.105469 55.472656 L 71.320312 55.472656 L 71.320312 59.691406 L 67.105469 59.691406 Z M 67.105469 55.472656 " fill-opacity="1" fill-rule="nonzero"/></g><g clip-path="url(#d8818b0869)"><path fill="#004aad" d="M 67.105469 51.382812 L 71.320312 51.382812 L 71.320312 55.601562 L 67.105469 55.601562 Z M 67.105469 51.382812 " fill-opacity="1" fill-rule="nonzero"/></g><g clip-path="url(#8cf672eb96)"><path fill="#000000" d="M 67.105469 47.535156 L 71.320312 47.535156 L 71.320312 51.75 L 67.105469 51.75 Z M 67.105469 47.535156 " fill-opacity="1" fill-rule="nonzero"/></g><g clip-path="url(#90c8690c41)"><path fill="#000000" d="M 67.105469 51.4375 L 71.320312 51.4375 L 71.320312 55.652344 L 67.105469 55.652344 Z M 67.105469 51.4375 " fill-opacity="1" fill-rule="nonzero"/></g><g clip-path="url(#edb5de8556)"><path fill="#000000" d="M 67.105469 55.476562 L 71.320312 55.476562 L 71.320312 59.691406 L 67.105469 59.691406 Z M 67.105469 55.476562 " fill-opacity="1" fill-rule="nonzero"/></g><g clip-path="url(#11d84c9989)"><path fill="#000000" d="M 67.105469 59.507812 L 71.320312 59.507812 L 71.320312 63.726562 L 67.105469 63.726562 Z M 67.105469 59.507812 " fill-opacity="1" fill-rule="nonzero"/></g><g clip-path="url(#a1f8d872f3)"><path fill="#000000" d="M 70.785156 63.726562 L 75 63.726562 L 75 67.941406 L 70.785156 67.941406 Z M 70.785156 63.726562 " fill-opacity="1" fill-rule="nonzero"/></g><g clip-path="url(#334ddf4c5d)"><path fill="#000000" d="M 50.65625 67.585938 L 54.875 67.585938 L 54.875 71.800781 L 50.65625 71.800781 Z M 50.65625 67.585938 " fill-opacity="1" fill-rule="nonzero"/></g><g clip-path="url(#06b0948735)"><path fill="#000000" d="M 58.984375 67.585938 L 63.203125 67.585938 L 63.203125 71.800781 L 58.984375 71.800781 Z M 58.984375 67.585938 " fill-opacity="1" fill-rule="nonzero"/></g><g clip-path="url(#8d1a7a4f0a)"><path fill="#000000" d="M 54.808594 67.585938 L 59.027344 67.585938 L 59.027344 71.800781 L 54.808594 71.800781 Z M 54.808594 67.585938 " fill-opacity="1" fill-rule="nonzero"/></g><g clip-path="url(#54c39816a0)"><path fill="#000000" d="M 66.8125 67.585938 L 71.03125 67.585938 L 71.03125 71.800781 L 66.8125 71.800781 Z M 66.8125 67.585938 " fill-opacity="1" fill-rule="nonzero"/></g><g clip-path="url(#b4d24b8fc3)"><path fill="#000000" d="M 63.046875 67.585938 L 67.265625 67.585938 L 67.265625 71.800781 L 63.046875 71.800781 Z M 63.046875 67.585938 " fill-opacity="1" fill-rule="nonzero"/></g><g clip-path="url(#75d9600529)"><path fill="#7d3203" d="M 30.269531 71.578125 L 34.488281 71.578125 L 34.488281 75.792969 L 30.269531 75.792969 Z M 30.269531 71.578125 " fill-opacity="1" fill-rule="nonzero"/></g><g clip-path="url(#c3203f4eb8)"><path fill="#7d3203" d="M 26.324219 71.578125 L 30.542969 71.578125 L 30.542969 75.792969 L 26.324219 75.792969 Z M 26.324219 71.578125 " fill-opacity="1" fill-rule="nonzero"/></g><g clip-path="url(#b80e14bd4b)"><path fill="#7d3203" d="M 34.351562 71.578125 L 38.566406 71.578125 L 38.566406 75.792969 L 34.351562 75.792969 Z M 34.351562 71.578125 " fill-opacity="1" fill-rule="nonzero"/></g><g clip-path="url(#7f915e04b2)"><path fill="#7d3203" d="M 42.28125 71.59375 L 46.5 71.59375 L 46.5 75.8125 L 42.28125 75.8125 Z M 42.28125 71.59375 " fill-opacity="1" fill-rule="nonzero"/></g><g clip-path="url(#d5e5d8fc2b)"><path fill="#7d3203" d="M 38.335938 71.59375 L 42.554688 71.59375 L 42.554688 75.8125 L 38.335938 75.8125 Z M 38.335938 71.59375 " fill-opacity="1" fill-rule="nonzero"/></g><g clip-path="url(#1aa4ebba6b)"><path fill="#7d3203" d="M 46.363281 71.59375 L 50.578125 71.59375 L 50.578125 75.8125 L 46.363281 75.8125 Z M 46.363281 71.59375 " fill-opacity="1" fill-rule="nonzero"/></g><g clip-path="url(#dd088a8e53)"><path fill="#7d3203" d="M 50.527344 71.59375 L 54.746094 71.59375 L 54.746094 75.8125 L 50.527344 75.8125 Z M 50.527344 71.59375 " fill-opacity="1" fill-rule="nonzero"/></g><g clip-path="url(#0fe44bfb02)"><path fill="#7d3203" d="M 54.609375 71.59375 L 58.824219 71.59375 L 58.824219 75.8125 L 54.609375 75.8125 Z M 54.609375 71.59375 " fill-opacity="1" fill-rule="nonzero"/></g><g clip-path="url(#021812204a)"><g clip-path="url(#b266aff0aa)"><g clip-path="url(#ff978680b9)"><g clip-path="url(#2b4f0dd22b)"><path fill="#dfaf50" d="M 14.957031 4.5625 L 15.226562 7.519531 L 12.296875 7.789062 L 12.566406 10.75 L 3.769531 11.5625 L 5.949219 35.230469 L 41.148438 31.984375 L 38.96875 8.316406 L 30.167969 9.125 L 29.894531 6.167969 L 26.960938 6.4375 L 26.6875 3.480469 Z M 14.957031 4.5625 " fill-opacity="1" fill-rule="nonzero"/></g></g></g></g><g clip-path="url(#aca8d72806)"><g clip-path="url(#e8d8127a27)"><g clip-path="url(#384070d486)"><g clip-path="url(#91bb754e82)"><path fill="#f4f0e5" d="M 16.046875 16.398438 L 27.78125 15.316406 L 28.871094 27.148438 L 17.136719 28.230469 Z M 16.046875 16.398438 " fill-opacity="1" fill-rule="nonzero"/></g></g></g></g><g clip-path="url(#f91703a91a)"><g clip-path="url(#85b057cda5)"><g clip-path="url(#ba5c742239)"><g clip-path="url(#88d141f8bb)"><path fill="#362f2c" d="M 14.683594 1.601562 L 14.957031 4.5625 L 17.890625 4.289062 L 20.820312 4.019531 L 26.6875 3.480469 L 26.414062 0.519531 L 23.484375 0.789062 L 20.550781 1.0625 Z M 26.6875 3.480469 L 26.960938 6.4375 L 29.894531 6.167969 L 29.621094 3.207031 Z M 29.894531 6.167969 L 30.167969 9.125 L 38.96875 8.316406 L 38.695312 5.355469 L 35.761719 5.625 L 32.828125 5.898438 Z M 38.96875 8.316406 L 39.242188 11.273438 L 39.511719 14.234375 L 40.058594 20.148438 L 40.332031 23.109375 L 40.605469 26.066406 L 40.878906 29.027344 L 41.148438 31.984375 L 44.082031 31.714844 L 43.8125 28.757812 L 43.539062 25.796875 L 43.265625 22.839844 L 42.992188 19.878906 L 42.71875 16.921875 L 42.445312 13.960938 L 42.171875 11.003906 L 41.902344 8.042969 Z M 41.148438 31.984375 L 38.21875 32.257812 L 26.484375 33.335938 L 23.550781 33.609375 L 14.75 34.417969 L 11.816406 34.691406 L 5.949219 35.230469 L 6.222656 38.191406 L 9.15625 37.917969 L 17.957031 37.109375 L 20.890625 36.835938 L 29.691406 36.027344 L 32.621094 35.753906 L 41.421875 34.945312 Z M 5.949219 35.230469 L 5.675781 32.273438 L 5.40625 29.3125 L 5.132812 26.355469 L 4.859375 23.394531 L 4.585938 20.4375 L 4.3125 17.476562 L 4.039062 14.519531 L 3.769531 11.5625 L 0.835938 11.832031 L 1.105469 14.789062 L 1.378906 17.75 L 1.652344 20.707031 L 1.925781 23.667969 L 2.472656 29.582031 L 2.746094 32.542969 L 3.015625 35.5 Z M 3.769531 11.5625 L 6.699219 11.289062 L 12.566406 10.75 L 12.296875 7.789062 L 9.363281 8.0625 L 3.496094 8.601562 Z M 12.296875 7.789062 L 15.226562 7.519531 L 14.957031 4.5625 L 12.023438 4.832031 Z M 18.023438 5.769531 L 18.296875 8.730469 L 21.230469 8.457031 L 24.164062 8.1875 L 23.890625 5.230469 Z M 5.507812 14.382812 L 5.78125 17.34375 L 8.714844 17.074219 L 11.648438 16.800781 L 11.375 13.84375 Z M 15.773438 13.4375 L 16.046875 16.394531 L 27.78125 15.316406 L 27.507812 12.355469 L 24.574219 12.625 L 21.640625 12.898438 Z M 27.78125 15.316406 L 28.054688 18.273438 L 28.324219 21.230469 L 28.597656 24.191406 L 28.871094 27.148438 L 31.804688 26.878906 L 31.53125 23.921875 L 31.257812 20.960938 L 30.984375 18.003906 L 30.714844 15.042969 Z M 28.871094 27.148438 L 25.9375 27.421875 L 17.136719 28.230469 L 17.410156 31.191406 L 20.34375 30.921875 L 23.277344 30.648438 L 29.144531 30.109375 Z M 17.136719 28.230469 L 16.863281 25.273438 L 16.59375 22.3125 L 16.320312 19.355469 L 16.046875 16.394531 L 13.113281 16.667969 L 13.386719 19.625 L 13.660156 22.585938 L 13.933594 25.542969 L 14.203125 28.503906 Z M 19.253906 19.085938 L 19.527344 22.042969 L 19.796875 25.003906 L 22.730469 24.730469 L 25.664062 24.460938 L 25.390625 21.503906 L 25.121094 18.542969 L 22.1875 18.8125 Z M 19.253906 19.085938 " fill-opacity="1" fill-rule="nonzero"/></g></g></g></g></svg>