<svg xmlns="http://www.w3.org/2000/svg" xmlns:xlink="http://www.w3.org/1999/xlink" width="100" zoomAndPan="magnify" viewBox="0 0 75 74.999997" height="100" preserveAspectRatio="xMidYMid meet" version="1.0"><defs><clipPath id="aa3cd963fd"><path d="M 14.257812 14.054688 L 19.109375 14.054688 L 19.109375 18.90625 L 14.257812 18.90625 Z M 14.257812 14.054688 " clip-rule="nonzero"/></clipPath><clipPath id="004ac1db99"><path d="M 9.554688 18.695312 L 14.40625 18.695312 L 14.40625 23.546875 L 9.554688 23.546875 Z M 9.554688 18.695312 " clip-rule="nonzero"/></clipPath><clipPath id="62fb08c4dd"><path d="M 9.554688 23.335938 L 14.40625 23.335938 L 14.40625 28.1875 L 9.554688 28.1875 Z M 9.554688 23.335938 " clip-rule="nonzero"/></clipPath><clipPath id="bcffce3bb2"><path d="M 4.777344 23.335938 L 9.628906 23.335938 L 9.628906 28.1875 L 4.777344 28.1875 Z M 4.777344 23.335938 " clip-rule="nonzero"/></clipPath><clipPath id="2e1f71eed3"><path d="M 23.539062 9.265625 L 28.390625 9.265625 L 28.390625 14.117188 L 23.539062 14.117188 Z M 23.539062 9.265625 " clip-rule="nonzero"/></clipPath><clipPath id="d480fac90a"><path d="M 19 9.265625 L 23.851562 9.265625 L 23.851562 14.117188 L 19 14.117188 Z M 19 9.265625 " clip-rule="nonzero"/></clipPath><clipPath id="3b1a7efcd1"><path d="M 32.910156 9.265625 L 37.761719 9.265625 L 37.761719 14.117188 L 32.910156 14.117188 Z M 32.910156 9.265625 " clip-rule="nonzero"/></clipPath><clipPath id="c11d9f6ec8"><path d="M 28.234375 9.265625 L 33.082031 9.265625 L 33.082031 14.117188 L 28.234375 14.117188 Z M 28.234375 9.265625 " clip-rule="nonzero"/></clipPath><clipPath id="a2d63c68fd"><path d="M 4.777344 27.972656 L 9.628906 27.972656 L 9.628906 32.824219 L 4.777344 32.824219 Z M 4.777344 27.972656 " clip-rule="nonzero"/></clipPath><clipPath id="46b1d55c75"><path d="M 4.777344 32.554688 L 9.628906 32.554688 L 9.628906 37.40625 L 4.777344 37.40625 Z M 4.777344 32.554688 " clip-rule="nonzero"/></clipPath><clipPath id="177fb0f0a5"><path d="M 4.777344 37.339844 L 9.628906 37.339844 L 9.628906 42.191406 L 4.777344 42.191406 Z M 4.777344 37.339844 " clip-rule="nonzero"/></clipPath><clipPath id="5017fcddac"><path d="M 0 41.945312 L 4.851562 41.945312 L 4.851562 46.796875 L 0 46.796875 Z M 0 41.945312 " clip-rule="nonzero"/></clipPath><clipPath id="6893e67f12"><path d="M 4.777344 46.648438 L 9.628906 46.648438 L 9.628906 51.5 L 4.777344 51.5 Z M 4.777344 46.648438 " clip-rule="nonzero"/></clipPath><clipPath id="9edd74daf3"><path d="M 4.777344 51.339844 L 9.628906 51.339844 L 9.628906 56.191406 L 4.777344 56.191406 Z M 4.777344 51.339844 " clip-rule="nonzero"/></clipPath><clipPath id="adb45306f6"><path d="M 4.777344 56.042969 L 9.628906 56.042969 L 9.628906 60.894531 L 4.777344 60.894531 Z M 4.777344 56.042969 " clip-rule="nonzero"/></clipPath><clipPath id="46732f5041"><path d="M 0 60.84375 L 4.851562 60.84375 L 4.851562 65.695312 L 0 65.695312 Z M 0 60.84375 " clip-rule="nonzero"/></clipPath><clipPath id="ff2ab2a389"><path d="M 4.777344 65.535156 L 9.628906 65.535156 L 9.628906 70.386719 L 4.777344 70.386719 Z M 4.777344 65.535156 " clip-rule="nonzero"/></clipPath><clipPath id="fe64cea91c"><path d="M 14.257812 70.128906 L 19.109375 70.128906 L 19.109375 74.980469 L 14.257812 74.980469 Z M 14.257812 70.128906 " clip-rule="nonzero"/></clipPath><clipPath id="d3718d14d6"><path d="M 9.554688 70.128906 L 14.40625 70.128906 L 14.40625 74.980469 L 9.554688 74.980469 Z M 9.554688 70.128906 " clip-rule="nonzero"/></clipPath><clipPath id="9a0ad1cf71"><path d="M 14.257812 18.695312 L 19.109375 18.695312 L 19.109375 23.546875 L 14.257812 23.546875 Z M 14.257812 18.695312 " clip-rule="nonzero"/></clipPath><clipPath id="b0e2d96e63"><path d="M 23.539062 14.054688 L 28.390625 14.054688 L 28.390625 18.90625 L 23.539062 18.90625 Z M 23.539062 14.054688 " clip-rule="nonzero"/></clipPath><clipPath id="68e68454b6"><path d="M 19 14.054688 L 23.851562 14.054688 L 23.851562 18.90625 L 19 18.90625 Z M 19 14.054688 " clip-rule="nonzero"/></clipPath><clipPath id="e92540a883"><path d="M 32.910156 14.054688 L 37.761719 14.054688 L 37.761719 18.90625 L 32.910156 18.90625 Z M 32.910156 14.054688 " clip-rule="nonzero"/></clipPath><clipPath id="de06c9e343"><path d="M 28.234375 14.054688 L 33.082031 14.054688 L 33.082031 18.90625 L 28.234375 18.90625 Z M 28.234375 14.054688 " clip-rule="nonzero"/></clipPath><clipPath id="4c2535ccf0"><path d="M 23.539062 18.695312 L 28.390625 18.695312 L 28.390625 23.546875 L 23.539062 23.546875 Z M 23.539062 18.695312 " clip-rule="nonzero"/></clipPath><clipPath id="a924bce1e1"><path d="M 19 18.695312 L 23.851562 18.695312 L 23.851562 23.546875 L 19 23.546875 Z M 19 18.695312 " clip-rule="nonzero"/></clipPath><clipPath id="73633fce29"><path d="M 32.910156 18.695312 L 37.761719 18.695312 L 37.761719 23.546875 L 32.910156 23.546875 Z M 32.910156 18.695312 " clip-rule="nonzero"/></clipPath><clipPath id="ec71b07846"><path d="M 28.234375 18.695312 L 33.082031 18.695312 L 33.082031 23.546875 L 28.234375 23.546875 Z M 28.234375 18.695312 " clip-rule="nonzero"/></clipPath><clipPath id="46ff8767b7"><path d="M 9.554688 27.972656 L 14.40625 27.972656 L 14.40625 32.824219 L 9.554688 32.824219 Z M 9.554688 27.972656 " clip-rule="nonzero"/></clipPath><clipPath id="17b6c13167"><path d="M 14.257812 23.335938 L 19.109375 23.335938 L 19.109375 28.1875 L 14.257812 28.1875 Z M 14.257812 23.335938 " clip-rule="nonzero"/></clipPath><clipPath id="5c4c984997"><path d="M 14.257812 27.972656 L 19.109375 27.972656 L 19.109375 32.824219 L 14.257812 32.824219 Z M 14.257812 27.972656 " clip-rule="nonzero"/></clipPath><clipPath id="a57a0b87bb"><path d="M 9.554688 32.554688 L 14.40625 32.554688 L 14.40625 37.40625 L 9.554688 37.40625 Z M 9.554688 32.554688 " clip-rule="nonzero"/></clipPath><clipPath id="557bc0ebc6"><path d="M 14.257812 32.554688 L 19.109375 32.554688 L 19.109375 37.40625 L 14.257812 37.40625 Z M 14.257812 32.554688 " clip-rule="nonzero"/></clipPath><clipPath id="99ce48b6d3"><path d="M 9.554688 37.339844 L 14.40625 37.339844 L 14.40625 42.191406 L 9.554688 42.191406 Z M 9.554688 37.339844 " clip-rule="nonzero"/></clipPath><clipPath id="f3b52613a4"><path d="M 14.257812 37.339844 L 19.109375 37.339844 L 19.109375 42.191406 L 14.257812 42.191406 Z M 14.257812 37.339844 " clip-rule="nonzero"/></clipPath><clipPath id="d0561f0384"><path d="M 9.554688 41.945312 L 14.40625 41.945312 L 14.40625 46.796875 L 9.554688 46.796875 Z M 9.554688 41.945312 " clip-rule="nonzero"/></clipPath><clipPath id="91ce84125b"><path d="M 14.257812 41.945312 L 19.109375 41.945312 L 19.109375 46.796875 L 14.257812 46.796875 Z M 14.257812 41.945312 " clip-rule="nonzero"/></clipPath><clipPath id="0d9c6534cb"><path d="M 4.777344 41.945312 L 9.628906 41.945312 L 9.628906 46.796875 L 4.777344 46.796875 Z M 4.777344 41.945312 " clip-rule="nonzero"/></clipPath><clipPath id="918e9aa04d"><path d="M 9.554688 46.648438 L 14.40625 46.648438 L 14.40625 51.5 L 9.554688 51.5 Z M 9.554688 46.648438 " clip-rule="nonzero"/></clipPath><clipPath id="dfd5604466"><path d="M 14.257812 46.648438 L 19.109375 46.648438 L 19.109375 51.5 L 14.257812 51.5 Z M 14.257812 46.648438 " clip-rule="nonzero"/></clipPath><clipPath id="2abc09f387"><path d="M 9.554688 51.339844 L 14.40625 51.339844 L 14.40625 56.191406 L 9.554688 56.191406 Z M 9.554688 51.339844 " clip-rule="nonzero"/></clipPath><clipPath id="d8e765ca87"><path d="M 14.257812 51.339844 L 19.109375 51.339844 L 19.109375 56.191406 L 14.257812 56.191406 Z M 14.257812 51.339844 " clip-rule="nonzero"/></clipPath><clipPath id="694f2756b0"><path d="M 9.554688 56.042969 L 14.40625 56.042969 L 14.40625 60.894531 L 9.554688 60.894531 Z M 9.554688 56.042969 " clip-rule="nonzero"/></clipPath><clipPath id="009ec9c77e"><path d="M 14.257812 56.042969 L 19.109375 56.042969 L 19.109375 60.894531 L 14.257812 60.894531 Z M 14.257812 56.042969 " clip-rule="nonzero"/></clipPath><clipPath id="e2aeb28107"><path d="M 9.554688 60.84375 L 14.40625 60.84375 L 14.40625 65.695312 L 9.554688 65.695312 Z M 9.554688 60.84375 " clip-rule="nonzero"/></clipPath><clipPath id="b572e937bb"><path d="M 14.257812 60.84375 L 19.109375 60.84375 L 19.109375 65.695312 L 14.257812 65.695312 Z M 14.257812 60.84375 " clip-rule="nonzero"/></clipPath><clipPath id="20b91dae2e"><path d="M 4.777344 60.84375 L 9.628906 60.84375 L 9.628906 65.695312 L 4.777344 65.695312 Z M 4.777344 60.84375 " clip-rule="nonzero"/></clipPath><clipPath id="fafea08632"><path d="M 23.539062 23.335938 L 28.390625 23.335938 L 28.390625 28.1875 L 23.539062 28.1875 Z M 23.539062 23.335938 " clip-rule="nonzero"/></clipPath><clipPath id="2933cbd944"><path d="M 19 23.335938 L 23.851562 23.335938 L 23.851562 28.1875 L 19 28.1875 Z M 19 23.335938 " clip-rule="nonzero"/></clipPath><clipPath id="51af1ba3d6"><path d="M 32.910156 23.335938 L 37.761719 23.335938 L 37.761719 28.1875 L 32.910156 28.1875 Z M 32.910156 23.335938 " clip-rule="nonzero"/></clipPath><clipPath id="0a93a2d2fe"><path d="M 28.234375 23.335938 L 33.082031 23.335938 L 33.082031 28.1875 L 28.234375 28.1875 Z M 28.234375 23.335938 " clip-rule="nonzero"/></clipPath><clipPath id="af0567fbbc"><path d="M 9.554688 65.535156 L 14.40625 65.535156 L 14.40625 70.386719 L 9.554688 70.386719 Z M 9.554688 65.535156 " clip-rule="nonzero"/></clipPath><clipPath id="72d86e5072"><path d="M 14.257812 65.535156 L 19.109375 65.535156 L 19.109375 70.386719 L 14.257812 70.386719 Z M 14.257812 65.535156 " clip-rule="nonzero"/></clipPath><clipPath id="3e3d2f4ebe"><path d="M 23.539062 65.535156 L 28.390625 65.535156 L 28.390625 70.386719 L 23.539062 70.386719 Z M 23.539062 65.535156 " clip-rule="nonzero"/></clipPath><clipPath id="bab4dce240"><path d="M 19 65.535156 L 23.851562 65.535156 L 23.851562 70.386719 L 19 70.386719 Z M 19 65.535156 " clip-rule="nonzero"/></clipPath><clipPath id="115302d78e"><path d="M 23.539062 27.972656 L 28.390625 27.972656 L 28.390625 32.824219 L 23.539062 32.824219 Z M 23.539062 27.972656 " clip-rule="nonzero"/></clipPath><clipPath id="60c1a56203"><path d="M 19 27.972656 L 23.851562 27.972656 L 23.851562 32.824219 L 19 32.824219 Z M 19 27.972656 " clip-rule="nonzero"/></clipPath><clipPath id="0f990dd900"><path d="M 19 37.339844 L 23.851562 37.339844 L 23.851562 42.191406 L 19 42.191406 Z M 19 37.339844 " clip-rule="nonzero"/></clipPath><clipPath id="95981fd746"><path d="M 19 41.945312 L 23.851562 41.945312 L 23.851562 46.796875 L 19 46.796875 Z M 19 41.945312 " clip-rule="nonzero"/></clipPath><clipPath id="b496cdd94f"><path d="M 19.042969 32.554688 L 23.890625 32.554688 L 23.890625 37.40625 L 19.042969 37.40625 Z M 19.042969 32.554688 " clip-rule="nonzero"/></clipPath><clipPath id="88e9c1308f"><path d="M 23.539062 37.339844 L 28.390625 37.339844 L 28.390625 42.191406 L 23.539062 42.191406 Z M 23.539062 37.339844 " clip-rule="nonzero"/></clipPath><clipPath id="a097208433"><path d="M 23.539062 32.554688 L 28.390625 32.554688 L 28.390625 37.40625 L 23.539062 37.40625 Z M 23.539062 32.554688 " clip-rule="nonzero"/></clipPath><clipPath id="67419c3f7c"><path d="M 32 27 L 38 27 L 38 33 L 32 33 Z M 32 27 " clip-rule="nonzero"/></clipPath><clipPath id="2f7770abf6"><path d="M 32.882812 32.789062 L 32.9375 27.9375 L 37.789062 27.988281 L 37.734375 32.839844 Z M 32.882812 32.789062 " clip-rule="nonzero"/></clipPath><clipPath id="9ac04733a0"><path d="M 28 27 L 34 27 L 34 33 L 28 33 Z M 28 27 " clip-rule="nonzero"/></clipPath><clipPath id="1461acbeeb"><path d="M 28.207031 32.789062 L 28.257812 27.9375 L 33.109375 27.988281 L 33.058594 32.839844 Z M 28.207031 32.789062 " clip-rule="nonzero"/></clipPath><clipPath id="23c4347ac1"><path d="M 32 32 L 38 32 L 38 38 L 32 38 Z M 32 32 " clip-rule="nonzero"/></clipPath><clipPath id="6f2f6f4b34"><path d="M 32.882812 37.367188 L 32.9375 32.515625 L 37.789062 32.566406 L 37.734375 37.417969 Z M 32.882812 37.367188 " clip-rule="nonzero"/></clipPath><clipPath id="2f6a01f7c0"><path d="M 28 32 L 34 32 L 34 38 L 28 38 Z M 28 32 " clip-rule="nonzero"/></clipPath><clipPath id="53987528e4"><path d="M 28.207031 37.367188 L 28.257812 32.515625 L 33.109375 32.566406 L 33.058594 37.417969 Z M 28.207031 37.367188 " clip-rule="nonzero"/></clipPath><clipPath id="32d4ab7ff3"><path d="M 32 37 L 38 37 L 38 43 L 32 43 Z M 32 37 " clip-rule="nonzero"/></clipPath><clipPath id="4827a5bfeb"><path d="M 32.882812 42.15625 L 32.9375 37.304688 L 37.789062 37.355469 L 37.734375 42.207031 Z M 32.882812 42.15625 " clip-rule="nonzero"/></clipPath><clipPath id="15553e7150"><path d="M 28 37 L 34 37 L 34 43 L 28 43 Z M 28 37 " clip-rule="nonzero"/></clipPath><clipPath id="be8e844c01"><path d="M 28.207031 42.15625 L 28.257812 37.304688 L 33.109375 37.355469 L 33.058594 42.207031 Z M 28.207031 42.15625 " clip-rule="nonzero"/></clipPath><clipPath id="3f6c89786e"><path d="M 32 41 L 38 41 L 38 47 L 32 47 Z M 32 41 " clip-rule="nonzero"/></clipPath><clipPath id="3f4596ce83"><path d="M 32.882812 46.757812 L 32.9375 41.90625 L 37.789062 41.960938 L 37.734375 46.808594 Z M 32.882812 46.757812 " clip-rule="nonzero"/></clipPath><clipPath id="bf78dc025c"><path d="M 28 41 L 34 41 L 34 47 L 28 47 Z M 28 41 " clip-rule="nonzero"/></clipPath><clipPath id="a40aed6edd"><path d="M 28.207031 46.757812 L 28.257812 41.90625 L 33.109375 41.960938 L 33.058594 46.808594 Z M 28.207031 46.757812 " clip-rule="nonzero"/></clipPath><clipPath id="a538115f4a"><path d="M 32 46 L 38 46 L 38 52 L 32 52 Z M 32 46 " clip-rule="nonzero"/></clipPath><clipPath id="fd4003a01c"><path d="M 32.882812 51.460938 L 32.9375 46.609375 L 37.789062 46.664062 L 37.734375 51.515625 Z M 32.882812 51.460938 " clip-rule="nonzero"/></clipPath><clipPath id="a447ca03b8"><path d="M 28 46 L 34 46 L 34 52 L 28 52 Z M 28 46 " clip-rule="nonzero"/></clipPath><clipPath id="f051f4798b"><path d="M 28.207031 51.460938 L 28.257812 46.609375 L 33.109375 46.664062 L 33.058594 51.515625 Z M 28.207031 51.460938 " clip-rule="nonzero"/></clipPath><clipPath id="40c34907fb"><path d="M 23 51 L 29 51 L 29 57 L 23 57 Z M 23 51 " clip-rule="nonzero"/></clipPath><clipPath id="6b205946b9"><path d="M 23.511719 56.15625 L 23.566406 51.304688 L 28.417969 51.355469 L 28.363281 56.207031 Z M 23.511719 56.15625 " clip-rule="nonzero"/></clipPath><clipPath id="7d3b614d2b"><path d="M 23 56 L 29 56 L 29 61 L 23 61 Z M 23 56 " clip-rule="nonzero"/></clipPath><clipPath id="07e581443a"><path d="M 23.511719 60.859375 L 23.566406 56.007812 L 28.417969 56.058594 L 28.363281 60.910156 Z M 23.511719 60.859375 " clip-rule="nonzero"/></clipPath><clipPath id="c5ebb8aa8d"><path d="M 28 60 L 34 60 L 34 66 L 28 66 Z M 28 60 " clip-rule="nonzero"/></clipPath><clipPath id="f290435e9b"><path d="M 28.207031 65.65625 L 28.257812 60.804688 L 33.109375 60.855469 L 33.058594 65.707031 Z M 28.207031 65.65625 " clip-rule="nonzero"/></clipPath><clipPath id="eefb7d6557"><path d="M 23 60 L 29 60 L 29 66 L 23 66 Z M 23 60 " clip-rule="nonzero"/></clipPath><clipPath id="dca6dd69d3"><path d="M 23.511719 65.488281 L 23.566406 60.636719 L 28.417969 60.6875 L 28.363281 65.539062 Z M 23.511719 65.488281 " clip-rule="nonzero"/></clipPath><clipPath id="85a9a76979"><path d="M 28.234375 51.339844 L 33.082031 51.339844 L 33.082031 56.191406 L 28.234375 56.191406 Z M 28.234375 51.339844 " clip-rule="nonzero"/></clipPath><clipPath id="963083c4a4"><path d="M 28.234375 56.042969 L 33.082031 56.042969 L 33.082031 60.894531 L 28.234375 60.894531 Z M 28.234375 56.042969 " clip-rule="nonzero"/></clipPath><clipPath id="238ea306ab"><path d="M 37 32 L 43 32 L 43 38 L 37 38 Z M 37 32 " clip-rule="nonzero"/></clipPath><clipPath id="3b3546c623"><path d="M 37.660156 37.367188 L 37.714844 32.515625 L 42.566406 32.566406 L 42.511719 37.417969 Z M 37.660156 37.367188 " clip-rule="nonzero"/></clipPath><clipPath id="c0ca2d3187"><path d="M 37 37 L 43 37 L 43 43 L 37 43 Z M 37 37 " clip-rule="nonzero"/></clipPath><clipPath id="a218bd019d"><path d="M 37.660156 42.15625 L 37.714844 37.304688 L 42.566406 37.355469 L 42.511719 42.207031 Z M 37.660156 42.15625 " clip-rule="nonzero"/></clipPath><clipPath id="3595cc3808"><path d="M 37 41 L 43 41 L 43 47 L 37 47 Z M 37 41 " clip-rule="nonzero"/></clipPath><clipPath id="02b93b86ab"><path d="M 37.660156 46.757812 L 37.714844 41.90625 L 42.566406 41.960938 L 42.511719 46.808594 Z M 37.660156 46.757812 " clip-rule="nonzero"/></clipPath><clipPath id="3c7ece88b3"><path d="M 37 46 L 43 46 L 43 52 L 37 52 Z M 37 46 " clip-rule="nonzero"/></clipPath><clipPath id="efc1bd54a3"><path d="M 37.660156 51.460938 L 37.714844 46.609375 L 42.566406 46.664062 L 42.511719 51.515625 Z M 37.660156 51.460938 " clip-rule="nonzero"/></clipPath><clipPath id="20f304fb5e"><path d="M 42 32 L 48 32 L 48 38 L 42 38 Z M 42 32 " clip-rule="nonzero"/></clipPath><clipPath id="b4f54403e7"><path d="M 42.464844 37.367188 L 42.515625 32.515625 L 47.367188 32.566406 L 47.316406 37.417969 Z M 42.464844 37.367188 " clip-rule="nonzero"/></clipPath><clipPath id="d9efab7071"><path d="M 42 37 L 48 37 L 48 43 L 42 43 Z M 42 37 " clip-rule="nonzero"/></clipPath><clipPath id="f155955e2c"><path d="M 42.464844 42.15625 L 42.515625 37.304688 L 47.367188 37.355469 L 47.316406 42.207031 Z M 42.464844 42.15625 " clip-rule="nonzero"/></clipPath><clipPath id="31119b3b8a"><path d="M 42.488281 41.945312 L 47.339844 41.945312 L 47.339844 46.796875 L 42.488281 46.796875 Z M 42.488281 41.945312 " clip-rule="nonzero"/></clipPath><clipPath id="70195a78b8"><path d="M 42.492188 46.648438 L 47.34375 46.648438 L 47.34375 51.5 L 42.492188 51.5 Z M 42.492188 46.648438 " clip-rule="nonzero"/></clipPath><clipPath id="ee7a0ec4ae"><path d="M 32.910156 51.339844 L 37.761719 51.339844 L 37.761719 56.191406 L 32.910156 56.191406 Z M 32.910156 51.339844 " clip-rule="nonzero"/></clipPath><clipPath id="36b3de9d89"><path d="M 37.6875 51.339844 L 42.539062 51.339844 L 42.539062 56.191406 L 37.6875 56.191406 Z M 37.6875 51.339844 " clip-rule="nonzero"/></clipPath><clipPath id="77c566845e"><path d="M 32.910156 56.042969 L 37.761719 56.042969 L 37.761719 60.894531 L 32.910156 60.894531 Z M 32.910156 56.042969 " clip-rule="nonzero"/></clipPath><clipPath id="79ceb51fbf"><path d="M 37.6875 56.042969 L 42.539062 56.042969 L 42.539062 60.894531 L 37.6875 60.894531 Z M 37.6875 56.042969 " clip-rule="nonzero"/></clipPath><clipPath id="9d9a13551f"><path d="M 42 51 L 48 51 L 48 57 L 42 57 Z M 42 51 " clip-rule="nonzero"/></clipPath><clipPath id="0d8127cb7e"><path d="M 42.464844 56.15625 L 42.515625 51.304688 L 47.367188 51.355469 L 47.316406 56.207031 Z M 42.464844 56.15625 " clip-rule="nonzero"/></clipPath><clipPath id="425c6d1fbc"><path d="M 42 56 L 48 56 L 48 61 L 42 61 Z M 42 56 " clip-rule="nonzero"/></clipPath><clipPath id="36207250e7"><path d="M 42.464844 60.859375 L 42.515625 56.007812 L 47.367188 56.058594 L 47.316406 60.910156 Z M 42.464844 60.859375 " clip-rule="nonzero"/></clipPath><clipPath id="bbf991daa2"><path d="M 42 27 L 48 27 L 48 33 L 42 33 Z M 42 27 " clip-rule="nonzero"/></clipPath><clipPath id="c9044feefe"><path d="M 42.464844 32.789062 L 42.515625 27.9375 L 47.367188 27.988281 L 47.316406 32.839844 Z M 42.464844 32.789062 " clip-rule="nonzero"/></clipPath><clipPath id="5270005ede"><path d="M 37 27 L 43 27 L 43 33 L 37 33 Z M 37 27 " clip-rule="nonzero"/></clipPath><clipPath id="03fc5e317d"><path d="M 37.660156 32.675781 L 37.714844 27.824219 L 42.566406 27.875 L 42.511719 32.726562 Z M 37.660156 32.675781 " clip-rule="nonzero"/></clipPath><clipPath id="67a14b2948"><path d="M 37.6875 14.054688 L 42.539062 14.054688 L 42.539062 18.90625 L 37.6875 18.90625 Z M 37.6875 14.054688 " clip-rule="nonzero"/></clipPath><clipPath id="da9774f089"><path d="M 47.292969 14.054688 L 52.144531 14.054688 L 52.144531 18.90625 L 47.292969 18.90625 Z M 47.292969 14.054688 " clip-rule="nonzero"/></clipPath><clipPath id="93e11d76ef"><path d="M 42.492188 14.054688 L 47.34375 14.054688 L 47.34375 18.90625 L 42.492188 18.90625 Z M 42.492188 14.054688 " clip-rule="nonzero"/></clipPath><clipPath id="b1eaffa358"><path d="M 37.6875 18.695312 L 42.539062 18.695312 L 42.539062 23.546875 L 37.6875 23.546875 Z M 37.6875 18.695312 " clip-rule="nonzero"/></clipPath><clipPath id="c26263ad9a"><path d="M 47.292969 18.695312 L 52.144531 18.695312 L 52.144531 23.546875 L 47.292969 23.546875 Z M 47.292969 18.695312 " clip-rule="nonzero"/></clipPath><clipPath id="7f348888c4"><path d="M 42.492188 18.695312 L 47.34375 18.695312 L 47.34375 23.546875 L 42.492188 23.546875 Z M 42.492188 18.695312 " clip-rule="nonzero"/></clipPath><clipPath id="51d19308d2"><path d="M 37.6875 23.246094 L 42.539062 23.246094 L 42.539062 28.097656 L 37.6875 28.097656 Z M 37.6875 23.246094 " clip-rule="nonzero"/></clipPath><clipPath id="2c15c29d8e"><path d="M 47.292969 23.335938 L 52.144531 23.335938 L 52.144531 28.1875 L 47.292969 28.1875 Z M 47.292969 23.335938 " clip-rule="nonzero"/></clipPath><clipPath id="43659b8072"><path d="M 42.492188 23.335938 L 47.34375 23.335938 L 47.34375 28.1875 L 42.492188 28.1875 Z M 42.492188 23.335938 " clip-rule="nonzero"/></clipPath><clipPath id="36eef449d1"><path d="M 42.492188 9.265625 L 47.34375 9.265625 L 47.34375 14.117188 L 42.492188 14.117188 Z M 42.492188 9.265625 " clip-rule="nonzero"/></clipPath><clipPath id="7c62613ab4"><path d="M 37.6875 9.265625 L 42.539062 9.265625 L 42.539062 14.117188 L 37.6875 14.117188 Z M 37.6875 9.265625 " clip-rule="nonzero"/></clipPath><clipPath id="03ce692ae5"><path d="M 51.960938 9.265625 L 56.8125 9.265625 L 56.8125 14.117188 L 51.960938 14.117188 Z M 51.960938 9.265625 " clip-rule="nonzero"/></clipPath><clipPath id="72962508e0"><path d="M 47.292969 9.265625 L 52.144531 9.265625 L 52.144531 14.117188 L 47.292969 14.117188 Z M 47.292969 9.265625 " clip-rule="nonzero"/></clipPath><clipPath id="78d67f6935"><path d="M 47.285156 60.832031 L 52.132812 60.832031 L 52.132812 65.683594 L 47.285156 65.683594 Z M 47.285156 60.832031 " clip-rule="nonzero"/></clipPath><clipPath id="f358e97295"><path d="M 37 60 L 43 60 L 43 66 L 37 66 Z M 37 60 " clip-rule="nonzero"/></clipPath><clipPath id="6a957339d4"><path d="M 42.554688 60.867188 L 42.5 65.71875 L 37.648438 65.667969 L 37.703125 60.816406 Z M 42.554688 60.867188 " clip-rule="nonzero"/></clipPath><clipPath id="b010e48af9"><path d="M 42 60 L 48 60 L 48 66 L 42 66 Z M 42 60 " clip-rule="nonzero"/></clipPath><clipPath id="3fb4cfd286"><path d="M 47.355469 60.867188 L 47.304688 65.71875 L 42.453125 65.667969 L 42.507812 60.816406 Z M 47.355469 60.867188 " clip-rule="nonzero"/></clipPath><clipPath id="9ad3a69ad5"><path d="M 32 60 L 38 60 L 38 66 L 32 66 Z M 32 60 " clip-rule="nonzero"/></clipPath><clipPath id="08adae76ee"><path d="M 37.777344 60.867188 L 37.722656 65.71875 L 32.871094 65.667969 L 32.925781 60.816406 Z M 37.777344 60.867188 " clip-rule="nonzero"/></clipPath><clipPath id="2f0655e43b"><path d="M 47 51 L 53 51 L 53 57 L 47 57 Z M 47 51 " clip-rule="nonzero"/></clipPath><clipPath id="76162e432a"><path d="M 52.109375 56.207031 L 47.257812 56.152344 L 47.308594 51.304688 L 52.160156 51.355469 Z M 52.109375 56.207031 " clip-rule="nonzero"/></clipPath><clipPath id="74aa1abb0f"><path d="M 47 56 L 53 56 L 53 61 L 47 61 Z M 47 56 " clip-rule="nonzero"/></clipPath><clipPath id="33a4ec7449"><path d="M 52.109375 60.910156 L 47.257812 60.859375 L 47.308594 56.007812 L 52.160156 56.058594 Z M 52.109375 60.910156 " clip-rule="nonzero"/></clipPath><clipPath id="afc9de5265"><path d="M 47 46 L 53 46 L 53 52 L 47 52 Z M 47 46 " clip-rule="nonzero"/></clipPath><clipPath id="f761e3dadd"><path d="M 52.109375 51.515625 L 47.257812 51.460938 L 47.308594 46.609375 L 52.160156 46.664062 Z M 52.109375 51.515625 " clip-rule="nonzero"/></clipPath><clipPath id="add228a0aa"><path d="M 47 32 L 53 32 L 53 38 L 47 38 Z M 47 32 " clip-rule="nonzero"/></clipPath><clipPath id="919fc740a2"><path d="M 47.269531 37.367188 L 47.320312 32.515625 L 52.171875 32.566406 L 52.121094 37.417969 Z M 47.269531 37.367188 " clip-rule="nonzero"/></clipPath><clipPath id="87f73649f4"><path d="M 47 37 L 53 37 L 53 43 L 47 43 Z M 47 37 " clip-rule="nonzero"/></clipPath><clipPath id="6808ad4f00"><path d="M 47.269531 42.15625 L 47.320312 37.304688 L 52.171875 37.355469 L 52.121094 42.207031 Z M 47.269531 42.15625 " clip-rule="nonzero"/></clipPath><clipPath id="311f3383fd"><path d="M 47 41 L 53 41 L 53 47 L 47 47 Z M 47 41 " clip-rule="nonzero"/></clipPath><clipPath id="619ad35593"><path d="M 47.269531 46.757812 L 47.320312 41.90625 L 52.171875 41.960938 L 52.121094 46.808594 Z M 47.269531 46.757812 " clip-rule="nonzero"/></clipPath><clipPath id="b3e8f5a13e"><path d="M 19 56.042969 L 23.851562 56.042969 L 23.851562 60.894531 L 19 60.894531 Z M 19 56.042969 " clip-rule="nonzero"/></clipPath><clipPath id="5705885b70"><path d="M 18.925781 60.699219 L 23.777344 60.699219 L 23.777344 65.550781 L 18.925781 65.550781 Z M 18.925781 60.699219 " clip-rule="nonzero"/></clipPath><clipPath id="d71885df03"><path d="M 19 51.339844 L 23.851562 51.339844 L 23.851562 56.191406 L 19 56.191406 Z M 19 51.339844 " clip-rule="nonzero"/></clipPath><clipPath id="378c193eb4"><path d="M 19 46.648438 L 23.851562 46.648438 L 23.851562 51.5 L 19 51.5 Z M 19 46.648438 " clip-rule="nonzero"/></clipPath><clipPath id="f298e31792"><path d="M 23.511719 41.945312 L 28.363281 41.945312 L 28.363281 46.796875 L 23.511719 46.796875 Z M 23.511719 41.945312 " clip-rule="nonzero"/></clipPath><clipPath id="eeb79f5546"><path d="M 23.539062 46.648438 L 28.390625 46.648438 L 28.390625 51.5 L 23.539062 51.5 Z M 23.539062 46.648438 " clip-rule="nonzero"/></clipPath><clipPath id="9c18005064"><path d="M 52.171875 56.042969 L 57.023438 56.042969 L 57.023438 60.894531 L 52.171875 60.894531 Z M 52.171875 56.042969 " clip-rule="nonzero"/></clipPath><clipPath id="4686ea237c"><path d="M 52.171875 51.339844 L 57.023438 51.339844 L 57.023438 56.191406 L 52.171875 56.191406 Z M 52.171875 51.339844 " clip-rule="nonzero"/></clipPath><clipPath id="6a95da92fc"><path d="M 52.171875 46.648438 L 57.023438 46.648438 L 57.023438 51.5 L 52.171875 51.5 Z M 52.171875 46.648438 " clip-rule="nonzero"/></clipPath><clipPath id="8eacd08881"><path d="M 37 65 L 43 65 L 43 71 L 37 71 Z M 37 65 " clip-rule="nonzero"/></clipPath><clipPath id="f7be242522"><path d="M 37.660156 70.347656 L 37.714844 65.496094 L 42.566406 65.550781 L 42.511719 70.402344 Z M 37.660156 70.347656 " clip-rule="nonzero"/></clipPath><clipPath id="e94b693776"><path d="M 32 65 L 38 65 L 38 71 L 32 71 Z M 32 65 " clip-rule="nonzero"/></clipPath><clipPath id="ed811c7b24"><path d="M 32.882812 70.347656 L 32.9375 65.496094 L 37.789062 65.550781 L 37.734375 70.402344 Z M 32.882812 70.347656 " clip-rule="nonzero"/></clipPath><clipPath id="db0a22c879"><path d="M 28.234375 65.535156 L 33.082031 65.535156 L 33.082031 70.386719 L 28.234375 70.386719 Z M 28.234375 65.535156 " clip-rule="nonzero"/></clipPath><clipPath id="49b239c4f8"><path d="M 42.492188 65.535156 L 47.34375 65.535156 L 47.34375 70.386719 L 42.492188 70.386719 Z M 42.492188 65.535156 " clip-rule="nonzero"/></clipPath><clipPath id="aa366c77ce"><path d="M 52.042969 32.554688 L 56.890625 32.554688 L 56.890625 37.40625 L 52.042969 37.40625 Z M 52.042969 32.554688 " clip-rule="nonzero"/></clipPath><clipPath id="0c91f68710"><path d="M 52.042969 37.339844 L 56.890625 37.339844 L 56.890625 42.191406 L 52.042969 42.191406 Z M 52.042969 37.339844 " clip-rule="nonzero"/></clipPath><clipPath id="7e39cd6222"><path d="M 52.042969 41.945312 L 56.890625 41.945312 L 56.890625 46.796875 L 52.042969 46.796875 Z M 52.042969 41.945312 " clip-rule="nonzero"/></clipPath><clipPath id="6649cc1ed3"><path d="M 47.292969 27.972656 L 52.144531 27.972656 L 52.144531 32.824219 L 47.292969 32.824219 Z M 47.292969 27.972656 " clip-rule="nonzero"/></clipPath><clipPath id="60f78b37e9"><path d="M 51.960938 27.972656 L 56.8125 27.972656 L 56.8125 32.824219 L 51.960938 32.824219 Z M 51.960938 27.972656 " clip-rule="nonzero"/></clipPath><clipPath id="22eb19c522"><path d="M 51.960938 14.054688 L 56.8125 14.054688 L 56.8125 18.90625 L 51.960938 18.90625 Z M 51.960938 14.054688 " clip-rule="nonzero"/></clipPath><clipPath id="59e66dbace"><path d="M 51.960938 18.695312 L 56.8125 18.695312 L 56.8125 23.546875 L 51.960938 23.546875 Z M 51.960938 18.695312 " clip-rule="nonzero"/></clipPath><clipPath id="880ab0c8ca"><path d="M 51.960938 23.335938 L 56.8125 23.335938 L 56.8125 28.1875 L 51.960938 28.1875 Z M 51.960938 23.335938 " clip-rule="nonzero"/></clipPath><clipPath id="e14361d83d"><path d="M 56.699219 14.054688 L 61.550781 14.054688 L 61.550781 18.90625 L 56.699219 18.90625 Z M 56.699219 14.054688 " clip-rule="nonzero"/></clipPath><clipPath id="704a611224"><path d="M 56.839844 32.554688 L 61.691406 32.554688 L 61.691406 37.40625 L 56.839844 37.40625 Z M 56.839844 32.554688 " clip-rule="nonzero"/></clipPath><clipPath id="6f0eedf729"><path d="M 56.839844 37.339844 L 61.691406 37.339844 L 61.691406 42.191406 L 56.839844 42.191406 Z M 56.839844 37.339844 " clip-rule="nonzero"/></clipPath><clipPath id="35cfd12e92"><path d="M 56.839844 41.945312 L 61.691406 41.945312 L 61.691406 46.796875 L 56.839844 46.796875 Z M 56.839844 41.945312 " clip-rule="nonzero"/></clipPath><clipPath id="53c5e97f03"><path d="M 56.699219 27.972656 L 61.550781 27.972656 L 61.550781 32.824219 L 56.699219 32.824219 Z M 56.699219 27.972656 " clip-rule="nonzero"/></clipPath><clipPath id="c614ec8872"><path d="M 56.699219 18.695312 L 61.550781 18.695312 L 61.550781 23.546875 L 56.699219 23.546875 Z M 56.699219 18.695312 " clip-rule="nonzero"/></clipPath><clipPath id="17e5b4f917"><path d="M 56.699219 23.335938 L 61.550781 23.335938 L 61.550781 28.1875 L 56.699219 28.1875 Z M 56.699219 23.335938 " clip-rule="nonzero"/></clipPath><clipPath id="edfa386f53"><path d="M 61.117188 32.554688 L 65.96875 32.554688 L 65.96875 37.40625 L 61.117188 37.40625 Z M 61.117188 32.554688 " clip-rule="nonzero"/></clipPath><clipPath id="9105f46171"><path d="M 61.117188 37.339844 L 65.96875 37.339844 L 65.96875 42.191406 L 61.117188 42.191406 Z M 61.117188 37.339844 " clip-rule="nonzero"/></clipPath><clipPath id="7546de6cd5"><path d="M 61.117188 41.945312 L 65.96875 41.945312 L 65.96875 46.796875 L 61.117188 46.796875 Z M 61.117188 41.945312 " clip-rule="nonzero"/></clipPath><clipPath id="911327a804"><path d="M 61.117188 27.972656 L 65.96875 27.972656 L 65.96875 32.824219 L 61.117188 32.824219 Z M 61.117188 27.972656 " clip-rule="nonzero"/></clipPath><clipPath id="991399775e"><path d="M 61.117188 23.335938 L 65.96875 23.335938 L 65.96875 28.1875 L 61.117188 28.1875 Z M 61.117188 23.335938 " clip-rule="nonzero"/></clipPath><clipPath id="f538d0e1b9"><path d="M 56.972656 51.339844 L 61.539062 51.339844 L 61.539062 56.191406 L 56.972656 56.191406 Z M 56.972656 51.339844 " clip-rule="nonzero"/></clipPath><clipPath id="488771a04b"><path d="M 56.972656 56.042969 L 61.539062 56.042969 L 61.539062 60.894531 L 56.972656 60.894531 Z M 56.972656 56.042969 " clip-rule="nonzero"/></clipPath><clipPath id="f8f819d7b9"><path d="M 56.972656 60.84375 L 61.539062 60.84375 L 61.539062 65.695312 L 56.972656 65.695312 Z M 56.972656 60.84375 " clip-rule="nonzero"/></clipPath><clipPath id="55e5efd657"><path d="M 56.972656 46.648438 L 61.824219 46.648438 L 61.824219 51.5 L 56.972656 51.5 Z M 56.972656 46.648438 " clip-rule="nonzero"/></clipPath><clipPath id="422529d8c9"><path d="M 61.40625 51.339844 L 65.972656 51.339844 L 65.972656 56.191406 L 61.40625 56.191406 Z M 61.40625 51.339844 " clip-rule="nonzero"/></clipPath><clipPath id="1f108b587b"><path d="M 61.40625 56.042969 L 65.972656 56.042969 L 65.972656 60.894531 L 61.40625 60.894531 Z M 61.40625 56.042969 " clip-rule="nonzero"/></clipPath><clipPath id="1de5a6b431"><path d="M 61.40625 60.84375 L 65.972656 60.84375 L 65.972656 65.695312 L 61.40625 65.695312 Z M 61.40625 60.84375 " clip-rule="nonzero"/></clipPath><clipPath id="7231552b7c"><path d="M 61.25 46.648438 L 66.101562 46.648438 L 66.101562 51.5 L 61.25 51.5 Z M 61.25 46.648438 " clip-rule="nonzero"/></clipPath><clipPath id="811a9b4747"><path d="M 65.582031 60.84375 L 70.148438 60.84375 L 70.148438 65.695312 L 65.582031 65.695312 Z M 65.582031 60.84375 " clip-rule="nonzero"/></clipPath><clipPath id="e1ce40f8ed"><path d="M 52.171875 60.84375 L 57.023438 60.84375 L 57.023438 65.695312 L 52.171875 65.695312 Z M 52.171875 60.84375 " clip-rule="nonzero"/></clipPath><clipPath id="b345a5ee7e"><path d="M 61.550781 18.90625 L 66.402344 18.90625 L 66.402344 23.757812 L 61.550781 23.757812 Z M 61.550781 18.90625 " clip-rule="nonzero"/></clipPath><clipPath id="cab63d51d5"><path d="M 61.617188 23.394531 L 66.46875 23.394531 L 66.46875 28.246094 L 61.617188 28.246094 Z M 61.617188 23.394531 " clip-rule="nonzero"/></clipPath><clipPath id="5a6c925293"><path d="M 61.617188 27.976562 L 66.46875 27.976562 L 66.46875 32.828125 L 61.617188 32.828125 Z M 61.617188 27.976562 " clip-rule="nonzero"/></clipPath><clipPath id="85c0b7e8b0"><path d="M 61.617188 32.761719 L 66.46875 32.761719 L 66.46875 37.613281 L 61.617188 37.613281 Z M 61.617188 32.761719 " clip-rule="nonzero"/></clipPath><clipPath id="e133eca720"><path d="M 65.917969 37.613281 L 70.769531 37.613281 L 70.769531 42.464844 L 65.917969 42.464844 Z M 65.917969 37.613281 " clip-rule="nonzero"/></clipPath><clipPath id="6a25e164b8"><path d="M 65.917969 56.03125 L 70.769531 56.03125 L 70.769531 60.882812 L 65.917969 60.882812 Z M 65.917969 56.03125 " clip-rule="nonzero"/></clipPath><clipPath id="32ab6baa0c"><path d="M 65.917969 51.601562 L 70.769531 51.601562 L 70.769531 56.453125 L 65.917969 56.453125 Z M 65.917969 51.601562 " clip-rule="nonzero"/></clipPath><clipPath id="1806bd28f6"><path d="M 65.917969 46.894531 L 70.769531 46.894531 L 70.769531 51.746094 L 65.917969 51.746094 Z M 65.917969 46.894531 " clip-rule="nonzero"/></clipPath><clipPath id="02b507ad6b"><path d="M 65.917969 42.464844 L 70.769531 42.464844 L 70.769531 47.316406 L 65.917969 47.316406 Z M 65.917969 42.464844 " clip-rule="nonzero"/></clipPath><clipPath id="5dc7c3da2e"><path d="M 65.917969 46.957031 L 70.769531 46.957031 L 70.769531 51.808594 L 65.917969 51.808594 Z M 65.917969 46.957031 " clip-rule="nonzero"/></clipPath><clipPath id="ab09788785"><path d="M 65.917969 51.601562 L 70.769531 51.601562 L 70.769531 56.453125 L 65.917969 56.453125 Z M 65.917969 51.601562 " clip-rule="nonzero"/></clipPath><clipPath id="da5a954f13"><path d="M 65.917969 56.242188 L 70.769531 56.242188 L 70.769531 61.09375 L 65.917969 61.09375 Z M 65.917969 56.242188 " clip-rule="nonzero"/></clipPath><clipPath id="5701e617b2"><path d="M 70.148438 61.09375 L 75 61.09375 L 75 65.945312 L 70.148438 65.945312 Z M 70.148438 61.09375 " clip-rule="nonzero"/></clipPath><clipPath id="6108a3c190"><path d="M 46.992188 65.535156 L 51.84375 65.535156 L 51.84375 70.386719 L 46.992188 70.386719 Z M 46.992188 65.535156 " clip-rule="nonzero"/></clipPath><clipPath id="a1392d097d"><path d="M 56.574219 65.535156 L 61.425781 65.535156 L 61.425781 70.386719 L 56.574219 70.386719 Z M 56.574219 65.535156 " clip-rule="nonzero"/></clipPath><clipPath id="93fc7e117b"><path d="M 51.769531 65.535156 L 56.621094 65.535156 L 56.621094 70.386719 L 51.769531 70.386719 Z M 51.769531 65.535156 " clip-rule="nonzero"/></clipPath><clipPath id="7c0fbf221a"><path d="M 65.582031 65.535156 L 70.433594 65.535156 L 70.433594 70.386719 L 65.582031 70.386719 Z M 65.582031 65.535156 " clip-rule="nonzero"/></clipPath><clipPath id="26448a64b6"><path d="M 61.25 65.535156 L 66.101562 65.535156 L 66.101562 70.386719 L 61.25 70.386719 Z M 61.25 65.535156 " clip-rule="nonzero"/></clipPath><clipPath id="b05420280a"><path d="M 23.539062 70.128906 L 28.390625 70.128906 L 28.390625 74.980469 L 23.539062 74.980469 Z M 23.539062 70.128906 " clip-rule="nonzero"/></clipPath><clipPath id="a1abecd64d"><path d="M 19 70.128906 L 23.851562 70.128906 L 23.851562 74.980469 L 19 74.980469 Z M 19 70.128906 " clip-rule="nonzero"/></clipPath><clipPath id="90ad600408"><path d="M 28.234375 70.128906 L 33.082031 70.128906 L 33.082031 74.980469 L 28.234375 74.980469 Z M 28.234375 70.128906 " clip-rule="nonzero"/></clipPath><clipPath id="0b9b17239e"><path d="M 37.359375 70.148438 L 42.210938 70.148438 L 42.210938 75 L 37.359375 75 Z M 37.359375 70.148438 " clip-rule="nonzero"/></clipPath><clipPath id="fce5a1cea4"><path d="M 32.820312 70.148438 L 37.671875 70.148438 L 37.671875 75 L 32.820312 75 Z M 32.820312 70.148438 " clip-rule="nonzero"/></clipPath><clipPath id="7f54d0b4b3"><path d="M 42.050781 70.148438 L 46.902344 70.148438 L 46.902344 75 L 42.050781 75 Z M 42.050781 70.148438 " clip-rule="nonzero"/></clipPath><clipPath id="f6cbd08dac"><path d="M 46.847656 70.148438 L 51.699219 70.148438 L 51.699219 75 L 46.847656 75 Z M 46.847656 70.148438 " clip-rule="nonzero"/></clipPath><clipPath id="d8c4c9e55f"><path d="M 51.539062 70.148438 L 56.390625 70.148438 L 56.390625 75 L 51.539062 75 Z M 51.539062 70.148438 " clip-rule="nonzero"/></clipPath></defs><g clip-path="url(#aa3cd963fd)"><path fill="#000000" d="M 14.257812 14.054688 L 19.109375 14.054688 L 19.109375 18.90625 L 14.257812 18.90625 Z M 14.257812 14.054688 " fill-opacity="1" fill-rule="nonzero"/></g><g clip-path="url(#004ac1db99)"><path fill="#000000" d="M 9.554688 18.695312 L 14.40625 18.695312 L 14.40625 23.546875 L 9.554688 23.546875 Z M 9.554688 18.695312 " fill-opacity="1" fill-rule="nonzero"/></g><g clip-path="url(#62fb08c4dd)"><path fill="#000000" d="M 9.554688 23.335938 L 14.40625 23.335938 L 14.40625 28.1875 L 9.554688 28.1875 Z M 9.554688 23.335938 " fill-opacity="1" fill-rule="nonzero"/></g><g clip-path="url(#bcffce3bb2)"><path fill="#000000" d="M 4.777344 23.335938 L 9.628906 23.335938 L 9.628906 28.1875 L 4.777344 28.1875 Z M 4.777344 23.335938 " fill-opacity="1" fill-rule="nonzero"/></g><g clip-path="url(#2e1f71eed3)"><path fill="#000000" d="M 23.539062 9.265625 L 28.390625 9.265625 L 28.390625 14.117188 L 23.539062 14.117188 Z M 23.539062 9.265625 " fill-opacity="1" fill-rule="nonzero"/></g><g clip-path="url(#d480fac90a)"><path fill="#000000" d="M 19 9.265625 L 23.851562 9.265625 L 23.851562 14.117188 L 19 14.117188 Z M 19 9.265625 " fill-opacity="1" fill-rule="nonzero"/></g><g clip-path="url(#3b1a7efcd1)"><path fill="#000000" d="M 32.910156 9.265625 L 37.761719 9.265625 L 37.761719 14.117188 L 32.910156 14.117188 Z M 32.910156 9.265625 " fill-opacity="1" fill-rule="nonzero"/></g><g clip-path="url(#c11d9f6ec8)"><path fill="#000000" d="M 28.234375 9.265625 L 33.082031 9.265625 L 33.082031 14.117188 L 28.234375 14.117188 Z M 28.234375 9.265625 " fill-opacity="1" fill-rule="nonzero"/></g><g clip-path="url(#a2d63c68fd)"><path fill="#000000" d="M 4.777344 27.972656 L 9.628906 27.972656 L 9.628906 32.824219 L 4.777344 32.824219 Z M 4.777344 27.972656 " fill-opacity="1" fill-rule="nonzero"/></g><g clip-path="url(#46b1d55c75)"><path fill="#000000" d="M 4.777344 32.554688 L 9.628906 32.554688 L 9.628906 37.40625 L 4.777344 37.40625 Z M 4.777344 32.554688 " fill-opacity="1" fill-rule="nonzero"/></g><g clip-path="url(#177fb0f0a5)"><path fill="#000000" d="M 4.777344 37.339844 L 9.628906 37.339844 L 9.628906 42.191406 L 4.777344 42.191406 Z M 4.777344 37.339844 " fill-opacity="1" fill-rule="nonzero"/></g><g clip-path="url(#5017fcddac)"><path fill="#000000" d="M 0 41.945312 L 4.851562 41.945312 L 4.851562 46.796875 L 0 46.796875 Z M 0 41.945312 " fill-opacity="1" fill-rule="nonzero"/></g><g clip-path="url(#6893e67f12)"><path fill="#000000" d="M 4.777344 46.648438 L 9.628906 46.648438 L 9.628906 51.5 L 4.777344 51.5 Z M 4.777344 46.648438 " fill-opacity="1" fill-rule="nonzero"/></g><g clip-path="url(#9edd74daf3)"><path fill="#000000" d="M 4.777344 51.339844 L 9.628906 51.339844 L 9.628906 56.191406 L 4.777344 56.191406 Z M 4.777344 51.339844 " fill-opacity="1" fill-rule="nonzero"/></g><g clip-path="url(#adb45306f6)"><path fill="#000000" d="M 4.777344 56.042969 L 9.628906 56.042969 L 9.628906 60.894531 L 4.777344 60.894531 Z M 4.777344 56.042969 " fill-opacity="1" fill-rule="nonzero"/></g><g clip-path="url(#46732f5041)"><path fill="#000000" d="M 0 60.84375 L 4.851562 60.84375 L 4.851562 65.695312 L 0 65.695312 Z M 0 60.84375 " fill-opacity="1" fill-rule="nonzero"/></g><g clip-path="url(#ff2ab2a389)"><path fill="#000000" d="M 4.777344 65.535156 L 9.628906 65.535156 L 9.628906 70.386719 L 4.777344 70.386719 Z M 4.777344 65.535156 " fill-opacity="1" fill-rule="nonzero"/></g><g clip-path="url(#fe64cea91c)"><path fill="#000000" d="M 14.257812 70.128906 L 19.109375 70.128906 L 19.109375 74.980469 L 14.257812 74.980469 Z M 14.257812 70.128906 " fill-opacity="1" fill-rule="nonzero"/></g><g clip-path="url(#d3718d14d6)"><path fill="#000000" d="M 9.554688 70.128906 L 14.40625 70.128906 L 14.40625 74.980469 L 9.554688 74.980469 Z M 9.554688 70.128906 " fill-opacity="1" fill-rule="nonzero"/></g><g clip-path="url(#9a0ad1cf71)"><path fill="#004aad" d="M 14.257812 18.695312 L 19.109375 18.695312 L 19.109375 23.546875 L 14.257812 23.546875 Z M 14.257812 18.695312 " fill-opacity="1" fill-rule="nonzero"/></g><g clip-path="url(#b0e2d96e63)"><path fill="#004aad" d="M 23.539062 14.054688 L 28.390625 14.054688 L 28.390625 18.90625 L 23.539062 18.90625 Z M 23.539062 14.054688 " fill-opacity="1" fill-rule="nonzero"/></g><g clip-path="url(#68e68454b6)"><path fill="#004aad" d="M 19 14.054688 L 23.851562 14.054688 L 23.851562 18.90625 L 19 18.90625 Z M 19 14.054688 " fill-opacity="1" fill-rule="nonzero"/></g><g clip-path="url(#e92540a883)"><path fill="#004aad" d="M 32.910156 14.054688 L 37.761719 14.054688 L 37.761719 18.90625 L 32.910156 18.90625 Z M 32.910156 14.054688 " fill-opacity="1" fill-rule="nonzero"/></g><g clip-path="url(#de06c9e343)"><path fill="#004aad" d="M 28.234375 14.054688 L 33.082031 14.054688 L 33.082031 18.90625 L 28.234375 18.90625 Z M 28.234375 14.054688 " fill-opacity="1" fill-rule="nonzero"/></g><g clip-path="url(#4c2535ccf0)"><path fill="#004aad" d="M 23.539062 18.695312 L 28.390625 18.695312 L 28.390625 23.546875 L 23.539062 23.546875 Z M 23.539062 18.695312 " fill-opacity="1" fill-rule="nonzero"/></g><g clip-path="url(#a924bce1e1)"><path fill="#004aad" d="M 19 18.695312 L 23.851562 18.695312 L 23.851562 23.546875 L 19 23.546875 Z M 19 18.695312 " fill-opacity="1" fill-rule="nonzero"/></g><g clip-path="url(#73633fce29)"><path fill="#004aad" d="M 32.910156 18.695312 L 37.761719 18.695312 L 37.761719 23.546875 L 32.910156 23.546875 Z M 32.910156 18.695312 " fill-opacity="1" fill-rule="nonzero"/></g><g clip-path="url(#ec71b07846)"><path fill="#004aad" d="M 28.234375 18.695312 L 33.082031 18.695312 L 33.082031 23.546875 L 28.234375 23.546875 Z M 28.234375 18.695312 " fill-opacity="1" fill-rule="nonzero"/></g><g clip-path="url(#46ff8767b7)"><path fill="#004aad" d="M 9.554688 27.972656 L 14.40625 27.972656 L 14.40625 32.824219 L 9.554688 32.824219 Z M 9.554688 27.972656 " fill-opacity="1" fill-rule="nonzero"/></g><g clip-path="url(#17b6c13167)"><path fill="#004aad" d="M 14.257812 23.335938 L 19.109375 23.335938 L 19.109375 28.1875 L 14.257812 28.1875 Z M 14.257812 23.335938 " fill-opacity="1" fill-rule="nonzero"/></g><g clip-path="url(#5c4c984997)"><path fill="#004aad" d="M 14.257812 27.972656 L 19.109375 27.972656 L 19.109375 32.824219 L 14.257812 32.824219 Z M 14.257812 27.972656 " fill-opacity="1" fill-rule="nonzero"/></g><g clip-path="url(#a57a0b87bb)"><path fill="#004aad" d="M 9.554688 32.554688 L 14.40625 32.554688 L 14.40625 37.40625 L 9.554688 37.40625 Z M 9.554688 32.554688 " fill-opacity="1" fill-rule="nonzero"/></g><g clip-path="url(#557bc0ebc6)"><path fill="#004aad" d="M 14.257812 32.554688 L 19.109375 32.554688 L 19.109375 37.40625 L 14.257812 37.40625 Z M 14.257812 32.554688 " fill-opacity="1" fill-rule="nonzero"/></g><g clip-path="url(#99ce48b6d3)"><path fill="#004aad" d="M 9.554688 37.339844 L 14.40625 37.339844 L 14.40625 42.191406 L 9.554688 42.191406 Z M 9.554688 37.339844 " fill-opacity="1" fill-rule="nonzero"/></g><g clip-path="url(#f3b52613a4)"><path fill="#004aad" d="M 14.257812 37.339844 L 19.109375 37.339844 L 19.109375 42.191406 L 14.257812 42.191406 Z M 14.257812 37.339844 " fill-opacity="1" fill-rule="nonzero"/></g><g clip-path="url(#d0561f0384)"><path fill="#004aad" d="M 9.554688 41.945312 L 14.40625 41.945312 L 14.40625 46.796875 L 9.554688 46.796875 Z M 9.554688 41.945312 " fill-opacity="1" fill-rule="nonzero"/></g><g clip-path="url(#91ce84125b)"><path fill="#004aad" d="M 14.257812 41.945312 L 19.109375 41.945312 L 19.109375 46.796875 L 14.257812 46.796875 Z M 14.257812 41.945312 " fill-opacity="1" fill-rule="nonzero"/></g><g clip-path="url(#0d9c6534cb)"><path fill="#004aad" d="M 4.777344 41.945312 L 9.628906 41.945312 L 9.628906 46.796875 L 4.777344 46.796875 Z M 4.777344 41.945312 " fill-opacity="1" fill-rule="nonzero"/></g><g clip-path="url(#918e9aa04d)"><path fill="#004aad" d="M 9.554688 46.648438 L 14.40625 46.648438 L 14.40625 51.5 L 9.554688 51.5 Z M 9.554688 46.648438 " fill-opacity="1" fill-rule="nonzero"/></g><g clip-path="url(#dfd5604466)"><path fill="#004aad" d="M 14.257812 46.648438 L 19.109375 46.648438 L 19.109375 51.5 L 14.257812 51.5 Z M 14.257812 46.648438 " fill-opacity="1" fill-rule="nonzero"/></g><g clip-path="url(#2abc09f387)"><path fill="#004aad" d="M 9.554688 51.339844 L 14.40625 51.339844 L 14.40625 56.191406 L 9.554688 56.191406 Z M 9.554688 51.339844 " fill-opacity="1" fill-rule="nonzero"/></g><g clip-path="url(#d8e765ca87)"><path fill="#004aad" d="M 14.257812 51.339844 L 19.109375 51.339844 L 19.109375 56.191406 L 14.257812 56.191406 Z M 14.257812 51.339844 " fill-opacity="1" fill-rule="nonzero"/></g><g clip-path="url(#694f2756b0)"><path fill="#004aad" d="M 9.554688 56.042969 L 14.40625 56.042969 L 14.40625 60.894531 L 9.554688 60.894531 Z M 9.554688 56.042969 " fill-opacity="1" fill-rule="nonzero"/></g><g clip-path="url(#009ec9c77e)"><path fill="#004aad" d="M 14.257812 56.042969 L 19.109375 56.042969 L 19.109375 60.894531 L 14.257812 60.894531 Z M 14.257812 56.042969 " fill-opacity="1" fill-rule="nonzero"/></g><g clip-path="url(#e2aeb28107)"><path fill="#004aad" d="M 9.554688 60.84375 L 14.40625 60.84375 L 14.40625 65.695312 L 9.554688 65.695312 Z M 9.554688 60.84375 " fill-opacity="1" fill-rule="nonzero"/></g><g clip-path="url(#b572e937bb)"><path fill="#004aad" d="M 14.257812 60.84375 L 19.109375 60.84375 L 19.109375 65.695312 L 14.257812 65.695312 Z M 14.257812 60.84375 " fill-opacity="1" fill-rule="nonzero"/></g><g clip-path="url(#20b91dae2e)"><path fill="#004aad" d="M 4.777344 60.84375 L 9.628906 60.84375 L 9.628906 65.695312 L 4.777344 65.695312 Z M 4.777344 60.84375 " fill-opacity="1" fill-rule="nonzero"/></g><g clip-path="url(#fafea08632)"><path fill="#004aad" d="M 23.539062 23.335938 L 28.390625 23.335938 L 28.390625 28.1875 L 23.539062 28.1875 Z M 23.539062 23.335938 " fill-opacity="1" fill-rule="nonzero"/></g><g clip-path="url(#2933cbd944)"><path fill="#004aad" d="M 19 23.335938 L 23.851562 23.335938 L 23.851562 28.1875 L 19 28.1875 Z M 19 23.335938 " fill-opacity="1" fill-rule="nonzero"/></g><g clip-path="url(#51af1ba3d6)"><path fill="#004aad" d="M 32.910156 23.335938 L 37.761719 23.335938 L 37.761719 28.1875 L 32.910156 28.1875 Z M 32.910156 23.335938 " fill-opacity="1" fill-rule="nonzero"/></g><g clip-path="url(#0a93a2d2fe)"><path fill="#004aad" d="M 28.234375 23.335938 L 33.082031 23.335938 L 33.082031 28.1875 L 28.234375 28.1875 Z M 28.234375 23.335938 " fill-opacity="1" fill-rule="nonzero"/></g><g clip-path="url(#af0567fbbc)"><path fill="#004aad" d="M 9.554688 65.535156 L 14.40625 65.535156 L 14.40625 70.386719 L 9.554688 70.386719 Z M 9.554688 65.535156 " fill-opacity="1" fill-rule="nonzero"/></g><g clip-path="url(#72d86e5072)"><path fill="#004aad" d="M 14.257812 65.535156 L 19.109375 65.535156 L 19.109375 70.386719 L 14.257812 70.386719 Z M 14.257812 65.535156 " fill-opacity="1" fill-rule="nonzero"/></g><g clip-path="url(#3e3d2f4ebe)"><path fill="#000000" d="M 23.539062 65.535156 L 28.390625 65.535156 L 28.390625 70.386719 L 23.539062 70.386719 Z M 23.539062 65.535156 " fill-opacity="1" fill-rule="nonzero"/></g><g clip-path="url(#bab4dce240)"><path fill="#000000" d="M 19 65.535156 L 23.851562 65.535156 L 23.851562 70.386719 L 19 70.386719 Z M 19 65.535156 " fill-opacity="1" fill-rule="nonzero"/></g><g clip-path="url(#115302d78e)"><path fill="#5271ff" d="M 23.539062 27.972656 L 28.390625 27.972656 L 28.390625 32.824219 L 23.539062 32.824219 Z M 23.539062 27.972656 " fill-opacity="1" fill-rule="nonzero"/></g><g clip-path="url(#60c1a56203)"><path fill="#004aad" d="M 19 27.972656 L 23.851562 27.972656 L 23.851562 32.824219 L 19 32.824219 Z M 19 27.972656 " fill-opacity="1" fill-rule="nonzero"/></g><g clip-path="url(#0f990dd900)"><path fill="#5271ff" d="M 19 37.339844 L 23.851562 37.339844 L 23.851562 42.191406 L 19 42.191406 Z M 19 37.339844 " fill-opacity="1" fill-rule="nonzero"/></g><g clip-path="url(#95981fd746)"><path fill="#5271ff" d="M 19 41.945312 L 23.851562 41.945312 L 23.851562 46.796875 L 19 46.796875 Z M 19 41.945312 " fill-opacity="1" fill-rule="nonzero"/></g><g clip-path="url(#b496cdd94f)"><path fill="#5271ff" d="M 19.042969 32.554688 L 23.890625 32.554688 L 23.890625 37.40625 L 19.042969 37.40625 Z M 19.042969 32.554688 " fill-opacity="1" fill-rule="nonzero"/></g><g clip-path="url(#88e9c1308f)"><path fill="#dbb588" d="M 23.539062 37.339844 L 28.390625 37.339844 L 28.390625 42.191406 L 23.539062 42.191406 Z M 23.539062 37.339844 " fill-opacity="1" fill-rule="nonzero"/></g><g clip-path="url(#a097208433)"><path fill="#dbb588" d="M 23.539062 32.554688 L 28.390625 32.554688 L 28.390625 37.40625 L 23.539062 37.40625 Z M 23.539062 32.554688 " fill-opacity="1" fill-rule="nonzero"/></g><g clip-path="url(#67419c3f7c)"><g clip-path="url(#2f7770abf6)"><path fill="#dbb588" d="M 32.882812 32.789062 L 32.9375 27.9375 L 37.789062 27.988281 L 37.734375 32.839844 Z M 32.882812 32.789062 " fill-opacity="1" fill-rule="nonzero"/></g></g><g clip-path="url(#9ac04733a0)"><g clip-path="url(#1461acbeeb)"><path fill="#dbb588" d="M 28.207031 32.789062 L 28.257812 27.9375 L 33.109375 27.988281 L 33.058594 32.839844 Z M 28.207031 32.789062 " fill-opacity="1" fill-rule="nonzero"/></g></g><g clip-path="url(#23c4347ac1)"><g clip-path="url(#6f2f6f4b34)"><path fill="#f9d7a9" d="M 32.882812 37.367188 L 32.9375 32.515625 L 37.789062 32.566406 L 37.734375 37.417969 Z M 32.882812 37.367188 " fill-opacity="1" fill-rule="nonzero"/></g></g><g clip-path="url(#2f6a01f7c0)"><g clip-path="url(#53987528e4)"><path fill="#f9d7a9" d="M 28.207031 37.367188 L 28.257812 32.515625 L 33.109375 32.566406 L 33.058594 37.417969 Z M 28.207031 37.367188 " fill-opacity="1" fill-rule="nonzero"/></g></g><g clip-path="url(#32d4ab7ff3)"><g clip-path="url(#4827a5bfeb)"><path fill="#f9d7a9" d="M 32.882812 42.15625 L 32.9375 37.304688 L 37.789062 37.355469 L 37.734375 42.207031 Z M 32.882812 42.15625 " fill-opacity="1" fill-rule="nonzero"/></g></g><g clip-path="url(#15553e7150)"><g clip-path="url(#be8e844c01)"><path fill="#f9d7a9" d="M 28.207031 42.15625 L 28.257812 37.304688 L 33.109375 37.355469 L 33.058594 42.207031 Z M 28.207031 42.15625 " fill-opacity="1" fill-rule="nonzero"/></g></g><g clip-path="url(#3f6c89786e)"><g clip-path="url(#3f4596ce83)"><path fill="#f9d7a9" d="M 32.882812 46.757812 L 32.9375 41.90625 L 37.789062 41.960938 L 37.734375 46.808594 Z M 32.882812 46.757812 " fill-opacity="1" fill-rule="nonzero"/></g></g><g clip-path="url(#bf78dc025c)"><g clip-path="url(#a40aed6edd)"><path fill="#f9d7a9" d="M 28.207031 46.757812 L 28.257812 41.90625 L 33.109375 41.960938 L 33.058594 46.808594 Z M 28.207031 46.757812 " fill-opacity="1" fill-rule="nonzero"/></g></g><g clip-path="url(#a538115f4a)"><g clip-path="url(#fd4003a01c)"><path fill="#f9d7a9" d="M 32.882812 51.460938 L 32.9375 46.609375 L 37.789062 46.664062 L 37.734375 51.515625 Z M 32.882812 51.460938 " fill-opacity="1" fill-rule="nonzero"/></g></g><g clip-path="url(#a447ca03b8)"><g clip-path="url(#f051f4798b)"><path fill="#f9d7a9" d="M 28.207031 51.460938 L 28.257812 46.609375 L 33.109375 46.664062 L 33.058594 51.515625 Z M 28.207031 51.460938 " fill-opacity="1" fill-rule="nonzero"/></g></g><g clip-path="url(#40c34907fb)"><g clip-path="url(#6b205946b9)"><path fill="#f9d7a9" d="M 23.511719 56.15625 L 23.566406 51.304688 L 28.417969 51.355469 L 28.363281 56.207031 Z M 23.511719 56.15625 " fill-opacity="1" fill-rule="nonzero"/></g></g><g clip-path="url(#7d3b614d2b)"><g clip-path="url(#07e581443a)"><path fill="#f9d7a9" d="M 23.511719 60.859375 L 23.566406 56.007812 L 28.417969 56.058594 L 28.363281 60.910156 Z M 23.511719 60.859375 " fill-opacity="1" fill-rule="nonzero"/></g></g><g clip-path="url(#c5ebb8aa8d)"><g clip-path="url(#f290435e9b)"><path fill="#f9d7a9" d="M 28.207031 65.65625 L 28.257812 60.804688 L 33.109375 60.855469 L 33.058594 65.707031 Z M 28.207031 65.65625 " fill-opacity="1" fill-rule="nonzero"/></g></g><g clip-path="url(#eefb7d6557)"><g clip-path="url(#dca6dd69d3)"><path fill="#f9d7a9" d="M 23.511719 65.488281 L 23.566406 60.636719 L 28.417969 60.6875 L 28.363281 65.539062 Z M 23.511719 65.488281 " fill-opacity="1" fill-rule="nonzero"/></g></g><g clip-path="url(#85a9a76979)"><path fill="#000000" d="M 28.234375 51.339844 L 33.082031 51.339844 L 33.082031 56.191406 L 28.234375 56.191406 Z M 28.234375 51.339844 " fill-opacity="1" fill-rule="nonzero"/></g><g clip-path="url(#963083c4a4)"><path fill="#000000" d="M 28.234375 56.042969 L 33.082031 56.042969 L 33.082031 60.894531 L 28.234375 60.894531 Z M 28.234375 56.042969 " fill-opacity="1" fill-rule="nonzero"/></g><g clip-path="url(#238ea306ab)"><g clip-path="url(#3b3546c623)"><path fill="#f9d7a9" d="M 37.660156 37.367188 L 37.714844 32.515625 L 42.566406 32.566406 L 42.511719 37.417969 Z M 37.660156 37.367188 " fill-opacity="1" fill-rule="nonzero"/></g></g><g clip-path="url(#c0ca2d3187)"><g clip-path="url(#a218bd019d)"><path fill="#f9d7a9" d="M 37.660156 42.15625 L 37.714844 37.304688 L 42.566406 37.355469 L 42.511719 42.207031 Z M 37.660156 42.15625 " fill-opacity="1" fill-rule="nonzero"/></g></g><g clip-path="url(#3595cc3808)"><g clip-path="url(#02b93b86ab)"><path fill="#f9d7a9" d="M 37.660156 46.757812 L 37.714844 41.90625 L 42.566406 41.960938 L 42.511719 46.808594 Z M 37.660156 46.757812 " fill-opacity="1" fill-rule="nonzero"/></g></g><g clip-path="url(#3c7ece88b3)"><g clip-path="url(#efc1bd54a3)"><path fill="#f9d7a9" d="M 37.660156 51.460938 L 37.714844 46.609375 L 42.566406 46.664062 L 42.511719 51.515625 Z M 37.660156 51.460938 " fill-opacity="1" fill-rule="nonzero"/></g></g><g clip-path="url(#20f304fb5e)"><g clip-path="url(#b4f54403e7)"><path fill="#f9d7a9" d="M 42.464844 37.367188 L 42.515625 32.515625 L 47.367188 32.566406 L 47.316406 37.417969 Z M 42.464844 37.367188 " fill-opacity="1" fill-rule="nonzero"/></g></g><g clip-path="url(#d9efab7071)"><g clip-path="url(#f155955e2c)"><path fill="#f9d7a9" d="M 42.464844 42.15625 L 42.515625 37.304688 L 47.367188 37.355469 L 47.316406 42.207031 Z M 42.464844 42.15625 " fill-opacity="1" fill-rule="nonzero"/></g></g><g clip-path="url(#31119b3b8a)"><path fill="#000000" d="M 42.488281 41.945312 L 47.339844 41.945312 L 47.339844 46.796875 L 42.488281 46.796875 Z M 42.488281 41.945312 " fill-opacity="1" fill-rule="nonzero"/></g><g clip-path="url(#70195a78b8)"><path fill="#000000" d="M 42.492188 46.648438 L 47.34375 46.648438 L 47.34375 51.5 L 42.492188 51.5 Z M 42.492188 46.648438 " fill-opacity="1" fill-rule="nonzero"/></g><g clip-path="url(#ee7a0ec4ae)"><path fill="#000000" d="M 32.910156 51.339844 L 37.761719 51.339844 L 37.761719 56.191406 L 32.910156 56.191406 Z M 32.910156 51.339844 " fill-opacity="1" fill-rule="nonzero"/></g><g clip-path="url(#36b3de9d89)"><path fill="#000000" d="M 37.6875 51.339844 L 42.539062 51.339844 L 42.539062 56.191406 L 37.6875 56.191406 Z M 37.6875 51.339844 " fill-opacity="1" fill-rule="nonzero"/></g><g clip-path="url(#77c566845e)"><path fill="#ff5757" d="M 32.910156 56.042969 L 37.761719 56.042969 L 37.761719 60.894531 L 32.910156 60.894531 Z M 32.910156 56.042969 " fill-opacity="1" fill-rule="nonzero"/></g><g clip-path="url(#79ceb51fbf)"><path fill="#ff5757" d="M 37.6875 56.042969 L 42.539062 56.042969 L 42.539062 60.894531 L 37.6875 60.894531 Z M 37.6875 56.042969 " fill-opacity="1" fill-rule="nonzero"/></g><g clip-path="url(#9d9a13551f)"><g clip-path="url(#0d8127cb7e)"><path fill="#f9d7a9" d="M 42.464844 56.15625 L 42.515625 51.304688 L 47.367188 51.355469 L 47.316406 56.207031 Z M 42.464844 56.15625 " fill-opacity="1" fill-rule="nonzero"/></g></g><g clip-path="url(#425c6d1fbc)"><g clip-path="url(#36207250e7)"><path fill="#f9d7a9" d="M 42.464844 60.859375 L 42.515625 56.007812 L 47.367188 56.058594 L 47.316406 60.910156 Z M 42.464844 60.859375 " fill-opacity="1" fill-rule="nonzero"/></g></g><g clip-path="url(#bbf991daa2)"><g clip-path="url(#c9044feefe)"><path fill="#dbb588" d="M 42.464844 32.789062 L 42.515625 27.9375 L 47.367188 27.988281 L 47.316406 32.839844 Z M 42.464844 32.789062 " fill-opacity="1" fill-rule="nonzero"/></g></g><g clip-path="url(#5270005ede)"><g clip-path="url(#03fc5e317d)"><path fill="#dbb588" d="M 37.660156 32.675781 L 37.714844 27.824219 L 42.566406 27.875 L 42.511719 32.726562 Z M 37.660156 32.675781 " fill-opacity="1" fill-rule="nonzero"/></g></g><g clip-path="url(#67a14b2948)"><path fill="#004aad" d="M 37.6875 14.054688 L 42.539062 14.054688 L 42.539062 18.90625 L 37.6875 18.90625 Z M 37.6875 14.054688 " fill-opacity="1" fill-rule="nonzero"/></g><g clip-path="url(#da9774f089)"><path fill="#004aad" d="M 47.292969 14.054688 L 52.144531 14.054688 L 52.144531 18.90625 L 47.292969 18.90625 Z M 47.292969 14.054688 " fill-opacity="1" fill-rule="nonzero"/></g><g clip-path="url(#93e11d76ef)"><path fill="#004aad" d="M 42.492188 14.054688 L 47.34375 14.054688 L 47.34375 18.90625 L 42.492188 18.90625 Z M 42.492188 14.054688 " fill-opacity="1" fill-rule="nonzero"/></g><g clip-path="url(#b1eaffa358)"><path fill="#004aad" d="M 37.6875 18.695312 L 42.539062 18.695312 L 42.539062 23.546875 L 37.6875 23.546875 Z M 37.6875 18.695312 " fill-opacity="1" fill-rule="nonzero"/></g><g clip-path="url(#c26263ad9a)"><path fill="#004aad" d="M 47.292969 18.695312 L 52.144531 18.695312 L 52.144531 23.546875 L 47.292969 23.546875 Z M 47.292969 18.695312 " fill-opacity="1" fill-rule="nonzero"/></g><g clip-path="url(#7f348888c4)"><path fill="#004aad" d="M 42.492188 18.695312 L 47.34375 18.695312 L 47.34375 23.546875 L 42.492188 23.546875 Z M 42.492188 18.695312 " fill-opacity="1" fill-rule="nonzero"/></g><g clip-path="url(#51d19308d2)"><path fill="#004aad" d="M 37.6875 23.246094 L 42.539062 23.246094 L 42.539062 28.097656 L 37.6875 28.097656 Z M 37.6875 23.246094 " fill-opacity="1" fill-rule="nonzero"/></g><g clip-path="url(#2c15c29d8e)"><path fill="#004aad" d="M 47.292969 23.335938 L 52.144531 23.335938 L 52.144531 28.1875 L 47.292969 28.1875 Z M 47.292969 23.335938 " fill-opacity="1" fill-rule="nonzero"/></g><g clip-path="url(#43659b8072)"><path fill="#004aad" d="M 42.492188 23.335938 L 47.34375 23.335938 L 47.34375 28.1875 L 42.492188 28.1875 Z M 42.492188 23.335938 " fill-opacity="1" fill-rule="nonzero"/></g><g clip-path="url(#36eef449d1)"><path fill="#000000" d="M 42.492188 9.265625 L 47.34375 9.265625 L 47.34375 14.117188 L 42.492188 14.117188 Z M 42.492188 9.265625 " fill-opacity="1" fill-rule="nonzero"/></g><g clip-path="url(#7c62613ab4)"><path fill="#000000" d="M 37.6875 9.265625 L 42.539062 9.265625 L 42.539062 14.117188 L 37.6875 14.117188 Z M 37.6875 9.265625 " fill-opacity="1" fill-rule="nonzero"/></g><g clip-path="url(#03ce692ae5)"><path fill="#000000" d="M 51.960938 9.265625 L 56.8125 9.265625 L 56.8125 14.117188 L 51.960938 14.117188 Z M 51.960938 9.265625 " fill-opacity="1" fill-rule="nonzero"/></g><g clip-path="url(#72962508e0)"><path fill="#000000" d="M 47.292969 9.265625 L 52.144531 9.265625 L 52.144531 14.117188 L 47.292969 14.117188 Z M 47.292969 9.265625 " fill-opacity="1" fill-rule="nonzero"/></g><g clip-path="url(#78d67f6935)"><path fill="#dbb588" d="M 52.132812 65.683594 L 47.285156 65.683594 L 47.285156 60.832031 L 52.132812 60.832031 Z M 52.132812 65.683594 " fill-opacity="1" fill-rule="nonzero"/></g><g clip-path="url(#f358e97295)"><g clip-path="url(#6a957339d4)"><path fill="#f9d7a9" d="M 42.554688 60.867188 L 42.5 65.71875 L 37.648438 65.667969 L 37.703125 60.816406 Z M 42.554688 60.867188 " fill-opacity="1" fill-rule="nonzero"/></g></g><g clip-path="url(#b010e48af9)"><g clip-path="url(#3fb4cfd286)"><path fill="#f9d7a9" d="M 47.355469 60.867188 L 47.304688 65.71875 L 42.453125 65.667969 L 42.507812 60.816406 Z M 47.355469 60.867188 " fill-opacity="1" fill-rule="nonzero"/></g></g><g clip-path="url(#9ad3a69ad5)"><g clip-path="url(#08adae76ee)"><path fill="#f9d7a9" d="M 37.777344 60.867188 L 37.722656 65.71875 L 32.871094 65.667969 L 32.925781 60.816406 Z M 37.777344 60.867188 " fill-opacity="1" fill-rule="nonzero"/></g></g><g clip-path="url(#2f0655e43b)"><g clip-path="url(#76162e432a)"><path fill="#f9d7a9" d="M 52.109375 56.207031 L 47.257812 56.152344 L 47.308594 51.304688 L 52.160156 51.355469 Z M 52.109375 56.207031 " fill-opacity="1" fill-rule="nonzero"/></g></g><g clip-path="url(#74aa1abb0f)"><g clip-path="url(#33a4ec7449)"><path fill="#f9d7a9" d="M 52.109375 60.910156 L 47.257812 60.859375 L 47.308594 56.007812 L 52.160156 56.058594 Z M 52.109375 60.910156 " fill-opacity="1" fill-rule="nonzero"/></g></g><g clip-path="url(#afc9de5265)"><g clip-path="url(#f761e3dadd)"><path fill="#f9d7a9" d="M 52.109375 51.515625 L 47.257812 51.460938 L 47.308594 46.609375 L 52.160156 46.664062 Z M 52.109375 51.515625 " fill-opacity="1" fill-rule="nonzero"/></g></g><g clip-path="url(#add228a0aa)"><g clip-path="url(#919fc740a2)"><path fill="#f9d7a9" d="M 47.269531 37.367188 L 47.320312 32.515625 L 52.171875 32.566406 L 52.121094 37.417969 Z M 47.269531 37.367188 " fill-opacity="1" fill-rule="nonzero"/></g></g><g clip-path="url(#87f73649f4)"><g clip-path="url(#6808ad4f00)"><path fill="#f9d7a9" d="M 47.269531 42.15625 L 47.320312 37.304688 L 52.171875 37.355469 L 52.121094 42.207031 Z M 47.269531 42.15625 " fill-opacity="1" fill-rule="nonzero"/></g></g><g clip-path="url(#311f3383fd)"><g clip-path="url(#619ad35593)"><path fill="#f9d7a9" d="M 47.269531 46.757812 L 47.320312 41.90625 L 52.171875 41.960938 L 52.121094 46.808594 Z M 47.269531 46.757812 " fill-opacity="1" fill-rule="nonzero"/></g></g><g clip-path="url(#b3e8f5a13e)"><path fill="#dbb588" d="M 19 56.042969 L 23.851562 56.042969 L 23.851562 60.894531 L 19 60.894531 Z M 19 56.042969 " fill-opacity="1" fill-rule="nonzero"/></g><g clip-path="url(#5705885b70)"><path fill="#ab8a64" d="M 18.925781 60.699219 L 23.777344 60.699219 L 23.777344 65.550781 L 18.925781 65.550781 Z M 18.925781 60.699219 " fill-opacity="1" fill-rule="nonzero"/></g><g clip-path="url(#d71885df03)"><path fill="#dbb588" d="M 19 51.339844 L 23.851562 51.339844 L 23.851562 56.191406 L 19 56.191406 Z M 19 51.339844 " fill-opacity="1" fill-rule="nonzero"/></g><g clip-path="url(#378c193eb4)"><path fill="#dbb588" d="M 19 46.648438 L 23.851562 46.648438 L 23.851562 51.5 L 19 51.5 Z M 19 46.648438 " fill-opacity="1" fill-rule="nonzero"/></g><g clip-path="url(#f298e31792)"><path fill="#000000" d="M 23.511719 41.945312 L 28.363281 41.945312 L 28.363281 46.796875 L 23.511719 46.796875 Z M 23.511719 41.945312 " fill-opacity="1" fill-rule="nonzero"/></g><g clip-path="url(#eeb79f5546)"><path fill="#000000" d="M 23.539062 46.648438 L 28.390625 46.648438 L 28.390625 51.5 L 23.539062 51.5 Z M 23.539062 46.648438 " fill-opacity="1" fill-rule="nonzero"/></g><g clip-path="url(#9c18005064)"><path fill="#dbb588" d="M 52.171875 56.042969 L 57.023438 56.042969 L 57.023438 60.894531 L 52.171875 60.894531 Z M 52.171875 56.042969 " fill-opacity="1" fill-rule="nonzero"/></g><g clip-path="url(#4686ea237c)"><path fill="#dbb588" d="M 52.171875 51.339844 L 57.023438 51.339844 L 57.023438 56.191406 L 52.171875 56.191406 Z M 52.171875 51.339844 " fill-opacity="1" fill-rule="nonzero"/></g><g clip-path="url(#6a95da92fc)"><path fill="#dbb588" d="M 52.171875 46.648438 L 57.023438 46.648438 L 57.023438 51.5 L 52.171875 51.5 Z M 52.171875 46.648438 " fill-opacity="1" fill-rule="nonzero"/></g><g clip-path="url(#8eacd08881)"><g clip-path="url(#f7be242522)"><path fill="#dbb588" d="M 37.660156 70.347656 L 37.714844 65.496094 L 42.566406 65.550781 L 42.511719 70.402344 Z M 37.660156 70.347656 " fill-opacity="1" fill-rule="nonzero"/></g></g><g clip-path="url(#e94b693776)"><g clip-path="url(#ed811c7b24)"><path fill="#dbb588" d="M 32.882812 70.347656 L 32.9375 65.496094 L 37.789062 65.550781 L 37.734375 70.402344 Z M 32.882812 70.347656 " fill-opacity="1" fill-rule="nonzero"/></g></g><g clip-path="url(#db0a22c879)"><path fill="#7d3203" d="M 28.234375 65.535156 L 33.082031 65.535156 L 33.082031 70.386719 L 28.234375 70.386719 Z M 28.234375 65.535156 " fill-opacity="1" fill-rule="nonzero"/></g><g clip-path="url(#49b239c4f8)"><path fill="#7d3203" d="M 42.492188 65.535156 L 47.34375 65.535156 L 47.34375 70.386719 L 42.492188 70.386719 Z M 42.492188 65.535156 " fill-opacity="1" fill-rule="nonzero"/></g><g clip-path="url(#aa366c77ce)"><path fill="#004aad" d="M 52.042969 32.554688 L 56.890625 32.554688 L 56.890625 37.40625 L 52.042969 37.40625 Z M 52.042969 32.554688 " fill-opacity="1" fill-rule="nonzero"/></g><g clip-path="url(#0c91f68710)"><path fill="#004aad" d="M 52.042969 37.339844 L 56.890625 37.339844 L 56.890625 42.191406 L 52.042969 42.191406 Z M 52.042969 37.339844 " fill-opacity="1" fill-rule="nonzero"/></g><g clip-path="url(#7e39cd6222)"><path fill="#004aad" d="M 52.042969 41.945312 L 56.890625 41.945312 L 56.890625 46.796875 L 52.042969 46.796875 Z M 52.042969 41.945312 " fill-opacity="1" fill-rule="nonzero"/></g><g clip-path="url(#6649cc1ed3)"><path fill="#004aad" d="M 47.292969 27.972656 L 52.144531 27.972656 L 52.144531 32.824219 L 47.292969 32.824219 Z M 47.292969 27.972656 " fill-opacity="1" fill-rule="nonzero"/></g><g clip-path="url(#60f78b37e9)"><path fill="#004aad" d="M 51.960938 27.972656 L 56.8125 27.972656 L 56.8125 32.824219 L 51.960938 32.824219 Z M 51.960938 27.972656 " fill-opacity="1" fill-rule="nonzero"/></g><g clip-path="url(#22eb19c522)"><path fill="#004aad" d="M 51.960938 14.054688 L 56.8125 14.054688 L 56.8125 18.90625 L 51.960938 18.90625 Z M 51.960938 14.054688 " fill-opacity="1" fill-rule="nonzero"/></g><g clip-path="url(#59e66dbace)"><path fill="#004aad" d="M 51.960938 18.695312 L 56.8125 18.695312 L 56.8125 23.546875 L 51.960938 23.546875 Z M 51.960938 18.695312 " fill-opacity="1" fill-rule="nonzero"/></g><g clip-path="url(#880ab0c8ca)"><path fill="#004aad" d="M 51.960938 23.335938 L 56.8125 23.335938 L 56.8125 28.1875 L 51.960938 28.1875 Z M 51.960938 23.335938 " fill-opacity="1" fill-rule="nonzero"/></g><g clip-path="url(#e14361d83d)"><path fill="#000000" d="M 56.699219 14.054688 L 61.550781 14.054688 L 61.550781 18.90625 L 56.699219 18.90625 Z M 56.699219 14.054688 " fill-opacity="1" fill-rule="nonzero"/></g><g clip-path="url(#704a611224)"><path fill="#004aad" d="M 56.839844 32.554688 L 61.691406 32.554688 L 61.691406 37.40625 L 56.839844 37.40625 Z M 56.839844 32.554688 " fill-opacity="1" fill-rule="nonzero"/></g><g clip-path="url(#6f0eedf729)"><path fill="#004aad" d="M 56.839844 37.339844 L 61.691406 37.339844 L 61.691406 42.191406 L 56.839844 42.191406 Z M 56.839844 37.339844 " fill-opacity="1" fill-rule="nonzero"/></g><g clip-path="url(#35cfd12e92)"><path fill="#004aad" d="M 56.839844 41.945312 L 61.691406 41.945312 L 61.691406 46.796875 L 56.839844 46.796875 Z M 56.839844 41.945312 " fill-opacity="1" fill-rule="nonzero"/></g><g clip-path="url(#53c5e97f03)"><path fill="#004aad" d="M 56.699219 27.972656 L 61.550781 27.972656 L 61.550781 32.824219 L 56.699219 32.824219 Z M 56.699219 27.972656 " fill-opacity="1" fill-rule="nonzero"/></g><g clip-path="url(#c614ec8872)"><path fill="#004aad" d="M 56.699219 18.695312 L 61.550781 18.695312 L 61.550781 23.546875 L 56.699219 23.546875 Z M 56.699219 18.695312 " fill-opacity="1" fill-rule="nonzero"/></g><g clip-path="url(#17e5b4f917)"><path fill="#004aad" d="M 56.699219 23.335938 L 61.550781 23.335938 L 61.550781 28.1875 L 56.699219 28.1875 Z M 56.699219 23.335938 " fill-opacity="1" fill-rule="nonzero"/></g><g clip-path="url(#edfa386f53)"><path fill="#004aad" d="M 61.117188 32.554688 L 65.96875 32.554688 L 65.96875 37.40625 L 61.117188 37.40625 Z M 61.117188 32.554688 " fill-opacity="1" fill-rule="nonzero"/></g><g clip-path="url(#9105f46171)"><path fill="#004aad" d="M 61.117188 37.339844 L 65.96875 37.339844 L 65.96875 42.191406 L 61.117188 42.191406 Z M 61.117188 37.339844 " fill-opacity="1" fill-rule="nonzero"/></g><g clip-path="url(#7546de6cd5)"><path fill="#004aad" d="M 61.117188 41.945312 L 65.96875 41.945312 L 65.96875 46.796875 L 61.117188 46.796875 Z M 61.117188 41.945312 " fill-opacity="1" fill-rule="nonzero"/></g><g clip-path="url(#911327a804)"><path fill="#004aad" d="M 61.117188 27.972656 L 65.96875 27.972656 L 65.96875 32.824219 L 61.117188 32.824219 Z M 61.117188 27.972656 " fill-opacity="1" fill-rule="nonzero"/></g><g clip-path="url(#991399775e)"><path fill="#004aad" d="M 61.117188 23.335938 L 65.96875 23.335938 L 65.96875 28.1875 L 61.117188 28.1875 Z M 61.117188 23.335938 " fill-opacity="1" fill-rule="nonzero"/></g><g clip-path="url(#f538d0e1b9)"><path fill="#004aad" d="M 56.972656 51.339844 L 61.539062 51.339844 L 61.539062 56.195312 L 56.972656 56.195312 Z M 56.972656 51.339844 " fill-opacity="1" fill-rule="nonzero"/></g><g clip-path="url(#488771a04b)"><path fill="#004aad" d="M 56.972656 56.042969 L 61.539062 56.042969 L 61.539062 60.898438 L 56.972656 60.898438 Z M 56.972656 56.042969 " fill-opacity="1" fill-rule="nonzero"/></g><g clip-path="url(#f8f819d7b9)"><path fill="#004aad" d="M 56.972656 60.84375 L 61.539062 60.84375 L 61.539062 65.695312 L 56.972656 65.695312 Z M 56.972656 60.84375 " fill-opacity="1" fill-rule="nonzero"/></g><g clip-path="url(#55e5efd657)"><path fill="#004aad" d="M 56.972656 46.648438 L 61.824219 46.648438 L 61.824219 51.5 L 56.972656 51.5 Z M 56.972656 46.648438 " fill-opacity="1" fill-rule="nonzero"/></g><g clip-path="url(#422529d8c9)"><path fill="#004aad" d="M 61.40625 51.339844 L 65.972656 51.339844 L 65.972656 56.195312 L 61.40625 56.195312 Z M 61.40625 51.339844 " fill-opacity="1" fill-rule="nonzero"/></g><g clip-path="url(#1f108b587b)"><path fill="#004aad" d="M 61.40625 56.042969 L 65.972656 56.042969 L 65.972656 60.898438 L 61.40625 60.898438 Z M 61.40625 56.042969 " fill-opacity="1" fill-rule="nonzero"/></g><g clip-path="url(#1de5a6b431)"><path fill="#004aad" d="M 61.40625 60.84375 L 65.972656 60.84375 L 65.972656 65.695312 L 61.40625 65.695312 Z M 61.40625 60.84375 " fill-opacity="1" fill-rule="nonzero"/></g><g clip-path="url(#7231552b7c)"><path fill="#004aad" d="M 61.25 46.648438 L 66.101562 46.648438 L 66.101562 51.5 L 61.25 51.5 Z M 61.25 46.648438 " fill-opacity="1" fill-rule="nonzero"/></g><g clip-path="url(#811a9b4747)"><path fill="#004aad" d="M 65.582031 60.84375 L 70.148438 60.84375 L 70.148438 65.695312 L 65.582031 65.695312 Z M 65.582031 60.84375 " fill-opacity="1" fill-rule="nonzero"/></g><g clip-path="url(#e1ce40f8ed)"><path fill="#004aad" d="M 52.171875 60.84375 L 57.023438 60.84375 L 57.023438 65.695312 L 52.171875 65.695312 Z M 52.171875 60.84375 " fill-opacity="1" fill-rule="nonzero"/></g><g clip-path="url(#b345a5ee7e)"><path fill="#000000" d="M 61.550781 18.90625 L 66.402344 18.90625 L 66.402344 23.757812 L 61.550781 23.757812 Z M 61.550781 18.90625 " fill-opacity="1" fill-rule="nonzero"/></g><g clip-path="url(#cab63d51d5)"><path fill="#000000" d="M 61.617188 23.394531 L 66.46875 23.394531 L 66.46875 28.246094 L 61.617188 28.246094 Z M 61.617188 23.394531 " fill-opacity="1" fill-rule="nonzero"/></g><g clip-path="url(#5a6c925293)"><path fill="#000000" d="M 61.617188 27.976562 L 66.46875 27.976562 L 66.46875 32.828125 L 61.617188 32.828125 Z M 61.617188 27.976562 " fill-opacity="1" fill-rule="nonzero"/></g><g clip-path="url(#85c0b7e8b0)"><path fill="#000000" d="M 61.617188 32.761719 L 66.46875 32.761719 L 66.46875 37.613281 L 61.617188 37.613281 Z M 61.617188 32.761719 " fill-opacity="1" fill-rule="nonzero"/></g><g clip-path="url(#e133eca720)"><path fill="#000000" d="M 65.917969 37.613281 L 70.769531 37.613281 L 70.769531 42.464844 L 65.917969 42.464844 Z M 65.917969 37.613281 " fill-opacity="1" fill-rule="nonzero"/></g><g clip-path="url(#6a25e164b8)"><path fill="#004aad" d="M 65.917969 56.03125 L 70.769531 56.03125 L 70.769531 60.882812 L 65.917969 60.882812 Z M 65.917969 56.03125 " fill-opacity="1" fill-rule="nonzero"/></g><g clip-path="url(#32ab6baa0c)"><path fill="#004aad" d="M 65.917969 51.601562 L 70.769531 51.601562 L 70.769531 56.453125 L 65.917969 56.453125 Z M 65.917969 51.601562 " fill-opacity="1" fill-rule="nonzero"/></g><g clip-path="url(#1806bd28f6)"><path fill="#004aad" d="M 65.917969 46.894531 L 70.769531 46.894531 L 70.769531 51.746094 L 65.917969 51.746094 Z M 65.917969 46.894531 " fill-opacity="1" fill-rule="nonzero"/></g><g clip-path="url(#02b507ad6b)"><path fill="#000000" d="M 65.917969 42.464844 L 70.769531 42.464844 L 70.769531 47.316406 L 65.917969 47.316406 Z M 65.917969 42.464844 " fill-opacity="1" fill-rule="nonzero"/></g><g clip-path="url(#5dc7c3da2e)"><path fill="#000000" d="M 65.917969 46.957031 L 70.769531 46.957031 L 70.769531 51.808594 L 65.917969 51.808594 Z M 65.917969 46.957031 " fill-opacity="1" fill-rule="nonzero"/></g><g clip-path="url(#ab09788785)"><path fill="#000000" d="M 65.917969 51.601562 L 70.769531 51.601562 L 70.769531 56.453125 L 65.917969 56.453125 Z M 65.917969 51.601562 " fill-opacity="1" fill-rule="nonzero"/></g><g clip-path="url(#da5a954f13)"><path fill="#000000" d="M 65.917969 56.242188 L 70.769531 56.242188 L 70.769531 61.09375 L 65.917969 61.09375 Z M 65.917969 56.242188 " fill-opacity="1" fill-rule="nonzero"/></g><g clip-path="url(#5701e617b2)"><path fill="#000000" d="M 70.148438 61.09375 L 75 61.09375 L 75 65.945312 L 70.148438 65.945312 Z M 70.148438 61.09375 " fill-opacity="1" fill-rule="nonzero"/></g><g clip-path="url(#6108a3c190)"><path fill="#000000" d="M 46.992188 65.535156 L 51.84375 65.535156 L 51.84375 70.386719 L 46.992188 70.386719 Z M 46.992188 65.535156 " fill-opacity="1" fill-rule="nonzero"/></g><g clip-path="url(#a1392d097d)"><path fill="#000000" d="M 56.574219 65.535156 L 61.425781 65.535156 L 61.425781 70.386719 L 56.574219 70.386719 Z M 56.574219 65.535156 " fill-opacity="1" fill-rule="nonzero"/></g><g clip-path="url(#93fc7e117b)"><path fill="#000000" d="M 51.769531 65.535156 L 56.621094 65.535156 L 56.621094 70.386719 L 51.769531 70.386719 Z M 51.769531 65.535156 " fill-opacity="1" fill-rule="nonzero"/></g><g clip-path="url(#7c0fbf221a)"><path fill="#000000" d="M 65.582031 65.535156 L 70.433594 65.535156 L 70.433594 70.386719 L 65.582031 70.386719 Z M 65.582031 65.535156 " fill-opacity="1" fill-rule="nonzero"/></g><g clip-path="url(#26448a64b6)"><path fill="#000000" d="M 61.25 65.535156 L 66.101562 65.535156 L 66.101562 70.386719 L 61.25 70.386719 Z M 61.25 65.535156 " fill-opacity="1" fill-rule="nonzero"/></g><g clip-path="url(#b05420280a)"><path fill="#7d3203" d="M 23.539062 70.128906 L 28.390625 70.128906 L 28.390625 74.980469 L 23.539062 74.980469 Z M 23.539062 70.128906 " fill-opacity="1" fill-rule="nonzero"/></g><g clip-path="url(#a1abecd64d)"><path fill="#7d3203" d="M 19 70.128906 L 23.851562 70.128906 L 23.851562 74.980469 L 19 74.980469 Z M 19 70.128906 " fill-opacity="1" fill-rule="nonzero"/></g><g clip-path="url(#90ad600408)"><path fill="#7d3203" d="M 28.234375 70.128906 L 33.082031 70.128906 L 33.082031 74.980469 L 28.234375 74.980469 Z M 28.234375 70.128906 " fill-opacity="1" fill-rule="nonzero"/></g><g clip-path="url(#0b9b17239e)"><path fill="#7d3203" d="M 37.359375 70.148438 L 42.210938 70.148438 L 42.210938 75 L 37.359375 75 Z M 37.359375 70.148438 " fill-opacity="1" fill-rule="nonzero"/></g><g clip-path="url(#fce5a1cea4)"><path fill="#7d3203" d="M 32.820312 70.148438 L 37.671875 70.148438 L 37.671875 75 L 32.820312 75 Z M 32.820312 70.148438 " fill-opacity="1" fill-rule="nonzero"/></g><g clip-path="url(#7f54d0b4b3)"><path fill="#7d3203" d="M 42.050781 70.148438 L 46.902344 70.148438 L 46.902344 75 L 42.050781 75 Z M 42.050781 70.148438 " fill-opacity="1" fill-rule="nonzero"/></g><g clip-path="url(#f6cbd08dac)"><path fill="#7d3203" d="M 46.847656 70.148438 L 51.699219 70.148438 L 51.699219 75 L 46.847656 75 Z M 46.847656 70.148438 " fill-opacity="1" fill-rule="nonzero"/></g><g clip-path="url(#d8c4c9e55f)"><path fill="#7d3203" d="M 51.539062 70.148438 L 56.390625 70.148438 L 56.390625 75 L 51.539062 75 Z M 51.539062 70.148438 " fill-opacity="1" fill-rule="nonzero"/></g></svg>