<svg xmlns="http://www.w3.org/2000/svg" xmlns:xlink="http://www.w3.org/1999/xlink" width="100" zoomAndPan="magnify" viewBox="0 0 75 74.999997" height="100" preserveAspectRatio="xMidYMid meet" version="1.0"><defs><clipPath id="79ccf846a6"><path d="M 3.75 0.515625 L 71.25 0.515625 L 71.25 74.765625 L 3.75 74.765625 Z M 3.75 0.515625 " clip-rule="nonzero"/></clipPath></defs><g clip-path="url(#79ccf846a6)"><path fill="#000000" d="M 6.027344 67.734375 C 6.027344 67.003906 6.027344 66.378906 6.027344 65.621094 C 5.269531 65.585938 4.578125 65.546875 3.785156 65.507812 C 3.785156 61.664062 3.785156 57.847656 3.785156 53.96875 C 4.511719 53.929688 5.207031 53.886719 6 53.84375 C 6 51.566406 6 49.359375 6 47.035156 C 6.789062 46.992188 7.480469 46.953125 8.339844 46.910156 C 8.339844 43.859375 8.339844 40.832031 8.339844 37.738281 C 9.15625 37.6875 9.816406 37.648438 10.644531 37.601562 C 10.644531 36.085938 10.644531 34.609375 10.644531 33.039062 C 11.476562 33.039062 12.136719 33.039062 12.96875 33.039062 C 12.96875 31.46875 12.96875 29.988281 12.96875 28.449219 C 13.835938 28.394531 14.53125 28.347656 15.289062 28.300781 C 15.332031 27.542969 15.371094 26.851562 15.417969 26.066406 C 16.148438 26.066406 16.8125 26.066406 17.648438 26.066406 C 17.648438 17.511719 17.648438 9.046875 17.648438 0.519531 C 20.066406 0.519531 22.316406 0.519531 24.660156 0.519531 C 24.660156 2.03125 24.660156 3.488281 24.660156 5.050781 C 25.441406 5.09375 26.136719 5.128906 26.992188 5.175781 C 26.992188 8.222656 26.992188 11.253906 26.992188 14.386719 C 27.8125 14.386719 28.472656 14.386719 29.289062 14.386719 C 29.289062 17.515625 29.289062 20.546875 29.289062 23.640625 C 30.109375 23.640625 30.773438 23.640625 31.589844 23.640625 C 31.589844 20.632812 31.589844 17.605469 31.589844 14.464844 C 32.425781 14.425781 33.125 14.394531 33.980469 14.355469 C 33.980469 12.851562 33.980469 11.371094 33.980469 9.84375 C 34.800781 9.796875 35.464844 9.761719 36.265625 9.71875 C 36.300781 8.996094 36.339844 8.304688 36.382812 7.53125 C 38.644531 7.53125 40.894531 7.53125 43.25 7.53125 C 43.289062 8.222656 43.332031 8.917969 43.378906 9.699219 C 44.101562 9.746094 44.804688 9.796875 45.621094 9.851562 C 45.621094 11.332031 45.621094 12.78125 45.621094 14.316406 C 48.78125 14.316406 51.816406 14.316406 54.925781 14.316406 C 54.964844 13.582031 55.003906 12.886719 55.042969 12.121094 C 55.777344 12.085938 56.441406 12.054688 57.25 12.015625 C 57.285156 11.304688 57.320312 10.617188 57.359375 9.851562 C 59.648438 9.851562 61.898438 9.851562 64.289062 9.851562 C 64.289062 15.226562 64.289062 20.5625 64.289062 25.972656 C 65.125 26.019531 65.820312 26.054688 66.5625 26.09375 C 66.5625 31.492188 66.5625 36.832031 66.5625 42.257812 C 65.847656 42.257812 65.179688 42.257812 64.382812 42.257812 C 64.339844 43.027344 64.304688 43.722656 64.261719 44.5625 C 63.53125 44.597656 62.804688 44.636719 62.027344 44.679688 C 62.027344 45.449219 62.027344 46.140625 62.027344 46.898438 C 62.789062 46.945312 63.484375 46.988281 64.304688 47.039062 C 64.304688 48.554688 64.304688 50.003906 64.304688 51.519531 C 65.085938 51.558594 65.75 51.59375 66.578125 51.632812 C 66.578125 53.140625 66.578125 54.621094 66.578125 56.191406 C 67.429688 56.238281 68.121094 56.277344 68.933594 56.328125 C 68.933594 57.835938 68.933594 59.289062 68.933594 60.859375 C 69.753906 60.859375 70.449219 60.859375 71.21875 60.859375 C 71.21875 62.46875 71.21875 63.949219 71.21875 65.5 C 70.460938 65.542969 69.761719 65.578125 68.988281 65.621094 C 68.953125 66.351562 68.921875 67.011719 68.886719 67.753906 C 67.390625 67.753906 65.941406 67.753906 64.386719 67.753906 C 64.335938 67.066406 64.289062 66.378906 64.230469 65.578125 C 62.714844 65.578125 61.257812 65.578125 59.675781 65.578125 C 59.636719 64.777344 59.601562 64.085938 59.558594 63.261719 C 58.84375 63.261719 58.152344 63.261719 57.382812 63.261719 C 57.335938 62.433594 57.296875 61.734375 57.25 60.90625 C 56.507812 60.90625 55.820312 60.90625 55.050781 60.90625 C 55.011719 60.113281 54.980469 59.453125 54.941406 58.675781 C 52.679688 58.675781 50.4375 58.675781 48.046875 58.675781 C 48 59.3125 47.953125 60.007812 47.890625 60.839844 C 45.644531 60.839844 43.402344 60.839844 41 60.839844 C 41 62.457031 41 63.941406 41 65.53125 C 40.1875 65.53125 39.527344 65.53125 38.707031 65.53125 C 38.707031 67.871094 38.707031 70.105469 38.707031 72.480469 C 37.859375 72.480469 37.164062 72.480469 36.40625 72.480469 C 36.355469 73.308594 36.3125 74 36.265625 74.773438 C 33.960938 74.773438 31.722656 74.773438 29.398438 74.773438 C 29.351562 74.027344 29.304688 73.332031 29.253906 72.535156 C 28.539062 72.535156 27.878906 72.535156 27.050781 72.535156 C 27.050781 67.863281 27.050781 63.292969 27.050781 58.644531 C 26.191406 58.589844 25.496094 58.546875 24.703125 58.496094 C 24.703125 57.785156 24.703125 57.125 24.703125 56.308594 C 23.125 56.308594 21.640625 56.308594 20.074219 56.308594 C 20.023438 55.464844 19.980469 54.765625 19.933594 53.992188 C 19.210938 53.992188 18.515625 53.992188 17.75 53.992188 C 17.699219 54.71875 17.65625 55.414062 17.605469 56.191406 C 16.863281 56.238281 16.171875 56.285156 15.355469 56.335938 C 15.355469 57.839844 15.355469 59.289062 15.355469 60.808594 C 14.539062 60.855469 13.84375 60.898438 13.042969 60.945312 C 13.042969 62.457031 13.042969 63.90625 13.042969 65.492188 C 12.25 65.535156 11.554688 65.574219 10.761719 65.621094 C 10.722656 66.3125 10.683594 66.972656 10.640625 67.738281 C 9.148438 67.734375 7.667969 67.734375 6.027344 67.734375 Z M 59.546875 32.925781 C 59.546875 30.628906 59.546875 28.402344 59.546875 26.105469 C 58.792969 26.105469 58.105469 26.105469 57.367188 26.105469 C 57.367188 28.402344 57.367188 30.632812 57.367188 32.925781 C 58.109375 32.925781 58.796875 32.925781 59.546875 32.925781 Z M 45.726562 32.917969 C 46.535156 32.917969 47.195312 32.917969 47.878906 32.917969 C 47.878906 30.609375 47.878906 28.378906 47.878906 26.132812 C 47.101562 26.132812 46.414062 26.132812 45.726562 26.132812 C 45.726562 28.4375 45.726562 30.644531 45.726562 32.917969 Z M 45.726562 32.917969 " fill-opacity="1" fill-rule="nonzero"/></g></svg>