<svg xmlns="http://www.w3.org/2000/svg" xmlns:xlink="http://www.w3.org/1999/xlink" width="100" zoomAndPan="magnify" viewBox="0 0 75 74.999997" height="100" preserveAspectRatio="xMidYMid meet" version="1.0"><defs><clipPath id="30120c84a0"><path d="M 0 9.410156 L 75 9.410156 L 75 65.589844 L 0 65.589844 Z M 0 9.410156 " clip-rule="nonzero"/></clipPath></defs><g clip-path="url(#30120c84a0)"><path fill="#ff3643" d="M 34.378906 12.53125 L 31.257812 12.53125 L 31.257812 18.773438 L 28.136719 18.773438 L 28.136719 21.894531 L 25.015625 21.894531 L 25.015625 28.136719 L 21.894531 28.136719 L 21.894531 31.257812 L 18.773438 31.257812 L 18.773438 37.5 L 15.652344 37.5 L 15.652344 40.621094 L 12.53125 40.621094 L 12.53125 46.863281 L 9.410156 46.863281 L 9.410156 49.984375 L 6.289062 49.984375 L 6.289062 56.226562 L 3.167969 56.226562 L 3.167969 59.347656 L 0.046875 59.347656 L 0.046875 65.589844 L 74.953125 65.589844 L 74.953125 59.347656 L 71.832031 59.347656 L 71.832031 56.226562 L 68.710938 56.226562 L 68.710938 49.984375 L 65.589844 49.984375 L 65.589844 46.863281 L 62.46875 46.863281 L 62.46875 40.621094 L 59.347656 40.621094 L 59.347656 37.5 L 56.226562 37.5 L 56.226562 31.257812 L 53.105469 31.257812 L 53.105469 28.136719 L 49.984375 28.136719 L 49.984375 21.894531 L 46.863281 21.894531 L 46.863281 18.773438 L 43.742188 18.773438 L 43.742188 12.53125 L 40.621094 12.53125 L 40.621094 9.410156 L 34.378906 9.410156 Z M 34.378906 12.53125 " fill-opacity="1" fill-rule="nonzero"/></g></svg>